<svg xmlns:xlink="http://www.w3.org/1999/xlink" xmlns="http://www.w3.org/2000/svg" id="logo_art" viewBox="0 0 855.61 199.98" width="855.61"  height="199.98" ><defs><style>.cls-1{fill:#fcb538;}.cls-2{fill:#403343;}</style></defs><g><path class="cls-2" d="M261.99,73.39l38.8,105.51h-24.83l-7.64-21.16h-41.44l-7.64,21.16h-24.25l38.94-105.51h28.07Zm-27.77,64.07h26.6l-13.37-36.88-13.23,36.88Z"/><path class="cls-2" d="M337.82,161.12c7.64,0,12.2-5.44,13.81-12.78l20.43,7.94c-3.23,12.93-15.43,24.25-34.39,24.25-22.92,0-39.09-16.46-39.09-40.26s16.16-40.41,39.09-40.41c18.81,0,30.86,11.17,34.24,23.95l-20.28,8.23c-1.62-7.2-6.17-12.78-13.81-12.78-9.84,0-16.02,7.79-16.02,21.01s6.17,20.87,16.02,20.87Z"/><path class="cls-2" d="M415.56,161.12c7.64,0,12.2-5.44,13.81-12.78l20.43,7.94c-3.23,12.93-15.43,24.25-34.39,24.25-22.92,0-39.09-16.46-39.09-40.26s16.16-40.41,39.09-40.41c18.81,0,30.86,11.17,34.24,23.95l-20.28,8.23c-1.62-7.2-6.17-12.78-13.81-12.78-9.84,0-16.02,7.79-16.02,21.01s6.17,20.87,16.02,20.87Z"/><path class="cls-2" d="M493.15,180.52c-22.93,0-38.8-16.16-38.8-40.26s15.87-40.41,38.8-40.41,38.79,16.31,38.79,40.41-16.02,40.26-38.79,40.26Zm0-19.1c9.4,0,15.43-7.64,15.43-21.16s-6.03-21.16-15.43-21.16-15.43,7.64-15.43,21.16,6.03,21.16,15.43,21.16Z"/><path class="cls-2" d="M588.96,123.94c-2.5-.44-4.26-.59-6.91-.59-10.14,0-18.22,6.32-18.22,17.49v38.06h-23.51V101.46h23.51v10.14c3.53-6.17,11.02-10.58,19.98-10.58,2.21,0,3.67,.15,5.14,.29v22.63Z"/><path class="cls-2" d="M592.2,140.26c0-22.19,12.05-40.41,33.36-40.41,9.26,0,16.6,3.82,21.01,9.4v-35.86h23.51v105.51h-23.51v-7.64c-4.41,5.44-11.76,9.26-21.01,9.26-21.31,0-33.36-18.22-33.36-40.26Zm39.38-20.28c-10.29,0-15.72,8.38-15.72,20.28s5.44,20.28,15.72,20.28c8.82,0,15.14-6.61,15.14-18.22v-4.11c0-11.76-6.32-18.22-15.14-18.22Z"/><path class="cls-2" d="M678.17,140.11c0-22.92,16.46-40.26,38.8-40.26,23.51,0,36.3,17.34,36.3,39.23v6.17h-52.46c1.62,10.58,7.94,16.6,16.9,16.6,7.35,0,13.08-3.53,15.28-10.28l19.69,6.32c-5.73,14.84-19.84,22.63-35.27,22.63-23.37,0-39.24-16.31-39.24-40.41Zm23.37-9.26h28.51c-.15-6.91-4.7-12.78-13.37-12.78-7.2,0-12.78,4.26-15.14,12.78Z"/><path class="cls-2" d="M760.17,140.26c0-22.19,12.05-40.41,33.36-40.41,9.26,0,16.6,3.82,21.01,9.4v-35.86h23.51v105.51h-23.51v-7.64c-4.41,5.44-11.76,9.26-21.01,9.26-21.31,0-33.36-18.22-33.36-40.26Zm39.38-20.28c-10.29,0-15.72,8.38-15.72,20.28s5.44,20.28,15.72,20.28c8.82,0,15.14-6.61,15.14-18.22v-4.11c0-11.76-6.32-18.22-15.14-18.22Z"/></g><g><path class="cls-1" d="M92.57,54.71c-22.94,0-41.6,18.66-41.6,41.6s18.66,41.6,41.6,41.6h41.6v-41.6c0-22.94-18.66-41.6-41.6-41.6Z"/><path class="cls-2" d="M92.57,148.81c-28.95,0-52.5-23.55-52.5-52.5s23.55-52.5,52.5-52.5,51.5,22.58,52.46,50.7c.01,.15,.05,.3,.05,.45v42.95h30.55v-41.62c0-45.87-37.18-83.05-83.05-83.05S9.51,50.42,9.51,96.28s37.18,83.05,83.05,83.05h41.6v-30.52h-41.6Z"/><path class="cls-2" d="M145.07,148.81v30.52h30.55v-30.52h-30.55Z"/></g></svg>