<?xml version="1.0" encoding="UTF-8"?>
<svg width="224px" height="28px" viewBox="0 0 224 28" version="1.1" xmlns="http://www.w3.org/2000/svg" xmlns:xlink="http://www.w3.org/1999/xlink">
    <!-- Generator: Sketch 46.2 (44496) - http://www.bohemiancoding.com/sketch -->
    <title>CareerVillage</title>
    <desc>Created with Sketch.</desc>
    <defs></defs>
    <g id="Site" stroke="none" stroke-width="1" fill="none" fill-rule="evenodd">
        <g id="Index-v2" transform="translate(-188.000000, -1348.000000)">
            <g id="Client-Block" transform="translate(188.000000, 1207.000000)">
                <g id="CareerVillage" transform="translate(0.000000, 141.000000)">
                    <path d="M217.751145,12.9839695 C217.276845,12.9839695 216.832188,13.043257 216.417176,13.2211196 C216.002163,13.3989822 215.676081,13.6064885 215.379644,13.9029262 C215.083206,14.1993639 214.8757,14.5254453 214.697837,14.940458 C214.519975,15.3554707 214.460687,15.8001272 214.460687,16.2744275 C214.460687,16.719084 214.519975,17.1340967 214.697837,17.5194656 C214.8757,17.9048346 215.083206,18.230916 215.379644,18.5273537 C215.676081,18.8237913 216.031807,19.0609415 216.417176,19.2091603 C216.832188,19.3870229 217.247201,19.4759542 217.721501,19.4759542 C218.225445,19.4759542 218.670102,19.3870229 219.085115,19.2091603 C219.500127,19.0312977 219.826209,18.8237913 220.122646,18.5273537 C220.419084,18.230916 220.62659,17.9048346 220.774809,17.4898219 C220.923028,17.0748092 221.011959,16.6597964 221.011959,16.1854962 C221.011959,15.2368957 220.715522,14.436514 220.15229,13.8436387 C219.559415,13.2804071 218.759033,12.9839695 217.751145,12.9839695 Z M223.620611,10.760687 L223.620611,20.8099237 C223.620611,21.8178117 223.502036,22.7071247 223.264885,23.5075064 C223.027735,24.307888 222.642366,24.9896947 222.108779,25.5529262 C221.604835,26.1161578 220.952672,26.5311705 220.181934,26.8572519 C219.381552,27.1536896 218.492239,27.3019084 217.39542,27.3019084 C216.357888,27.3019084 215.379644,27.1833333 214.490331,26.9165394 C213.601018,26.6497455 212.711705,26.1754453 211.940967,25.4936387 L213.601018,23.2407125 C214.164249,23.7446565 214.727481,24.1300254 215.320356,24.4264631 C215.913232,24.7229008 216.624682,24.8414758 217.365776,24.8414758 C218.047583,24.8414758 218.58117,24.7525445 219.055471,24.5450382 C219.500127,24.3671756 219.855852,24.1003817 220.122646,23.7743003 C220.38944,23.4778626 220.567303,23.0628499 220.685878,22.6181934 C220.804453,22.1735369 220.86374,21.6695929 220.86374,21.1063613 L220.86374,20.3059796 L220.804453,20.3059796 C220.38944,20.8395674 219.885496,21.2249364 219.233333,21.4917303 C218.551527,21.7585242 217.899364,21.906743 217.217557,21.906743 C216.387532,21.906743 215.646438,21.7585242 214.964631,21.4620865 C214.282824,21.1656489 213.719593,20.7802799 213.245293,20.2763359 C212.770992,19.7723919 212.385623,19.1795165 212.11883,18.4680662 C211.852036,17.7862595 211.733461,17.0451654 211.733461,16.2744275 C211.733461,15.4740458 211.852036,14.7033079 212.089186,13.9918575 C212.326336,13.3100509 212.682061,12.6875318 213.156361,12.153944 C213.630662,11.6203562 214.223537,11.2349873 214.8757,10.9385496 C215.557506,10.642112 216.298601,10.4938931 217.187913,10.4938931 C217.988295,10.4938931 218.699746,10.642112 219.351908,10.9385496 C220.033715,11.2349873 220.567303,11.7389313 220.952672,12.3910941 L221.011959,12.3910941 L221.011959,10.7310433 L223.620611,10.7310433 L223.620611,10.760687 L223.620611,10.760687 Z M203.759288,10.760687 L206.516158,10.760687 L206.516158,12.5096692 L206.575445,12.5096692 C206.871883,11.8575064 207.316539,11.3535623 207.879771,11.0274809 C208.443003,10.6717557 209.095165,10.4938931 209.83626,10.4938931 C210.014122,10.4938931 210.162341,10.5235369 210.340204,10.5531807 C210.518066,10.5828244 210.666285,10.6124682 210.844148,10.6717557 L210.844148,13.3396947 C210.606997,13.2804071 210.399491,13.2211196 210.162341,13.1914758 C209.954835,13.1321883 209.717684,13.1321883 209.510178,13.1321883 C208.858015,13.1321883 208.354071,13.2507634 207.968702,13.4879135 C207.583333,13.7250636 207.286896,13.9918575 207.079389,14.2882952 C206.871883,14.5847328 206.753308,14.9108142 206.664377,15.2072519 C206.605089,15.5036896 206.575445,15.7408397 206.575445,15.8890585 L206.575445,21.7881679 L203.818575,21.7881679 L203.818575,10.760687 L203.759288,10.760687 L203.759288,10.760687 Z M191.931425,16.3040712 C191.931425,16.7487277 191.990712,17.1340967 192.138931,17.5491094 C192.28715,17.9641221 192.494656,18.2902036 192.791094,18.616285 C193.087532,18.9127226 193.413613,19.1795165 193.828626,19.3573791 C194.243639,19.5352417 194.688295,19.6538168 195.192239,19.6538168 C195.696183,19.6538168 196.14084,19.5648855 196.555852,19.3573791 C196.970865,19.1795165 197.296947,18.9127226 197.593384,18.616285 C197.889822,18.3198473 198.097328,17.9344784 198.245547,17.5491094 C198.393766,17.1340967 198.453053,16.7487277 198.453053,16.3040712 C198.453053,15.8594148 198.393766,15.4740458 198.245547,15.0590331 C198.097328,14.6440204 197.889822,14.3179389 197.593384,13.9918575 C197.296947,13.6657761 196.970865,13.428626 196.555852,13.2507634 C196.14084,13.0729008 195.696183,12.9543257 195.192239,12.9543257 C194.688295,12.9543257 194.243639,13.043257 193.828626,13.2507634 C193.413613,13.4582697 193.087532,13.6954198 192.791094,13.9918575 C192.494656,14.2882952 192.28715,14.6736641 192.138931,15.0590331 C191.990712,15.444402 191.931425,15.8594148 191.931425,16.3040712 Z M189.174555,16.3040712 C189.174555,15.444402 189.352417,14.6143766 189.648855,13.93257 C189.945293,13.2211196 190.389949,12.6282443 190.923537,12.1243003 C191.457125,11.6203562 192.109288,11.2349873 192.850382,10.9385496 C193.591476,10.642112 194.362214,10.5235369 195.192239,10.5235369 C196.022265,10.5235369 196.793003,10.6717557 197.534097,10.9385496 C198.275191,11.2349873 198.89771,11.6203562 199.460941,12.1243003 C199.994529,12.6282443 200.409542,13.2507634 200.735623,13.93257 C201.032061,14.6440204 201.209924,15.444402 201.209924,16.3040712 C201.209924,17.1637405 201.032061,17.9937659 200.735623,18.6755725 C200.439186,19.3870229 199.994529,19.9798982 199.460941,20.4838422 C198.927354,20.9877863 198.275191,21.3731552 197.534097,21.6695929 C196.793003,21.9660305 196.022265,22.0846056 195.192239,22.0846056 C194.362214,22.0846056 193.591476,21.9363868 192.850382,21.6695929 C192.109288,21.3731552 191.486768,20.9877863 190.923537,20.4838422 C190.360305,19.9798982 189.974936,19.3573791 189.648855,18.6755725 C189.352417,17.9641221 189.174555,17.1637405 189.174555,16.3040712 Z M182.949364,20.1874046 C182.949364,19.7131043 183.127226,19.2684478 183.512595,18.9127226 C183.868321,18.5569975 184.312977,18.3791349 184.816921,18.3791349 C185.291221,18.3791349 185.735878,18.5569975 186.121247,18.8830789 C186.476972,19.2091603 186.684478,19.624173 186.684478,20.128117 C186.684478,20.6320611 186.506616,21.0470738 186.121247,21.402799 C185.735878,21.7585242 185.320865,21.9363868 184.816921,21.9363868 C184.579771,21.9363868 184.342621,21.8770992 184.135115,21.7881679 C183.927608,21.6992366 183.720102,21.5806616 183.571883,21.4324427 C183.39402,21.2842239 183.275445,21.1063613 183.15687,20.8692112 C182.979008,20.6913486 182.949364,20.4541985 182.949364,20.1874046 Z M177.613486,15.2072519 C177.583842,14.4068702 177.346692,13.7547074 176.842748,13.2804071 C176.338804,12.8061069 175.656997,12.5986005 174.797328,12.5986005 C173.967303,12.5986005 173.31514,12.8357506 172.84084,13.3100509 C172.366539,13.7843511 172.070102,14.4068702 171.951527,15.2368957 L177.613486,15.2072519 L177.613486,15.2072519 L177.613486,15.2072519 Z M171.951527,17.2526718 C172.040458,18.0826972 172.366539,18.7052163 172.900127,19.1795165 C173.463359,19.624173 174.115522,19.8613232 174.915903,19.8613232 C175.59771,19.8613232 176.190585,19.7131043 176.635242,19.4166667 C177.109542,19.120229 177.524555,18.7645038 177.850636,18.3494911 L179.836768,19.8316794 C179.184606,20.6320611 178.473155,21.1952926 177.672774,21.521374 C176.872392,21.8474555 176.042366,22.0253181 175.153053,22.0253181 C174.323028,22.0253181 173.55229,21.8770992 172.811196,21.6103053 C172.070102,21.3138677 171.447583,20.9284987 170.884351,20.4245547 C170.32112,19.9206107 169.935751,19.2980916 169.609669,18.616285 C169.313232,17.9048346 169.135369,17.1044529 169.135369,16.2447837 C169.135369,15.3851145 169.313232,14.5550891 169.609669,13.8732824 C169.906107,13.1618321 170.350763,12.5689567 170.884351,12.0650127 C171.417939,11.5610687 172.070102,11.1756997 172.811196,10.8792621 C173.55229,10.5828244 174.323028,10.4642494 175.153053,10.4642494 C175.923791,10.4642494 176.605598,10.6124682 177.257761,10.8792621 C177.909924,11.146056 178.443511,11.5314249 178.888168,12.035369 C179.332824,12.539313 179.68855,13.1618321 179.955344,13.9029262 C180.222137,14.6440204 180.340712,15.5036896 180.340712,16.4522901 L180.340712,17.223028 L171.951527,17.2526718 L171.951527,17.2526718 L171.951527,17.2526718 Z M160.746183,12.9839695 C160.271883,12.9839695 159.827226,13.043257 159.412214,13.2211196 C158.997201,13.3989822 158.67112,13.6064885 158.374682,13.9029262 C158.078244,14.1993639 157.870738,14.5254453 157.692875,14.940458 C157.515013,15.3554707 157.455725,15.8001272 157.455725,16.2744275 C157.455725,16.719084 157.515013,17.1340967 157.692875,17.5194656 C157.870738,17.9048346 158.078244,18.230916 158.374682,18.5273537 C158.67112,18.8237913 159.026845,19.0609415 159.412214,19.2091603 C159.827226,19.3870229 160.242239,19.4759542 160.716539,19.4759542 C161.220483,19.4759542 161.66514,19.3870229 162.080153,19.2091603 C162.495165,19.0312977 162.821247,18.8237913 163.117684,18.5273537 C163.414122,18.230916 163.621628,17.9048346 163.769847,17.4898219 C163.918066,17.0748092 164.006997,16.6597964 164.006997,16.1854962 C164.006997,15.2368957 163.71056,14.436514 163.147328,13.8436387 C162.554453,13.2804071 161.754071,12.9839695 160.746183,12.9839695 Z M166.645293,10.760687 L166.645293,20.8099237 C166.645293,21.8178117 166.526718,22.7071247 166.289567,23.5075064 C166.052417,24.307888 165.667048,24.9896947 165.133461,25.5529262 C164.599873,26.1161578 163.977354,26.5311705 163.206616,26.8572519 C162.435878,27.1833333 161.516921,27.3019084 160.420102,27.3019084 C159.38257,27.3019084 158.404326,27.1833333 157.515013,26.9165394 C156.6257,26.6497455 155.736387,26.1754453 154.965649,25.4936387 L156.6257,23.2407125 C157.188931,23.7446565 157.752163,24.1300254 158.345038,24.4264631 C158.937913,24.7229008 159.649364,24.8414758 160.390458,24.8414758 C161.072265,24.8414758 161.605852,24.7525445 162.080153,24.5450382 C162.524809,24.3671756 162.880534,24.1003817 163.147328,23.7743003 C163.414122,23.4778626 163.591985,23.0628499 163.71056,22.6181934 C163.829135,22.1735369 163.888422,21.6695929 163.888422,21.1063613 L163.888422,20.3059796 L163.829135,20.3059796 C163.414122,20.8395674 162.910178,21.2249364 162.258015,21.4917303 C161.576209,21.7585242 160.924046,21.906743 160.242239,21.906743 C159.412214,21.906743 158.67112,21.7585242 157.989313,21.4620865 C157.307506,21.1656489 156.744275,20.7802799 156.269975,20.2763359 C155.795674,19.7723919 155.410305,19.1795165 155.143511,18.4680662 C154.876718,17.7862595 154.758142,17.0451654 154.758142,16.2744275 C154.758142,15.4740458 154.876718,14.7033079 155.113868,13.9918575 C155.351018,13.3100509 155.706743,12.6875318 156.181043,12.153944 C156.655344,11.6203562 157.248219,11.2349873 157.900382,10.9385496 C158.582188,10.642112 159.323282,10.4938931 160.212595,10.4938931 C161.012977,10.4938931 161.724427,10.642112 162.37659,10.9385496 C163.058397,11.2349873 163.591985,11.7389313 163.977354,12.3910941 L164.036641,12.3910941 L164.036641,10.7310433 L166.645293,10.7310433 L166.645293,10.760687 L166.645293,10.760687 Z M149.659415,16.8673028 L149.096183,16.8673028 C148.710814,16.8673028 148.295802,16.8969466 147.791858,16.9265903 C147.317557,16.9562341 146.872901,17.0155216 146.457888,17.1340967 C146.013232,17.2526718 145.68715,17.4305344 145.390712,17.6380407 C145.094275,17.8455471 144.946056,18.1716285 144.946056,18.5569975 C144.946056,18.8237913 145.005344,19.0312977 145.123919,19.2091603 C145.242494,19.3870229 145.390712,19.5352417 145.568575,19.6538168 C145.746438,19.7723919 145.953944,19.8613232 146.191094,19.9206107 C146.428244,19.9798982 146.635751,19.9798982 146.872901,19.9798982 C147.821501,19.9798982 148.532952,19.7723919 148.977608,19.2980916 C149.422265,18.8237913 149.659415,18.230916 149.659415,17.4601781 L149.659415,16.8673028 Z M149.837277,20.3059796 L149.77799,20.3059796 C149.362977,20.9284987 148.859033,21.3731552 148.266158,21.6695929 C147.643639,21.9660305 146.961832,22.1142494 146.250382,22.1142494 C145.746438,22.1142494 145.242494,22.0549618 144.768193,21.906743 C144.293893,21.7585242 143.849237,21.5806616 143.463868,21.2842239 C143.078499,20.9877863 142.782061,20.6617048 142.544911,20.2466921 C142.307761,19.8316794 142.21883,19.3573791 142.21883,18.8237913 C142.21883,18.230916 142.307761,17.726972 142.515267,17.2823155 C142.722774,16.837659 143.019211,16.5115776 143.374936,16.2151399 C143.730662,15.9187023 144.145674,15.7111959 144.619975,15.5333333 C145.094275,15.3554707 145.568575,15.2368957 146.102163,15.1479644 C146.606107,15.0590331 147.139695,14.9997455 147.643639,14.9701018 C148.177226,14.940458 148.651527,14.940458 149.096183,14.940458 L149.77799,14.940458 L149.77799,14.6440204 C149.77799,13.9622137 149.54084,13.4582697 149.066539,13.1025445 C148.592239,12.7764631 147.999364,12.5689567 147.25827,12.5689567 C146.695038,12.5689567 146.131807,12.657888 145.627863,12.8653944 C145.123919,13.0729008 144.708906,13.3396947 144.323537,13.6954198 L142.900636,12.2725191 C143.523155,11.65 144.234606,11.2053435 145.064631,10.9089059 C145.865013,10.6124682 146.754326,10.4938931 147.613995,10.4938931 C148.414377,10.4938931 149.036896,10.5828244 149.600127,10.760687 C150.133715,10.9385496 150.578372,11.1756997 150.934097,11.4424936 C151.289822,11.7389313 151.556616,12.035369 151.734478,12.3910941 C151.912341,12.7468193 152.06056,13.1025445 152.149491,13.4879135 C152.208779,13.8732824 152.29771,14.1993639 152.29771,14.5550891 C152.327354,14.8811705 152.327354,15.2072519 152.327354,15.4740458 L152.327354,21.8178117 L149.837277,21.8178117 L149.837277,20.3059796 L149.837277,20.3059796 Z M137.001527,4.41692112 L139.758397,4.41692112 L139.758397,21.7881679 L137.001527,21.7881679 L137.001527,4.41692112 Z M131.013486,4.41692112 L133.770356,4.41692112 L133.770356,21.7881679 L131.013486,21.7881679 L131.013486,4.41692112 Z M124.66972,7.02557252 C124.66972,6.58091603 124.847583,6.19554707 125.173664,5.86946565 C125.499746,5.54338422 125.914758,5.36552163 126.418702,5.36552163 C126.922646,5.36552163 127.337659,5.54338422 127.693384,5.83982188 C128.019466,6.13625954 128.226972,6.55127226 128.226972,7.02557252 C128.226972,7.49987277 128.049109,7.88524173 127.693384,8.21132316 C127.367303,8.50776081 126.922646,8.68562341 126.418702,8.68562341 C125.914758,8.68562341 125.499746,8.50776081 125.173664,8.18167939 C124.788295,7.88524173 124.66972,7.47022901 124.66972,7.02557252 Z M125.025445,10.760687 L127.782316,10.760687 L127.782316,21.7881679 L125.025445,21.7881679 L125.025445,10.760687 Z M107.802417,5.54338422 L111.122519,5.54338422 L115.53944,17.8455471 L120.10458,5.54338422 L123.246819,5.54338422 L116.665903,21.8178117 L114.146183,21.8178117 L107.802417,5.54338422 Z M100.510051,10.760687 L103.266921,10.760687 L103.266921,12.5096692 L103.326209,12.5096692 C103.622646,11.8575064 104.067303,11.3535623 104.630534,11.0274809 C105.193766,10.6717557 105.845929,10.4938931 106.587023,10.4938931 C106.764885,10.4938931 106.913104,10.5235369 107.090967,10.5531807 C107.26883,10.5828244 107.417048,10.6124682 107.594911,10.6717557 L107.594911,13.3396947 C107.357761,13.2804071 107.150254,13.2211196 106.913104,13.1914758 C106.705598,13.1321883 106.468448,13.1321883 106.260941,13.1321883 C105.608779,13.1321883 105.104835,13.2507634 104.719466,13.4879135 C104.334097,13.7250636 104.037659,13.9918575 103.830153,14.2882952 C103.622646,14.5847328 103.504071,14.9108142 103.41514,15.2072519 C103.355852,15.5036896 103.326209,15.7408397 103.326209,15.8890585 L103.326209,21.7881679 L100.569338,21.7881679 L100.569338,10.760687 L100.510051,10.760687 L100.510051,10.760687 Z M95.174173,15.2072519 C95.1445293,14.4068702 94.9073791,13.7547074 94.4034351,13.2804071 C93.8994911,12.8357506 93.2176845,12.5986005 92.3580153,12.5986005 C91.5279898,12.5986005 90.875827,12.8357506 90.4015267,13.3100509 C89.9272265,13.7843511 89.6307888,14.4068702 89.5122137,15.2368957 L95.174173,15.2072519 L95.174173,15.2072519 L95.174173,15.2072519 Z M89.5122137,17.2526718 C89.601145,18.0826972 89.9272265,18.7052163 90.4608142,19.1795165 C91.0240458,19.624173 91.6762087,19.8613232 92.4765903,19.8613232 C93.1583969,19.8613232 93.7512723,19.7131043 94.1959288,19.4166667 C94.670229,19.120229 95.0852417,18.7645038 95.4113232,18.3494911 L97.3974555,19.8316794 C96.7452926,20.6320611 96.0338422,21.1952926 95.2334606,21.521374 C94.4330789,21.8474555 93.6030534,22.0253181 92.7137405,22.0253181 C91.883715,22.0253181 91.1129771,21.8770992 90.371883,21.6103053 C89.6307888,21.3138677 89.0082697,20.9284987 88.4450382,20.4245547 C87.8818066,19.9206107 87.4964377,19.2980916 87.1703562,18.616285 C86.8739186,17.9048346 86.696056,17.1044529 86.696056,16.2447837 C86.696056,15.3851145 86.8739186,14.5550891 87.1703562,13.8732824 C87.4667939,13.1618321 87.9114504,12.5689567 88.4450382,12.0650127 C88.978626,11.5610687 89.6307888,11.1756997 90.371883,10.8792621 C91.1129771,10.5828244 91.883715,10.4642494 92.7137405,10.4642494 C93.4844784,10.4642494 94.166285,10.6124682 94.8184478,10.8792621 C95.4706107,11.146056 96.0041985,11.5314249 96.448855,12.035369 C96.8935115,12.539313 97.2492366,13.1618321 97.5160305,13.9029262 C97.7531807,14.6440204 97.9013995,15.5036896 97.9013995,16.4522901 L97.9013995,17.223028 L89.5122137,17.2526718 L89.5122137,17.2526718 L89.5122137,17.2526718 Z M81.9826972,15.2072519 C81.9530534,14.4068702 81.7159033,13.7547074 81.2119593,13.2804071 C80.7080153,12.8061069 80.0262087,12.5986005 79.1665394,12.5986005 C78.336514,12.5986005 77.6843511,12.8357506 77.2100509,13.3100509 C76.7357506,13.7843511 76.439313,14.4068702 76.3207379,15.2368957 L81.9826972,15.2072519 L81.9826972,15.2072519 L81.9826972,15.2072519 Z M76.3207379,17.2526718 C76.4096692,18.0826972 76.7357506,18.7052163 77.2693384,19.1795165 C77.83257,19.624173 78.4847328,19.8613232 79.2851145,19.8613232 C79.9669211,19.8613232 80.5597964,19.7131043 81.0044529,19.4166667 C81.4787532,19.120229 81.8937659,18.7645038 82.2198473,18.3494911 L84.2059796,19.8316794 C83.5538168,20.6320611 82.8423664,21.1952926 82.0419847,21.521374 C81.2416031,21.8474555 80.4115776,22.0253181 79.5222646,22.0253181 C78.6922392,22.0253181 77.9215013,21.8770992 77.1804071,21.6103053 C76.439313,21.3138677 75.8167939,20.9284987 75.2535623,20.4245547 C74.6903308,19.9206107 74.3049618,19.2980916 73.9788804,18.616285 C73.6824427,17.9048346 73.5045802,17.1044529 73.5045802,16.2447837 C73.5045802,15.3851145 73.6824427,14.5550891 73.9788804,13.8732824 C74.2753181,13.1618321 74.7199746,12.5689567 75.2535623,12.0650127 C75.7871501,11.5610687 76.439313,11.1756997 77.1804071,10.8792621 C77.9215013,10.5828244 78.6922392,10.4642494 79.5222646,10.4642494 C80.2930025,10.4642494 80.9748092,10.6124682 81.626972,10.8792621 C82.2791349,11.146056 82.8127226,11.5314249 83.2573791,12.035369 C83.7020356,12.539313 84.0577608,13.1618321 84.3245547,13.9029262 C84.5913486,14.6440204 84.7099237,15.5036896 84.7099237,16.4522901 L84.7099237,17.223028 L76.3207379,17.2526718 L76.3207379,17.2526718 L76.3207379,17.2526718 Z M65.5896947,10.760687 L68.3465649,10.760687 L68.3465649,12.5096692 L68.4058524,12.5096692 C68.7022901,11.8575064 69.1469466,11.3535623 69.7101781,11.0274809 C70.2734097,10.6717557 70.9255725,10.4938931 71.6666667,10.4938931 C71.8445293,10.4938931 71.9927481,10.5235369 72.1706107,10.5531807 C72.3484733,10.5828244 72.4966921,10.6124682 72.6745547,10.6717557 L72.6745547,13.3396947 C72.4374046,13.2804071 72.2298982,13.2211196 71.9927481,13.1914758 C71.7852417,13.1321883 71.5480916,13.1321883 71.3405852,13.1321883 C70.6884224,13.1321883 70.1844784,13.2507634 69.7991094,13.4879135 C69.4137405,13.7250636 69.1173028,13.9918575 68.9097964,14.2882952 C68.7022901,14.5847328 68.583715,14.9108142 68.4947837,15.2072519 C68.4354962,15.5036896 68.4058524,15.7408397 68.4058524,15.8890585 L68.4058524,21.7881679 L65.6489822,21.7881679 L65.6489822,10.760687 L65.5896947,10.760687 L65.5896947,10.760687 Z M59.9870229,16.8673028 L59.4237913,16.8673028 C59.0384224,16.8673028 58.6234097,16.8969466 58.1194656,16.9265903 C57.6451654,16.9562341 57.2005089,17.0155216 56.7854962,17.1340967 C56.3408397,17.2526718 56.0147583,17.4305344 55.7183206,17.6380407 C55.421883,17.8455471 55.2736641,18.1716285 55.2736641,18.5569975 C55.2736641,18.8237913 55.3329517,19.0312977 55.4515267,19.2091603 C55.5701018,19.3870229 55.7183206,19.5352417 55.8961832,19.6538168 C56.0740458,19.7723919 56.2815522,19.8613232 56.5187023,19.9206107 C56.7558524,19.9798982 56.9633588,19.9798982 57.2005089,19.9798982 C58.1491094,19.9798982 58.8605598,19.7723919 59.3052163,19.2980916 C59.7498728,18.8237913 59.9870229,18.230916 59.9870229,17.4601781 L59.9870229,16.8673028 L59.9870229,16.8673028 Z M60.1648855,20.3059796 L60.105598,20.3059796 C59.6905852,20.9284987 59.1866412,21.3731552 58.5937659,21.6695929 C57.9712468,21.9660305 57.2894402,22.1142494 56.5779898,22.1142494 C56.0740458,22.1142494 55.5701018,22.0549618 55.0958015,21.906743 C54.6215013,21.7585242 54.1768448,21.5806616 53.7914758,21.2842239 C53.4061069,20.9877863 53.1096692,20.6617048 52.8725191,20.2466921 C52.635369,19.8316794 52.5464377,19.3573791 52.5464377,18.8237913 C52.5464377,18.230916 52.635369,17.726972 52.8428753,17.2823155 C53.0503817,16.837659 53.3468193,16.5115776 53.7025445,16.2151399 C54.0582697,15.9187023 54.4732824,15.7111959 54.9475827,15.5333333 C55.421883,15.3554707 55.8961832,15.2368957 56.429771,15.1479644 C56.933715,15.0590331 57.4673028,14.9997455 57.9712468,14.9701018 C58.5048346,14.940458 58.9791349,14.940458 59.4237913,14.940458 L60.105598,14.940458 L60.105598,14.6440204 C60.105598,13.9622137 59.8684478,13.4582697 59.3941476,13.1025445 C58.9198473,12.7764631 58.326972,12.5689567 57.5858779,12.5689567 C57.0226463,12.5689567 56.4594148,12.657888 55.9554707,12.8653944 C55.4515267,13.0729008 55.036514,13.3396947 54.651145,13.6954198 L53.2282443,12.2725191 C53.8507634,11.65 54.5622137,11.2053435 55.3922392,10.9089059 C56.1926209,10.6124682 57.0819338,10.4938931 57.9416031,10.4938931 C58.7419847,10.4938931 59.3645038,10.5828244 59.9277354,10.760687 C60.4613232,10.9385496 60.9059796,11.1756997 61.2617048,11.4424936 C61.61743,11.7389313 61.8842239,12.035369 62.0620865,12.3910941 C62.2399491,12.7468193 62.3881679,13.1025445 62.4770992,13.4879135 C62.5660305,13.8436387 62.6253181,14.1993639 62.6253181,14.5550891 C62.6549618,14.8811705 62.6549618,15.2072519 62.6549618,15.4740458 L62.6549618,21.8178117 L60.1648855,21.8178117 L60.1648855,20.3059796 L60.1648855,20.3059796 Z M48.9298982,9.36743003 C48.3370229,8.71526718 47.7441476,8.30025445 47.2105598,8.06310433 C46.6473282,7.85559796 46.0840967,7.76666667 45.5208651,7.76666667 C44.6908397,7.76666667 43.9201018,7.9148855 43.2086514,8.21132316 C42.5268448,8.50776081 41.9339695,8.92277354 41.4596692,9.45636132 C40.985369,9.98994911 40.6,10.6124682 40.3035623,11.2942748 C40.0367684,11.9760814 39.8885496,12.7468193 39.8885496,13.5768448 C39.8885496,14.436514 40.0367684,15.2665394 40.3035623,16.0076336 C40.5703562,16.7487277 40.9557252,17.3712468 41.4596692,17.9344784 C41.9339695,18.4680662 42.5268448,18.8830789 43.2086514,19.2091603 C43.890458,19.505598 44.6315522,19.6538168 45.5208651,19.6538168 C46.2026718,19.6538168 46.8251908,19.4759542 47.4477099,19.1795165 C48.070229,18.8830789 48.6334606,18.3791349 49.1670483,17.6676845 L51.5681934,19.3573791 C50.8270992,20.3652672 49.9377863,21.1063613 48.9002545,21.5510178 C47.8330789,21.9956743 46.7362595,22.2328244 45.5208651,22.2328244 C44.275827,22.2328244 43.0900763,22.0549618 42.0821883,21.6399491 C41.0446565,21.2249364 40.1256997,20.6617048 39.3846056,19.9206107 C38.6138677,19.1795165 38.0506361,18.2902036 37.6059796,17.2526718 C37.1613232,16.1854962 36.9538168,15.0590331 36.9538168,13.7843511 C36.9538168,12.4800254 37.1613232,11.2942748 37.6059796,10.256743 C38.0506361,9.18956743 38.6435115,8.30025445 39.3846056,7.52951654 C40.1553435,6.78842239 41.0446565,6.19554707 42.0821883,5.81017812 C43.1493639,5.42480916 44.275827,5.2173028 45.5208651,5.2173028 C46.6176845,5.2173028 47.6552163,5.39516539 48.574173,5.78053435 C49.4931298,6.16590331 50.3824427,6.84770992 51.2124682,7.76666667 L48.9298982,9.36743003 Z" id="Shape" fill="#7A7080" fill-rule="nonzero"></path>
                    <path d="M22.2801527,17.6083969 L18.0410941,24.0410941 L13.2980916,17.5194656 L3.33778626,17.5194656 C3.33778626,17.5194656 1.88524173,17.5194656 1.88524173,15.9187023 C1.88524173,14.7329517 1.88524173,3.88333333 1.88524173,2.4307888 C1.88524173,0.978244275 3.36743003,0.978244275 3.36743003,0.978244275 C3.36743003,0.978244275 20.8868957,1.03753181 26.7860051,1.03753181 C28.4756997,1.03753181 29.1575064,1.03753181 29.1575064,3.55725191 C29.1575064,5.2173028 28.8017812,12.6875318 28.8017812,15.1479644 C28.8017812,17.6083969 27.3492366,17.5194656 26.7860051,17.5194656 C25.0073791,17.6083969 22.2801527,17.6083969 22.2801527,17.6083969 Z" id="Shape"></path>
                    <g id="Group" transform="translate(0.521628, 0.000000)" fill-rule="nonzero">
                        <path d="M21.7585242,17.6083969 L17.5194656,24.0410941 L12.7764631,17.5194656 L2.81615776,17.5194656 C2.81615776,17.5194656 1.36361323,17.5194656 1.36361323,15.9187023 C1.36361323,14.7329517 1.36361323,3.88333333 1.36361323,2.4307888 C1.36361323,0.978244275 2.84580153,0.978244275 2.84580153,0.978244275 C2.84580153,0.978244275 20.3652672,1.03753181 26.2643766,1.03753181 C27.9540712,1.03753181 28.6358779,1.03753181 28.6358779,3.55725191 C28.6358779,5.2173028 28.2801527,12.6875318 28.2801527,15.1479644 C28.2801527,17.6083969 26.8276081,17.5194656 26.2643766,17.5194656 C24.4857506,17.6083969 21.7585242,17.6083969 21.7585242,17.6083969 Z" id="Shape" fill="#FFFFFF"></path>
                        <path d="M29.7030534,15.1776081 C29.7030534,17.0451654 29.1991094,17.5491094 28.8433842,17.8751908 C28.3394402,18.3791349 27.6279898,18.616285 26.2940204,18.616285 L26.2643766,18.616285 C25.9679389,18.616285 23.2407125,18.616285 22.3513995,18.616285 L17.6083969,25.9382952 L12.2428753,18.616285 L2.78651399,18.616285 C1.74898219,18.616285 0.237150127,17.9048346 0.237150127,15.9483461 C0.237150127,15.0293893 0.237150127,8.32989822 0.237150127,4.68371501 L0.237150127,2.46043257 C0.237150127,0.592875318 1.77862595,0 2.81615776,0 C2.99402036,0 20.9877863,0 26.8276081,0 C28.8433842,0 29.6734097,0.681806616 29.6734097,2.6975827 M26.590458,16.4819338 C26.8868957,16.4819338 27.2129771,16.5115776 27.3611959,16.3633588 C27.479771,16.2447837 27.5390585,16.0372774 27.5390585,15.444402 C27.5390585,14.0807888 27.5390585,3.29045802 27.5390585,2.57900763 C27.5390585,2.28256997 27.479771,2.19363868 27.4204835,2.13435115 C27.3315522,2.07506361 27.2129771,2.04541985 26.7979644,2.04541985 C20.9284987,2.07506361 2.96437659,2.07506361 2.78651399,2.07506361 C2.37150127,2.10470738 2.37150127,2.46043257 2.37150127,2.57900763 L2.37150127,4.68371501 C2.37150127,8.35954198 2.37150127,15.0590331 2.37150127,15.9483461 C2.37150127,16.0669211 2.37150127,16.4819338 2.78651399,16.4819338 L13.3396947,16.4819338 L17.4898219,22.1735369 L21.1656489,16.4819338 L21.7288804,16.4819338 C21.7585242,16.4819338 26.1458015,16.4819338 26.1458015,16.4819338" id="Shape" fill="#7A7080"></path>
                    </g>
                    <path d="M15.0470738,5.86946565 L16.9739186,5.86946565 L18.9007634,10.8199746 L18.9304071,10.8199746 L20.8572519,5.86946565 L22.6655216,5.86946565 L19.5232824,13.3989822 L18.1300254,13.3989822 L15.0470738,5.86946565 Z M13.4166667,7.8259542 C13.2388041,7.6480916 13.0312977,7.47022901 12.7941476,7.38129771 C12.5569975,7.29236641 12.2605598,7.20343511 11.9641221,7.20343511 C11.6676845,7.20343511 11.3416031,7.26272265 11.0748092,7.38129771 C10.8080153,7.49987277 10.5708651,7.67773537 10.3633588,7.88524173 C10.1854962,8.09274809 10.0076336,8.35954198 9.88905852,8.65597964 C9.77048346,8.9524173 9.71119593,9.27849873 9.71119593,9.63422392 C9.71119593,9.98994911 9.77048346,10.3160305 9.88905852,10.6124682 C10.0076336,10.9089059 10.1558524,11.1756997 10.333715,11.3832061 C10.5115776,11.5907125 10.7783715,11.7685751 11.0155216,11.8871501 C11.2823155,12.0057252 11.5787532,12.0650127 11.8751908,12.0650127 C12.230916,12.0650127 12.5273537,12.0057252 12.7941476,11.8575064 C13.0609415,11.7092875 13.2684478,11.5314249 13.4759542,11.264631 L14.898855,12.3021628 C14.5727735,12.7468193 14.1577608,13.1025445 13.6538168,13.2804071 C13.1498728,13.4879135 12.6459288,13.5768448 12.112341,13.5768448 C11.5194656,13.5768448 10.9562341,13.4879135 10.4226463,13.2804071 C9.91870229,13.1025445 9.4740458,12.8357506 9.11832061,12.4800254 C8.76259542,12.153944 8.46615776,11.7092875 8.2586514,11.2349873 C8.05114504,10.760687 7.96221374,10.1974555 7.96221374,9.57493639 C7.96221374,8.9524173 8.05114504,8.41882952 8.2586514,7.9148855 C8.46615776,7.44058524 8.76259542,6.99592875 9.11832061,6.66984733 C9.4740458,6.3437659 9.91870229,6.07697201 10.4226463,5.86946565 C10.9265903,5.69160305 11.4898219,5.57302799 12.112341,5.57302799 C12.3198473,5.57302799 12.5569975,5.60267176 12.7941476,5.63231552 C13.0312977,5.69160305 13.2684478,5.72124682 13.4759542,5.81017812 C13.7131043,5.89910941 13.9206107,5.98804071 14.1577608,6.13625954 C14.3949109,6.28447837 14.5727735,6.4326972 14.7209924,6.66984733 L13.4166667,7.8259542 Z" id="Shape" fill="#7A7080" fill-rule="nonzero"></path>
                </g>
            </g>
        </g>
    </g>
</svg>