<?xml version="1.0" encoding="UTF-8"?>
<svg width="138px" height="32px" viewBox="0 0 138 32" version="1.1" xmlns="http://www.w3.org/2000/svg" xmlns:xlink="http://www.w3.org/1999/xlink">
    <!-- Generator: Sketch 46.2 (44496) - http://www.bohemiancoding.com/sketch -->
    <title>chromatic</title>
    <desc>Created with Sketch.</desc>
    <defs>
        <polygon id="path-1" points="0.000107503981 32 39.6436145 32 39.6436145 0.0580180371 0.000107503981 0.0580180371"></polygon>
        <polygon id="path-3" points="22.9762702 0.0576 0.214570833 0.0576 0.214570833 32 22.9762702 32 22.9762702 0.0576"></polygon>
        <polygon id="path-5" points="0 31 138 31 138 0 0 0"></polygon>
    </defs>
    <g id="Site" stroke="none" stroke-width="1" fill="none" fill-rule="evenodd">
        <g id="Index-v2" transform="translate(-503.000000, -1216.000000)">
            <g id="Client-Block" transform="translate(188.000000, 1207.000000)">
                <g id="chromatic" transform="translate(315.000000, 9.000000)">
                    <g id="Group-3">
                        <mask id="mask-2" fill="white">
                            <use xlink:href="#path-1"></use>
                        </mask>
                        <g id="Clip-2"></g>
                        <path d="M2.63493976,5.14427077 L5.81662651,24.6460554 L11.9154217,18.4163938 L2.63493976,5.14427077 Z M14.4677108,18.6325169 L21.9159036,29.2840862 L29.3640964,18.6325169 L21.9159036,11.0239015 L14.4677108,18.6325169 Z M21.9159036,32.0001477 C21.600241,32.0001477 21.3033735,31.8440862 21.120241,31.5821785 L13.066747,20.0631631 L5.85614458,27.4295631 C5.59686747,27.6949169 5.2146988,27.7874708 4.86674699,27.6747323 C4.51783133,27.5600246 4.26096386,27.2567631 4.20120482,26.8880246 L0.0137349398,1.22008615 C-0.0619277108,0.76224 0.183373494,0.311778462 0.60313253,0.134055385 C1.02481928,-0.0436676923 1.50771084,0.0981169231 1.77228916,0.476209231 L13.3159036,16.9857477 L21.2248193,8.90648615 C21.5910843,8.53184 22.240241,8.53184 22.606506,8.90648615 L39.3573494,26.0181169 C39.7390361,26.4080246 39.7390361,27.0396554 39.3573494,27.4295631 C38.9756627,27.8194708 38.3573494,27.8194708 37.9756627,27.4295631 L30.7645783,20.0631631 L22.7106024,31.5821785 C22.5274699,31.8440862 22.2310843,32.0001477 21.9159036,32.0001477 L21.9159036,32.0001477 Z" id="Fill-1" fill="#7A7080" mask="url(#mask-2)"></path>
                    </g>
                    <polygon id="Fill-4" fill="#FCFBF7" points="23 8.37262695 12 19 23 3"></polygon>
                    <g id="Group-8" transform="translate(21.000000, 0.000000)">
                        <mask id="mask-4" fill="white">
                            <use xlink:href="#path-3"></use>
                        </mask>
                        <g id="Clip-7"></g>
                        <path d="M12.4170292,16.5651692 L17.2858417,24.0699077 L20.3558625,5.14412308 L12.4170292,16.5651692 Z M2.15759167,4.35298462 L2.15759167,27.8872615 L10.0556958,16.5252923 L2.15759167,4.35298462 Z M1.18632083,32 C1.08713333,32 0.9869875,31.9842462 0.8892375,31.9527385 C0.487216667,31.8198154 0.214570833,31.4358154 0.214570833,31.0016 L0.214570833,1.05649231 C0.214570833,0.616369231 0.494404167,0.228430769 0.904570833,0.100923077 C1.31425833,-0.0265846154 1.75700833,0.136369231 1.99419583,0.502646154 L11.2641542,14.7884308 L21.2135708,0.476061538 C21.475675,0.0974769231 21.9572375,-0.0448 22.3765083,0.1344 C22.7938625,0.311630769 23.0372792,0.762092308 22.9630083,1.22043077 L18.79905,26.8883692 C18.7334042,27.2920615 18.4348833,27.6140308 18.0443625,27.6996923 C17.6581542,27.7863385 17.2537375,27.6184615 17.0323625,27.2772923 L11.20905,18.3020308 L1.97646667,31.5820308 C1.79055,31.8493538 1.49346667,32 1.18632083,32 L1.18632083,32 Z" id="Fill-6" fill="#7A7080" mask="url(#mask-4)"></path>
                    </g>
                    <polygon id="Fill-9" fill="#FCFBF7" points="23 9.67440758 33 19 23 5"></polygon>
                    <path d="M39.0080324,27.9991885 C38.6880187,27.9991885 38.3728981,27.8467234 38.1820643,27.5648794 L21.9998412,3.70625553 L5.81761816,27.5648794 C5.51375192,28.0136174 4.89721171,28.1353009 4.44165701,27.8356613 C3.9861023,27.5365027 3.86279426,26.9314519 4.1666605,26.4831949 L21.1743624,1.40725496 C21.5428186,0.864248345 22.4573532,0.864248345 22.82532,1.40725496 L39.8330219,26.4831949 C40.1373775,26.9314519 40.0140694,27.5365027 39.5575361,27.8356613 C39.3882322,27.9467636 39.1973983,27.9991885 39.0080324,27.9991885" id="Fill-11" fill="#7A7080"></path>
                    <path d="M58,13.547891 C57.3124286,13.8427017 56.4852101,14 55.656976,14 C52.4445855,14 50,11.6390413 50,8.51038762 C50,5.38123932 52.4445855,3 55.656976,3 C56.4852101,3 57.3124286,3.15779297 58,3.45260365 L58,6.40466769 C57.4546147,5.91249213 56.6263806,5.57810954 55.6366637,5.57810954 C53.9598832,5.57810954 52.7076298,6.87705729 52.7076298,8.51038762 C52.7076298,10.1432233 53.9598832,11.4421711 55.6366637,11.4421711 C56.6263806,11.4421711 57.4952393,11.0880025 58,10.6349042 L58,13.547891 Z" id="Fill-13" fill="#7A7080"></path>
                    <polygon id="Fill-15" fill="#7A7080" points="66.5721214 9.12256319 62.4278786 9.12256319 62.4278786 13 60 13 60 3 62.4278786 3 62.4278786 6.7846283 66.5721214 6.7846283 66.5721214 3 69 3 69 13 66.5721214 13"></polygon>
                    <path d="M75.880098,5.33746852 L74.6001383,5.33746852 L74.6001383,7.13720735 L75.880098,7.13720735 C76.4592472,7.13720735 76.8996418,6.82193825 76.8996418,6.22824363 C76.8996418,5.65273762 76.4592472,5.33746852 75.880098,5.33746852 L75.880098,5.33746852 Z M72,3 L75.9595299,3 C78.0996669,3 79.5802174,4.07592575 79.5802174,5.96893946 C79.5802174,7.37832292 78.7200402,8.1949445 77.7397097,8.47337002 C79.0996041,9.17806175 79.7994093,10.9404906 80,13 L77.2998178,13 C76.9594671,10.9591456 76.240558,9.45695364 74.9399862,9.45695364 L74.6001383,9.45695364 L74.6001383,13 L72,13 L72,3 Z" id="Fill-17" fill="#7A7080"></path>
                    <path d="M86.4903548,11.4421711 C88.123117,11.4421711 89.3636405,10.1432233 89.3636405,8.51038762 C89.3636405,6.87705729 88.123117,5.57810954 86.4903548,5.57810954 C84.8570979,5.57810954 83.6175637,6.87705729 83.6175637,8.51038762 C83.6175637,10.1432233 84.8570979,11.4421711 86.4903548,11.4421711 M86.4903548,3 C89.6188678,3 92,5.38123932 92,8.51038762 C92,11.6385466 89.6188678,14 86.4903548,14 C83.3618418,14 81,11.6385466 81,8.51038762 C81,5.38123932 83.3618418,3 86.4903548,3" id="Fill-19" fill="#7A7080"></path>
                    <polygon id="Fill-21" fill="#7A7080" points="97.872169 13 95.6175193 7.32282436 95.6175193 13 93 13 93 3 96.2212897 3 99.0199907 9.92006343 101.798448 3 105 3 105 13 102.381975 13 102.381975 7.30416939 100.147063 13"></polygon>
                    <path d="M110.114373,8.8072941 L111.904179,8.8072941 L111.000232,6.1540901 L110.114373,8.8072941 Z M112.679189,11.1261076 L109.303186,11.1261076 L108.675201,13 L106,13 L109.671908,3 L112.346644,3 L116,13 L113.324799,13 L112.679189,11.1261076 Z" id="Fill-23" fill="#7A7080"></path>
                    <polygon id="Fill-25" fill="#7A7080" points="119.315477 5.33746852 117 5.33746852 117 3 124 3 124 5.33746852 121.703457 5.33746852 121.703457 13 119.315477 13"></polygon>
                    <mask id="mask-6" fill="white">
                        <use xlink:href="#path-5"></use>
                    </mask>
                    <g id="Clip-28"></g>
                    <polygon id="Fill-27" fill="#7A7080" mask="url(#mask-6)" points="126 13 129 13 129 3 126 3"></polygon>
                    <path d="M138,13.547891 C137.312429,13.8427017 136.48521,14 135.656976,14 C132.444586,14 130,11.6390413 130,8.51038762 C130,5.38123932 132.444586,3 135.656976,3 C136.48521,3 137.312429,3.15779297 138,3.45260365 L138,6.40466769 C137.455123,5.91249213 136.626381,5.57810954 135.636664,5.57810954 C133.959375,5.57810954 132.70763,6.87705729 132.70763,8.51038762 C132.70763,10.1432233 133.959375,11.4421711 135.636664,11.4421711 C136.626381,11.4421711 137.495239,11.0880025 138,10.6349042 L138,13.547891 Z" id="Fill-29" fill="#7A7080" mask="url(#mask-6)"></path>
                    <path d="M58,28.2584647 C57.2387492,28.7225072 56.2631514,29 55.2488044,29 C52.2636419,29 50,26.8294935 50,23.9906725 C50,21.1341293 52.2636419,19 55.2488044,19 C56.2631514,19 57.2387492,19.2597705 58,19.7238131 L58,20.9298573 C57.3167382,20.3548176 56.3411404,20.0022386 55.2488044,20.0022386 C52.8875536,20.0022386 51.1114654,21.7460125 51.1114654,23.9906725 C51.1114654,26.2357989 52.8679338,27.9613842 55.2488044,27.9613842 C56.3411404,27.9613842 57.3167382,27.6269938 58,27.0524205 L58,28.2584647 Z" id="Fill-30" fill="#7A7080" mask="url(#mask-6)"></path>
                    <path d="M62.7041182,25.0343831 L66.2765312,25.0343831 L64.5007443,20.3796591 L62.7041182,25.0343831 Z M66.6317879,26.0307233 L62.3483654,26.0307233 L61.2235515,29 L60,29 L63.8884724,19 L65.11252,19 L69,29 L67.7769447,29 L66.6317879,26.0307233 Z" id="Fill-31" fill="#7A7080" mask="url(#mask-6)"></path>
                    <path d="M73.8540514,19.9765964 L72.0675236,19.9765964 L72.0675236,23.9234325 L73.8540514,23.9234325 C75.0001627,23.9234325 75.8934266,23.3104112 75.8934266,21.9692767 C75.8934266,20.6286237 75.0001627,19.9765964 73.8540514,19.9765964 L73.8540514,19.9765964 Z M71,19 L73.8540514,19 C75.7181907,19 77,20.0921699 77,21.9500144 C77,23.8276028 75.7181907,24.9197727 73.8540514,24.9197727 L72.0675236,24.9197727 L72.0675236,29 L71,29 L71,19 Z" id="Fill-32" fill="#7A7080" mask="url(#mask-6)"></path>
                    <polygon id="Fill-33" fill="#7A7080" mask="url(#mask-6)" points="79 29 80 29 80 19 79 19"></polygon>
                    <polygon id="Fill-34" fill="#7A7080" mask="url(#mask-6)" points="84.9319345 19.9765964 82 19.9765964 82 19 89 19 89 19.9765964 86.0675465 19.9765964 86.0675465 29 84.9319345 29"></polygon>
                    <path d="M91.703622,25.0343831 L95.2765312,25.0343831 L93.5002481,20.3796591 L91.703622,25.0343831 Z M95.6317879,26.0307233 L91.3483654,26.0307233 L90.2235515,29 L89,29 L92.8879762,19 L94.1120238,19 L98,29 L96.7769447,29 L95.6317879,26.0307233 Z" id="Fill-35" fill="#7A7080" mask="url(#mask-6)"></path>
                    <polygon id="Fill-36" fill="#7A7080" mask="url(#mask-6)" points="100 29 100 19 100.995992 19 100.995992 28.0041414 105 28.0041414 105 29"></polygon>
                </g>
            </g>
        </g>
    </g>
</svg>