<svg xmlns="http://www.w3.org/2000/svg" viewBox="0 0 927 110">
  <title>CustomMade logo</title>
  <g fill-rule="nonzero">
  <path d="M53 16.13a2.09 2.09 0 0 0 2.88 0l13-12.55a1.92 1.92 0 0 0 .44-2.14 2 2 0 0 0-1.88-1.2H41.36a2 2 0 0 0-1.87 1.21 1.88 1.88 0 0 0 .44 2.13L53 16.13ZM61.91 24.74l9.94 9.57c.382.38.901.588 1.44.58a2.081 2.081 0 0 0 1.44-.57l31.91-30.75a1.92 1.92 0 0 0 .44-2.14 2 2 0 0 0-1.88-1.2H85.3a2.08 2.08 0 0 0-1.43.57L61.9 22a1.91 1.91 0 0 0 0 2.77M32.9 8.51a2.14 2.14 0 0 0-2.87 0L1.36 36.12a1.9 1.9 0 0 0 0 2.77l72.91 70.23a2.07 2.07 0 0 0 2.87 0l28.69-27.63a1.92 1.92 0 0 0 0-2.77L32.9 8.51ZM106.91 42.28a.76.76 0 0 1 0-1.12l22.72-21.91a1.89 1.89 0 0 0 .6-1.39 1.92 1.92 0 0 0-.59-1.38l-10.7-10.31a2.11 2.11 0 0 0-2.88 0l-35.26 34a1.9 1.9 0 0 0 0 2.77l31.1 30a2.08 2.08 0 0 0 2.87 0l10.5-10.12a1.89 1.89 0 0 0 .6-1.39 1.92 1.92 0 0 0-.59-1.38l-18.37-17.77Z"></path>
  <path d="m150 36.13-11.46-11a2.15 2.15 0 0 0-2.88 0l-15.8 15.25a1.9 1.9 0 0 0 0 2.76l11.44 11a2.05 2.05 0 0 0 1.44.58 2.09 2.09 0 0 0 1.44-.58L150 38.9a1.9 1.9 0 0 0 0-2.77M257.2 67.24a3.31 3.31 0 0 0-3.91 1.55c-2 4.66-8.15 15.5-21.22 15.5-16.3 0-26.38-16.69-26.38-32.16 0-13.92 9.25-24.82 21.06-24.82 10.67 0 14.62 6.39 17.79 11.53 2.16 3.5 4 6.53 7.48 6.53 3.23 0 5.32-2 5.32-5 0-7.55-11.88-18.74-28.28-18.74-19.82 0-34.21 14.86-34.21 35.35 0 19.26 16.54 36.8 34.71 36.8s27.09-12.5 29.16-23.2a2.64 2.64 0 0 0-1.52-3.32M327.78 88.14c-1.18-.24-1.84-.37-1.84-2.48V40a2.18 2.18 0 0 0-.78-1.78 3.65 3.65 0 0 0-3-.43l-6.57 1.27a2.71 2.71 0 0 0-2.37 2.64c0 1.15.92 1.79 1.66 2.31.92.64 1.48 1.08 1.48 2V74.7c0 8.36-5.43 13.77-13.84 13.77-7.63 0-12.38-6-12.38-15.61l.16-32.9a2.24 2.24 0 0 0-.85-1.82 3.62 3.62 0 0 0-3-.39l-6.59 1.26a2.53 2.53 0 0 0-2.27 2.65A3 3 0 0 0 279 44c.81.64 1.3 1.08 1.3 2.09V72.2c0 13.32 8.13 21.93 20.7 21.93 6.94 0 12.52-2.19 16.11-6.25a7.14 7.14 0 0 0 1.8 4.54c1.33 1.3 3.12 1.41 4.84 1.41 1.72 0 6.68 0 6.68-3.12 0-2-1.81-2.37-2.68-2.54M375 61.57c-8.48-1.75-13.68-3.15-13.68-9.76 0-5.3 4-8.6 10.46-8.6 7.72 0 9.66 3.85 11.37 7.25 1.2 2.38 2.44 4.84 5.55 4.84 2.77 0 4.55-1.68 4.55-4.3 0-5.39-6.75-13.37-21.24-13.37-12.24 0-20.47 6.32-20.47 15.73 0 12.69 9.89 14.59 18.62 16.27 8.73 1.68 14.08 3.08 14.08 10.36 0 5.1-4.36 8.53-10.85 8.53-8.83 0-11.27-4.35-13.41-8.18-1.38-2.45-2.67-4.76-5.58-4.88a4.08 4.08 0 0 0-4.31 4.3c0 5 6.74 14.34 23 14.34 12.18 0 21-6.59 21-15.66 0-12.95-10.58-15.13-19.09-16.87M454 41a3.17 3.17 0 0 0-3.37-2.68h-38.09a3.07 3.07 0 0 0-3.3 2.77l-1.23 8c-.18.8.019 1.638.54 2.27a2.39 2.39 0 0 0 1.85.75h.69c1.89 0 2.72-1.93 3.6-4 .76-1.78 1.7-4 3-4h9v42.67c0 .82-.38 1.13-1.17 1.69a3 3 0 0 0-1.66 2.44v.15c0 1 .77 2.24 2.94 2.24h9.57c2.22 0 3-1.21 3-2.39a3.05 3.05 0 0 0-1.74-2.46c-.84-.57-1.25-.87-1.25-1.67V44.17h9.17c1.28 0 2.38 2.22 3.25 4 1 2 1.94 3.95 3.79 3.95h.77a2.38 2.38 0 0 0 1.88-.82 2.43 2.43 0 0 0 .41-2.2L454 41ZM516.69 70.55c0 9.74-7.2 17.67-16.05 17.67-11.58 0-20.65-11.88-20.65-27 0-10.29 6.75-17.75 16-17.75 11.77 0 20.65 11.66 20.65 27.12m-18.27-33c-16.3 0-28.13 11.82-28.13 28.12A28.242 28.242 0 0 0 499 94.1c15.39 0 27.44-12.29 27.44-28 0-16.28-12-28.56-28-28.56M610.94 88.46a3.59 3.59 0 0 1-1.52-2.08l-7.89-41.08c-.23-1.18.24-1.57 1-2.2a3.27 3.27 0 0 0 1.47-2.64 2.27 2.27 0 0 0-2.55-2.16H591a2.4 2.4 0 0 0-2.63 2.45 2.94 2.94 0 0 0 1.43 2.23c.87.7.87.81.72 1.23L578 78.89l-12.32-34.4c-.23-.62-.06-.85.77-1.58a3 3 0 0 0 1.31-2.31 2.37 2.37 0 0 0-2.63-2.3H554.9a2.42 2.42 0 0 0-2.63 2.45 3.09 3.09 0 0 0 1.52 2.37c.82.64 1.07.9 1 1.61l-7.44 41.7a3.11 3.11 0 0 1-1.4 2 3.41 3.41 0 0 0-1.6 2.7c0 1 .77 2.24 2.94 2.24h6.89c2.08 0 3-1.13 3-2.39a3.27 3.27 0 0 0-1.79-2.52c-1-.72-1.3-1-1.21-1.61l5.63-33.38 13.87 37.45a3.41 3.41 0 0 0 3.39 2.37 3.49 3.49 0 0 0 3.31-2.45l13.53-36.92 5.9 33c.15.72-.12 1-1 1.66a3.17 3.17 0 0 0-1.58 2.58c0 1 .77 2.24 2.93 2.24h9.42c2.79 0 2.93-1.86 2.93-2.24V91a3.22 3.22 0 0 0-1.56-2.51M724.55 88a5.56 5.56 0 0 1-2.34-3.29l-10.46-54.5c-.4-2.08.59-2.91 1.64-3.79a3.39 3.39 0 0 0 1.62-2.5v-.3c0-1-.75-1.95-2.42-1.95h-13.82a2.28 2.28 0 0 0-2.53 2.34c0 1 .83 1.68 1.55 2.25 1.1.87 1.7 1.42 1.24 2.65l-17.62 48.5-17.24-48.12c-.53-1.39.13-2.1 1.27-3.1a3.12 3.12 0 0 0 1.43-2.37c0-1.28-1-2.15-2.54-2.15h-13.51a2.28 2.28 0 0 0-2.53 2.34c0 1.13.89 1.82 1.67 2.43 1 .78 1.87 1.46 1.6 3l-9.86 55.3a5 5 0 0 1-2.19 3.21 3.64 3.64 0 0 0-1.78 2.88c0 1 .77 2.05 2.94 2.05h9.14c2.24 0 3-1.1 3-2.24 0-1.14-1-1.92-2-2.61-1.37-1-2.19-1.65-2-3l8.07-47.82 19.65 53.06a3.55 3.55 0 0 0 3.59 2.54c2.06 0 2.94-1.38 3.49-2.64l19.17-52.31 8.45 47.2c.32 1.59-.58 2.28-1.63 3.09a3.41 3.41 0 0 0-1.74 2.71c0 1 .77 2.05 2.94 2.05h12.49c2.65 0 2.94-1.43 2.94-2.05v-.19c0-1.23-.89-1.95-1.74-2.64M775.13 73.62H757l8.66-22 9.47 22Zm17.37 14.8a4.51 4.51 0 0 1-2-2.11l-18.9-41.93c-.11-.27-.16-.39.93-1.22a3.28 3.28 0 0 0 1.7-2.63 2.38 2.38 0 0 0-2.63-2.24h-9.8a2.41 2.41 0 0 0-2.71 2.39 3.57 3.57 0 0 0 1.64 2.55c1 .82 1.09 1 1 1.31l-17 41.84a4.05 4.05 0 0 1-1.89 2.08 3 3 0 0 0-1.79 2.51v.15c0 .37.14 2.24 2.94 2.24h7.27c2.22 0 3-1.21 3-2.39 0-1.18-1.07-2-1.85-2.44-1.07-.66-1-.73-.85-1.2l3.11-7.84h22.74l3.39 7.86c.19.45.22.52-.85 1.18a3.05 3.05 0 0 0-1.85 2.59c0 1 .77 2.24 2.93 2.24h10.34c2.17 0 2.94-1.21 2.94-2.39a3.13 3.13 0 0 0-1.83-2.55h.02ZM822.62 84.93V45c0-1 .42-1 .73-1h5.37c11.46 0 23.64 8.32 23.64 23.72 0 13.74-10.11 19.89-20.12 19.89h-7.43c-1.46 0-2.19-.91-2.19-2.7m7.32-46.64h-16.77c-2.08 0-3 1.13-3 2.39a3 3 0 0 0 1.66 2.44c.79.56 1.17.87 1.17 1.69v42c0 .78-.4 1.11-1.17 1.66a3.13 3.13 0 0 0-1.66 2.48v.14c0 1.11.93 2.24 3 2.24h19.53c17.42 0 29.58-11.51 29.58-28 0-15.44-13.9-27.09-32.34-27.09M925.64 80.82a2.27 2.27 0 0 0-1.76-.78h-.46c-2 0-3.14 1.88-4.35 3.88-1.06 1.74-2.25 3.71-3.69 3.71h-18c-1.24 0-1.43-1.14-1.43-1.81l.07-17.76h12.54c.66 0 1 .47 1.67 1.8.51 1 1.2 2.41 2.77 2.41h.31a2.43 2.43 0 0 0 2.4-2.61v-9.07a2.4 2.4 0 0 0-2.4-2.61H913c-1.59 0-2.27 1.44-2.78 2.49-.65 1.38-1 1.86-1.66 1.86H896V45.18c0-1.16.29-1.16.74-1.16H913c1.48 0 2.82 2 4 3.78 1.18 1.78 2.4 3.6 4.2 3.6h.39a2.36 2.36 0 0 0 1.88-.8 2.62 2.62 0 0 0 .4-2.35L922 41a3.09 3.09 0 0 0-3.29-2.7h-32.47c-1.92 0-2.78 1.09-2.78 2.39a3 3 0 0 0 1.61 2.36c.81.57 1.23.91 1.23 1.84v41.89c0 .91-.41 1.24-1.2 1.79a3 3 0 0 0-1.64 2.41v.15c0 1.12.93 2.24 3 2.24H921a3.15 3.15 0 0 0 3.36-2.74l1.85-7.51a2.67 2.67 0 0 0-.54-2.29"></path>
  </g>
</svg>
