<?xml version="1.0" encoding="UTF-8"?>
<svg width="207px" height="45px" viewBox="0 0 207 45" version="1.1" xmlns="http://www.w3.org/2000/svg" xmlns:xlink="http://www.w3.org/1999/xlink">
    <!-- Generator: Sketch 46.2 (44496) - http://www.bohemiancoding.com/sketch -->
    <title>digital-jolt</title>
    <desc>Created with Sketch.</desc>
    <defs></defs>
    <g id="Site" stroke="none" stroke-width="1" fill="none" fill-rule="evenodd">
        <g id="Index-v2" transform="translate(-727.000000, -1338.000000)" fill-rule="nonzero">
            <g id="Client-Block" transform="translate(188.000000, 1207.000000)">
                <g id="digital-jolt" transform="translate(539.000000, 131.000000)">
                    <path d="M65,11 L70.3398693,11 C78.1633987,11 84,14.9473684 84,23.6973684 C84,32.4473684 78.2254902,36 70.3398693,36 L65,36 L65,11 Z M67.2973856,13.0394737 L67.2973856,33.8947368 L70.2156863,33.8947368 C76.9215686,33.8947368 81.6405229,31.4605263 81.6405229,23.6315789 C81.6405229,15.9342105 76.9215686,13.0394737 70.2156863,13.0394737 L67.2973856,13.0394737 L67.2973856,13.0394737 Z" id="Shape" fill="#7A7080"></path>
                    <path d="M88,11 L91,11 L91,13.6109661 L88,13.6109661 L88,11 Z M88.1621622,17.6579634 L91,17.6579634 L91,36 L88.1621622,36 L88.1621622,17.6579634 Z" id="Shape" fill="#7A7080"></path>
                    <path d="M93,38.2376238 C93,37.1435644 93.5099602,36.3069307 93.9561753,35.8564356 L95.8047809,35.8564356 L95.8685259,35.9207921 C95.4860558,36.4356436 95.1035857,37.0792079 95.1035857,38.0445545 C95.1035857,40.039604 97.0796813,41.1336634 100.776892,41.1336634 C104.856574,41.1336634 106.896414,39.3316832 106.896414,37.1435644 C106.896414,35.3415842 105.749004,34.8267327 103.645418,34.7623762 L98.6095618,34.5049505 C95.8685259,34.3762376 94.6573705,33.2178218 94.6573705,31.3514851 C94.6573705,29.8712871 95.4860558,28.8415842 96.8884462,28.1336634 C95.1035857,27.1683168 93.9561753,25.3663366 93.9561753,23.1138614 C93.9561753,19.3811881 96.8247012,17 100.521912,17 C101.350598,17 102.179283,17.1930693 102.944223,17.5148515 L108.553785,17.1930693 L108.553785,19.0594059 L104.984064,19.0594059 C106.131474,19.8960396 107.023904,21.3118812 107.023904,23.1782178 C107.023904,26.9108911 104.091633,29.1633663 100.458167,29.1633663 C99.7569721,29.1633663 99.0557769,29.0346535 98.4183267,28.9059406 C97.0796813,29.4207921 96.5059761,30 96.5059761,31.029703 C96.5059761,31.9950495 97.2071713,32.3811881 98.8007968,32.4455446 L103.772908,32.6386139 C106.960159,32.8316832 109,33.9257426 109,37.1435644 C109,40.5544554 105.940239,43 100.713147,43 C96.059761,42.8712871 93,41.3267327 93,38.2376238 Z M105.047809,23.049505 C105.047809,20.2821782 103.071713,18.6089109 100.585657,18.6089109 C98.0358566,18.6089109 96.123506,20.2178218 96.123506,23.049505 C96.123506,25.7524752 98.0996016,27.4257426 100.585657,27.4257426 C103.071713,27.4257426 105.047809,25.7524752 105.047809,23.049505 Z" id="Shape" fill="#7A7080"></path>
                    <path d="M112,11 L115,11 L115,13.6109661 L112,13.6109661 L112,11 Z M112.081081,17.6579634 L114.918919,17.6579634 L114.918919,36 L112.081081,36 L112.081081,17.6579634 Z" id="Shape" fill="#7A7080"></path>
                    <path d="M125.142857,35 C122.675325,35 120.532468,33.8421053 120.532468,30.8187135 L120.532468,18.5321637 L118,18.5321637 L118,16.6666667 L120.532468,16.6666667 L120.532468,13.3859649 L122.805195,13 L122.805195,16.6666667 L127.545455,16.6666667 L127.545455,18.5321637 L122.805195,18.5321637 L122.805195,30.5614035 C122.805195,32.3625731 123.909091,33.0701754 125.597403,33.0701754 C126.311688,33.0701754 127.155844,32.9415205 127.87013,32.748538 L128,32.8128655 L128,34.5497076 C127.285714,34.7426901 126.246753,35 125.142857,35 Z" id="Shape" fill="#7A7080"></path>
                    <path d="M140.906542,33.257732 C139.925234,34.6941581 138.158879,36 135.214953,36 C131.616822,36 129,34.2371134 129,30.8419244 C129,27.185567 132.140187,26.0756014 136.130841,25.4226804 L140.775701,24.6391753 L140.775701,24.1821306 C140.775701,20.2646048 139.074766,19.024055 135.738318,19.024055 C133.71028,19.024055 132.074766,19.4810997 130.439252,20.4604811 L130.308411,20.395189 L130.308411,18.5017182 C131.747664,17.5223368 133.579439,17 135.869159,17 C140.317757,17 143,18.8934708 143,23.9209622 L143,35.6735395 L141.037383,35.6735395 L140.906542,33.257732 Z M140.841121,31.4295533 L140.841121,26.467354 L136.654206,27.185567 C133.252336,27.7731959 131.420561,28.6219931 131.420561,30.9072165 C131.420561,32.9312715 132.859813,34.1718213 135.411215,34.1718213 C138.093458,34.1065292 139.794393,32.8659794 140.841121,31.4295533 Z" id="Shape" fill="#7A7080"></path>
                    <polygon id="Shape" fill="#7A7080" points="148 9.57777778 151 9 151 35 148 35"></polygon>
                    <path d="M159,39.9027484 C161.673267,39.2473573 162.861386,37.9365751 162.861386,34.1353066 L162.861386,11 L165,11 L165,34.2663848 C165,39.5095137 162.920792,41.2790698 159,42 L159,39.9027484 Z" id="Shape" fill="#7A7080"></path>
                    <path d="M170,26.4669398 C170,20.6561975 173.879859,17 178.968198,17 C184.056537,17 188,20.7214867 188,26.4669398 C188,32.2776822 184.056537,35.9991689 178.968198,35.9991689 C173.879859,36.0644582 170,32.2776822 170,26.4669398 Z M185.773852,26.4669398 C185.773852,21.8314038 182.848057,18.9586772 178.968198,18.9586772 C175.088339,18.9586772 172.226148,21.8314038 172.226148,26.4669398 C172.226148,31.1677652 175.088339,34.0404917 178.968198,34.0404917 C182.848057,34.0404917 185.773852,31.1677652 185.773852,26.4669398 Z" id="Shape" fill="#7A7080"></path>
                    <polygon id="Shape" fill="#7A7080" points="192 9.57777778 195 9 195 35 192 35"></polygon>
                    <path d="M204.142857,35 C201.675325,35 199.532468,33.8421053 199.532468,30.8187135 L199.532468,18.5321637 L197,18.5321637 L197,16.6666667 L199.532468,16.6666667 L199.532468,13.3859649 L201.805195,13 L201.805195,16.6666667 L206.545455,16.6666667 L206.545455,18.5321637 L201.805195,18.5321637 L201.805195,30.5614035 C201.805195,32.3625731 202.909091,33.0701754 204.597403,33.0701754 C205.311688,33.0701754 206.155844,32.9415205 206.87013,32.748538 L207,32.8128655 L207,34.5497076 C206.220779,34.7426901 205.181818,35 204.142857,35 Z" id="Shape" fill="#7A7080"></path>
                    <path d="M45.2159686,29.5121515 L20.2028796,43.9867763 C17.8298429,45.3377412 14.9437173,45.3377412 12.6348168,43.9867763 L3.78403141,38.840243 C1.41099476,37.4892781 0,34.9803431 0,32.2784132 L0,22.0496783 C0,19.3477484 1.47513089,16.8388134 3.78403141,15.4878485 L28.7971204,1.01322373 C31.1701571,-0.337741244 34.0562827,-0.337741244 36.3651832,1.01322373 L45.2159686,6.15975697 C47.5890052,7.51072194 49,10.0196569 49,12.7215868 L49,22.9503217 C49,25.6522516 47.5890052,28.1611866 45.2159686,29.5121515 Z" id="Shape" fill="#7A7080"></path>
                    <path d="M37.7346939,19.6342062 L16.9081633,30.9533552 C16.7755102,31.0155483 16.5765306,31.0155483 16.377551,30.9533552 L12.2653061,28.7144026 C12.1326531,28.6522095 12,28.4656301 12,28.2790507 L12,23.8011457 C12,23.6145663 12.1326531,23.49018 12.2653061,23.3657938 L33.0918367,12.0466448 C33.2244898,11.9844517 33.4234694,11.9844517 33.622449,12.0466448 L37.7346939,14.2855974 C37.8673469,14.3477905 38,14.5343699 38,14.7209493 L38,19.1988543 C38,19.3854337 37.8673469,19.5720131 37.7346939,19.6342062 Z" id="Shape" fill="#FFFFFF"></path>
                </g>
            </g>
        </g>
    </g>
</svg>