<?xml version="1.0" encoding="utf-8"?>
<!-- Generator: Adobe Illustrator 28.1.0, SVG Export Plug-In . SVG Version: 6.00 Build 0)  -->
<svg version="1.1" id="Layer_1" xmlns="http://www.w3.org/2000/svg" xmlns:xlink="http://www.w3.org/1999/xlink" x="0px" y="0px"
	 viewBox="0 0 1136.4 147.4" style="enable-background:new 0 0 1136.4 147.4;" xml:space="preserve">
<style type="text/css">
	.st0{fill:#EE3D30;}
</style>
<g id="Layer_2_00000008840091718478835320000014742320010907134601_">
	<g id="Layer_1-2">
		<path d="M211.7,25.4v36.2h24.5v23.6h-24.5v60.9h-25.2V1.1h52.4v24.3H211.7z"/>
		<path d="M242.7,146.1V1.1H269v145H242.7z"/>
		<path d="M319,146.1l-1.1-4.7c-2.7,3.6-9.2,5.8-15.4,5.8c-15.4,0-25.9-8.1-26.6-25c-0.4-4.7-0.9-34.8-0.9-48.2s-0.4-37.2,1.1-49.1
			C277.3,13.4,284.9,0,306.3,0c21.6,0,28.1,13.2,29.4,23.9c0.2,4.9,0.4,26.6,0.4,26.6h-24.6V30.5c0-5.6-1.6-7.8-4.9-7.8
			c-3.1,0-4.9,2.4-4.9,8.5c-0.2,9.8-0.2,33-0.2,42.6c0,8.9,0.2,37.2,0.4,43c0,6.7,1.5,9.4,5.4,9.4c3.6,0,5.4-2.4,5.4-8.7V86.6h-7.4
			V64.5h31.5v49.1c0,16.5,0.4,32.4,0.4,32.4H319z"/>
		<path d="M377.9,146.1V84.5h-10.3v61.6h-25V1.1h25v61.1h10.3V1.1h25v145H377.9z"/>
		<path d="M447.9,25.4v120.7h-25.4V25.4h-15.4V1.1h56.5v24.3H447.9z"/>
		<path d="M499.9,12.3v55.1h19.8v10.9h-19.8v67.8h-11.2V1.1h32.5v11.2H499.9z"/>
		<path d="M564,24.6c0,6.5,0.2,34.1,0.2,48.4c0,15.9,0,40.6-0.2,50c-0.5,16-6.3,24.1-19.6,24.1s-18.8-7.6-19.2-23.7
			c-0.2-4-0.2-34.6-0.2-50.2c0-13.4,0-43.1,0.2-48c0.4-16.7,6-24.8,19.2-24.8C557.2,0.4,563.5,7.8,564,24.6z M552.3,125.2
			c0.4-6.3,0.4-40.8,0.4-51.8c0-9.8,0-43.9-0.2-49.7c-0.2-8.3-2-12-7.8-12c-6.5,0-7.8,4.7-7.8,12.1c0,6-0.2,39.5-0.2,50
			c0,11,0,45.1,0.2,51.3s1.8,10.7,8,10.7C550.3,135.9,551.9,131,552.3,125.2z"/>
		<path d="M605.7,64.9c-1.3,3.6-4,8.3-6.3,9.2l11.8,72h-11.8L589,77.6l-5.6,0.2v68.3h-10.9V1.1h17.2c10,0,14.7,5.4,16.8,15
			c0.9,4.2,1.5,12.7,1.5,24.1C608.1,52.2,607.4,59.6,605.7,64.9z M595.6,21.4c-0.4-5.4-2.7-9.4-6.7-9.4h-5.3v55.1
			c1.9,0,3.9-0.1,5.8-0.4c3.1-0.4,4.4-2.7,5.1-5.1c1.3-3.4,1.8-14,1.8-19.6C596.3,34.6,595.8,23.2,595.6,21.4L595.6,21.4z"/>
		<path d="M649,12v134.1h-11.4V12h-12.9V1.1h37.3V12H649z"/>
		<path d="M693.3,146.1V78.3h-14.7v67.8h-11.2V1.1h11.2v66.3h14.7V1.1h11.2v145H693.3z"/>
		<path d="M714.3,146.1V1.1h32.4V12h-21.2v55.4h18.7v10.9h-18.7v56.9h21.4v10.9L714.3,146.1z"/>
		<path d="M795.7,25.4v36.2h24.5v23.6h-24.5v60.9h-25.2V1.1h52.4v24.3H795.7z"/>
		<path d="M856.9,147.4c-18.1,0-31-9.1-31-29.7V1.1h25v116.4c0,6.2,1.6,7.8,5.3,7.8s4.9-1.8,4.9-7.6V1.1h25.2v116.5
			C886.3,136.8,875.4,147.4,856.9,147.4z"/>
		<path d="M930.9,25.4v120.7h-25.4V25.4h-15.4V1.1h56.5v24.3H930.9z"/>
		<path d="M980.9,147.4c-18.1,0-31-9.1-31-29.7V1.1h25v116.4c0,6.2,1.6,7.8,5.3,7.8s4.9-1.8,4.9-7.6V1.1h25.2v116.5
			C1010.3,136.8,999.4,147.4,980.9,147.4z"/>
		<path d="M1074.4,67.1c-1.8,5.1-4.9,8.9-7.4,10.2l13.2,68.9H1055l-10.9-61.4h-2.7v61.4h-24.3V1.1h33.7c9.2,0,18.1,4.2,21.8,12.1
			c2.7,6,4.9,16.3,4.9,29.4C1077.5,54.2,1076.2,61.8,1074.4,67.1z M1051.4,31.3c-0.4-3.8-2-6.9-5.3-6.9h-4.3v38.6
			c0.4,0,3.6,0,4.9-0.2c2.3-0.4,3.4-2,4-4c0.9-2.5,1.3-9.2,1.3-13.6C1052,40.1,1051.6,33,1051.4,31.3L1051.4,31.3z"/>
		<path d="M1084.6,146.1V1.1h51.7v24.3h-26.5v36.2h24.1v22.7h-24.1v38.1h26.6v23.8H1084.6z"/>
		<path class="st0" d="M117.2,61.8c-1.1,14.1-11.8,31.6-43,53.4C43.1,93.4,32.4,76,31.3,61.8v-4.9c1.2-14.8,10.9-22.5,19.3-23.3
			c1.3-0.1,2.6-0.2,3.9-0.2c9.7,0,14.4,4.2,19.7,10.6c5.3-6.4,10-10.6,19.7-10.6c1.3,0,2.6,0.1,3.9,0.2c8.4,0.8,18.2,8.5,19.3,23.3
			V61.8z"/>
	</g>
</g>
</svg>
