<?xml version="1.0" encoding="utf-8"?>
<!-- Generator: Adobe Illustrator 28.1.0, SVG Export Plug-In . SVG Version: 6.00 Build 0)  -->
<svg version="1.1" id="layer" xmlns="http://www.w3.org/2000/svg" xmlns:xlink="http://www.w3.org/1999/xlink" x="0px" y="0px"
	 viewBox="0 0 652 652" style="enable-background:new 0 0 652 652;" xml:space="preserve">
<style type="text/css">
	.st0{fill:#00B5E2;stroke:#00B5E2;stroke-width:9.403;}
</style>
<path class="st0" d="M563,252.5c35.4,85-4.6,182.6-89.6,218.1c-68.3,28.5-147.2,8.6-193.8-49h-43.4c53.3,97.9,176.1,134,274,80.7
	c97.4-53,133.7-174.6,81.5-272.4L563,252.5z M519.2,191.3l28.5-22.1c-81.1-76.6-208.8-72.8-285.4,8.3c-9.5,10.1-17.9,21.1-25.2,32.9
	h43.6c58.6-70.9,163.6-81,234.6-22.4C516.6,189,517.8,190.2,519.2,191.3z"/>
<path d="M240.3,364.9l29.2-133.9H87.9c-20.6,0.7-38.3,14.9-43.5,34.9v0.6l-6.9,31.5l-7.8,35l-14.9,67.2h40.3l14.9-67.1h104.7
	l7.8-35.3H78.2l7.1-31.9h138.2L211,321.1l-9.7,44.1c-3.9,14.9,5,30.1,19.8,33.9c2.9,0.7,5.9,1.1,8.9,0.8h119.5l1.7-7.3l5.9-28H240.8
	L240.3,364.9z M581.3,169.1L408.3,303.2l0.2-0.2L351.4,231h-48.1l0.7,0.9H304l60.7,74.5l21.3,26l-14.6,67.7h40.1l14.6-67.4
	l211.1-163.6L581.3,169.1L581.3,169.1z"/>
</svg>
