<svg class="header_logo__0c99w" viewBox="0 0 505.8 163.7" xmlns="http://www.w3.org/2000/svg"><path d="m35.1 53.9v-.1c0-12.3 9.7-22 22.8-22 7.4 0 12.7 2.3 17.2 6.2l-6.9 8.3c-3-2.5-6.1-4-10.2-4-6.1 0-10.8 5.1-10.8 11.6v.1c0 6.8 4.8 11.7 11.5 11.7 2.8 0 5-.6 6.8-1.8v-5.1h-8.5v-8.6h19.5v19.1c-4.5 3.7-10.7 6.5-18.4 6.5-13.2 0-23-9.1-23-21.9z"></path><path d="m81.8 53.9v-.1c0-12.2 9.8-22 22.9-22s22.7 9.7 22.7 21.9v.1c0 12.2-9.8 22-22.9 22s-22.7-9.8-22.7-21.9zm33.6 0v-.1c0-6.1-4.4-11.4-10.9-11.4-6.4 0-10.7 5.2-10.7 11.3v.1c0 6.1 4.4 11.4 10.8 11.4 6.5 0 10.8-5.2 10.8-11.3z"></path><path d="m133.6 32.6h11.7v32.1h20.5v10.3h-32.2z"></path><path d="m172.1 32.6h16.3c15.1 0 23.9 8.7 23.9 20.9v.1c0 12.2-8.9 21.3-24.1 21.3h-16.1zm16.5 31.9c7 0 11.7-3.9 11.7-10.7v-.1c0-6.8-4.7-10.7-11.7-10.7h-4.8v21.5z"></path><path d="m219.6 32.6h11.7v15.8h15.1v-15.8h11.7v42.3h-11.7v-16.1h-15.1v16.1h-11.7z"></path><path d="m267.1 32.6h11.8v42.3h-11.8z"></path><path d="m286.1 32.6h20c6.5 0 10.9 1.7 13.8 4.6 2.5 2.4 3.8 5.7 3.8 9.9v.1c0 6.5-3.5 10.8-8.7 13l10.1 14.8h-13.5l-8.6-12.9h-.1-5v12.8h-11.7v-42.3zm19.5 20.3c4 0 6.3-1.9 6.3-5v-.1c0-3.3-2.4-5-6.4-5h-7.7v10.2h7.8z"></path><path d="m329.4 68.6 6.5-7.8c4.2 3.3 8.8 5.1 13.7 5.1 3.1 0 4.8-1.1 4.8-2.9v-.1c0-1.8-1.4-2.7-7.1-4.1-9-2.1-16-4.6-16-13.3v-.1c0-7.9 6.2-13.5 16.4-13.5 7.2 0 12.8 1.9 17.4 5.6l-5.9 8.3c-3.9-2.7-8.1-4.2-11.9-4.2-2.8 0-4.2 1.2-4.2 2.7v.1c0 1.9 1.5 2.8 7.3 4.1 9.7 2.1 15.8 5.3 15.8 13.2v.1c0 8.7-6.8 13.8-17.1 13.8-7.4 0-14.5-2.3-19.7-7z"></path><path d="m373.2 32.6h11.8v15.8h15v-15.8h11.7v42.3h-11.7v-16.1h-15v16.1h-11.7v-42.3z"></path><path d="m38.3 91.4h37.4v10.3h-25.7v7.2h21.4v9.7h-21.4v15.1h-11.7z"></path><path d="m81.8 112.7v-.1c0-12.2 9.8-22 22.9-22s22.7 9.7 22.7 21.9v.1c0 12.2-9.8 22-22.9 22s-22.7-9.7-22.7-21.9zm33.6 0v-.1c0-6.1-4.4-11.4-10.9-11.4-6.4 0-10.7 5.2-10.7 11.3v.1c0 6.1 4.4 11.4 10.8 11.4 6.5 0 10.8-5.2 10.8-11.3z"></path><path d="m133.1 115.2v-23.8h11.9v23.5c0 6.1 3.1 9 7.8 9s7.8-2.8 7.8-8.7v-23.8h11.9v23.5c0 13.7-7.8 19.7-19.8 19.7-12-.1-19.6-6.2-19.6-19.4z"></path><path d="m180.7 91.4h11l17.4 22.4v-22.4h11.6v42.3h-10.3l-18.1-23.2v23.2h-11.6z"></path><path d="m229.4 91.4h16.3c15.1 0 23.9 8.7 23.9 20.9v.1c0 12.2-8.9 21.3-24.1 21.3h-16.1zm16.5 31.9c7 0 11.7-3.9 11.7-10.7v-.1c0-6.8-4.7-10.7-11.7-10.7h-4.8v21.5z"></path><path d="m286.4 91.1h11.3l18 42.6h-12.6l-3.1-7.6h-16.3l-3 7.6h-12.3zm10.3 25.9-4.7-12-4.8 12z"></path><path d="m326 101.7h-12.7v-10.3h37.1v10.3h-12.7v32.1h-11.7z"></path><path d="m357.1 91.4h11.8v42.3h-11.8z"></path><path d="m376.4 112.7v-.1c0-12.2 9.8-22 22.9-22s22.7 9.7 22.7 21.9v.1c0 12.2-9.8 22-22.9 22s-22.7-9.7-22.7-21.9zm33.6 0v-.1c0-6.1-4.4-11.4-10.9-11.4-6.4 0-10.7 5.2-10.7 11.3v.1c0 6.1 4.4 11.4 10.8 11.4 6.5 0 10.8-5.2 10.8-11.3z"></path><path d="m427.2 91.4h10.9l17.4 22.4v-22.4h11.6v42.3h-10.3l-18.1-23.2v23.2h-11.6v-42.3z"></path><path d="m505.8 163.7h-505.8v-163.7h505.8zm-491.1-14.7h476.3v-134.3h-476.3z"></path></svg>
