<?xml version="1.0" encoding="UTF-8"?><svg id="Logos" xmlns="http://www.w3.org/2000/svg" viewBox="0 0 800 263.73"><defs><style>.cls-1,.cls-2{fill:#b8a7d1;}.cls-2{isolation:isolate;opacity:.5;}</style></defs><path class="cls-1" d="m278.07,154.54h-37.77v-56.71c0-.97-.78-1.75-1.75-1.75h-14.11c-.97,0-1.75.78-1.75,1.75v67.87c0,.97.78,1.75,1.75,1.75h53.63c.97,0,1.75-.78,1.75-1.75v-9.41c0-.97-.78-1.75-1.75-1.75Z"/><rect class="cls-1" x="289.43" y="114.44" width="17" height="53.02" rx="1.75" ry="1.75"/><rect class="cls-1" x="289.13" y="92.31" width="17.61" height="14.2" rx="1.75" ry="1.75"/><path class="cls-1" d="m732.32,151.9l-11.01-2.88c-.79-.21-1.62.17-1.99.9-2.31,4.48-6.49,6.65-12.57,6.65-10.38,0-13.09-6.93-13.79-12.16h38.95c.96,0,1.75-.77,1.75-1.73.03-8.93-2.72-29.37-27.89-29.43-17.3-.05-29.79,11.62-29.79,28.21s11.47,27.29,30.3,27.29c12.75,0,22.46-5.1,27.17-14.38.5-.99-.06-2.19-1.13-2.47Zm-26.55-26.76c7.87,0,10,4.76,10.65,7.84.23,1.09-.6,2.12-1.71,2.12h-21.49c1.81-8.48,8.22-9.96,12.55-9.96Z"/><path class="cls-1" d="m419.2,142.44c.03-8.93-2.72-29.37-27.89-29.43-17.3-.05-29.79,11.62-29.79,28.21s11.47,27.29,30.3,27.29c12.75,0,22.46-5.1,27.17-14.38.5-.99-.06-2.19-1.13-2.47l-11.01-2.88c-.79-.21-1.62.17-1.99.9-2.31,4.48-6.49,6.65-12.57,6.65-10.38,0-13.09-6.93-13.79-12.16h38.95c.96,0,1.75-.77,1.75-1.73Zm-18.95-7.58h-21.49c1.81-8.48,8.22-9.96,12.55-9.96,7.87,0,10,4.76,10.65,7.84.23,1.09-.6,2.12-1.71,2.12Z"/><path class="cls-1" d="m471.15,126.35c-11.55-2.24-23.37-1.86-23.37-9.8,0-5.81,5.63-8.76,12.8-8.76,7.75,0,12.81,2.73,15.2,9.18.3.81,1.14,1.29,1.98,1.12l13.08-2.62c1.07-.21,1.69-1.34,1.29-2.36-4.5-11.54-14.65-18.32-31.04-18.32-17.4,0-30.92,8.02-30.92,23.33s13.69,18.2,24.97,20.27c13.07,2.4,20.39,2.34,20.39,8.59,0,5.62-4.81,8.76-13.72,8.76s-15.73-3.15-18.44-10.14c-.32-.83-1.2-1.29-2.06-1.07l-13.47,3.48c-.98.25-1.55,1.29-1.23,2.26,4.19,12.67,16.58,18.48,34.59,18.48,19.86,0,31.94-8.76,31.94-23.14s-11.9-17.29-21.98-19.25Z"/><path class="cls-1" d="m556.57,148.8l-13.04-2.04c-.84-.13-1.64.36-1.92,1.16-1.92,5.56-5.75,8.01-11.25,8.01-8.09,0-12.39-6.09-12.39-15.03,0-9.59,5.02-14.84,12.29-14.84,5.33,0,9.06,2.79,10.8,9.02.24.84,1.05,1.4,1.91,1.28l13.27-1.75c1.06-.14,1.76-1.2,1.46-2.23-3.3-11.38-11.84-19.15-27.44-19.15-17.3,0-29.59,11.16-29.59,28.21s10.24,27.29,29.38,27.29c15.5,0,24.67-7.59,27.91-17.69.33-1.02-.35-2.09-1.4-2.25Z"/><path class="cls-1" d="m594.89,113.15c-17.1,0-30,10.23-30.1,27.94-.1,18.81,12.9,27.66,29.79,27.66s29.9-9.04,29.9-28.03c0-17.89-12.8-27.57-29.59-27.57Zm-.2,42.97c-7.88,0-12.59-5.44-12.59-15.12,0-10.23,4.81-15.21,12.59-15.21s12.49,5.16,12.49,15.21-4.71,15.12-12.49,15.12Z"/><path class="cls-1" d="m672.53,113.94c-8.88-3.18-17.65,2.21-20.94,9.76v-.5s0-7.01,0-7.01c0-.97-.78-1.75-1.75-1.75h-13.39c-.97,0-1.75.78-1.75,1.75v49.52c0,.97.78,1.75,1.75,1.75h13.5c.97,0,1.75-.78,1.75-1.75v-20.06s0,0,0-.01c0-18.24,9.64-20.08,17.33-16.93,1.01.41,2.14-.22,2.35-1.28l2.28-11.49c.17-.85-.31-1.7-1.12-1.99Z"/><path class="cls-1" d="m357.38,92.76c-3.01-.82-6.85-1.28-10.4-1.28-13.06,0-20.31,6.92-20.31,19.36v3.6h-9.22c-1.22,0-2.21.99-2.21,2.21v6.83c0,1.22.99,2.21,2.21,2.21h9.22v40.02c0,.97.78,1.75,1.75,1.75h13.44c.97,0,1.75-.78,1.75-1.75v-40.02h11.16c1.22,0,2.21-.99,2.21-2.21v-6.83c0-1.22-.99-2.21-2.21-2.21h-11.57v-2.77c0-5.72,2.25-8.11,7.45-8.11,1.43,0,2.91.18,4.31.51.95.23,1.9-.41,2.09-1.37l1.57-7.92c.18-.89-.36-1.79-1.24-2.02Z"/><path class="cls-2" d="m172.2,93.39c3.69,0,4.52,2.07,1.83,4.6-10.87,10.22-37.74,33.95-53.06,33.95s-42.19-23.73-53.06-33.95c-2.69-2.53-1.86-4.6,1.83-4.6h102.46Z"/><path class="cls-2" d="m74.77,73.46c-2.6,0-3.63,1.81-2.28,4.03,8,13.23,34.07,54.44,48.49,54.44s40.49-41.22,48.49-54.44c1.34-2.22.31-4.03-2.28-4.03h-92.41Z"/><path class="cls-1" d="m120.98,131.94c-18.2,0-37.97-8.84-49.04-14.68-5.21-2.75-4.64-5.01,1.25-5.01h95.58c5.89,0,6.46,2.27,1.25,5.01-11.07,5.83-30.84,14.68-49.04,14.68Z"/><path class="cls-2" d="m69.75,170.34c-3.69,0-4.52-2.07-1.83-4.6,10.87-10.22,37.74-33.95,53.06-33.95s42.19,23.73,53.06,33.95c2.69,2.53,1.86,4.6-1.83,4.6h-102.46Z"/><path class="cls-2" d="m167.18,190.26c2.6,0,3.63-1.81,2.28-4.03-8-13.23-34.07-54.44-48.49-54.44s-40.49,41.22-48.49,54.44c-1.34,2.22-.31,4.03,2.28,4.03h92.41Z"/><path class="cls-1" d="m120.98,131.79c18.2,0,37.97,8.84,49.04,14.68,5.21,2.75,4.64,5.01-1.25,5.01h-95.58c-5.89,0-6.46-2.27-1.25-5.01,11.07-5.83,30.84-14.68,49.04-14.68Z"/></svg>