<svg width="157" height="59" viewBox="0 0 157 59" fill="none" xmlns="http://www.w3.org/2000/svg">
    <path fill-rule="evenodd" clip-rule="evenodd" d="M48.27 34V44.43H47.05V35.72L45.1 44.36L45.08 44.44H44.2L44.18 44.36L42.22 35.72V44.44H41V34H42.94L42.96 34.08L44.65 41.45L46.31 34.08L46.33 34H48.27ZM45.12 39.82L44.68 41.78H44.69V41.82L45.12 39.82ZM42.12 35.06L42.1 34.97L42.12 37.71V35.06ZM46.551 37.461L47.1 35.04V34.95L46.551 37.461ZM68.8498 42.14H68.7598L68.7398 42.22C68.6298 42.82 68.3398 43.53 67.5998 43.53C66.8098 43.53 66.3198 43.15 66.3198 41.23V40.92H69.7898V40.34C69.7898 38.01 68.9498 36.72 67.4398 36.72C65.8098 36.72 65.0898 37.93 65.0898 40.65C65.0898 43.37 65.8198 44.58 67.4398 44.58C68.0498 44.58 68.6298 44.35 69.0798 43.94C69.5298 43.53 69.8098 42.97 69.8698 42.36V42.26H69.7798L68.8398 42.13L68.8498 42.14ZM66.3298 39.87C66.3698 38.01 66.9498 37.77 67.4598 37.77C68.2498 37.77 68.5498 38.32 68.5898 39.87H66.3298ZM72.2903 36.87V37.61C72.8503 36.88 73.3303 36.75 74.1103 36.75H74.2103V37.89H74.1103C73.4003 37.89 72.8603 38.1 72.3203 39.12V44.44H71.1003V44.34L71.0703 36.97V36.87H72.2903ZM72.3443 37.723C72.3636 37.6954 72.3826 37.6683 72.4003 37.64C72.3823 37.6653 72.3629 37.6906 72.3432 37.7163L72.3431 37.7164C72.3082 37.7619 72.2722 37.8089 72.2403 37.86V37.89C72.2726 37.8254 72.3091 37.7733 72.3443 37.723ZM72.2903 51.0399V51.7799C72.8503 51.0499 73.3303 50.9199 74.1103 50.9199H74.2103V52.0599H74.1103C73.4003 52.0599 72.8603 52.2699 72.3203 53.2899V58.6099H71.1003V58.5099L71.0703 51.1399V51.0399H72.2903ZM72.341 51.8903C72.3615 51.8598 72.3816 51.8299 72.4003 51.7999C72.3822 51.8252 72.3629 51.8505 72.3431 51.8763C72.3082 51.9218 72.2722 51.9688 72.2403 52.0199V52.0499C72.2716 51.9936 72.3068 51.9412 72.341 51.8903ZM78.1396 56.0899H78.0496V56.1799C77.8696 57.4599 77.5096 57.7099 76.9496 57.7099C76.1796 57.7099 75.8196 57.2799 75.8196 54.8299C75.8196 52.3799 76.1896 51.9499 76.9496 51.9499C77.3496 51.9499 77.8996 52.0899 78.0096 53.3299V53.4199H79.2196L79.1996 53.3099C78.9796 51.6899 78.2396 50.8999 76.9496 50.8999C75.3196 50.8999 74.5996 52.1099 74.5996 54.8299C74.5996 57.5499 75.3296 58.7599 76.9496 58.7599C78.2296 58.7599 79.0396 57.8499 79.2296 56.2099V56.0999H78.1396V56.0899ZM69.2098 53.0999V57.2199L69.2198 57.2399C69.1898 57.6599 69.2498 58.0999 69.3998 58.4999L69.4498 58.6399H68.1598L68.1398 58.5599L68.0498 58.1099C67.6398 58.4799 67.1098 58.7199 66.5498 58.7899H66.4198C66.1898 58.7899 65.9698 58.7499 65.7598 58.6699C65.5098 58.5699 65.2798 58.4299 65.0898 58.2399C64.8898 58.0499 64.7498 57.8199 64.6498 57.5699C64.5598 57.3199 64.5098 57.0499 64.5298 56.7899C64.5298 55.0699 66.3098 54.0399 67.9998 53.6499V53.2099C67.9998 52.4599 67.6298 51.9899 67.0398 51.9899C66.3398 51.9899 65.9698 52.6899 65.8598 53.3499L65.8398 53.4499L65.7398 53.4299L64.7998 53.2599L64.6998 53.2399L64.7198 53.1399C64.9598 51.7399 65.8098 50.8999 66.9998 50.8999C68.3598 50.8999 69.2098 51.7399 69.2098 53.0999ZM66.6798 57.7099C66.9398 57.6799 67.1898 57.5999 67.4198 57.4799C67.6498 57.3599 67.8398 57.1999 67.9898 57.0099V54.6899C67.2198 54.9399 65.7398 55.5599 65.7398 56.6799C65.7398 57.3699 66.0398 57.7099 66.6798 57.7099ZM67.9251 58.0359L67.9046 58.0555L67.8885 58.0712L67.8798 58.0799C67.9398 58.0299 67.9998 57.9799 68.0498 57.9299V57.8999C68.0124 57.9522 67.9694 57.9934 67.9251 58.0359ZM51.5295 56.3199H51.4395L51.4195 56.3999C51.3095 56.9999 51.0195 57.7099 50.2795 57.7099C49.4895 57.7099 48.9995 57.3299 48.9995 55.4099V55.0999H52.4695V54.5199C52.4695 52.1899 51.6295 50.8999 50.1195 50.8999C48.4895 50.8999 47.7695 52.1099 47.7695 54.8299C47.7695 57.5499 48.4995 58.7599 50.1195 58.7599C50.7295 58.7599 51.3095 58.5299 51.7595 58.1199C52.2095 57.7099 52.4895 57.1499 52.5495 56.5399V56.4399H52.4595L51.5095 56.3099L51.5295 56.3199ZM49.0095 54.0499C49.0495 52.1899 49.6295 51.9499 50.1395 51.9499C50.9295 51.9499 51.2295 52.4999 51.2695 54.0499H49.0095ZM46.2204 52.5199C45.9304 52.9599 45.5004 53.3099 45.0104 53.4999H45.0004L46.7004 58.4799L46.7504 58.6099H45.3804L45.3604 58.5399L43.7404 53.7599L42.4604 53.8099V58.6099H41.1504V48.1799H43.7204C45.5204 48.1799 46.6304 49.2299 46.6304 50.9199C46.6704 51.4799 46.5304 52.0499 46.2204 52.5199ZM43.3104 49.3099H42.4604V52.6499H43.3104C44.7304 52.6499 45.3104 52.1699 45.3104 50.9799C45.3104 49.7899 44.7304 49.3099 43.3104 49.3099ZM78.3098 42.14H78.2198L78.1998 42.22C78.0898 42.82 77.7998 43.53 77.0598 43.53C76.2698 43.53 75.7798 43.15 75.7798 41.23V40.92H79.2498V40.34C79.2498 38.01 78.4098 36.72 76.8998 36.72C75.2698 36.72 74.5498 37.93 74.5498 40.65C74.5498 43.37 75.2798 44.58 76.8998 44.58C77.5098 44.58 78.0898 44.35 78.5398 43.94C78.9898 43.53 79.2698 42.97 79.3298 42.36V42.26H79.2398L78.2898 42.13L78.3098 42.14ZM75.7898 39.87C75.8298 38.01 76.4098 37.77 76.9198 37.77C77.7098 37.77 78.0098 38.32 78.0498 39.87H75.7898ZM63 34.3999V36.8699H64.36V37.9199H63V42.9999C62.99 43.0799 63 43.1699 63.03 43.2499C63.05 43.3299 63.1 43.3999 63.16 43.4599C63.22 43.5199 63.29 43.5599 63.37 43.5899C63.43 43.6099 63.49 43.6199 63.56 43.6199H63.62C63.83 43.5999 64.03 43.5499 64.22 43.4799L64.36 43.4299V44.4099L64.29 44.4299C63.99 44.5299 63.67 44.5799 63.35 44.5799H63.32C62.3 44.5799 61.8 44.0299 61.8 42.8899V37.9199H60.81V37.8199L60.79 36.9699V36.8699H61.78V34.3999H63ZM101.39 44.3001C101.25 45.0001 100.89 45.8101 99.9604 45.8101H99.5504V46.8401H100.17C101.38 46.8401 102.17 45.9801 102.59 44.2001L104.28 36.9801L104.31 36.8601H103.05L103.03 36.9401L101.97 42.2101L100.67 36.9401L100.65 36.8601H100.57L99.5304 36.8801H99.4004L99.4304 37.0101L101.38 44.3001H101.39ZM102.02 42.5901V42.5501L102.3 41.1301L102.02 42.5901ZM103.89 38.2101L104.17 36.9601H104.18L103.89 38.2101ZM59.8402 38.76V44.44L59.8502 44.45H58.6502V38.9C58.6502 37.91 58.2902 37.78 57.9402 37.78C57.4302 37.78 57.0702 38.09 56.6202 38.62V44.44H55.4102V36.87H56.5502V37.53C56.9702 37.12 57.5202 36.84 58.1002 36.73H58.1202C59.2602 36.73 59.8402 37.41 59.8402 38.76ZM56.6471 37.5842C56.5929 37.641 56.5417 37.7007 56.5002 37.77V37.73C56.5481 37.6752 56.596 37.6299 56.6471 37.5842ZM62.5598 56.3199H62.4698L62.4498 56.3999C62.3398 56.9999 62.0498 57.7099 61.3098 57.7099C60.5198 57.7099 60.0298 57.3299 60.0298 55.4099V55.0999H63.4998V54.5199C63.4998 52.1899 62.6598 50.8999 61.1498 50.8999C59.5198 50.8999 58.7998 52.1099 58.7998 54.8299C58.7998 57.5499 59.5298 58.7599 61.1498 58.7599C61.7598 58.7599 62.3398 58.5299 62.7898 58.1199C63.2398 57.7099 63.5198 57.1499 63.5798 56.5399V56.4399H63.4898L62.5398 56.3099L62.5598 56.3199ZM60.0398 54.0499C60.0798 52.1899 60.6598 51.9499 61.1698 51.9499C61.9598 51.9499 62.2598 52.4999 62.2998 54.0499H60.0398ZM49.3701 40.66C49.3701 37.94 50.0901 36.73 51.7201 36.73C53.3401 36.73 54.0701 37.94 54.0701 40.66C54.0701 43.38 53.3401 44.59 51.7201 44.59C50.1001 44.59 49.3701 43.38 49.3701 40.66ZM51.7201 43.54C52.4801 43.54 52.8501 43.11 52.8501 40.66C52.8501 38.21 52.4801 37.78 51.7201 37.78C50.9601 37.78 50.5901 38.21 50.5901 40.66C50.5901 43.11 50.9601 43.54 51.7201 43.54ZM56.0598 54.1201C55.3798 53.7001 54.7898 53.3301 54.7898 52.7101C54.7898 52.6001 54.7898 52.5101 54.8298 52.4101C54.8698 52.3101 54.9198 52.2301 54.9798 52.1601C55.0498 52.0901 55.1298 52.0301 55.2198 51.9901C55.3098 51.9501 55.4098 51.9301 55.5098 51.9301C56.2298 51.9301 56.4998 52.3701 56.6898 53.0201L56.7198 53.1201L56.8198 53.0901L57.6498 52.8301L57.7398 52.8001L57.7198 52.7101C57.4598 51.5101 56.7098 50.8701 55.5698 50.8701H55.5098C55.2798 50.8701 55.0498 50.9101 54.8298 50.9901C54.5898 51.0801 54.3698 51.2201 54.1898 51.3901C53.9998 51.5701 53.8598 51.7701 53.7498 52.0101C53.6498 52.2401 53.5898 52.4901 53.5798 52.7501C53.5798 53.9601 54.5098 54.5401 55.3298 55.0501L55.333 55.0521C56.0319 55.4914 56.6998 55.9113 56.6998 56.6501C56.6998 56.9101 56.5998 57.1601 56.4198 57.3501C56.2398 57.5401 55.9898 57.6501 55.7298 57.6701C55.1598 57.6701 54.7498 57.2701 54.4798 56.4301L54.4498 56.3401L54.3598 56.3601L53.4098 56.5601L53.2998 56.5801L53.3298 56.6801C53.7398 58.0601 54.5198 58.7101 55.7898 58.7101H55.8298C56.0998 58.7101 56.3598 58.6601 56.6098 58.5601C56.8698 58.4501 57.1098 58.3001 57.3098 58.0901C57.5098 57.8901 57.6598 57.6501 57.7698 57.3901C57.8698 57.1301 57.9198 56.8501 57.9098 56.5701C57.9098 55.2595 56.9437 54.6488 56.0784 54.1019L56.0598 54.0901V54.1201ZM112.45 48.5701V51.0401V51.0501H113.81V52.1001H112.45V57.1701C112.44 57.2501 112.45 57.3401 112.48 57.4201C112.5 57.5001 112.55 57.5701 112.61 57.6301C112.67 57.6901 112.74 57.7301 112.82 57.7601C112.88 57.7801 112.94 57.7901 113.01 57.7901H113.07C113.28 57.7701 113.48 57.7201 113.67 57.6501L113.81 57.6001V58.5801L113.74 58.6001C113.44 58.7001 113.12 58.7501 112.8 58.7501H112.77C111.75 58.7501 111.25 58.2001 111.25 57.0601V52.0901H110.26V51.9901L110.24 51.1401V51.0401H111.23V48.5701H112.45ZM125.34 44.4401V44.3401L125.37 36.9701V36.8701H124.15V42.6901C123.7 43.2201 123.34 43.5301 122.83 43.5301C122.48 43.5301 122.12 43.4001 122.12 42.4101V36.8701H120.9V42.5701C120.9 43.9201 121.48 44.6001 122.62 44.6001C123.22 44.4901 123.77 44.2101 124.19 43.8001V44.4401H125.33H125.34ZM124.03 43.8101C124.11 43.7301 124.19 43.6501 124.25 43.5501V43.6001C124.18 43.6801 124.11 43.7501 124.03 43.8101ZM128.44 56.3199H128.52L129.47 56.4499H129.56V56.5499C129.5 57.1599 129.22 57.7199 128.76 58.1299C128.31 58.5399 127.72 58.7599 127.1 58.7599C125.48 58.7599 124.75 57.5499 124.75 54.8299C124.75 52.1099 125.47 50.8999 127.1 50.8999C128.61 50.8999 129.45 52.1899 129.45 54.5199V55.0999H126.01V55.4099C126.01 57.3299 126.5 57.7099 127.29 57.7099C128.02 57.7099 128.31 56.9999 128.42 56.3999L128.44 56.3199ZM127.14 51.9499C126.63 51.9499 126.05 52.1899 126.01 54.0499H128.27C128.23 52.4999 127.93 51.9499 127.14 51.9499ZM131.54 43.04V38.92C131.54 37.56 130.69 36.72 129.33 36.72C128.14 36.72 127.29 37.56 127.05 38.96L127.03 39.06L127.13 39.08L128.09 39.25L128.19 39.27L128.21 39.17C128.32 38.51 128.69 37.81 129.39 37.81C129.98 37.81 130.35 38.28 130.35 39.03V39.47C128.66 39.86 126.88 40.89 126.88 42.61C126.86 42.87 126.9 43.13 127 43.39C127.1 43.64 127.24 43.86 127.43 44.05C127.62 44.24 127.84 44.38 128.09 44.48C128.31 44.56 128.53 44.6 128.76 44.6H128.87C129.43 44.53 129.96 44.29 130.38 43.92L130.47 44.37L130.49 44.45H131.78L131.73 44.31C131.58 43.91 131.52 43.47 131.55 43.05L131.54 43.04ZM129.75 43.3C129.52 43.43 129.27 43.5 129.01 43.53C128.37 43.53 128.07 43.19 128.07 42.5C128.07 41.38 129.55 40.76 130.32 40.51V42.83C130.17 43.02 129.98 43.18 129.75 43.3ZM130.22 43.91C130.235 43.8948 130.25 43.8803 130.265 43.8659C130.31 43.8234 130.353 43.7823 130.39 43.73V43.76C130.353 43.8041 130.311 43.8374 130.267 43.8719L130.267 43.8719L130.242 43.8919L130.22 43.91ZM122.7 48.5701V51.0401V51.0501H124.04V52.1001H122.68V57.1701C122.67 57.2501 122.68 57.3401 122.71 57.4201C122.73 57.5001 122.78 57.5701 122.84 57.6301C122.9 57.6901 122.97 57.7301 123.05 57.7601C123.11 57.7801 123.17 57.7901 123.24 57.7901H123.3C123.51 57.7701 123.71 57.7201 123.9 57.6501L124.04 57.6001V58.5801L123.97 58.6001C123.67 58.7001 123.35 58.7501 123.03 58.7501H123C121.98 58.7501 121.48 58.2001 121.48 57.0601V52.0901H120.49V51.9901L120.47 51.1401V51.0401H121.48V48.5701H122.7ZM118.44 51.04H118.43H118.34V56.86C117.89 57.39 117.53 57.7 117.02 57.7C116.67 57.7 116.31 57.57 116.31 56.58V51.04H115.09V56.74C115.09 58.09 115.67 58.77 116.81 58.77C117.41 58.66 117.96 58.38 118.38 57.97V58.61H119.52V58.51L119.55 51.14V51.04H118.44ZM118.21 57.98C118.29 57.9 118.37 57.82 118.43 57.72V57.77C118.36 57.85 118.29 57.92 118.21 57.98ZM117.74 44.04C117.4 44.36 116.96 44.54 116.48 44.58C115.64 44.58 114.25 44.07 114.25 40.65C114.25 37.4 115.47 36.72 116.48 36.72C116.8 36.72 117.11 36.8 117.39 36.96C117.59 37.08 117.77 37.22 117.91 37.4V36.87H118.96V46.84H117.74V44.04ZM115.48 40.65C115.48 43.18 116.11 43.53 116.73 43.53L116.74 43.52C117.14 43.46 117.5 43.25 117.75 42.93V38.4C117.64 38.24 117.5 38.1 117.33 37.99C117.15 37.88 116.96 37.8 116.77 37.77C116.17 37.77 115.48 38.12 115.48 40.65ZM117.683 43.9507C117.669 43.9668 117.654 43.9831 117.64 44C117.7 43.95 117.76 43.9 117.81 43.84V43.79C117.772 43.8506 117.728 43.8997 117.683 43.9504L117.683 43.9507ZM152.79 36.73C152.44 36.76 152.1 36.86 151.79 37.03C151.53 37.17 151.3 37.36 151.11 37.58C151 37.35 150.84 37.16 150.63 37.01C150.38 36.83 150.08 36.73 149.76 36.73C149.4 36.76 149.06 36.86 148.75 37.03C148.52 37.16 148.32 37.31 148.14 37.5V36.87H147V44.44H148.21V38.48C148.33 38.29 148.5 38.12 148.69 38C148.89 37.88 149.12 37.8 149.36 37.78C149.8 37.78 150.06 37.93 150.06 38.67V44.44H151.28V38.48C151.42 38.29 151.59 38.13 151.79 38.01C152 37.89 152.24 37.81 152.48 37.78C152.91 37.78 153.13 37.92 153.13 38.67V44.44H154.37V38.53C154.37 37.4037 153.784 36.7344 152.79 36.73ZM152.79 36.73L152.78 36.73H152.79L152.79 36.73ZM151.12 37.76C151.12 37.76 151.12 37.75 151.11 37.74C151.14 37.7 151.18 37.66 151.22 37.62C151.207 37.6412 151.191 37.6607 151.175 37.6799C151.153 37.7058 151.132 37.7312 151.12 37.76ZM148.22 37.58C148.206 37.6007 148.19 37.6215 148.173 37.6427C148.142 37.6827 148.11 37.7242 148.09 37.77V37.72C148.13 37.67 148.18 37.62 148.22 37.58ZM143.92 36.8701H143.93H145.04V36.9701L145.01 44.3401V44.4401H143.87V43.8001C143.45 44.2101 142.9 44.4901 142.3 44.6001C141.16 44.6001 140.58 43.9201 140.58 42.5701V36.8701H141.8V42.4101C141.8 43.4001 142.16 43.5301 142.51 43.5301C143.02 43.5301 143.38 43.2201 143.83 42.6901V36.8701H143.92ZM143.92 43.5501C143.86 43.6401 143.78 43.7301 143.7 43.8101V43.8201C143.78 43.7501 143.85 43.6801 143.92 43.6001V43.5501ZM82.7703 44.2001L84.4603 36.9801L84.4903 36.8601H83.2303L83.2103 36.9401L82.1503 42.2101L80.8503 36.9401L80.8303 36.8601H80.7503L79.7003 36.8801H79.5703L79.6003 37.0101L81.5503 44.3001C81.4103 45.0001 81.0503 45.8101 80.1203 45.8101H79.7103V46.8401H80.3303C81.5403 46.8401 82.3303 45.9801 82.7503 44.2001H82.7703ZM82.2003 42.5901V42.5501L82.4803 41.1101L82.2003 42.5901ZM84.0503 38.2801L84.3503 36.9601H84.3603L84.0503 38.2801ZM137.46 34H137.56H138.59H138.69V34.1V35.29V35.39H138.59H137.57H137.47V35.29L137.46 34.1V34ZM134.61 37.61V36.87H133.39V36.97L133.42 44.34V44.44H134.64V39.12C135.18 38.1 135.72 37.89 136.43 37.89H136.53V36.75H136.43C135.65 36.75 135.17 36.88 134.61 37.61ZM134.72 37.64C134.702 37.6683 134.683 37.6954 134.664 37.723C134.628 37.7733 134.592 37.8254 134.56 37.89V37.86C134.591 37.8091 134.627 37.7622 134.662 37.7169L134.662 37.7167L134.662 37.7165L134.662 37.7164L134.663 37.7162C134.682 37.6905 134.702 37.6652 134.72 37.64ZM137.46 36.8601H137.56H138.59H138.69V36.9601V44.3301V44.4301H138.59H137.57H137.47V44.3301L137.46 36.9601V36.8601ZM112.34 44.36L112.36 44.44H113.67L113.64 44.32L111.39 34.08L111.37 34H109.68L109.66 34.08L107.4 44.32L107.37 44.44H108.68L108.7 44.36L109.29 41.41H111.73L112.32 44.36H112.34ZM111.53 40.27H109.5L110.51 35.3L111.53 40.27ZM111.64 40.32L111.45 39.39L111.65 40.32H111.64ZM107.88 42.62L107.51 44.34H107.5L107.88 42.62ZM94.9402 50.9099H94.9602C96.1002 50.9099 96.6802 51.5899 96.6802 52.9399V58.6299H95.4902V53.0799C95.4902 52.0899 95.1302 51.9599 94.7802 51.9599C94.2702 51.9599 93.9102 52.2699 93.4602 52.7999V58.6199H92.2402V51.0499H93.3902V51.7099C93.8102 51.2999 94.3602 51.0199 94.9402 50.9099ZM93.3402 51.9499C93.4002 51.8599 93.4802 51.7699 93.5602 51.6899V51.6799C93.4802 51.7499 93.4102 51.8199 93.3402 51.8999V51.9499ZM92.4 38.09C92.1615 38.4476 91.8146 38.7263 91.4179 38.8966C92.4465 39.2805 93.01 40.1875 93.01 41.49C93.01 43.47 91.91 44.43 89.63 44.43H87.46V34H90.28C91.83 34 92.79 35 92.79 36.61C92.84 37.13 92.7 37.66 92.4 38.09ZM91.71 41.51C91.71 42.73 91.09 43.3 89.77 43.3H88.76V39.54H89.77C91.09 39.54 91.71 40.17 91.71 41.51ZM88.77 38.4V35.12H89.78C91.05 35.12 91.49 35.51 91.49 36.61C91.49 37.91 90.89 38.4 89.29 38.4H88.77ZM91.15 38.94H91.17C91.1789 38.9422 91.1879 38.9446 91.1969 38.9471C91.1815 38.9442 91.1659 38.9418 91.15 38.94ZM81.8196 51.6799C82.2296 51.2699 82.7496 50.9999 83.3396 50.8999V50.8899C84.4796 50.8899 85.0596 51.5699 85.0596 52.9199V58.6099H83.8396V53.0699C83.8396 52.0799 83.4796 51.9499 83.1296 51.9499C82.6196 51.9499 82.2596 52.2599 81.8096 52.7899V58.6099H80.5996V48.1699H81.8196V51.6799ZM81.9709 51.6899L81.9796 51.6799C81.9623 51.6972 81.9444 51.7145 81.9263 51.732L81.9262 51.7321C81.8712 51.7852 81.8147 51.8397 81.7696 51.8999V51.9499C81.8271 51.8541 81.903 51.7674 81.9708 51.6899L81.9709 51.6899ZM89.1996 48.1799H89.0996V48.2799V58.5099V58.6099H89.1996H90.3096H90.4096V58.5099V48.2799V48.1799H90.3096H89.1996ZM98.67 44.3L98.72 44.44L98.73 44.45H97.44L97.42 44.37L97.33 43.92C96.91 44.29 96.39 44.52 95.83 44.59H95.7C95.47 44.59 95.25 44.55 95.04 44.47C94.79 44.37 94.56 44.23 94.37 44.04C94.17 43.85 94.03 43.62 93.93 43.37C93.84 43.12 93.79 42.85 93.81 42.59C93.81 40.87 95.59 39.84 97.28 39.45V39.01C97.28 38.26 96.91 37.79 96.32 37.79C95.62 37.79 95.25 38.49 95.14 39.15L95.12 39.25L95.02 39.23L94.08 39.08L93.98 39.06L94 38.96C94.24 37.56 95.09 36.72 96.28 36.72C97.64 36.72 98.49 37.56 98.49 38.92V43.04C98.46 43.46 98.52 43.9 98.67 44.3ZM95.96 43.53C96.22 43.5 96.47 43.42 96.7 43.3C96.93 43.18 97.12 43.02 97.27 42.83V40.51C96.5 40.76 95.02 41.38 95.02 42.5C95.02 43.19 95.32 43.53 95.96 43.53ZM94.11 38.9C94.11 38.9 94.1 38.95 94.09 38.98C94.09 38.98 94.1 38.93 94.11 38.9ZM97.2054 43.8559L97.1814 43.879L97.1601 43.8999C97.2201 43.8499 97.2801 43.7999 97.33 43.75V43.72C97.2927 43.7723 97.2497 43.8134 97.2054 43.8559ZM100.77 54.1201C100.09 53.7001 99.4998 53.3301 99.4998 52.7101C99.4998 52.6001 99.4998 52.5101 99.5398 52.4101C99.5698 52.3201 99.6298 52.2301 99.6898 52.1601C99.7598 52.0901 99.8398 52.0301 99.9298 51.9901C100.02 51.9501 100.12 51.9301 100.22 51.9301C100.94 51.9301 101.21 52.3701 101.4 53.0201L101.43 53.1201L101.53 53.0901L102.36 52.8301L102.45 52.8001L102.43 52.7101C102.17 51.5101 101.42 50.8701 100.28 50.8701H100.21C99.9798 50.8701 99.7498 50.9101 99.5298 50.9901C99.2898 51.0801 99.0698 51.2201 98.8898 51.3901C98.6998 51.5701 98.5598 51.7701 98.4498 52.0101C98.3498 52.2401 98.2898 52.4901 98.2898 52.7501C98.2898 53.9546 99.2113 54.5348 100.019 55.0432L100.03 55.0501C100.74 55.4901 101.4 55.9101 101.4 56.6501C101.4 56.9101 101.3 57.1601 101.12 57.3501C100.94 57.5401 100.69 57.6501 100.43 57.6701C99.8698 57.6701 99.4598 57.2701 99.1898 56.4301L99.1598 56.3401L99.0698 56.3601L98.1198 56.5601L98.0098 56.5801L98.0398 56.6801C98.4598 58.0801 99.2198 58.7101 100.5 58.7101H100.54C100.81 58.7101 101.07 58.6601 101.32 58.5601C101.58 58.4501 101.82 58.3001 102.02 58.0901C102.22 57.8901 102.37 57.6501 102.47 57.3901C102.57 57.1301 102.62 56.8501 102.61 56.5601C102.61 55.2401 101.63 54.6301 100.76 54.0901L100.77 54.1201ZM108.03 51.04H108.13H109.16H109.26V51.14V58.51V58.61H109.16H108.13H108.03V58.51V51.14V51.04ZM108.13 48.1799H108.03V48.2799V49.4699V49.5699H108.13H109.16H109.26V49.4699V48.2799V48.1799H109.16H108.13ZM105.36 48.5701V51.0401V51.0501H106.72V52.1001H105.36V57.1701C105.35 57.2501 105.36 57.3401 105.39 57.4201C105.41 57.5001 105.46 57.5701 105.52 57.6301C105.58 57.6801 105.65 57.7301 105.73 57.7601C105.79 57.7801 105.85 57.7901 105.92 57.7901H105.98C106.19 57.7701 106.39 57.7201 106.58 57.6501L106.72 57.6001V58.5801L106.65 58.6001C106.35 58.7001 106.03 58.7501 105.71 58.7501H105.68C104.66 58.7501 104.16 58.2001 104.16 57.0601V52.0901H103.17V51.9901L103.15 51.1401V51.0401H104.14V48.5701H105.36Z" fill="#070E13" fill-opacity="0.5"></path>
    <path fill-rule="evenodd" clip-rule="evenodd" d="M101.608 18.7664C101.674 18.5632 101.74 18.4971 101.91 18.4971L109.457 18.464C109.532 18.4579 109.607 18.4781 109.669 18.5212C109.731 18.5642 109.776 18.6275 109.797 18.7002L112.504 25.873C112.542 25.9432 112.564 26.0209 112.569 26.1005C112.574 26.1802 112.561 26.2599 112.532 26.3342C112.503 26.4084 112.457 26.4754 112.4 26.5304C112.342 26.5854 112.273 26.6271 112.197 26.6526C111.862 26.6857 111.725 26.7141 111.725 26.955C111.725 27.1768 112.069 27.1945 112.599 27.2217L112.74 27.2291C115.448 27.2952 117.886 27.2952 119.138 27.2952H119.138C119.732 27.2952 120.112 27.2719 120.347 27.2222C120.46 27.2656 120.615 27.2853 120.811 27.2853C121.615 27.2853 122.69 27.2505 123.566 27.2221L123.566 27.2221C124.17 27.2026 124.679 27.1861 124.941 27.1861C125.111 27.1861 125.509 27.1973 126.036 27.2123L126.036 27.2123C127.075 27.2417 128.616 27.2853 129.917 27.2853C130.356 27.2853 130.592 27.1861 130.592 26.9451C130.592 26.7797 130.455 26.6758 130.186 26.6758C129.631 26.6605 129.078 26.6164 128.528 26.5435C127.516 26.4064 127.308 25.6599 127.209 24.6818C127.039 23.2596 127.039 20.5853 127.039 17.4386V17.4382V16.9657C127.034 16.929 127.037 16.8915 127.048 16.8563C127.06 16.821 127.079 16.789 127.106 16.7628C127.132 16.7366 127.164 16.7169 127.199 16.7053C127.234 16.6938 127.272 16.6907 127.308 16.6963L130.257 16.7672C130.37 16.7547 130.484 16.7697 130.591 16.8109C130.697 16.852 130.791 16.918 130.866 17.0034C131.117 17.2922 131.732 18.1664 132.466 19.21L132.466 19.2105L132.466 19.2108C133.017 19.9945 133.635 20.8736 134.217 21.6719C136.111 24.2849 137.397 25.8678 138.852 26.6474C139.731 27.1199 140.581 27.29 142.471 27.29H145.689C145.923 27.29 146.1 27.2681 146.209 27.1973C146.318 27.2819 146.511 27.3193 146.781 27.3193C147.542 27.3193 148.558 27.2873 149.437 27.2596C150.106 27.2386 150.696 27.22 151.033 27.22C151.389 27.22 151.931 27.2351 152.592 27.2535C153.626 27.2823 154.951 27.3193 156.311 27.3193C156.685 27.3193 156.954 27.22 156.954 26.979C156.954 26.8137 156.789 26.7097 156.415 26.7097C155.837 26.6996 155.259 26.6554 154.686 26.5774C153.675 26.4404 153.439 25.8308 153.335 24.9189C153.202 23.4635 153.202 20.7891 153.202 17.5052V11.5468C153.202 6.40584 153.202 5.45609 153.268 4.37404C153.335 3.18803 153.604 2.61157 154.521 2.44619C154.855 2.3798 155.195 2.345 155.536 2.34223C155.872 2.34223 156.075 2.2052 156.075 2.00202C156.075 1.79884 155.806 1.7327 155.366 1.7327C154.65 1.7327 153.722 1.76449 152.892 1.79291C152.221 1.81588 151.615 1.83665 151.237 1.83665C150.778 1.83665 150.07 1.81402 149.314 1.78988C148.45 1.76228 147.523 1.7327 146.838 1.7327L146.81 1.73269C146.285 1.73261 146.025 1.73258 146.025 2.00202C146.025 2.27608 146.228 2.34223 146.568 2.34223C146.979 2.33474 147.389 2.38081 147.787 2.47927C148.529 2.63992 148.869 3.21639 148.935 4.36932C149.002 5.45137 149.002 6.40112 149.002 11.5421L149.016 17.5052V17.5056C149.016 20.7894 149.016 23.4636 148.846 24.8811C148.746 25.8639 148.543 26.4404 147.868 26.5774C147.467 26.6654 147.058 26.7098 146.649 26.7097C146.465 26.7097 146.337 26.7309 146.251 26.7693C146.184 26.7125 146.075 26.6805 145.925 26.6805C145.608 26.6748 145.292 26.6416 144.98 26.5813L144.917 26.5676C144.39 26.4549 143.012 26.1602 141.2 24.2801C139.514 22.5061 137.581 20.0699 135.205 17.0743C134.771 16.5273 134.322 15.9617 133.857 15.378C137.274 12.6233 138.323 10.3221 138.323 7.8178C138.319 6.92061 138.11 6.03617 137.711 5.23255C137.312 4.42892 136.734 3.72756 136.022 3.18246C134.193 1.9303 131.93 1.72712 129.794 1.72712C129.282 1.72712 128.407 1.75189 127.512 1.77725C126.573 1.80384 125.612 1.83107 125.021 1.83107C124.748 1.83107 124.263 1.81559 123.667 1.79658C122.718 1.76632 121.489 1.72712 120.386 1.72712C119.881 1.72712 119.64 1.798 119.64 2.03425C119.64 2.27051 119.847 2.33666 120.216 2.33666C120.659 2.32775 121.103 2.36257 121.539 2.44061C122.654 2.67687 122.924 3.21554 122.994 4.36847C123.061 5.45052 123.061 6.40027 123.061 11.5412L123.046 17.4712C123.046 20.5851 123.046 23.2642 122.876 24.6818C122.739 25.6599 122.574 26.4064 121.893 26.5435C121.493 26.632 121.084 26.6763 120.674 26.6758C120.577 26.6758 120.495 26.6819 120.427 26.6935C120.375 26.6876 120.317 26.6857 120.253 26.6857C119.778 26.686 119.303 26.6417 118.836 26.5534C118.127 26.3833 117.144 25.9061 115.859 22.8631C114.617 19.9297 112.312 14.148 110.416 9.39278L110.415 9.39103L110.415 9.39032L110.415 9.38961C109.001 5.84291 107.814 2.86782 107.467 2.07254C107.127 1.29289 106.957 0.990479 106.621 0.990479C106.286 0.990479 106.083 1.35904 105.676 2.34186L97.1712 23.6049C96.4955 25.2965 95.8529 26.4495 94.2936 26.6526C93.9453 26.6924 93.5952 26.7144 93.2446 26.7188C92.9753 26.7188 92.8382 26.7897 92.8382 26.9881C92.8382 27.2622 93.0414 27.3283 93.4809 27.3283C94.6879 27.3283 95.9414 27.2818 96.7315 27.2525C97.0952 27.239 97.3607 27.2291 97.4783 27.2291C97.9987 27.2291 98.6192 27.2535 99.2444 27.2781C99.8795 27.3031 100.519 27.3283 101.065 27.3283C101.438 27.3283 101.641 27.2622 101.641 26.9881C101.641 26.7897 101.537 26.7188 101.131 26.7188H100.625C99.5763 26.7188 99.2691 26.2793 99.2691 25.6698C99.3253 24.9583 99.4977 24.2607 99.7794 23.6049L101.608 18.7664ZM108.984 16.6023C109.017 16.7015 108.984 16.8055 108.814 16.8055L102.586 16.8008C102.449 16.8008 102.416 16.6968 102.449 16.5598L105.568 8.2341C105.601 8.10179 105.672 7.93169 105.771 7.93169C105.862 7.93169 105.898 8.07592 105.928 8.20206L105.936 8.2341L108.984 16.6023ZM45.4818 1.87864C45.5857 1.30218 45.7889 0.999768 46.0583 0.999768C46.3276 0.999768 46.5308 1.16515 46.9702 2.04875L56.2125 21.1335L65.4124 1.80776C65.6486 1.2691 65.8518 0.999768 66.1589 0.999768C66.4661 0.999768 66.6645 1.33525 66.7685 2.04875L69.8445 22.9622C70.1517 25.0932 70.4872 26.076 71.5031 26.3831C72.1805 26.604 72.8884 26.7172 73.601 26.7186C73.9081 26.7186 74.1444 26.7517 74.1444 26.9549C74.1444 27.1581 73.738 27.3282 73.2655 27.3282C72.4197 27.3282 67.7466 27.2289 66.3952 27.125C65.6155 27.0588 65.4124 26.9549 65.4124 26.7517C65.4124 26.5485 65.5494 26.4824 65.7857 26.3831C66.0219 26.2839 66.0881 25.8728 65.9557 24.9278L63.924 10.0342H63.7869L56.4346 25.4003C55.655 26.988 55.4896 27.2904 55.1825 27.2904C54.8981 27.2904 54.5895 26.7112 54.114 25.8191L53.9965 25.5988C53.1837 24.0395 50.5093 18.8607 50.103 17.9157C49.9126 17.4696 49.0372 15.6141 48.1188 13.6673L48.1187 13.6672L48.1185 13.6668C47.5778 12.5207 47.0222 11.343 46.5827 10.4028H46.4504L44.688 23.8694C44.6243 24.3978 44.5911 24.9295 44.5887 25.4617C44.5887 26.1044 45.0282 26.4068 45.6046 26.5438C46.0694 26.6528 46.5448 26.7099 47.0222 26.7139C47.2915 26.7139 47.5278 26.7848 47.5278 26.9501C47.5278 27.2573 47.2253 27.3234 46.715 27.3234C45.859 27.3234 44.9633 27.2873 44.2538 27.2586L44.2537 27.2586H44.2537L44.2536 27.2586C43.7883 27.2398 43.4031 27.2242 43.1617 27.2242C42.9004 27.2242 42.4463 27.2425 41.9275 27.2633L41.9273 27.2633C41.236 27.2911 40.4298 27.3234 39.8116 27.3234C39.4714 27.3234 39.2021 27.2573 39.2021 26.9501C39.2021 26.7848 39.4053 26.7139 39.7455 26.7139C40.0852 26.7199 40.4245 26.6866 40.7567 26.6147C41.7017 26.4115 41.9757 25.0885 42.1458 23.9402L45.4818 1.87864ZM77.9435 11.5412V11.5394C77.9435 6.40005 77.9435 5.4504 77.8774 4.36847C77.8112 3.21554 77.5372 2.67687 76.422 2.44061C75.9871 2.36233 75.5455 2.32751 75.1037 2.33666C74.7304 2.33666 74.5273 2.27051 74.5273 2.03425C74.5273 1.798 74.7635 1.72712 75.2691 1.72712C76.3805 1.72712 77.6204 1.76694 78.5653 1.79729C79.147 1.81598 79.6168 1.83107 79.8761 1.83107C80.7805 1.83107 81.5838 1.80016 82.3142 1.77204C82.9233 1.74861 83.4817 1.72712 84.0059 1.72712C90.1485 1.72712 91.2117 5.03471 91.2117 6.8019C91.2117 9.58028 89.6193 11.2388 87.7623 12.7272C90.536 13.6722 93.905 16.0773 93.905 20.037C93.905 23.6612 91.0983 27.4176 84.8705 27.4176C84.4868 27.4176 83.5976 27.3723 82.6588 27.3245L82.6587 27.3245L82.6585 27.3245L82.6584 27.3245C81.6088 27.2711 80.4974 27.2144 79.9612 27.2144C79.6239 27.2144 79.0339 27.233 78.3642 27.2541C77.4856 27.2817 76.47 27.3137 75.7085 27.3137C75.2644 27.3137 75.0281 27.2144 75.0281 26.9735C75.0281 26.8081 75.1651 26.7041 75.5715 26.7041C75.9815 26.7042 76.3902 26.6599 76.7906 26.5718C77.4663 26.4348 77.6364 25.6882 77.7734 24.7101C77.9388 23.2926 77.9388 20.6134 77.9388 17.4996L77.9435 11.5412ZM82.0071 12.1177C82.0071 12.387 82.1063 12.4579 82.2434 12.491C82.7699 12.5739 83.303 12.6071 83.8357 12.5902C84.9509 12.5902 85.6975 12.4579 86.2692 11.9476C87.1528 11.2388 87.6584 10.0197 87.6584 8.3612C87.6584 6.09314 86.3401 3.1163 83.4294 3.1163C83.0548 3.101 82.6797 3.12316 82.3095 3.18246C82.0733 3.24861 82.0071 3.38564 82.0071 3.75892V12.1177ZM86.4724 14.8252C85.7636 14.3196 84.984 14.0833 83.6656 14.0124C83.0561 13.9794 82.7206 13.9794 82.2103 13.9794C82.0733 13.9794 82.0071 14.0455 82.0071 14.2156V22.2483C82.0071 24.4833 82.1064 25.0551 83.1931 25.4945C83.9781 25.7998 84.8182 25.9382 85.6597 25.9009C87.1859 25.9009 89.7563 25.0881 89.7563 21.5679C89.7563 19.4747 89.0381 16.6349 86.4724 14.8488V14.8252ZM127.053 14.2156C127.053 14.5889 127.119 14.7259 127.356 14.8252C128.193 15.0628 129.061 15.1774 129.931 15.1654C131.282 15.1654 131.722 15.0284 132.336 14.5889C133.347 13.8423 134.33 12.2878 134.33 9.5094C134.33 4.70867 131.15 3.31949 129.132 3.31949C128.531 3.29254 127.928 3.33695 127.337 3.45179C127.101 3.52267 127.034 3.65497 127.034 3.9243L127.053 14.2156Z" fill="#1C355E"></path>
    <path fill-rule="evenodd" clip-rule="evenodd" d="M36.4485 1.00024H1.60138L9.98139 14.5818H10.9326L19.0157 27.6344L27.0848 14.5818H28.0685L36.4485 1.00024ZM25.2374 4.7762C24.0635 5.7367 19.4234 8.22843 19.4234 8.22843L18.4907 8.96156C18.2077 9.77822 17.0569 10.0149 17.0569 10.0149C16.5182 10.367 16.1181 10.895 15.9248 11.509C15.7489 11.9928 15.4592 12.4273 15.0803 12.7757C14.7879 13.017 14.426 13.3604 14.426 13.3604C13.317 14.6735 15.0478 15.8753 15.0478 15.8753C13.5397 15.7175 13.2613 14.2606 13.2892 13.5274C13.4005 10.0798 16.3563 7.40713 16.3563 7.40713C19.4234 4.36323 25.0889 3.18465 25.0889 3.18465C25.4316 3.17458 25.7745 3.19165 26.1144 3.23569C26.1994 3.23087 26.2846 3.23087 26.3696 3.23569C26.4162 3.23602 26.462 3.24712 26.5036 3.26813C26.5451 3.28914 26.5812 3.31948 26.6091 3.35679C26.637 3.39409 26.6558 3.43734 26.6642 3.48314C26.6725 3.52895 26.6702 3.57607 26.6573 3.62081L26.5134 3.82498C26.4995 3.70433 26.3325 3.67649 26.2211 3.75073C26.1448 3.81321 26.0735 3.88147 26.0077 3.9549C25.372 4.72515 25.2374 4.7762 25.2374 4.7762ZM18.7552 7.86186L19.1821 7.68089L25.4277 3.94562C25.5761 3.94562 25.7014 3.85746 25.7014 3.76001C25.7052 3.73283 25.7016 3.70514 25.691 3.67984C25.6803 3.65453 25.6631 3.63254 25.6411 3.61617C25.5735 3.58871 25.5004 3.57759 25.4277 3.5837C25.2838 3.5837 25.1632 3.67649 25.1632 3.77393C25.1632 3.87138 25.2838 3.94562 25.4277 3.94562L18.7552 7.86186ZM22.833 7.20271L23.4501 7.38368C23.4501 7.38368 25.1298 6.26077 25.6588 5.12859C25.6588 5.12859 26.0161 4.4697 26.146 4.23769C26.2137 4.12878 26.2712 4.01384 26.3177 3.89433C26.115 4.07853 25.9344 4.28563 25.7795 4.51146C25.448 5.0287 25.0723 5.51619 24.6565 5.96845C24.0853 6.43152 23.4752 6.84447 22.833 7.20271ZM23.304 7.6108C23.0227 7.55836 22.7452 7.48705 22.4735 7.39735C22.4587 7.3888 22.4419 7.3843 22.4248 7.3843C22.4076 7.3843 22.3908 7.3888 22.376 7.39735C22.376 7.39735 21.8749 7.62008 21.4944 7.75L20.6824 8.01448C21.6627 8.52894 22.7537 8.79653 23.8609 8.79403C23.8609 8.79403 21.5408 8.98891 19.991 8.17225L19.5966 8.37641C19.5966 8.37641 20.7381 9.27195 24.0604 8.97963C24.0604 8.97963 26.5707 8.76154 27.7121 8.16761C27.8253 8.11577 27.9327 8.05199 28.0323 7.97736C28.0427 7.96804 28.051 7.95659 28.0566 7.94378C28.0622 7.93097 28.065 7.91711 28.0648 7.90313L28.0091 7.78248C27.9813 7.71752 27.9209 7.59688 27.9209 7.59688L27.8514 7.82888L27.7539 7.87529L27.5683 7.66648L27.4709 7.82888L27.4105 7.91705L23.304 7.6108ZM12.9528 13.5471C12.9528 13.5471 11.0968 11.2734 14.2753 7.18088C14.9759 6.25286 16.5953 4.78195 18.6555 5.28772C17.3257 5.96156 16.1354 6.88101 15.1476 7.99753C14.5687 8.68239 14.0676 9.42937 13.6535 10.2248C13.1295 11.2505 12.8877 12.3971 12.9528 13.5471ZM15.4402 15.6378C14.1966 14.798 14.5121 14.0648 14.5121 14.0648C14.7221 14.0383 14.9279 13.9853 15.1246 13.9071C15.4061 13.7778 15.8529 13.4584 16.2625 13.1655L16.2625 13.1655C16.5147 12.9851 16.7528 12.8149 16.9296 12.7053C17.1062 12.5921 17.3465 12.4318 17.6096 12.2564L17.6097 12.2563C18.1557 11.8922 18.7997 11.4627 19.1754 11.2529C21.4444 9.98618 22.8875 10.3574 22.8875 10.3574C24.609 10.8121 24.3677 11.3875 24.3677 11.3875C24.0104 10.7982 22.9432 11.0256 22.9432 11.0256C21.6347 11.2808 19.9132 12.7702 19.9132 12.7702C16.1686 15.9719 15.4402 15.6378 15.4402 15.6378ZM23.1347 11.3236C23.1347 11.3236 24.0628 11.1009 24.4015 11.8433C24.4015 11.8433 24.3412 12.9013 22.7403 14.0706C22.1585 14.497 21.261 15.0892 20.4313 15.6366L20.4313 15.6366L20.4312 15.6366C19.5275 16.2329 18.7043 16.7761 18.4575 16.9938L18.4334 17.015C18.1749 17.2422 17.0898 18.1954 17.7801 18.8498C17.6226 18.7771 17.483 18.671 17.3708 18.5387C17.2586 18.4065 17.1766 18.2514 17.1305 18.0842C16.9866 17.5692 16.9077 17.0309 17.859 15.9591C18.824 15.0381 19.8885 14.2273 21.0328 13.5416C21.6539 13.1839 22.2236 12.7438 22.7264 12.2331C22.8575 12.1211 22.9622 11.9815 23.0328 11.8242C23.1034 11.667 23.1382 11.496 23.1347 11.3236ZM18.422 18.9194C17.9998 18.8498 17.958 18.3579 17.958 18.3579C18.0833 18.4322 18.306 18.2837 18.3663 18.2419C18.6023 18.0864 18.9945 17.7814 19.363 17.4949C19.6102 17.3026 19.8468 17.1186 20.0182 16.9937C20.3742 16.7174 20.7512 16.4691 21.1457 16.2513C21.5456 16.0528 22.0035 16.005 22.4357 16.1168C22.5884 16.1654 22.7274 16.2497 22.8411 16.3627C22.9549 16.4756 23.0402 16.614 23.0899 16.7664C22.7698 16.4045 21.9206 16.6457 21.6283 16.8267C20.9698 17.2821 20.3616 17.8063 19.814 18.3904C19.6448 18.588 19.4287 18.74 19.1855 18.8324C18.9423 18.9248 18.6798 18.9547 18.422 18.9194ZM19.2739 20.372C19.4854 20.1807 19.8921 19.8324 20.2504 19.5255L20.2504 19.5255C20.5525 19.2667 20.8202 19.0375 20.9072 18.9568C21.0105 18.8582 21.1192 18.759 21.2297 18.6581C21.7847 18.1516 22.3873 17.6016 22.5962 16.8548C22.6699 16.8528 22.7428 16.8712 22.8067 16.9081C22.8706 16.945 22.923 16.9988 22.9581 17.0636C23.0636 17.2718 23.0868 17.512 23.0231 17.7365C22.9489 18.0845 22.8375 18.349 21.9373 19.2027C20.7471 20.3252 19.3958 21.2636 17.9283 21.9868L19.2739 20.372Z" fill="#1C355E"></path>
    </svg>
