<svg xmlns="http://www.w3.org/2000/svg" viewBox="0 0 170 63.45">
	<defs>
		<style>
			.cls-1 {
				stroke-width: 0px;
				fill: black;
			}
		</style>
	</defs>
	<g id="Artwork">
		<g>
			<path class="cls-1" d="m159.26,21.59h10.74v37.53h-10.74V21.59Z"></path>
			<path class="cls-1" d="m145.23,45.32l10.4,13.8h-12.71l-9.75-12.94h0v12.94h-10.74V21.59h16.91c9.17,0,15.02,5.19,15.02,12.84,0,9.26-7.62,10.7-9.13,10.89Zm-7.51-15.24h-4.55v8.05h4.55c3.03,0,5.14-1.12,5.14-4.03s-2.11-4.02-5.14-4.02Z"></path>
			<path class="cls-1" d="m106.4,33.39s-.12-4.31-5.59-4.31c-3.04,0-4.9,1.25-4.9,3.17s1.04,2.94,8.79,4.21c7.74,1.27,13.65,4.04,13.65,11.39s-5.56,12.34-17.61,12.1c-16.82-.34-17.23-12.52-17.23-12.52h11.87c0,1.12,1.49,4.19,5.58,4.28,4.14.09,5.51-1.17,5.51-2.93,0-2.96-3.64-3.4-8.64-4.24-7.41-1.24-13.72-4.33-13.72-11.54,0-1.88.23-12.18,16.71-12.18s16.77,12.56,16.77,12.56h-11.18Z"></path>
		</g>
		<g>
			<polygon class="cls-1" points="50.68 17.26 63.86 34.75 25.77 63.45 71.96 63.45 71.96 17.26 50.68 17.26"></polygon>
			<path class="cls-1" d="m34.2,0L0,25.77l25.77,34.2,34.2-25.77L34.2,0Zm-8.43,17.26v37.74L4.19,26.36,33.61,4.19l9.85,13.07h-17.68Z"></path>
		</g>
	</g>
</svg>
