<?xml version="1.0" encoding="utf-8"?>
  <svg viewBox="0 0 119 229" fill="none" xmlns="http://www.w3.org/2000/svg" xmlns:anim="http://www.w3.org/2000/anim" anim="" anim:transform-origin="50% 50%" anim:duration="1" anim:ease="ease-in-out">
    <g id="Frame 1" clip-path="url(#clip0_94_117)">
      <rect width="119" height="229" fill="white"></rect>
      <path id="Union" fill-rule="evenodd" clip-rule="evenodd" d="M62.2295 74.7319C61.4011 74.7319 60.7295 75.4035 60.7295 76.2319C60.7295 77.0604 61.4011 77.7319 62.2295 77.7319C62.2293 77.7319 62.2293 77.7319 62.2296 77.732C62.2349 77.7323 62.3171 77.7372 62.4955 77.8107C62.6802 77.8868 62.9228 78.0177 63.2259 78.2243C63.8357 78.6398 64.5843 79.2881 65.4641 80.1791C67.2194 81.9568 69.351 84.5505 71.7472 87.7596C76.532 94.1675 82.2548 102.871 87.9552 112.005C99.3548 130.272 110.583 150.132 113.901 156.505C114.131 156.947 114.551 157.227 115.01 157.296V157.3V157.305V157.327V157.336V157.354V157.367V157.381V157.399V157.409V157.432V157.438V157.465V157.467V157.496V157.499V157.526V157.533V157.557V157.569V157.587V157.604V157.618V157.641V157.65V157.678V157.682V157.714V157.716V157.747V157.755V157.781V157.794V157.814V157.834V157.848V157.875V157.883V157.917V157.918V157.953V157.959V157.989V158.002V158.025V158.045V158.062V158.089V158.098V158.134V158.136V158.174V158.212V158.25V158.289V158.329V158.368V158.408V158.449V158.49V158.531V158.572V158.614V158.657V158.699V158.743V158.786V158.83V158.874V158.919V158.963V159.009V159.054V159.1V159.147V159.193V159.24V159.288V159.335V159.383V159.432V159.48V159.529V159.579V159.628V159.678V159.729V159.779V159.83V159.882V159.933V159.985V160.037V160.09V160.143V160.196V160.249V160.303V160.357V160.411V160.466V160.521V160.576V160.632V160.688V160.744V160.8V160.857V160.914V160.971V161.028V161.086V161.144V161.202V161.261V161.32V161.379V161.438V161.498V161.558V161.618V161.678V161.739V161.8V161.861V161.922V161.984V162.046V162.108V162.17V162.233V162.295V162.358V162.422V162.485V162.549V162.613V162.677V162.741V162.806V162.87V162.935V163.001V163.066V163.132V163.197V163.263V163.329V163.396V163.462V163.529V163.596V163.663V163.731V163.798V163.866V163.934V164.002V164.07V164.138V164.207V164.276V164.345V164.414V164.483V164.552V164.622V164.692V164.761V164.831V164.902V164.972V165.042V165.113V165.184V165.255V165.324V165.326V165.397V165.468V165.539V165.583V165.611V165.683V165.754V165.826V165.842V165.898V165.971V166.043V166.1V166.115V166.188V166.26V166.333V166.359V166.406V166.479V166.552V166.618V166.625V166.698V166.772V166.845V166.877V166.919V166.992V167.066V167.136V167.14V167.214V167.287V167.361V167.395V167.436V167.51V167.584V167.654V167.658V167.733V167.807V167.882V167.913V167.956V168.031V168.106V168.172V168.18V168.255V168.33V168.405V168.431V168.48V168.555V168.63V168.69V168.705V168.78V168.856V168.931V168.949V169.006V169.081V169.157V169.208V169.232V169.307V169.383V169.458V169.467V169.534V169.609V169.684V169.726V169.76V169.835V169.911V169.985V169.986V170.062V170.137V170.213V170.244V170.288V170.364V170.439V170.503V170.515V170.59V170.666V170.741V170.761V170.817V170.892V170.968V171.02V171.043V171.118V171.194V171.269V171.279V171.344V171.42V171.495V171.538V171.57V171.645V171.72V171.795V171.796V171.87V171.945V172.02V172.055V172.095V172.17V172.244V172.314V172.319V172.394V172.468V172.543V172.572V172.617V172.692V172.766V172.83V172.84V172.914V172.988V173.062V173.089V173.136V173.21V173.284V173.347V173.358V173.431V173.505V173.578V173.605V173.651V173.725V173.798V173.863V173.871V173.944V174.016V174.089V174.121V174.162V174.234V174.306V174.378V174.379V174.451V174.523V174.595V174.636V174.666V174.738V174.81V174.881V174.894V174.952V175.023V175.094V175.151V175.165V175.236V175.306V175.377V175.408V175.447V175.517V175.587V175.657V175.665V175.727V175.796V175.865V175.922V175.935V176.004V176.072V176.141V176.179V176.21V176.278V176.346V176.414V176.435V176.482V176.55V176.617V176.684V176.692V176.751V176.818V176.885V176.948V176.951V177.018V177.084V177.15V177.204V177.216V177.281V177.346V177.411V177.46V177.476V177.541V177.606V177.67V177.716V177.734V177.798V177.861V177.925V177.971V177.988V178.051V178.113V178.176V178.227V178.238V178.3V178.362V178.423V178.482V178.485V178.546V178.607V178.667V178.727V178.737V178.787V178.847V178.907V178.966V178.991V179.025V179.084V179.142V179.2V179.246V179.258V179.316V179.373V179.43V179.487V179.5V179.544V179.6V179.656V179.712V179.754V179.767V179.822V179.877V179.932V179.986V180.008V180.04V180.094V180.147V180.2V180.253V180.261V180.305V180.357V180.409V180.461V180.512V180.514V180.563V180.613V180.664V180.714V180.763V180.767V180.812V180.861V180.91V180.958V181.006V181.02V181.054V181.101V181.148V181.194V181.24V181.272V181.286V181.332V181.525V181.772V181.776V182.028V182.21V182.279V182.53V182.646V182.781V183.031V183.078V183.281V183.508V183.531V183.781V183.934V184.03V184.278V184.359V184.527V184.775V184.78V185.023V185.198V185.27V185.517V185.614V185.764V186.01V186.027V186.256V186.437V186.501V186.746V186.845V186.991V187.235V187.25V187.479V187.652V187.722V187.965V188.051V188.208V188.447V188.45V188.692V188.841V188.933V189.174V189.233V189.414V189.621V189.654V189.894V190.007V190.133V190.371V190.39V190.609V190.77V190.847V191.084V191.148V191.32V191.523V191.556V191.792V191.895V192.027V192.261V192.265V192.495V192.632V192.728V192.961V192.996V193.194V193.358V193.425V193.657V193.717V193.887V194.074V194.117V194.347V194.427V194.576V194.779V194.804V195.032V195.127V195.259V195.473V195.485V195.711V195.816V195.937V196.157V196.161V196.385V196.495V196.609V196.831V196.832V197.054V197.164V197.275V197.494V197.496V197.716V197.822V197.936V198.147V198.155V198.373V198.47V198.59V198.79V198.807V199.023V199.108V199.239V199.423V199.454V199.668V199.735V199.881V200.045V200.093V200.305V200.353V200.516V200.658V200.727V200.936V200.96V201.145V201.26V201.354V201.557V201.561V201.768V201.852V201.973V202.144V202.178V202.383V202.434V202.586V202.722V202.789V202.991V203.007V203.192V203.289V203.392V203.569V203.592V203.79V203.846V203.988V204.122V204.185V204.381V204.394V204.577V204.664V204.771V204.932V204.965V205.157V205.197V205.349V205.46V205.54V205.721V205.73V205.92V205.979V206.108V206.234V206.295V206.482V206.487V206.668V206.738V206.852V206.987V207.036V207.219V207.233V207.401V207.476V207.582V207.718V207.762V207.941V207.956V208.119V208.193V208.297V208.427V208.473V208.648V208.659V208.823V208.888V208.996V209.116V209.168V209.34V209.34V209.51V209.563V209.679V209.783V209.848V210.001V210.015V210.181V210.216V210.347V210.429V210.511V210.64V210.674V210.836V210.849V210.997V211.055V211.158V211.259V211.317V211.461V211.475V211.631V211.66V211.787V211.857V211.942V212.052V212.096V212.245V212.248V212.4V212.435V212.55V212.623V212.699V212.809V212.847V212.993V212.994V213.14V213.174V213.285V213.354V213.429V213.531V213.571V213.705V213.713V213.853V213.878V213.992V214.048V214.13V214.216V214.266V214.382V214.402V214.536V214.546V214.669V214.708V214.801V214.867V214.932V215.025V215.061V215.18V215.19V215.317V215.333V215.443V215.483V215.567V215.632V215.691V215.779V215.813V215.923V215.934V216.054V216.065V216.172V216.205V216.289V216.343V216.405V216.479V216.52V216.613V216.633V216.745V216.745V216.856V216.874V216.965V217.002V217.074V217.127V217.18V217.25V217.286V217.372V217.39V217.491V217.493V217.595V217.608V217.695V217.723V217.794V217.836V217.891V217.947V217.988V218.056V218.082V218.163V218.176V218.268V218.268V218.359V218.371V218.448V218.471V218.536V218.57V218.623V218.667V218.708V218.762V218.792V218.855V218.874V218.946V218.955V219.034V219.035V219.113V219.121V219.19V219.206V219.265V219.289V219.339V219.37V219.411V219.449V219.482V219.526V219.551V219.601V219.619V219.675V219.686V219.746V219.751V219.814V219.815V219.877V219.883V219.937V219.948V219.996V220.012V220.054V220.073V220.11V220.133V220.164V220.191V220.218V220.247V220.269V220.301V220.319V220.353V220.367V220.404V220.414V220.452V220.46V220.499V220.504V220.544V220.546V220.586V220.587V220.626V220.628V220.663V220.667V220.699V220.705V220.733V220.74V220.766V220.774V220.797V220.806V220.827V220.836V220.855V220.865V220.881V220.891V220.906V220.916V220.929V220.939V220.95V220.96V220.97V220.98V220.988V220.997V221.005V221.013V221.02V221.027V221.033V221.04V221.044V221.051V221.054V221.059V221.062V221.067V221.069V221.072V221.074V221.076V221.077V221.078V221.078L116.51 221.078L118.01 221.078V221.078V221.077V221.076V221.074V221.072V221.069V221.067V221.062V221.059V221.054V221.051V221.044V221.04V221.033V221.027V221.02V221.013V221.005V220.997V220.988V220.98V220.97V220.96V220.95V220.939V220.929V220.916V220.906V220.891V220.881V220.865V220.855V220.836V220.827V220.806V220.797V220.774V220.766V220.74V220.733V220.705V220.699V220.667V220.663V220.628V220.626V220.587V220.586V220.546V220.544V220.504V220.499V220.46V220.452V220.414V220.404V220.367V220.353V220.319V220.301V220.269V220.247V220.218V220.191V220.164V220.133V220.11V220.073V220.054V220.012V219.996V219.948V219.937V219.883V219.877V219.815V219.814V219.751V219.746V219.686V219.675V219.619V219.601V219.551V219.526V219.482V219.449V219.411V219.37V219.339V219.289V219.265V219.206V219.19V219.121V219.113V219.035V219.034V218.955V218.946V218.874V218.855V218.792V218.762V218.708V218.667V218.623V218.57V218.536V218.471V218.448V218.371V218.359V218.268V218.268V218.176V218.163V218.082V218.056V217.988V217.947V217.891V217.836V217.794V217.723V217.695V217.608V217.595V217.493V217.491V217.39V217.372V217.286V217.25V217.18V217.127V217.074V217.002V216.965V216.874V216.856V216.745V216.745V216.633V216.613V216.52V216.479V216.405V216.343V216.289V216.205V216.172V216.065V216.054V215.934V215.923V215.813V215.779V215.691V215.632V215.567V215.483V215.443V215.333V215.317V215.19V215.18V215.061V215.025V214.932V214.867V214.801V214.708V214.669V214.546V214.536V214.402V214.382V214.266V214.216V214.13V214.048V213.992V213.878V213.853V213.713V213.705V213.571V213.531V213.429V213.354V213.285V213.174V213.14V212.994V212.993V212.847V212.809V212.699V212.623V212.55V212.435V212.4V212.248V212.245V212.096V212.052V211.942V211.857V211.787V211.66V211.631V211.475V211.461V211.317V211.259V211.158V211.055V210.997V210.849V210.836V210.674V210.64V210.511V210.429V210.347V210.216V210.181V210.015V210.001V209.848V209.783V209.679V209.563V209.51V209.34V209.34V209.168V209.116V208.996V208.888V208.823V208.659V208.648V208.473V208.427V208.297V208.193V208.119V207.956V207.941V207.762V207.718V207.582V207.476V207.401V207.233V207.219V207.036V206.987V206.852V206.738V206.668V206.487V206.482V206.295V206.234V206.108V205.979V205.92V205.73V205.721V205.54V205.46V205.349V205.197V205.157V204.965V204.932V204.771V204.664V204.577V204.394V204.381V204.185V204.122V203.988V203.846V203.79V203.592V203.569V203.392V203.289V203.192V203.007V202.991V202.789V202.722V202.586V202.434V202.383V202.178V202.144V201.973V201.852V201.768V201.561V201.557V201.354V201.26V201.145V200.96V200.936V200.727V200.658V200.516V200.353V200.305V200.093V200.045V199.881V199.735V199.668V199.454V199.423V199.239V199.108V199.023V198.807V198.79V198.59V198.47V198.373V198.155V198.147V197.936V197.822V197.716V197.496V197.494V197.275V197.164V197.054V196.832V196.831V196.609V196.495V196.385V196.161V196.157V195.937V195.816V195.711V195.485V195.473V195.259V195.127V195.032V194.804V194.779V194.576V194.427V194.347V194.117V194.074V193.887V193.717V193.657V193.425V193.358V193.194V192.996V192.961V192.728V192.632V192.495V192.265V192.261V192.027V191.895V191.792V191.556V191.523V191.32V191.148V191.084V190.847V190.77V190.609V190.39V190.371V190.133V190.007V189.894V189.654V189.621V189.414V189.233V189.174V188.933V188.841V188.692V188.45V188.447V188.208V188.051V187.965V187.722V187.652V187.479V187.25V187.235V186.991V186.845V186.746V186.501V186.437V186.256V186.027V186.01V185.764V185.614V185.517V185.27V185.198V185.023V184.78V184.775V184.527V184.359V184.278V184.03V183.934V183.781V183.531V183.508V183.281V183.078V183.031V182.781V182.646V182.53V182.279V182.21V182.028V181.776V181.772V181.525V181.332V181.286V181.272V181.24V181.194V181.148V181.101V181.054V181.02V181.006V180.958V180.91V180.861V180.812V180.767V180.763V180.714V180.664V180.613V180.563V180.514V180.512V180.461V180.409V180.357V180.305V180.261V180.253V180.2V180.147V180.094V180.04V180.008V179.986V179.932V179.877V179.822V179.767V179.754V179.712V179.656V179.6V179.544V179.5V179.487V179.43V179.373V179.316V179.258V179.246V179.2V179.142V179.084V179.025V178.991V178.966V178.907V178.847V178.787V178.737V178.727V178.667V178.607V178.546V178.485V178.482V178.423V178.362V178.3V178.238V178.227V178.176V178.113V178.051V177.988V177.971V177.925V177.861V177.798V177.734V177.716V177.67V177.606V177.541V177.476V177.46V177.411V177.346V177.281V177.216V177.204V177.15V177.084V177.018V176.951V176.948V176.885V176.818V176.751V176.692V176.684V176.617V176.55V176.482V176.435V176.414V176.346V176.278V176.21V176.179V176.141V176.072V176.004V175.935V175.922V175.865V175.796V175.727V175.665V175.657V175.587V175.517V175.447V175.408V175.377V175.306V175.236V175.165V175.151V175.094V175.023V174.952V174.894V174.881V174.81V174.738V174.666V174.636V174.595V174.523V174.451V174.379V174.378V174.306V174.234V174.162V174.121V174.089V174.016V173.944V173.871V173.863V173.798V173.725V173.651V173.605V173.578V173.505V173.431V173.358V173.347V173.284V173.21V173.136V173.089V173.062V172.988V172.914V172.84V172.83V172.766V172.692V172.617V172.572V172.543V172.468V172.394V172.319V172.314V172.244V172.17V172.095V172.055V172.02V171.945V171.87V171.796V171.795V171.72V171.645V171.57V171.538V171.495V171.42V171.344V171.279V171.269V171.194V171.118V171.043V171.02V170.968V170.892V170.817V170.761V170.741V170.666V170.59V170.515V170.503V170.439V170.364V170.288V170.244V170.213V170.137V170.062V169.986V169.985V169.911V169.835V169.76V169.726V169.684V169.609V169.534V169.467V169.458V169.383V169.307V169.232V169.208V169.157V169.081V169.006V168.949V168.931V168.856V168.78V168.705V168.69V168.63V168.555V168.48V168.431V168.405V168.33V168.255V168.18V168.172V168.106V168.031V167.956V167.913V167.882V167.807V167.733V167.658V167.654V167.584V167.51V167.436V167.395V167.361V167.287V167.214V167.14V167.136V167.066V166.992V166.919V166.877V166.845V166.772V166.698V166.625V166.618V166.552V166.479V166.406V166.359V166.333V166.26V166.188V166.115V166.1V166.043V165.971V165.898V165.842V165.826V165.754V165.683V165.611V165.583V165.539V165.468V165.397V165.326V165.324V165.255V165.184V165.113V165.042V164.972V164.902V164.831V164.761V164.692V164.622V164.552V164.483V164.414V164.345V164.276V164.207V164.138V164.07V164.002V163.934V163.866V163.798V163.731V163.663V163.596V163.529V163.462V163.396V163.329V163.263V163.197V163.132V163.066V163.001V162.935V162.87V162.806V162.741V162.677V162.613V162.549V162.485V162.422V162.358V162.295V162.233V162.17V162.108V162.046V161.984V161.922V161.861V161.8V161.739V161.678V161.618V161.558V161.498V161.438V161.379V161.32V161.261V161.202V161.144V161.086V161.028V160.971V160.914V160.857V160.8V160.744V160.688V160.632V160.576V160.521V160.466V160.411V160.357V160.303V160.249V160.196V160.143V160.09V160.037V159.985V159.933V159.882V159.83V159.779V159.729V159.678V159.628V159.579V159.529V159.48V159.432V159.383V159.335V159.288V159.24V159.193V159.147V159.1V159.054V159.009V158.963V158.919V158.874V158.83V158.786V158.743V158.699V158.657V158.614V158.572V158.531V158.49V158.449V158.408V158.368V158.329V158.289V158.25V158.212V158.174V158.136V158.134V158.098V158.089V158.062V158.045V158.025V158.002V157.989V157.959V157.953V157.918V157.917V157.883V157.875V157.848V157.834V157.814V157.794V157.781V157.755V157.747V157.716V157.714V157.682V157.678V157.65V157.641V157.618V157.604V157.587V157.569V157.557V157.533V157.526V157.499V157.496V157.467V157.465V157.438V157.432V157.409V157.399V157.381V157.367V157.354V157.336V157.327V157.305V157.3V157.275V157.273V157.248V157.246V157.222V157.218V157.197V157.19V157.173V157.162V157.149V157.136V157.125V157.11V157.102V157.084V157.08V157.06V157.057V157.036V157.014V157.012V156.994V156.99V156.973V156.967V156.954V156.946V156.934V156.925V156.916V156.905V156.897V156.885V156.879V156.866V156.862V156.848V156.845V156.83V156.829V156.813V156.813V156.798V156.797V156.783V156.781V156.768V156.766V156.755V156.751V156.741V156.737V156.728V156.724V156.716V156.711V156.704V156.699V156.693V156.687V156.682V156.676V156.672V156.666V156.662V156.656V156.653V156.647V156.644V156.638V156.636V156.63V156.628V156.622V156.621V156.616V156.615V156.609V156.609V156.604V156.603V156.598V156.598V156.594V156.594V156.59V156.59V156.587V156.584V156.582V156.58V156.579V156.578H116.521C116.777 156.147 116.81 155.597 116.562 155.12C113.2 148.662 101.93 128.732 90.5003 110.417C84.7858 101.26 79.011 92.4733 74.151 85.9647C71.7248 82.7154 69.4974 79.9941 67.5988 78.0713C66.6517 77.112 65.7496 76.3137 64.9153 75.7451C64.1263 75.2075 63.1944 74.7319 62.2295 74.7319ZM40.8697 105.416L40.8695 105.417C39.285 108.165 37.982 110.425 37.23 111.546C35.1542 114.641 30.8169 120.213 26.0177 126.38C23.0982 130.131 20.0079 134.101 17.1517 137.867C13.3437 142.888 9.94483 147.552 7.83017 150.946C6.78176 152.628 6.11813 153.891 5.84409 154.691C6.15333 154.965 6.34817 155.366 6.34817 155.812C6.34817 156.641 5.6766 157.312 4.84817 157.312C4.48493 157.312 4.02986 157.237 3.60904 156.95C3.51091 156.883 3.42237 156.81 3.34277 156.732V223.463C3.45643 223.435 3.57514 223.42 3.69727 223.42H117.213C118.042 223.42 118.713 224.092 118.713 224.92C118.713 225.749 118.042 226.42 117.213 226.42H3.69727C3.57514 226.42 3.45643 226.406 3.34277 226.378V226.997C3.34277 227.825 2.6712 228.497 1.84277 228.497C1.01435 228.497 0.342773 227.825 0.342773 226.997V154.986C0.342773 154.157 1.01435 153.486 1.84277 153.486C2.27068 153.486 2.65674 153.665 2.93001 153.952C2.94489 153.904 2.95995 153.857 2.97495 153.811C3.35888 152.642 4.20273 151.094 5.28412 149.359C7.47898 145.837 10.9532 141.076 14.7614 136.054C17.7034 132.175 20.8414 128.144 23.7779 124.372L23.7796 124.37L23.7798 124.369L23.7799 124.369C28.5094 118.294 32.716 112.89 34.7386 109.875C35.4297 108.844 36.68 106.676 38.3027 103.862L38.7844 103.027C40.6207 99.8446 42.8356 96.0271 45.1163 92.3538C47.3914 88.6895 49.7593 85.124 51.9046 82.4609C52.9742 81.133 54.0262 79.9818 55.0164 79.1491C55.9385 78.3736 57.0809 77.6348 58.2975 77.6348C59.1259 77.6348 59.7975 78.3063 59.7975 79.1348C59.7975 79.9632 59.1259 80.6348 58.2975 80.6348C58.219 80.6348 57.7922 80.7345 56.9473 81.4451C56.1704 82.0985 55.2575 83.0808 54.2409 84.3429C52.2136 86.8595 49.9232 90.2992 47.665 93.9362C45.4124 97.5643 43.219 101.344 41.3829 104.527L40.8697 105.416Z" fill="#1E1E1E" anim:rotation="0[0:0.1:0:ease-in-out]"></path>
      <path id="Vector 578" d="M18 111.02V130.292" stroke="#1E1E1E" stroke-width="3" stroke-linecap="round" stroke-linejoin="round"></path>
      <path id="Vector 579" d="M19.959 109.2H34.5898" stroke="#1E1E1E" stroke-width="3" stroke-linecap="round" stroke-linejoin="round"></path>
      <path id="Union_2" fill-rule="evenodd" clip-rule="evenodd" d="M49.6562 192.271C49.3926 191.84 48.9178 191.553 48.376 191.553C47.5475 191.553 46.876 192.224 46.876 193.053V222.18C46.876 223.008 47.5475 223.68 48.376 223.68C49.2044 223.68 49.876 223.008 49.876 222.18V195.092C49.9996 195.125 50.1296 195.143 50.2637 195.143H64.3828V220.422C64.3828 220.841 64.5548 221.22 64.832 221.492V225.318C64.832 226.146 65.5036 226.818 66.332 226.818C67.1605 226.818 67.832 226.146 67.832 225.318V217.999C67.832 217.579 67.6601 217.2 67.3828 216.928V194.157C67.3828 193.523 66.9886 192.98 66.4316 192.761C66.1589 192.386 65.7169 192.143 65.2181 192.143H50.2637C50.0475 192.143 49.8419 192.188 49.6562 192.271Z" fill="#1E1E1E" anim:opacity="0[0:1:1:ease-in-out]"></path>
      <path id="Vector 584" d="M25.9625 98.2269C31.7405 79.5154 22.4879 75.1345 21.0726 57.9047C20.1551 46.7357 26.8103 39.8226 28.9063 29.501C31.1906 18.2524 26.0855 12.4738 24.5246 1.76904" stroke="#1E1E1E" stroke-width="3" stroke-linecap="round" stroke-linejoin="round" anim:opacity="0[0:0.5:1:ease-in-out]" anim:y="50[0:1:0:ease-in-out]" anim:scale="0[0:1:1:ease-in-out]"></path>
      <path id="Union_3" fill-rule="evenodd" clip-rule="evenodd" d="M106.933 197.547C106.622 200.805 105.033 203.921 101.847 206.274C100.249 207.455 98.7258 208.35 97.2807 208.977C97.2877 209.101 97.2915 209.213 97.2915 209.311C97.2915 210.139 96.6199 210.811 95.7915 210.811C95.1696 210.811 94.636 210.432 94.4087 209.893C92.0965 210.349 90.0286 210.028 88.2279 209.009C84.8413 207.092 83.03 203.019 82.2484 199.009C81.4555 194.941 81.6258 190.477 82.6246 187.247C83.1164 185.657 83.8721 184.159 85.0107 183.232C85.475 182.854 86.0134 182.564 86.6179 182.419C86.7609 182.028 87.0654 181.698 87.4845 181.535C94.4649 178.826 101.221 182.833 104.591 188.294C105.699 190.09 106.486 192.099 106.817 194.168C106.893 194.376 106.92 194.592 106.903 194.803C107.007 195.713 107.021 196.632 106.933 197.547ZM103.978 196.83C103.971 196.974 103.96 197.118 103.947 197.261C103.716 199.678 102.559 202.018 100.064 203.861C98.9271 204.701 97.8803 205.351 96.9172 205.84C96.8459 205.317 96.7672 204.752 96.6838 204.158L96.6061 203.604C96.3534 201.804 96.0654 199.753 95.8048 197.681C96.9712 197.673 98.1433 197.634 99.2708 197.551C100.912 197.431 102.558 197.215 103.978 196.83ZM103.685 193.789C103.365 192.442 102.804 191.111 102.038 189.87C100.547 187.453 98.3918 185.521 95.9436 184.493C95.9786 184.62 95.9974 184.754 95.9974 184.892C95.9974 185.465 95.6766 185.962 95.2049 186.215C95.0995 186.63 95.0309 187.335 95.0266 188.337C95.0193 190.033 95.1929 192.271 95.4525 194.682C96.6706 194.681 97.892 194.644 99.0521 194.559C100.947 194.421 102.544 194.161 103.685 193.789ZM92.4287 194.618C92.1864 192.303 92.019 190.085 92.0266 188.324C92.0313 187.254 92.0996 186.243 92.3022 185.457C92.4018 185.071 92.5643 184.613 92.8644 184.223C92.9895 184.06 93.1454 183.902 93.3308 183.769C92.3314 183.631 91.3076 183.648 90.2802 183.841C90.3572 184.177 90.3198 184.54 90.1481 184.87C89.7651 185.604 88.8591 185.889 88.1246 185.506C87.783 185.328 87.5562 185.307 87.417 185.32C87.2799 185.333 87.1125 185.39 86.9042 185.559C86.4398 185.937 85.913 186.768 85.4907 188.133C85.0121 189.681 84.7487 191.653 84.749 193.748C84.7641 193.744 84.7782 193.741 84.7912 193.738C84.9447 193.702 85.1009 193.683 85.2313 193.672C85.5016 193.647 85.8503 193.637 86.2656 193.637C86.754 193.637 87.1878 193.87 87.4617 194.231C88.505 194.358 89.8817 194.482 91.4308 194.569C91.7576 194.587 92.0908 194.603 92.4287 194.618ZM84.941 196.851C85.0071 197.382 85.0909 197.911 85.193 198.435C85.9188 202.159 87.4759 205.136 89.7055 206.398C90.7881 207.011 92.2037 207.306 94.034 206.908C93.9433 206.224 93.8339 205.438 93.7128 204.574L93.6346 204.017C93.3657 202.101 93.053 199.874 92.7756 197.634C92.2593 197.615 91.7538 197.591 91.2639 197.564C88.7932 197.426 86.652 197.189 85.5017 196.974C85.3115 196.938 85.1182 196.898 84.941 196.851Z" fill="#1E1E1E" anim:opacity="0[0:1:1:ease-in-out]"></path>
    </g>
    <defs>
      <clipPath id="clip0_94_117">
        <rect width="119" height="229" fill="white"></rect>
      </clipPath>
    </defs>
  </svg>