<svg width="67" height="601" viewBox="0 0 67 601" fill="none" xmlns="http://www.w3.org/2000/svg">
<rect width="63.1156" height="596.976" transform="translate(2 2)" fill="white"/>
<path d="M2.82264 61.5298C2.82264 77.3991 -1.17375 26.8736 8.45028 14.2555C13.2636 7.9448 19.8749 6.31882 26.9437 3.72901C34.5756 0.93296 38.9609 1.48222 45.785 5.71185C63.3234 16.5822 65.1156 45.0545 65.1156 63.6614" stroke="#1E1E1E" stroke-width="3" stroke-linecap="round" stroke-linejoin="round"/>
<path d="M5.53324 61.9306C5.65183 61.9306 3.29803 65.0024 5.63575 62.127C7.65771 59.6399 10.5081 56.214 12.6823 59.9721C13.4927 61.3728 17.0613 66.704 18.9081 66.704C23.7823 66.704 25.4976 57.886 27.5489 57.886C29.5883 57.886 31.4448 64.1338 33.1525 65.374C37.0639 68.2144 39.9171 60.8811 41.98 58.223C46.3514 52.5906 46.8267 60.1838 48.0234 63.4731C49.9127 68.6664 55.4236 62.6071 56.742 60.7332C60.4663 55.4394 61.7186 57.8394 64.2502 62.7322" stroke="#1E1E1E" stroke-width="3" stroke-linecap="round" stroke-linejoin="round"/>
<path d="M23.7439 28.8267C25.0203 28.8267 23.2149 25.973 22.7152 25.5463C21.5036 24.5116 19.2296 24.3266 17.7147 24.3266C13.0204 24.3266 11.406 31.8275 16.9893 31.9421C18.6695 31.9766 28.4781 31.8679 26.3598 27.6283C24.4067 23.7194 18.8513 25.5108 15.8659 25.5108C13.554 25.5108 13.2972 29.1829 14.2264 30.7559C16.146 34.0057 20.4227 30.48 22.6459 29.6476C26.5626 28.181 23.2132 26.44 20.7661 26.44C18.1825 26.44 10.6397 30.3266 16.2993 31.5039C20.6557 32.4101 24.3535 26.2538 19.9177 26.3125C15.2135 26.3746 19.4184 34.4041 21.9142 26.5432C21.9516 26.4255 16.1491 28.2983 21.0305 28.2983C22.3016 28.2983 23.319 28.371 22.2804 29.6101" stroke="#1E1E1E" stroke-width="3" stroke-linecap="round" stroke-linejoin="round"/>
<path d="M49.7555 26.1667C49.7555 20.3032 35.5378 31.7964 44.1307 31.7964C47.1658 31.7964 49.7394 29.988 51.2501 27.3651C52.3537 25.4489 50.4647 24.9096 48.929 24.9096C45.9236 24.9096 43.1715 28.544 42.4763 31.2255C41.5536 34.7846 49.6919 31.8282 49.6919 27.3327C49.6919 25.4809 44.7282 29.5302 44.3972 30.1122C42.6041 33.2653 46.8372 34.1488 49.0796 32.8571C50.9694 31.7686 52.6967 28.2255 49.4911 28.2255C48.0793 28.2255 44.2049 31.7922 46.415 32.4978C48.3466 33.1146 52.197 30.3799 49.7237 29.3864C47.1225 28.3416 45.7923 32.3247 46.1795 32.3247" stroke="#1E1E1E" stroke-width="3" stroke-linecap="round" stroke-linejoin="round"/>
<path d="M6.5 543.5L18.4959 562.6C18.4959 562.6 24.1397 568.5 26.3697 571.852C27.5782 573.669 26.0569 574.946 24.646 575.761C20.3976 578.215 17.1825 585.047 13.7902 588.73C11.432 591.29 9.57726 593.67 7.70298 596.581C7.09184 597.531 16.2643 598.529 18.7462 598.775C29.701 599.859 43.861 596.608 51.0288 587.9C58.7383 578.534 62.3249 555.947 51.8524 547.045C47.4689 543.319 43.5 539.5 37 537.5C30.5 535.5 30.5 535 19.5 536C8.5 537 6.5 543 6.5 543" stroke="#1E1E1E" stroke-width="3" stroke-linecap="round" stroke-linejoin="round"/>
<path d="M35.2106 551.553C39.9143 551.553 32.9212 564.38 31.776 552.61C31.2462 547.165 35.7802 549.226 36.1615 553.607C36.8383 561.383 31.1925 558.231 30.741 552.21C30.2567 545.753 35.3026 550.213 35.3378 554.268C35.3811 559.246 31.1001 554.033 31.1001 551.268C31.1001 548.946 34.8519 554.243 34.7362 556.314C34.6032 558.694 27.5707 554.879 30.256 550.827C33.3616 546.142 39.0151 552.832 36.5312 556.897C33.2953 562.194 30.6815 554.816 31.3504 551.657C32.3397 546.986 39.7948 550.699 38.5235 555.725C36.7692 562.662 30.5603 555.021 30.642 550.952C30.7435 545.896 38.7738 549.798 38.7738 554.648C38.7738 559.782 32.0927 556.159 32.0927 551.621C32.0927 546.868 38.7891 550.188 38.6466 554.853C38.4976 559.726 31.8891 556.745 31.8891 552.282" stroke="#1E1E1E" stroke-width="3" stroke-linecap="round" stroke-linejoin="round"/>
<path d="M32.2386 90.3669L32.2386 515.343" stroke="#1E1E1E" stroke-width="3" stroke-linecap="round" stroke-linejoin="round"/>
</svg>
