<svg width="235" height="35" viewBox="0 0 235 35" fill="none" xmlns="http://www.w3.org/2000/svg">
<g clip-path="url(#clip0_432_30552)">
<path d="M65.5085 23.1234C64.7201 23.4758 63.7694 23.6643 62.8194 23.6643C59.1332 23.6643 56.3281 20.8449 56.3281 17.1096C56.3281 13.3756 59.1332 10.5332 62.8194 10.5332C63.7694 10.5332 64.7201 10.7206 65.5085 11.073V14.5968C64.8824 14.0088 63.9323 13.6094 62.7956 13.6094C60.8716 13.6094 59.434 15.1607 59.434 17.1096C59.434 19.0592 60.8716 20.6105 62.7956 20.6105C63.9323 20.6105 64.9282 20.187 65.5085 19.6472V23.1234Z" fill="#B1B1B1"/>
<path d="M76.1933 18.5194H71.0469V23.4294H68.0332V10.767H71.0469V15.5589H76.1933V10.767H79.2071V23.4288H76.1933V18.5194Z" fill="#B1B1B1"/>
<path d="M82.3125 10.767H86.9024C89.3828 10.767 91.0987 12.1297 91.0987 14.5257C91.0987 16.3108 90.1016 17.344 88.966 17.697C90.5422 18.5899 91.3531 20.8214 91.5856 23.4288H88.4559C88.0617 20.8443 87.227 18.9423 85.7204 18.9423H85.3262V23.4288H82.3125V10.767ZM86.8096 13.7268H85.3262V16.0053H86.8096C87.4821 16.0053 87.9916 15.6059 87.9916 14.8546C87.9916 14.1268 87.4826 13.7268 86.8096 13.7268Z" fill="#B1B1B1"/>
<path d="M99.3971 10.5332C103.083 10.5332 105.888 13.3756 105.888 17.1096C105.888 20.8449 103.083 23.6643 99.3971 23.6643C95.711 23.6643 92.9297 20.8449 92.9297 17.1096C92.9297 13.3756 95.711 10.5332 99.3971 10.5332ZM99.3971 20.6105C101.321 20.6105 102.782 19.0592 102.782 17.1096C102.782 15.1607 101.322 13.6094 99.3971 13.6094C97.4732 13.6094 96.013 15.1607 96.013 17.1096C96.013 19.0592 97.4726 20.6105 99.3971 20.6105Z" fill="#B1B1B1"/>
<path d="M113.745 23.4288L111.149 16.2403V23.4288H108.135V10.767H111.844L115.067 19.5291L118.265 10.767H121.951V23.4288H118.938V16.218L116.364 23.4294H113.745V23.4288Z" fill="#B1B1B1"/>
<path d="M132.012 21.0569H127.769L126.981 23.4294H123.619L128.232 10.7676H131.594L136.185 23.4294H132.823L132.012 21.0569ZM128.789 18.12H131.037L129.902 14.7613L128.789 18.12Z" fill="#B1B1B1"/>
<path d="M138.989 13.7268H136.068V10.767H144.9V13.7268H142.003V23.4288H138.988V13.7268H138.989Z" fill="#B1B1B1"/>
<path d="M147.031 10.767H150.046V23.4288H147.031V10.767Z" fill="#B1B1B1"/>
<path d="M161.498 23.1234C160.709 23.4758 159.76 23.6643 158.81 23.6643C155.123 23.6643 152.318 20.8449 152.318 17.1096C152.318 13.3756 155.123 10.5332 158.81 10.5332C159.76 10.5332 160.709 10.7206 161.498 11.073V14.5968C160.871 14.0088 159.923 13.6094 158.785 13.6094C156.861 13.6094 155.423 15.1607 155.423 17.1096C155.423 19.0592 156.861 20.6105 158.785 20.6105C159.922 20.6105 160.918 20.187 161.498 19.6472V23.1234Z" fill="#B1B1B1"/>
<path d="M178.211 22.7004C177.306 23.2884 176.148 23.6396 174.942 23.6396C171.395 23.6396 168.705 20.8918 168.705 17.297C168.705 13.6792 171.395 10.9784 174.942 10.9784C176.147 10.9784 177.306 11.3073 178.211 11.8941V13.4214C177.4 12.693 176.24 12.2466 174.942 12.2466C172.137 12.2466 170.028 14.4546 170.028 17.297C170.028 20.1394 172.114 22.3245 174.942 22.3245C176.24 22.3245 177.4 21.9009 178.211 21.1738V22.7004Z" fill="#B1B1B1"/>
<path d="M187.734 19.7875H182.705L181.383 23.4288H179.945L184.513 11.1664H185.95L190.517 23.4288H189.08L187.734 19.7875ZM183.122 18.5663H187.317L185.231 12.8587L183.122 18.5663Z" fill="#B1B1B1"/>
<path d="M193.114 11.1664H196.522C198.747 11.1664 200.276 12.5056 200.276 14.7841C200.276 17.0867 198.747 18.4254 196.522 18.4254H194.389V23.4288H193.113V11.1664H193.114ZM196.522 12.3652H194.389V17.2042H196.522C197.89 17.2042 198.956 16.4517 198.956 14.8082C198.956 13.1629 197.89 12.3652 196.522 12.3652Z" fill="#B1B1B1"/>
<path d="M203.291 11.1664H204.566V23.4288H203.291V11.1664Z" fill="#B1B1B1"/>
<path d="M210.429 12.3653H207.137V11.167H214.995V12.3653H211.703V23.4294H210.428V12.3653H210.429Z" fill="#B1B1B1"/>
<path d="M223.225 19.7875H218.195L216.873 23.4288H215.436L220.003 11.1664H221.44L226.008 23.4288H224.57L223.225 19.7875ZM218.613 18.5663H222.808L220.722 12.8587L218.613 18.5663Z" fill="#B1B1B1"/>
<path d="M228.602 23.4288V11.1664H229.877V22.2076H234.998V23.4288H228.602Z" fill="#B1B1B1"/>
<path d="M23.5169 34.5C23.1784 34.5 22.8601 34.3338 22.6636 34.0554L14.0212 21.7947L6.28366 29.6352C6.00599 29.9172 5.59558 30.0164 5.22227 29.896C4.84838 29.7744 4.57245 29.4514 4.50811 29.059L0.0144501 1.73764C-0.0661251 1.25011 0.196469 0.770796 0.647458 0.581656C1.10019 0.392515 1.61842 0.543475 1.90188 0.945251L14.289 18.5183L22.7755 9.91825C23.1685 9.52 23.8647 9.52 24.2583 9.91825L42.2329 28.1321C42.6428 28.5474 42.6428 29.2194 42.2329 29.6346C41.8231 30.0499 41.1599 30.0499 40.7501 29.6346L33.0126 21.7947L24.3702 34.0554C24.1737 34.3338 23.8554 34.5 23.5169 34.5ZM15.5249 20.2716L23.5175 31.6095L31.5095 20.2716L23.5169 12.1727L15.5249 20.2716ZM2.82762 5.91459L6.24134 26.673L12.7859 20.0419L2.82762 5.91459Z" fill="#B1B1B1"/>
<path d="M23.516 9.1676L12.2812 20.553L23.516 3.41174V9.1676Z" fill="#9C9C9C"/>
<path d="M23.5174 34.5C23.4107 34.5 23.3029 34.4836 23.1974 34.4495C22.7632 34.3085 22.4688 33.8997 22.4688 33.4374V1.5632C22.4688 1.09505 22.7713 0.682109 23.2136 0.546422C23.6559 0.410734 24.1336 0.584015 24.3898 0.974043L34.3939 16.1804L45.1324 0.945261C45.4153 0.542897 45.9347 0.39135 46.3868 0.581665C46.8372 0.770805 47.1004 1.25012 47.0198 1.73765L42.5262 29.059C42.4554 29.4884 42.1331 29.8314 41.7117 29.9231C41.2943 30.0153 40.8584 29.8367 40.6196 29.4737L34.3347 19.9198L24.3707 34.0554C24.1701 34.3397 23.849 34.5 23.5174 34.5ZM24.566 5.07228V30.1222L33.0902 18.029L24.566 5.07228ZM35.6384 18.0713L40.8932 26.0592L44.2066 5.9146L35.6384 18.0713Z" fill="#B1B1B1"/>
<path d="M24.5645 10.2419L34.7517 20.553L24.5645 5.07349V10.2419Z" fill="#8BADB1"/>
<path d="M41.4925 29.9465C41.154 29.9465 40.8212 29.7803 40.6195 29.4737L23.5173 3.47864L6.41506 29.4731C6.09334 29.9624 5.44236 30.0939 4.96123 29.7679C4.47951 29.4419 4.34909 28.7829 4.67023 28.2948L22.6449 0.973413C23.0338 0.381909 24.0007 0.381909 24.3897 0.973413L42.3643 28.2942C42.686 28.7823 42.5556 29.4419 42.0733 29.7674C41.8948 29.8889 41.6925 29.9465 41.4925 29.9465Z" fill="#B1B1B1"/>
</g>
<defs>
<clipPath id="clip0_432_30552">
<rect width="235" height="34" fill="white" transform="translate(0 0.5)"/>
</clipPath>
</defs>
</svg>
