<svg width="146" height="31" viewBox="0 0 146 31" fill="none" xmlns="http://www.w3.org/2000/svg">
<path fill-rule="evenodd" clip-rule="evenodd" d="M42.5078 15.4009V15.1886C42.5078 10.9586 45.5367 8.10168 49.2539 8.10168C52.1484 8.10168 54.8576 9.42399 55.2817 12.9432H53.1032C52.7579 10.7463 51.1658 9.92707 49.2539 9.92707C46.7302 9.92707 44.7905 11.9371 44.7905 15.1886V15.4009C44.7905 18.7863 46.6514 20.584 49.3327 20.584C51.2979 20.584 53.0777 19.4463 53.3164 17.1986H55.3604C55.0684 20.1871 52.6513 22.4094 49.3072 22.4094C45.4301 22.4094 42.5078 19.684 42.5078 15.4009Z" fill="#B1B1B1"/>
<path fill-rule="evenodd" clip-rule="evenodd" d="M55.8164 8.34033H58.2057L62.3238 19.948L66.3863 8.34033H68.669L63.6772 22.1703H60.8615L55.8164 8.34033Z" fill="#B1B1B1"/>
<mask id="mask0_432_30496" style="mask-type:luminance" maskUnits="userSpaceOnUse" x="0" y="0" width="146" height="31">
<path fill-rule="evenodd" clip-rule="evenodd" d="M0 30.4457H145.706V0.554199H0V30.4457Z" fill="white"/>
</mask>
<g mask="url(#mask0_432_30496)">
<path fill-rule="evenodd" clip-rule="evenodd" d="M70.5588 22.1704H72.7627V8.3404H70.5588V22.1704ZM70.1602 4.00194C70.1602 3.2081 70.8229 2.5481 71.6202 2.5481C72.4174 2.5481 73.0802 3.2081 73.0802 4.00194C73.0802 4.7981 72.4174 5.4581 71.6202 5.4581C70.8229 5.4581 70.1602 4.7981 70.1602 4.00194Z" fill="#B1B1B1"/>
<path fill-rule="evenodd" clip-rule="evenodd" d="M75.0742 17.9139H77.2248C77.3847 19.5523 78.2607 20.5839 80.4924 20.5839C82.5897 20.5839 83.519 19.8708 83.519 18.3893C83.519 16.9354 82.4298 16.4577 80.2792 16.0608C76.6663 15.4008 75.4473 14.3969 75.4473 11.99C75.4473 9.42387 77.9687 8.10156 80.1471 8.10156C82.643 8.10156 84.7936 9.10772 85.1644 12.0962H83.0416C82.7218 10.5869 81.8736 9.92695 80.1193 9.92695C78.5272 9.92695 77.4913 10.7208 77.4913 11.9093C77.4913 13.1531 78.1819 13.6562 80.7311 14.1062C83.6002 14.6346 85.6163 15.2693 85.6163 18.2046C85.6163 20.7177 83.8922 22.4093 80.5179 22.4093C77.1993 22.4093 75.2086 20.7431 75.0742 17.9139Z" fill="#B1B1B1"/>
<path fill-rule="evenodd" clip-rule="evenodd" d="M87.9568 22.1704H90.1607V8.3404H87.9568V22.1704ZM87.5605 4.00194C87.5605 3.2081 88.2233 2.5481 89.0205 2.5481C89.8178 2.5481 90.4805 3.2081 90.4805 4.00194C90.4805 4.7981 89.8178 5.4581 89.0205 5.4581C88.2233 5.4581 87.5605 4.7981 87.5605 4.00194Z" fill="#B1B1B1"/>
<path fill-rule="evenodd" clip-rule="evenodd" d="M103.947 15.374V15.1893C103.947 11.9886 102.167 9.9278 99.4073 9.9278C96.6171 9.9278 94.8651 11.9886 94.8651 15.1616V15.374C94.8651 18.5216 96.5916 20.5847 99.4073 20.5847C102.195 20.5847 103.947 18.4963 103.947 15.374ZM92.5801 15.374V15.1616C92.5801 11.0101 95.4746 8.10242 99.4073 8.10242C103.335 8.10242 106.23 10.9847 106.23 15.1363V15.3486C106.23 19.5278 103.335 22.4101 99.3795 22.4101C95.4213 22.4101 92.5801 19.4216 92.5801 15.374Z" fill="#B1B1B1"/>
<path fill-rule="evenodd" clip-rule="evenodd" d="M108.598 8.34034H110.802V10.535C111.441 9.24034 112.98 8.10034 115.263 8.10034C118.132 8.10034 120.15 9.66265 120.15 13.6803V22.1703H117.946V13.5234C117.946 11.0888 116.91 10.0065 114.681 10.0065C112.635 10.0065 110.802 11.3011 110.802 13.7865V22.1703H108.598V8.34034Z" fill="#B1B1B1"/>
<path fill-rule="evenodd" clip-rule="evenodd" d="M123.234 20.6112C123.234 19.6581 124.006 18.9197 124.933 18.9197C125.865 18.9197 126.634 19.6581 126.634 20.6112C126.634 21.562 125.865 22.3028 124.933 22.3028C124.006 22.3028 123.234 21.562 123.234 20.6112Z" fill="#B1B1B1"/>
<path fill-rule="evenodd" clip-rule="evenodd" d="M137.657 17.3323V15.6131H135.745C132.957 15.6131 130.911 16.3008 130.911 18.3385C130.911 19.7646 131.602 20.6623 133.541 20.6623C135.877 20.6623 137.657 19.4739 137.657 17.3323ZM128.707 18.3385C128.707 15.1377 132.107 14.0531 135.666 14.0531H137.657V13.0493C137.657 10.8523 136.807 9.92695 134.684 9.92695C132.772 9.92695 131.708 10.7208 131.495 12.4123H129.293C129.585 9.26695 132.107 8.10156 134.79 8.10156C137.444 8.10156 139.861 9.18618 139.861 13.0493V22.1716H137.657V20.4269C136.621 21.7216 135.374 22.4093 133.328 22.4093C130.753 22.4093 128.707 21.1654 128.707 18.3385Z" fill="#B1B1B1"/>
<path fill-rule="evenodd" clip-rule="evenodd" d="M143.181 22.1704H145.385V8.3404H143.181V22.1704ZM142.785 4.00194C142.785 3.2081 143.448 2.5481 144.245 2.5481C145.042 2.5481 145.705 3.2081 145.705 4.00194C145.705 4.7981 145.042 5.4581 144.245 5.4581C143.448 5.4581 142.785 4.7981 142.785 4.00194Z" fill="#B1B1B1"/>
<path fill-rule="evenodd" clip-rule="evenodd" d="M27.3275 15.5001C27.3275 22.2778 21.8096 27.7678 15.0056 27.7678C8.19917 27.7678 2.6813 22.2755 2.6813 15.4978C2.6813 8.72015 8.19917 3.22784 15.0056 3.22784H15.0079V0.553223C6.73222 0.553223 0 7.25938 0 15.5001C0 23.7409 6.73222 30.4471 15.0079 30.4471C23.2835 30.4471 30.0181 23.7409 30.0181 15.5001H27.3275Z" fill="#B1B1B1"/>
<path fill-rule="evenodd" clip-rule="evenodd" d="M17.1501 17.632C15.9659 18.8113 14.047 18.8113 12.8628 17.632C11.6786 16.4528 11.6786 14.542 12.8628 13.3628C14.047 12.1859 15.9659 12.1859 17.1501 13.3628C18.3343 14.542 18.3343 16.4528 17.1501 17.632Z" fill="#B1B1B1"/>
<path fill-rule="evenodd" clip-rule="evenodd" d="M25.3056 8.41257C24.4273 9.28949 22.9997 9.28949 22.1214 8.41257C21.2408 7.53795 21.2408 6.11872 22.1214 5.2418C22.9997 4.36488 24.4273 4.36488 25.3056 5.2418C26.1862 6.11872 26.1862 7.53795 25.3056 8.41257Z" fill="#B1B1B1"/>
</g>
</svg>
