<svg width="110" height="24" viewBox="0 0 110 24" fill="none" xmlns="http://www.w3.org/2000/svg">
<g clip-path="url(#clip0_556_13137)">
<path fill-rule="evenodd" clip-rule="evenodd" d="M38.4855 14.0641C38.4855 18.3106 38.8002 18.4672 41.368 18.4672C44.0568 18.4672 44.3232 18.3586 44.3232 13.6782C44.3232 9.38329 44.1295 9.37193 41.2952 9.37193C38.8002 9.37193 38.4855 9.64838 38.4855 14.0641ZM45.0745 8.98598C45.704 9.78159 45.9708 10.9999 45.9708 13.6054C45.9708 16.5738 45.6557 17.8876 44.9048 18.8528C44.3232 19.6247 43.3062 19.9385 41.489 19.9385C39.3091 19.9385 38.3397 19.6247 37.6374 18.6601C37.0558 17.8642 36.8379 16.7661 36.8379 13.8227C36.8379 10.638 37.2009 9.39597 38.17 8.64778C38.8485 8.09289 39.6477 7.92395 41.5376 7.92395C43.4269 7.92395 44.5173 8.23779 45.0745 8.98598Z" fill="white"/>
<path fill-rule="evenodd" clip-rule="evenodd" d="M49.4133 14.4016C49.4133 16.3561 49.607 16.923 50.1397 17.5981C50.6486 18.2021 51.3994 18.4672 52.5868 18.4672C53.701 18.4672 54.4764 18.1774 54.8153 17.6712C55.2273 17.0432 55.3724 16.3561 55.3724 13.9195C55.3724 9.91413 54.9363 9.37193 52.4654 9.37193C49.9463 9.37193 49.4133 10.0831 49.4133 14.4016ZM49.3647 8.11726V9.23739C49.9828 8.16333 51.0119 7.92395 52.7561 7.92395C54.3309 7.92395 55.4203 8.31023 56.0512 9.13055C56.8018 10.0954 57.0441 11.9424 57.0441 13.8952C57.0441 16.5017 56.9231 17.0672 56.5111 18.0084C55.9778 19.3115 54.8153 19.9385 52.8047 19.9385C51.1329 19.9385 50.2567 19.8777 49.4619 18.8695V22.4542H47.8867V8.11726H49.3647Z" fill="white"/>
<path fill-rule="evenodd" clip-rule="evenodd" d="M65.9159 12.7854V12.2305C65.9159 9.57659 65.5039 9.34756 63.2027 9.34756C60.8283 9.34756 60.2715 9.62467 60.2715 12.1824V12.7854H65.9159ZM67.2407 19.9418C67.2407 19.9418 64.8751 19.9385 63.1061 19.9385C61.0707 19.9385 60.0778 19.5529 59.3759 18.5152C58.7939 17.6468 58.6484 16.935 58.6484 13.9673C58.6484 11.265 58.7453 10.6266 59.1087 9.75755C59.6906 8.4548 60.9262 7.92395 63.3964 7.92395C64.9227 7.92395 65.8432 8.18971 66.4734 8.81671C67.2729 9.61299 67.5149 10.1796 67.5149 12.4475C67.5149 12.8338 67.5149 13.3159 67.4907 14.2327H60.2957V15.1255C60.2957 16.7908 60.4167 17.2606 60.7556 17.7437C61.1438 18.2498 61.9433 18.5152 63.1785 18.5152C64.6324 18.5152 67.2377 18.5092 67.2377 18.5092L67.2407 19.9418Z" fill="white"/>
<path fill-rule="evenodd" clip-rule="evenodd" d="M69.5898 8.11714H71.0675V9.83021C72.1093 8.31011 72.7392 7.92383 74.5537 7.92383C76.153 7.92383 77.1704 8.31011 77.7517 9.17884C78.1395 9.75776 78.3088 10.554 78.3088 12.0017V19.7451H76.7343V11.8568C76.7343 10.0232 76.0558 9.37181 74.2393 9.37181C72.2062 9.37181 71.164 10.4575 71.164 12.5322V19.7451H69.5898V8.11714Z" fill="white"/>
<path fill-rule="evenodd" clip-rule="evenodd" d="M82.3834 10.3608C81.8986 11.0365 81.7287 11.6271 81.7287 13.5813C81.7287 16.0425 81.8986 16.8745 82.4075 17.574C82.8433 18.1536 83.5945 18.4671 84.8056 18.4671C87.2517 18.4671 87.6881 17.973 87.6881 13.9432C87.6881 11.4822 87.543 10.7471 87.1072 10.1438C86.7676 9.63728 85.9923 9.37186 84.8536 9.37186C83.6424 9.37186 82.8681 9.7094 82.3834 10.3608ZM81.778 9.66099C82.6009 8.35824 83.4731 7.92387 85.1439 7.92387C86.7918 7.92387 87.8581 8.31016 88.4635 9.15451C89.142 10.0713 89.3354 10.8789 89.3354 13.5813C89.3354 16.2358 89.2144 17.1152 88.8021 18.0564C88.2205 19.3114 87.0093 19.9384 85.0966 19.9384C83.3283 19.9384 82.3582 19.4316 81.7287 18.1536V19.7451H80.2031V4.75146H81.778V9.66099Z" fill="white"/>
<path fill-rule="evenodd" clip-rule="evenodd" d="M92.8777 14.3776C92.4905 14.7395 92.3688 15.0594 92.3688 16.1204C92.3688 18.0505 92.9504 18.5152 95.1548 18.5152C97.4561 18.5152 98.1349 17.954 98.1349 15.9515C98.1349 14.2147 97.3837 13.8471 94.8883 13.8471C93.8951 13.8471 93.2897 14.016 92.8777 14.3776ZM98.1104 11.8088C98.1104 9.63702 97.7464 9.32319 95.2028 9.32319C93.3138 9.32319 92.7322 9.70947 92.7322 10.9882C92.7322 11.061 92.7322 11.2052 92.7567 11.4466H91.1818C91.1577 11.1331 91.1577 11.061 91.1577 10.8917C91.1577 8.72056 92.2713 7.92395 95.2752 7.92395C98.4976 7.92395 99.6128 8.74426 99.6128 11.2536V19.7452H98.207V18.9102C98.207 18.9102 96.5108 19.9385 94.8635 19.9385C91.8117 19.9385 90.7695 19.1129 90.7695 16.1448C90.7695 14.7212 91.0126 13.9432 91.5697 13.3403C92.1271 12.7129 92.9746 12.4719 94.6698 12.4719C96.7531 12.4719 98.1104 12.8869 98.1104 12.8869V11.8088Z" fill="white"/>
<path fill-rule="evenodd" clip-rule="evenodd" d="M104.242 19.1448L100.656 8.11719H102.255L105.38 18.0768L108.02 8.11719H109.571L106.47 19.5552C105.913 21.7984 105.694 22.378 105.113 22.9332C104.58 23.4397 103.853 23.7051 102.86 23.7051C102.57 23.7051 102.279 23.6811 102.061 23.6323V22.2328H102.255C103.537 22.2328 104.234 21.7483 104.655 20.5564" fill="white"/>
<mask id="mask0_556_13137" style="mask-type:luminance" maskUnits="userSpaceOnUse" x="0" y="0" width="31" height="24">
<path d="M0 0.333862H30.1819V23.7019H0V0.333862Z" fill="white"/>
</mask>
<g mask="url(#mask0_556_13137)">
<path fill-rule="evenodd" clip-rule="evenodd" d="M15.0846 18.4595C18.4747 18.4595 22.2237 17.6426 22.2237 17.6426L21.8084 16.1448C21.8084 16.1448 18.4093 16.8743 15.0846 16.8743C11.76 16.8743 8.37361 16.1448 8.37361 16.1448L7.95828 17.6426C7.95828 17.6426 11.6946 18.4595 15.0846 18.4595ZM24.0161 12.2035C24.0161 13.2909 24.9011 14.1059 25.9932 14.1059C27.0847 14.1059 27.9696 13.2909 27.9696 12.2035C27.9696 11.1161 27.0847 10.2347 25.9932 10.2347C24.9011 10.2347 24.0161 11.1161 24.0161 12.2035ZM4.18912 10.2347C3.09732 10.2347 2.21269 11.1161 2.21269 12.2035C2.21269 13.2909 3.09732 14.1059 4.18912 14.1059C5.28092 14.1059 6.16588 13.2909 6.16588 12.2035C6.16588 11.1161 5.28092 10.2347 4.18912 10.2347ZM15.0491 7.01121C18.946 7.01121 25.5973 7.86458 25.5973 7.86458C25.5973 7.86458 24.7388 4.17901 24.0795 3.52296C23.4211 2.86658 18.6319 2.0032 15.0491 2.0032C11.4666 2.0032 6.76156 2.86692 6.10253 3.52296C5.44316 4.17901 4.58467 7.86458 4.58467 7.86458C4.58467 7.86458 11.1522 7.01121 15.0491 7.01121ZM14.672 0.333862C19.5326 0.333862 26.2563 1.71741 26.2563 3.68589C26.2563 5.65471 27.5741 6.63929 29.5508 8.6081C31.5276 10.5769 28.2294 23.7019 28.2294 23.7019H25.5443C23.8974 23.7019 24.3238 20.7849 24.3238 20.7849C24.3238 20.7849 22.2706 21.7571 14.8731 21.7571C7.47523 21.7571 5.85816 20.7849 5.85816 20.7849C5.85816 20.7849 6.28489 23.7019 4.63764 23.7019H1.95256C1.95256 23.7019 -1.34562 10.5769 0.631146 8.6081C2.60791 6.63929 3.92564 5.65938 3.92564 3.68589C3.92564 1.71274 9.81135 0.333862 14.672 0.333862Z" fill="white"/>
</g>
</g>
<defs>
<clipPath id="clip0_556_13137">
<rect width="110" height="24" fill="white"/>
</clipPath>
</defs>
</svg>
