<svg width="170" height="64" viewBox="0 0 170 64" fill="none" xmlns="http://www.w3.org/2000/svg">
<path d="M125.502 17.0134H133.965V46.5879H125.502V17.0134Z" fill="white"/>
<path d="M114.445 35.7132L122.641 46.5879H112.625L104.942 36.3909V46.5879H96.4785V17.0134H109.804C117.03 17.0134 121.64 21.1033 121.64 27.1316C121.64 34.4287 115.635 35.5635 114.445 35.7132ZM108.527 23.7037H104.942V30.0473H108.527C110.915 30.0473 112.578 29.1647 112.578 26.8716C112.578 24.5784 110.915 23.7037 108.527 23.7037Z" fill="white"/>
<path d="M83.8464 26.3121C83.8464 26.3121 83.7519 22.9157 79.4414 22.9157C77.0458 22.9157 75.5801 23.9007 75.5801 25.4137C75.5801 26.9267 76.3996 27.7305 82.5068 28.7313C88.6061 29.7321 93.2633 31.9149 93.2633 37.7069C93.2633 43.4988 88.8819 47.431 79.3862 47.2419C66.1317 46.974 65.8086 37.3759 65.8086 37.3759H75.1624C75.1624 38.2585 76.3366 40.6777 79.5596 40.7486C82.822 40.8195 83.9016 39.8266 83.9016 38.4397C83.9016 36.1072 81.0332 35.7604 77.0931 35.0985C71.2538 34.1214 66.2814 31.6864 66.2814 26.0047C66.2814 24.5232 66.4627 16.4066 79.4493 16.4066C92.4359 16.4066 92.6644 26.3042 92.6644 26.3042H83.8543L83.8464 26.3121Z" fill="white"/>
<path d="M39.9363 13.6012L50.3224 27.3837L20.3066 49.9999H56.7054V13.6012H39.9363Z" fill="white"/>
<path d="M26.9504 0L0 20.3073L20.3073 47.2577L47.2577 26.9504L26.9504 0ZM20.3073 13.6013V43.3412L3.30181 20.7723L26.4854 3.30181L34.2474 13.6013H20.3152H20.3073Z" fill="white"/>
</svg>
