<svg width="154" height="36" viewBox="0 0 154 36" fill="none" xmlns="http://www.w3.org/2000/svg">
<path d="M12.0539 10.3615L12.0502 0.65686H0.931641V29.7931L6.49091 35.3431L21.7766 35.345V24.2412H12.0539V21.4653H21.7766V10.3615H12.0539Z" fill="white"/>
<path d="M52.3456 10.3615V24.2412H49.565V10.3615H38.4614V24.2412H35.6809V10.3615H24.5586V29.7931L30.1179 35.3431L63.4679 35.3449V10.3615H52.3456Z" fill="white"/>
<path d="M66.248 10.3615H77.3703V35.3431H66.2518L66.248 10.3615Z" fill="white"/>
<path d="M66.2518 0.65686H77.3703V7.60417H66.248L66.2518 0.65686Z" fill="white"/>
<path d="M109.337 10.3615L103.775 15.9189V29.7931L109.335 35.3431L126.02 35.3449V24.2412H114.898V21.4652H126.02V10.3615H109.337Z" fill="white"/>
<path d="M148.246 10.3615H139.923V0.655029H128.801V35.345H139.904V21.4653H142.685V35.345L153.807 35.3431V15.919L148.246 10.3615Z" fill="white"/>
<path d="M91.2707 10.3615L91.2651 0.656892L80.1484 0.655029V29.7931L85.7058 35.3431H100.993V24.2431L91.2707 24.2412V21.4653H100.993V10.3615H91.2707Z" fill="white"/>
</svg>
