<svg width="17" height="16" viewBox="0 0 17 16" fill="none" xmlns="http://www.w3.org/2000/svg">
<path d="M8.3 16C7.19337 16 6.15591 15.7925 5.18761 15.3775C4.23468 14.9625 3.38934 14.3939 2.65159 13.6715C1.91384 12.9337 1.33747 12.0807 0.922481 11.1124C0.507496 10.1441 0.300003 9.10663 0.300003 8C0.300003 6.89337 0.507496 5.86359 0.922481 4.91066C1.33747 3.94236 1.90615 3.08934 2.62853 2.35158C3.36629 1.61383 4.21931 1.03746 5.18761 0.622479C6.15591 0.207493 7.19337 0 8.3 0C9.40663 0 10.4441 0.207493 11.4124 0.622479C12.3807 1.03746 13.226 1.61383 13.9484 2.35158C14.6862 3.07397 15.2625 3.91931 15.6775 4.88761C16.0925 5.85591 16.3 6.89337 16.3 8C16.3 9.10663 16.0925 10.1441 15.6775 11.1124C15.2625 12.0807 14.6862 12.9337 13.9484 13.6715C13.226 14.3939 12.3807 14.9625 11.4124 15.3775C10.4441 15.7925 9.40663 16 8.3 16ZM8.27695 12.3573C9.89078 12.3573 11.1281 11.5351 11.9888 9.89049L11.1818 9.45245C10.8437 10.0519 10.4287 10.5053 9.93689 10.8127C9.46042 11.1047 8.90711 11.2507 8.27695 11.2507C7.63141 11.2507 7.06273 11.1047 6.5709 10.8127C6.09443 10.5053 5.69482 10.0519 5.37205 9.45245L4.58819 9.89049C5.4489 11.5351 6.67848 12.3573 8.27695 12.3573ZM5.25677 7.37752C5.56417 7.37752 5.81009 7.27762 5.99453 7.07781C6.19434 6.878 6.29424 6.63208 6.29424 6.34006C6.29424 6.04803 6.19434 5.80211 5.99453 5.60231C5.81009 5.4025 5.56417 5.30259 5.25677 5.30259C4.96475 5.30259 4.71883 5.4025 4.51902 5.60231C4.31922 5.80211 4.21931 6.04803 4.21931 6.34006C4.21931 6.63208 4.31922 6.878 4.51902 7.07781C4.71883 7.27762 4.96475 7.37752 5.25677 7.37752ZM11.3432 7.37752C11.6353 7.37752 11.8812 7.2853 12.081 7.10086C12.2808 6.90106 12.3807 6.64745 12.3807 6.34006C12.3807 6.04803 12.2808 5.80211 12.081 5.60231C11.8812 5.4025 11.6353 5.30259 11.3432 5.30259C11.0512 5.30259 10.8053 5.4025 10.6055 5.60231C10.4057 5.80211 10.3058 6.04803 10.3058 6.34006C10.3058 6.63208 10.4057 6.878 10.6055 7.07781C10.8053 7.27762 11.0512 7.37752 11.3432 7.37752Z" fill="#FEECEC"/>
</svg>
