<svg width="57" height="24" viewBox="0 0 57 24" fill="none" xmlns="http://www.w3.org/2000/svg">
<path d="M34.9865 1.07632C36.2082 0.334825 37.6182 -0.0378797 39.0467 0.00304183C43.1363 0.00304183 46.3676 2.70469 46.3676 8.38873V22C46.3676 23.1046 45.4722 24 44.3676 24H42.7895C41.685 24 40.7895 23.1046 40.7895 22V9.57004C40.7895 6.79423 39.5182 5.20503 36.9701 5.20503C34.5758 5.20503 32.7799 6.72007 32.7323 10.8679V21.9682C32.7323 23.0728 31.8368 23.9682 30.7323 23.9682H29.1542C28.0496 23.9682 27.1542 23.0728 27.1542 21.9682V9.54356C27.1542 6.76775 25.8775 5.17854 23.3348 5.17854C20.9139 5.17854 19.0969 6.73067 19.0969 11.0056V21.9682C19.0969 23.0728 18.2015 23.9682 17.0969 23.9682H15.593C14.4884 23.9682 13.593 23.0728 13.593 21.9682V9.54885C13.593 6.77305 12.364 5.18384 9.82127 5.18384C7.41098 5.18384 5.54632 6.73067 5.54632 11.048V21.9682C5.54632 23.0728 4.65088 23.9682 3.54631 23.9682H2C0.89543 23.9682 0 23.0728 0 21.9682V1.6551C0 1.11519 0.431221 0.682123 0.962297 0.779384C1.78172 0.929454 2.98231 1.31841 3.98625 2.32235L4.55571 2.89014C5.73702 0.299742 9.13791 0.00304183 12.0038 0.00304183C15.0921 0.00304183 17.3223 1.41213 18.4506 4.18264H18.5407C19.1638 2.89651 20.1453 1.81781 21.367 1.07632C22.5887 0.334825 23.9987 -0.0378797 25.4272 0.00304183C28.3302 0.00304183 30.804 1.36446 31.9642 4.18264H32.1602C32.7833 2.89651 33.7648 1.81781 34.9865 1.07632Z" fill="white"/>
<path d="M53.5403 17.6956C52.7086 17.6956 51.9109 18.026 51.3228 18.6141C50.7347 19.2022 50.4043 19.9999 50.4043 20.8316V20.8793C50.4376 21.6894 50.7828 22.4552 51.3678 23.0167C51.9528 23.5781 52.7322 23.8916 53.543 23.8916C54.3538 23.8916 55.1332 23.5781 55.7181 23.0167C56.3031 22.4552 56.6484 21.6894 56.6816 20.8793V20.8316C56.6802 19.9994 56.3487 19.2017 55.7597 18.6138C55.1707 18.0258 54.3725 17.6956 53.5403 17.6956Z" fill="white"/>
</svg>
