<svg width="281" height="30" viewBox="0 0 281 30" fill="none" xmlns="http://www.w3.org/2000/svg">
<path d="M175.461 13.2552L183.546 8.67964C183.13 7.78324 182.624 6.92938 182.037 6.13056L173.952 10.7062L178.622 2.78489C177.808 2.20768 176.936 1.71236 176.02 1.30642L171.35 9.23407V0.0764855C170.352 -0.0254952 169.344 -0.0254952 168.346 0.0764855V9.23407L163.676 1.30642C162.759 1.71107 161.887 2.20647 161.074 2.78489L165.737 10.7062L157.653 6.13056C157.07 6.93095 156.566 7.7846 156.15 8.67964L164.235 13.2552H154.889C154.785 14.2361 154.785 15.2249 154.889 16.2058H164.235L156.15 20.7814C156.566 21.6765 157.07 22.5301 157.653 23.3305L168.346 17.2828V29.391C169.344 29.4929 170.352 29.4929 171.35 29.391V17.2828L182.037 23.3305C182.624 22.5317 183.13 21.6778 183.546 20.7814L175.461 16.2058H184.807C184.853 15.7215 184.879 15.2308 184.879 14.7337C184.879 14.2366 184.879 13.7396 184.807 13.2552H175.461Z" fill="#B2B4B4"/>
<path fill-rule="evenodd" clip-rule="evenodd" d="M4.87156 9.82666C6.82279 9.82666 8.08458 10.6232 8.08458 12.2674C8.1354 13.053 7.72025 13.7971 7.01791 14.1792V14.2366C7.93569 14.6814 8.48814 15.6256 8.41629 16.6263C8.41629 18.6083 6.72523 19.6279 4.83904 19.6279H0V9.82666H4.87156ZM2.00976 13.491H5.00815C5.76912 13.491 6.08783 13.0704 6.08783 12.5287C6.08783 11.987 5.76912 11.5919 5.00815 11.5919H2.00976V13.491ZM4.98213 17.869H2.00976V15.2944H4.98213C5.35256 15.2597 5.72045 15.3821 5.99274 15.6306C6.26504 15.8791 6.41566 16.23 6.40653 16.5945C6.42116 16.9585 6.27117 17.3104 5.9966 17.5561C5.72203 17.8017 5.35083 17.9163 4.98213 17.869Z" fill="#CACACA"/>
<path d="M12.9297 9.82666H20.4874V11.5919H14.959V13.4527H19.8435V15.218H14.959V17.8435H20.6435V19.6088H12.9297V9.82666Z" fill="#CACACA"/>
<path d="M32.1175 9.82666V11.5919H29.2687V19.6343H27.2785V11.5919H24.4492V9.82666H32.1175Z" fill="#CACACA"/>
<path d="M43.5765 9.82666V11.5919H40.7082V19.6343H38.6984V11.5919H35.8691V9.82666H43.5765Z" fill="#CACACA"/>
<path d="M47.707 9.82666H55.2843V11.5919H49.7168V13.4527H54.6339V15.218H49.7168V17.8435H55.4079V19.6088H47.707V9.82666Z" fill="#CACACA"/>
<path fill-rule="evenodd" clip-rule="evenodd" d="M67.3488 10.6244C66.8248 10.0989 66.1017 9.81006 65.3521 9.82673H59.8887V19.6343H61.8984V15.3582H64.3895L66.1391 19.6535H68.292L66.3407 15.1926C67.442 14.7943 68.1581 13.7484 68.1163 12.5989C68.1508 11.865 67.8728 11.15 67.3488 10.6244ZM65.816 13.3766C65.6179 13.5695 65.3445 13.6693 65.0659 13.6504H61.8984V11.6238H65.0204C65.3057 11.6038 65.5862 11.7034 65.7922 11.8979C65.9981 12.0924 66.11 12.3634 66.1001 12.6435C66.1176 12.9165 66.0141 13.1838 65.816 13.3766Z" fill="#CACACA"/>
<path fill-rule="evenodd" clip-rule="evenodd" d="M85.3854 15.3582H88.8391C89.5864 15.3767 90.3079 15.09 90.8309 14.5666C91.3539 14.0433 91.6314 13.3305 91.5968 12.5989C91.6371 11.8645 91.362 11.1472 90.8381 10.6205C90.3142 10.0939 89.5893 9.80608 88.8391 9.82672H83.3691V19.6343H85.3854V15.3582ZM89.2523 13.3265C89.0524 13.5162 88.778 13.6112 88.5009 13.5866H85.3789V11.592H88.4553C88.7404 11.5661 89.023 11.6618 89.231 11.8546C89.4389 12.0473 89.5521 12.3185 89.5415 12.5989C89.5578 12.8711 89.4522 13.1367 89.2523 13.3265Z" fill="#CACACA"/>
<path d="M95.9023 9.82666H97.9186V17.8435H102.589V19.6343H95.9023V9.82666Z" fill="#CACACA"/>
<path fill-rule="evenodd" clip-rule="evenodd" d="M106.406 19.6343H108.501L109.138 17.7224H112.715L113.366 19.6343H115.603L111.701 9.82666H110.094L106.406 19.6343ZM110.901 12.3949H110.953L112.149 16.0209H109.704L110.901 12.3949Z" fill="#CACACA"/>
<path d="M123.403 18.1558C125.016 18.1558 125.432 16.5754 125.555 16.0911L127.611 16.8112C127.127 18.6837 125.373 19.9697 123.403 19.8956C120.242 19.8956 118.928 17.7098 118.928 14.7146C118.928 11.9297 120.079 9.56543 123.403 9.56543C127.22 9.56543 127.598 12.5415 127.611 12.6498L125.529 13.3827C125.501 12.2366 124.547 11.321 123.377 11.3179C121.718 11.3179 120.996 12.6626 120.996 14.7273C120.996 16.7921 121.881 18.1558 123.403 18.1558Z" fill="#CACACA"/>
<path d="M132.078 9.82666H139.636V11.5919H134.094V13.4527H138.972V15.218H134.094V17.8435H139.779V19.6088H132.078V9.82666Z" fill="#CACACA"/>
<path d="M201.926 13.4527H205.991V15.218H201.926V19.6343H199.916V9.82666H207.24V11.5919H201.926V13.4527Z" fill="#CACACA"/>
<path fill-rule="evenodd" clip-rule="evenodd" d="M219.883 14.7273C219.883 12.1082 218.713 9.55908 215.461 9.55908C212.339 9.55908 211.031 11.9425 211.031 14.7273C211.031 17.3402 212.208 19.8892 215.461 19.8892C218.582 19.8892 219.883 17.525 219.883 14.7273ZM217.789 14.7273C217.789 16.2504 217.483 18.1622 215.461 18.1622V18.1686C213.516 18.1686 213.126 16.4034 213.126 14.7273C213.126 13.1979 213.522 11.2861 215.461 11.2861C217.399 11.2861 217.789 13.0513 217.789 14.7273Z" fill="#CACACA"/>
<path fill-rule="evenodd" clip-rule="evenodd" d="M231.919 10.6268C231.396 10.1015 230.675 9.81184 229.926 9.82672H224.463V19.6534H226.473V15.3773H228.97L230.746 19.6534H232.892L230.941 15.1925C232.029 14.7836 232.731 13.7402 232.684 12.5988C232.718 11.8661 232.441 11.1521 231.919 10.6268ZM230.388 13.3792C230.188 13.5723 229.913 13.6712 229.634 13.6503H226.473V11.6238H229.595C229.88 11.6038 230.16 11.7034 230.366 11.8979C230.572 12.0923 230.684 12.3634 230.674 12.6435C230.692 12.9177 230.588 13.1861 230.388 13.3792Z" fill="#CACACA"/>
<path d="M237.348 9.82666H244.905V11.5919H239.351V13.4527H244.235V15.218H239.351V17.8435H245.035V19.6088H237.348V9.82666Z" fill="#CACACA"/>
<path d="M248.957 17.0279L250.856 16.0783C251.103 17.6397 252.229 18.1813 253.575 18.1813C254.531 18.1813 255.435 17.9647 255.435 16.9578C255.435 16.0592 254.687 15.8425 253.978 15.6832L252.19 15.1925C250.889 14.8803 249.438 14.0773 249.438 12.4905C249.438 10.3811 251.422 9.56543 253.23 9.56543C255.038 9.56543 256.749 10.3302 257.308 12.2866L255.435 13.0449C255.116 11.713 254.407 11.2797 253.308 11.2797C252.209 11.2797 251.507 11.7003 251.507 12.363C251.507 12.7836 251.702 13.2106 253.1 13.5611L254.629 13.9562C255.929 14.2812 257.458 14.9313 257.458 16.7538C257.458 18.5764 256.046 19.8956 253.555 19.8956C251.481 19.8956 249.666 19.1627 248.957 17.0279Z" fill="#CACACA"/>
<path d="M268.859 9.82666V11.5919H266.017V19.6343H264.007V11.5919H261.178V9.82666H268.859Z" fill="#CACACA"/>
<path d="M272.477 17.0279L274.376 16.0783C274.623 17.6397 275.748 18.1813 277.094 18.1813C278.051 18.1813 278.955 17.9647 278.955 16.9578C278.955 16.0592 278.2 15.8425 277.498 15.6832L275.709 15.1925C274.408 14.8803 272.958 14.0773 272.958 12.4905C272.958 10.3811 274.942 9.56543 276.75 9.56543C278.558 9.56543 280.268 10.3302 280.821 12.2866L278.955 13.0449C278.636 11.713 277.927 11.2797 276.828 11.2797C275.729 11.2797 275.026 11.7003 275.026 12.363C275.026 12.7836 275.221 13.2106 276.62 13.5611L278.148 13.9562C279.449 14.2812 280.977 14.9313 280.977 16.7538C280.977 18.5764 279.566 19.8956 277.075 19.8956C275 19.8956 273.172 19.1627 272.477 17.0279Z" fill="#CACACA"/>
</svg>
