<svg width="160" height="19" viewBox="0 0 160 19" fill="none" xmlns="http://www.w3.org/2000/svg">
<g clip-path="url(#clip0_551_12191)">
<path d="M154.922 8.57343C154.58 8.57343 154.256 8.62463 153.965 8.74437C153.675 8.86368 153.436 9.01748 153.231 9.22269C153.026 9.42769 152.872 9.66675 152.752 9.95722C152.633 10.2475 152.582 10.572 152.582 10.9137C152.582 11.2382 152.633 11.5284 152.752 11.8018C152.872 12.0751 153.026 12.3142 153.231 12.5192C153.436 12.7244 153.692 12.8949 153.965 13.0146C154.256 13.1341 154.563 13.2027 154.888 13.2027C155.246 13.2027 155.571 13.1344 155.861 13.0146C156.152 12.8951 156.391 12.7413 156.596 12.5363C156.801 12.3313 156.955 12.092 157.057 11.8018C157.16 11.5113 157.228 11.2039 157.228 10.8794C157.228 10.1963 157.023 9.63248 156.613 9.20556C156.203 8.79535 155.639 8.57343 154.922 8.57343ZM159.107 7.00178V14.1758C159.107 14.8934 159.021 15.5254 158.85 16.1061C158.679 16.6868 158.406 17.1651 158.031 17.5578C157.672 17.9506 157.211 18.2582 156.647 18.4802C156.083 18.7023 155.434 18.8047 154.666 18.8047C153.931 18.8047 153.231 18.7192 152.582 18.5314C151.933 18.3435 151.317 18.0018 150.754 17.5064L151.932 15.9009C152.325 16.2595 152.735 16.5328 153.162 16.7378C153.589 16.9428 154.084 17.028 154.631 17.028C155.109 17.028 155.502 16.9599 155.827 16.823C156.151 16.6864 156.407 16.5157 156.595 16.2766C156.783 16.0545 156.92 15.764 157.005 15.4566C157.091 15.1321 157.125 14.7735 157.125 14.3804V13.7997H157.091C156.798 14.18 156.409 14.475 155.963 14.6537C155.485 14.8418 155.007 14.9442 154.529 14.9442C153.931 14.9442 153.401 14.8418 152.923 14.6197C152.459 14.4218 152.041 14.1312 151.693 13.7656C151.342 13.3967 151.069 12.961 150.89 12.4845C150.702 11.989 150.617 11.4595 150.617 10.913C150.617 10.3323 150.702 9.78564 150.873 9.29018C151.044 8.79493 151.301 8.35088 151.642 7.97494C151.984 7.59922 152.394 7.30896 152.872 7.10397C153.35 6.89876 153.897 6.77944 154.512 6.77944C155.075 6.77944 155.588 6.88183 156.066 7.10397C156.544 7.32589 156.937 7.66755 157.21 8.14587H157.245V6.9673H159.107L159.107 7.00178ZM144.93 7.00178H146.894V8.2489H146.928C147.15 7.78771 147.457 7.42892 147.867 7.18986C148.277 6.93366 148.738 6.81414 149.268 6.81414C149.387 6.81414 149.507 6.83127 149.627 6.84819C149.746 6.86533 149.866 6.89939 149.985 6.93366V8.82962C149.829 8.78099 149.669 8.74672 149.507 8.72723C149.353 8.69317 149.199 8.69317 149.046 8.69317C148.584 8.69317 148.226 8.77843 147.935 8.94936C147.662 9.1203 147.44 9.30795 147.303 9.53008C147.168 9.72686 147.069 9.94685 147.013 10.1791C146.962 10.4011 146.945 10.5546 146.945 10.6744V14.8934H144.981V7.00178H144.93ZM136.491 10.9475C136.491 11.2549 136.543 11.5454 136.645 11.8356C136.748 12.1261 136.901 12.3651 137.106 12.5873C137.312 12.8094 137.551 12.9801 137.841 13.1168C138.131 13.2535 138.456 13.3218 138.815 13.3218C139.174 13.3218 139.498 13.2537 139.789 13.1168C140.079 12.9801 140.318 12.8094 140.523 12.5873C140.728 12.3651 140.882 12.1089 140.984 11.8356C141.087 11.5454 141.138 11.2549 141.138 10.9475C141.138 10.6401 141.087 10.3497 140.984 10.0594C140.882 9.76893 140.728 9.52987 140.523 9.30774C140.318 9.08561 140.079 8.91488 139.789 8.77822C139.498 8.64155 139.174 8.57322 138.815 8.57322C138.456 8.57322 138.132 8.64155 137.841 8.77822C137.551 8.91488 137.312 9.08561 137.106 9.30774C136.901 9.52987 136.748 9.78607 136.645 10.0594C136.543 10.3327 136.491 10.6401 136.491 10.9475ZM134.527 10.9475C134.527 10.3327 134.647 9.752 134.869 9.25654C135.08 8.76703 135.388 8.32536 135.774 7.95823C136.15 7.59964 136.611 7.32631 137.14 7.12131C137.67 6.91632 138.216 6.83106 138.814 6.83106C139.412 6.83106 139.959 6.93345 140.488 7.12131C141.018 7.32631 141.462 7.59964 141.855 7.95823C142.231 8.31702 142.538 8.76108 142.76 9.25654C142.982 9.76893 143.101 10.3327 143.101 10.9475C143.101 11.5623 142.982 12.1432 142.76 12.6385C142.549 13.128 142.241 13.5696 141.855 13.9368C141.479 14.2954 141.018 14.5687 140.488 14.7737C139.959 14.9787 139.412 15.064 138.814 15.064C138.216 15.064 137.67 14.9616 137.14 14.7737C136.611 14.5687 136.167 14.2954 135.774 13.9368C135.381 13.578 135.091 13.1339 134.869 12.6385C134.647 12.1261 134.527 11.5623 134.527 10.9475ZM130.069 13.7318C130.069 13.3901 130.206 13.0827 130.462 12.8265C130.718 12.5701 131.025 12.4508 131.384 12.4508C131.726 12.4508 132.033 12.5701 132.306 12.8094C132.562 13.0485 132.699 13.3389 132.699 13.6975C132.699 14.0561 132.562 14.3466 132.306 14.6028C132.05 14.859 131.743 14.9785 131.384 14.9785C131.213 14.9785 131.042 14.9444 130.889 14.8761C130.735 14.8078 130.598 14.7223 130.479 14.6199C130.354 14.5118 130.255 14.3777 130.188 14.227C130.103 14.0734 130.069 13.9025 130.069 13.7318ZM126.26 10.1618C126.243 9.58107 126.072 9.11988 125.713 8.79535C125.355 8.47083 124.876 8.29989 124.262 8.29989C123.664 8.29989 123.203 8.47082 122.861 8.81227C122.519 9.15394 122.314 9.598 122.229 10.1789H126.26L126.26 10.1618ZM122.229 11.6308C122.297 12.2287 122.519 12.6727 122.912 13.0144C123.305 13.3389 123.783 13.5099 124.347 13.5099C124.842 13.5099 125.252 13.4075 125.576 13.2025C125.912 13.0026 126.207 12.7418 126.447 12.4337L127.865 13.4927C127.404 14.0563 126.891 14.4665 126.328 14.7054C125.764 14.9446 125.166 15.064 124.534 15.064C123.936 15.064 123.39 14.9616 122.86 14.7737C122.331 14.5687 121.887 14.2954 121.494 13.9368C121.101 13.578 120.811 13.1339 120.589 12.6385C120.366 12.1261 120.247 11.5623 120.247 10.9475C120.247 10.3327 120.366 9.752 120.589 9.25654C120.8 8.76708 121.108 8.32542 121.494 7.95823C121.87 7.59964 122.331 7.32631 122.86 7.12131C123.39 6.91632 123.936 6.83106 124.534 6.83106C125.081 6.83106 125.576 6.93345 126.037 7.12131C126.498 7.30939 126.874 7.58251 127.199 7.9413C127.523 8.29989 127.779 8.74415 127.95 9.27368C128.138 9.8032 128.224 10.418 128.224 11.1013V11.648H122.228V11.6308H122.229ZM114.235 8.57343C113.893 8.57343 113.569 8.62463 113.279 8.74437C112.988 8.86368 112.749 9.01748 112.544 9.22269C112.339 9.42769 112.185 9.66675 112.066 9.95722C111.946 10.2475 111.895 10.572 111.895 10.9137C111.895 11.2382 111.946 11.5284 112.066 11.8018C112.185 12.0751 112.339 12.3142 112.544 12.5192C112.749 12.7244 113.005 12.8949 113.279 13.0146C113.569 13.1341 113.876 13.2027 114.201 13.2027C114.559 13.2027 114.884 13.1344 115.174 13.0146C115.465 12.8949 115.704 12.7413 115.909 12.5363C116.114 12.3313 116.268 12.092 116.37 11.8018C116.473 11.5113 116.541 11.2039 116.541 10.8794C116.541 10.1963 116.336 9.63248 115.926 9.20556C115.516 8.79535 114.952 8.57343 114.235 8.57343ZM118.437 7.00178V14.1758C118.437 14.8934 118.351 15.5254 118.18 16.1061C118.01 16.6868 117.736 17.1651 117.361 17.5578C116.985 17.9506 116.541 18.2582 115.977 18.4802C115.414 18.7021 114.764 18.8047 113.996 18.8047C113.261 18.8047 112.561 18.7192 111.912 18.5314C111.263 18.3435 110.648 18.0018 110.084 17.5064L111.263 15.9009C111.655 16.2595 112.065 16.5328 112.492 16.7378C112.919 16.9428 113.415 17.028 113.961 17.028C114.44 17.028 114.832 16.9599 115.157 16.823C115.481 16.6864 115.737 16.5157 115.926 16.2766C116.113 16.0545 116.25 15.764 116.336 15.4566C116.421 15.1321 116.455 14.7735 116.455 14.3804V13.7997H116.421C116.128 14.18 115.739 14.475 115.294 14.6537C114.815 14.8418 114.337 14.9442 113.859 14.9442C113.261 14.9442 112.731 14.8418 112.253 14.6197C111.789 14.4218 111.371 14.1312 111.023 13.7656C110.673 13.3967 110.4 12.961 110.22 12.4845C110.033 11.989 109.947 11.4595 109.947 10.913C109.947 10.3323 110.033 9.78564 110.204 9.29018C110.374 8.79493 110.631 8.35088 110.972 7.97494C111.314 7.59922 111.724 7.30896 112.202 7.10397C112.68 6.89876 113.227 6.77944 113.842 6.77944C114.405 6.77944 114.918 6.88183 115.396 7.10397C115.875 7.32589 116.267 7.66755 116.54 8.14587H116.575V6.9673H118.436V7.00178H118.437ZM106.326 11.3575H105.916C105.643 11.3575 105.336 11.3746 104.994 11.3918C104.652 11.4087 104.328 11.4599 104.038 11.5456C103.762 11.6197 103.502 11.7411 103.269 11.9042C103.064 12.058 102.961 12.2799 102.961 12.5701C102.961 12.7582 102.996 12.9118 103.081 13.0315C103.166 13.1513 103.269 13.2706 103.405 13.3561C103.542 13.4413 103.679 13.5099 103.85 13.5439C104.02 13.578 104.174 13.5951 104.345 13.5951C105.028 13.5951 105.524 13.4413 105.848 13.1168C106.173 12.7923 106.326 12.3482 106.326 11.8016V11.3575ZM106.446 13.8001H106.395C106.104 14.2444 105.746 14.5689 105.319 14.7739C104.874 14.9789 104.396 15.0813 103.884 15.0813C103.525 15.0813 103.166 15.0301 102.825 14.9275C102.483 14.8251 102.176 14.6882 101.902 14.4832C101.629 14.2782 101.424 14.0392 101.253 13.7487C101.083 13.4585 101.014 13.1168 101.014 12.7239C101.014 12.2968 101.083 11.938 101.236 11.6306C101.39 11.3232 101.595 11.0842 101.851 10.879C102.107 10.674 102.398 10.5204 102.739 10.4006C103.081 10.2813 103.423 10.1956 103.798 10.1275C104.157 10.0592 104.533 10.0249 104.909 10.008C105.284 9.99085 105.626 9.99085 105.951 9.99085H106.446V9.78586C106.446 9.29039 106.275 8.9318 105.934 8.67561C105.592 8.43634 105.165 8.29989 104.635 8.29989C104.225 8.29989 103.833 8.36822 103.474 8.52202C103.115 8.67582 102.808 8.86347 102.534 9.11988L101.51 8.09489C101.954 7.65062 102.466 7.3261 103.047 7.1211C103.628 6.9161 104.243 6.83084 104.858 6.83084C105.421 6.83084 105.883 6.89897 106.275 7.01871C106.651 7.13823 106.976 7.30917 107.232 7.49704C107.488 7.70203 107.676 7.92417 107.813 8.18015C107.949 8.43634 108.052 8.69275 108.103 8.96587C108.154 9.23919 108.205 9.47846 108.205 9.73466C108.222 9.97372 108.222 10.1958 108.222 10.3837V14.9102H106.446L106.446 13.8001ZM97.2904 2.47534H99.2547V14.8761H97.2904V2.47534ZM93.0202 2.47534H94.9845V14.8761H93.0202V2.47534ZM88.4766 4.33724C88.4766 4.01272 88.5961 3.73938 88.8354 3.51725C89.0745 3.27819 89.3649 3.15866 89.7235 3.15866C90.0821 3.15866 90.3895 3.27819 90.6288 3.50012C90.8678 3.72225 91.0045 4.01272 91.0045 4.33724C91.0045 4.66177 90.8849 4.95202 90.6288 5.17415C90.3895 5.39629 90.0821 5.51561 89.7235 5.51561C89.3649 5.51561 89.0573 5.39629 88.8354 5.15702C88.5792 4.93489 88.4766 4.64463 88.4766 4.33724ZM88.7499 7.00178H90.7142V14.8763H88.7499V7.00178ZM76.4516 3.26106H78.8261L81.9861 12.0406L85.2485 3.26106H87.4861L82.7889 14.8761H80.9954L76.4516 3.26106ZM71.2418 7.00178H73.2061V8.2489H73.2404C73.4625 7.78771 73.7699 7.42892 74.1797 7.18986C74.5897 6.93366 75.0509 6.81414 75.5804 6.81414C75.6997 6.81414 75.8194 6.83127 75.939 6.84819C76.0585 6.86533 76.178 6.89939 76.2976 6.93366V8.82962C76.1416 8.78101 75.9814 8.74674 75.8192 8.72723C75.6654 8.69317 75.5118 8.69317 75.358 8.69317C74.8968 8.69317 74.538 8.77843 74.2478 8.94936C73.9745 9.1203 73.7523 9.30795 73.6159 9.53008C73.4802 9.72685 73.3817 9.94684 73.3254 10.1791C73.2742 10.4011 73.2571 10.5546 73.2571 10.6744V14.8934H71.2928V7.00178H71.2418ZM67.4327 10.1618C67.4158 9.58107 67.2449 9.11988 66.8863 8.79535C66.5275 8.47083 66.0492 8.29989 65.4344 8.29989C64.8365 8.29989 64.3753 8.47082 64.0337 8.81227C63.6922 9.15394 63.4872 9.598 63.4018 10.1789H67.433V10.1618H67.4327ZM63.4016 11.6308C63.4699 12.2287 63.692 12.6727 64.0847 13.0144C64.4775 13.3389 64.9558 13.5099 65.5194 13.5099C66.0149 13.5099 66.4247 13.4075 66.7492 13.2025C67.0848 13.0026 67.3803 12.7418 67.6204 12.4337L69.038 13.4927C68.5768 14.0563 68.0642 14.4665 67.5007 14.7054C66.9371 14.9446 66.3392 15.064 65.7071 15.064C65.1092 15.064 64.5626 14.9616 64.033 14.7737C63.5035 14.5687 63.0595 14.2954 62.6666 13.9368C62.274 13.578 61.9835 13.1339 61.7614 12.6385C61.5394 12.1261 61.4199 11.5623 61.4199 10.9475C61.4199 10.3327 61.5394 9.752 61.7614 9.25654C61.9723 8.76708 62.2803 8.32542 62.6666 7.95823C63.0423 7.59964 63.5035 7.32631 64.033 7.12131C64.5626 6.91632 65.1092 6.83106 65.7071 6.83106C66.2535 6.83106 66.749 6.93345 67.21 7.12131C67.6714 7.30939 68.0471 7.58251 68.3716 7.9413C68.6961 8.29989 68.9523 8.74415 69.1231 9.27368C69.294 9.8032 69.3964 10.418 69.3964 11.1013V11.648H63.4009V11.6308H63.4016ZM58.0213 10.1618C58.0041 9.58107 57.8332 9.11988 57.4746 8.79535C57.116 8.47083 56.6377 8.29989 56.0227 8.29989C55.4251 8.29989 54.9637 8.47082 54.6222 8.81227C54.2805 9.15394 54.0755 9.598 53.9903 10.1789H58.0215V10.1618H58.0213ZM53.9901 11.6308C54.0582 12.2287 54.2803 12.6727 54.6732 13.0144C55.0658 13.3389 55.5444 13.5099 56.108 13.5099C56.6034 13.5099 57.0132 13.4075 57.3377 13.2025C57.6733 13.0026 57.9687 12.7418 58.2087 12.4337L59.6266 13.4927C59.1652 14.0563 58.6528 14.4665 58.089 14.7054C57.5254 14.9446 56.9275 15.064 56.2954 15.064C55.6978 15.064 55.1511 14.9616 54.6216 14.7737C54.092 14.5687 53.6478 14.2954 53.2551 13.9368C52.8623 13.578 52.572 13.1339 52.3499 12.6385C52.1278 12.1261 52.0082 11.5623 52.0082 10.9475C52.0082 10.3327 52.1278 9.752 52.3499 9.25654C52.5609 8.76708 52.8688 8.32542 53.2551 7.95823C53.6309 7.59964 54.092 7.32631 54.6216 7.12131C55.1511 6.91632 55.6978 6.83106 56.2954 6.83106C56.8421 6.83106 57.3375 6.93345 57.7985 7.12131C58.2597 7.30939 58.6354 7.58251 58.9599 7.9413C59.2845 8.29989 59.5407 8.74415 59.7116 9.27368C59.8825 9.8032 59.9849 10.418 59.9849 11.1013V11.648H53.9894V11.6308H53.9901ZM46.3206 7.00178H48.2848V8.2489H48.3191C48.5413 7.78771 48.8486 7.42892 49.2584 7.18986C49.6684 6.93366 50.1296 6.81414 50.6591 6.81414C50.7785 6.81414 50.8982 6.83127 51.0177 6.84819C51.1372 6.86533 51.2568 6.89939 51.3763 6.93366V8.82962C51.2203 8.78101 51.0602 8.74674 50.898 8.72723C50.7442 8.69317 50.5906 8.69317 50.4368 8.69317C49.9754 8.69317 49.6168 8.77843 49.3265 8.94936C49.0532 9.1203 48.8311 9.30795 48.6946 9.53008C48.5589 9.72685 48.4605 9.94684 48.4042 10.1791C48.353 10.3841 48.3358 10.5546 48.3358 10.6744V14.8934H46.3717V7.00178H46.3206ZM42.3238 11.3575H41.9139C41.6405 11.3575 41.3329 11.3746 40.9915 11.3918C40.6498 11.4087 40.3253 11.4599 40.035 11.5456C39.76 11.6197 39.5 11.7411 39.2664 11.9042C39.0614 12.058 38.9591 12.2799 38.9591 12.5701C38.9591 12.7582 38.9931 12.9118 39.0786 13.0315C39.1641 13.1513 39.2664 13.2706 39.4031 13.3561C39.5398 13.4413 39.6764 13.5099 39.8472 13.5439C40.0181 13.578 40.1717 13.5951 40.3424 13.5951C41.0257 13.5951 41.521 13.4413 41.8455 13.1168C42.17 12.7923 42.3238 12.3482 42.3238 11.8016V11.3575ZM42.4434 13.8001H42.3922C42.1017 14.2444 41.7431 14.5689 41.316 14.7739C40.8717 14.9789 40.3936 15.0813 39.8812 15.0813C39.5224 15.0813 39.1638 15.0301 38.8222 14.9275C38.4805 14.8249 38.1731 14.6882 37.8998 14.4832C37.6265 14.2782 37.4215 14.0392 37.2507 13.7487C37.08 13.4585 37.0117 13.1168 37.0117 12.7239C37.0117 12.2968 37.08 11.938 37.2338 11.6306C37.3876 11.3232 37.5924 11.0842 37.8486 10.879C38.1048 10.674 38.3953 10.5204 38.7369 10.4006C39.0786 10.2813 39.42 10.1956 39.796 10.1275C40.1548 10.0592 40.5305 10.0249 40.9062 10.008C41.2819 9.99085 41.6236 9.99085 41.9481 9.99085H42.4436V9.78586C42.4436 9.29039 42.2727 8.9318 41.931 8.67561C41.5893 8.43634 41.1624 8.29989 40.6329 8.29989C40.2229 8.29989 39.83 8.36822 39.4712 8.52202C39.1126 8.67582 38.805 8.86347 38.5319 9.11988L37.5069 8.09489C37.9512 7.65062 38.4634 7.3261 39.0443 7.1211C39.625 6.9161 40.2398 6.83084 40.8548 6.83084C41.4186 6.83084 41.8796 6.89897 42.2727 7.01871C42.6484 7.13823 42.9731 7.30917 43.2291 7.49704C43.4853 7.70203 43.6732 7.92417 43.8098 8.18015C43.9465 8.43634 44.0489 8.69275 44.1001 8.96587C44.1684 9.22227 44.2025 9.47846 44.2025 9.73466C44.2196 9.97372 44.2196 10.1958 44.2196 10.3837V14.9102H42.4434V13.8001ZM34.4322 5.99393C34.0051 5.53274 33.5953 5.22535 33.2024 5.07176C32.8096 4.91796 32.3996 4.84963 31.9896 4.84963C31.3917 4.84963 30.8453 4.95202 30.3498 5.17415C29.8546 5.39629 29.4446 5.68654 29.1029 6.06226C28.7612 6.43799 28.4881 6.88226 28.2831 7.37751C28.0953 7.87297 27.9927 8.41963 27.9927 9.00035C27.9927 9.61513 28.095 10.1958 28.2831 10.7254C28.4712 11.2549 28.7443 11.6992 29.1029 12.0918C29.4446 12.4675 29.8715 12.7751 30.3498 12.9971C30.8281 13.2192 31.3748 13.3216 31.9896 13.3216C32.4679 13.3216 32.912 13.2023 33.356 12.9801C33.8001 12.758 34.2101 12.3994 34.5858 11.9039L36.2939 13.1166C35.7644 13.8342 35.1324 14.3637 34.3808 14.688C33.6207 15.0172 32.8008 15.1859 31.9724 15.1835C31.0843 15.1835 30.2472 15.0468 29.5129 14.7564C28.7784 14.4661 28.1122 14.0559 27.5827 13.5266C27.036 12.9971 26.6262 12.3651 26.3186 11.6135C26.0112 10.862 25.8574 10.0421 25.8574 9.1368C25.8574 8.21463 26.0112 7.36058 26.3186 6.60893C26.6262 5.85727 27.0531 5.20821 27.5827 4.66177C28.1291 4.13224 28.7612 3.70533 29.5129 3.432C30.2643 3.15867 31.0843 3.00486 31.9724 3.00486C32.7582 3.00486 33.4927 3.14153 34.1589 3.41486C34.8248 3.68819 35.457 4.16652 36.0377 4.83249L34.4322 5.99393Z" fill="white"/>
<path d="M21.0742 11.1446C21.0742 12.4869 20.7049 12.8295 20.4595 13.0749C20.0924 13.4419 19.5912 13.6044 18.6316 13.6044H18.6145C18.4 13.6061 16.4623 13.6044 15.8302 13.6044L12.4481 18.8311L8.62209 13.6044H1.87495C1.14042 13.6044 0.0644531 13.0918 0.0644531 11.6913V2.07461C0.0644531 0.742229 1.15756 0.315308 1.89208 0.315308H19.0374C20.4722 0.315308 21.074 0.807384 21.0738 2.24279M18.8601 12.0841C19.0645 12.0841 19.3042 12.0996 19.4017 12.0021C19.4927 11.9111 19.5199 11.777 19.5199 11.3562V2.16473C19.5199 1.95296 19.4745 1.89372 19.425 1.85734C19.3666 1.81439 19.2693 1.80128 18.9788 1.80128H1.87537C1.5849 1.81841 1.5849 2.06212 1.5849 2.16473V11.7084C1.5849 11.7937 1.5849 12.0839 1.87537 12.0839H9.40802L12.3802 16.1494L15.0106 12.0839H18.5635" fill="white"/>
<path d="M10.2619 4.50015H11.6455L13.0119 8.03609H13.029L14.4126 4.50015H15.7107L13.439 9.88085H12.4483L10.2619 4.50015ZM9.08333 5.90086C8.9638 5.76419 8.81 5.64467 8.63927 5.57633C8.46855 5.508 8.26355 5.4568 8.04141 5.4568C7.81928 5.4568 7.59715 5.508 7.40929 5.59347C7.21824 5.68108 7.04464 5.80257 6.8969 5.95206C6.76024 6.10586 6.64071 6.29372 6.55524 6.49871C6.46977 6.70371 6.43571 6.94277 6.43571 7.19917C6.43571 7.45537 6.46998 7.6775 6.55524 7.89942C6.64071 8.12156 6.7431 8.29228 6.87976 8.44609C7.01802 8.59895 7.18681 8.7211 7.37522 8.80467C7.56796 8.89406 7.77776 8.94069 7.99022 8.94134C8.24641 8.94134 8.45141 8.89014 8.6562 8.78753C8.84406 8.68514 8.99786 8.54827 9.13452 8.36041L10.1424 9.09492C9.90331 9.41945 9.61285 9.65851 9.25426 9.79539C8.89546 9.94919 8.53688 10.0175 8.14402 10.0175C7.71689 10.0175 7.32424 9.94918 6.94831 9.81231C6.58951 9.67564 6.26519 9.48778 6.00879 9.24872C5.75259 9.00966 5.5476 8.70206 5.3938 8.36061C5.24 8.01895 5.17188 7.6261 5.17188 7.18204C5.17188 6.73798 5.24021 6.36205 5.3938 6.00346C5.5476 5.66201 5.75259 5.35441 6.00879 5.11535C6.26498 4.87608 6.58951 4.68822 6.94831 4.55177C7.30689 4.4151 7.69996 4.34656 8.14402 4.34656C8.29782 4.34656 8.46854 4.3637 8.62235 4.38083C8.79307 4.41489 8.96401 4.44895 9.1176 4.5175C9.28854 4.58583 9.44212 4.65416 9.59593 4.75677C9.74973 4.85937 9.88639 4.9789 10.0059 5.13249L9.08333 5.90086Z" fill="white"/>
</g>
<defs>
<clipPath id="clip0_551_12191">
<rect width="160" height="19" fill="white"/>
</clipPath>
</defs>
</svg>
