<svg width="116" height="48" viewBox="0 0 116 48" fill="none" xmlns="http://www.w3.org/2000/svg">
<path d="M9.56707 34.8969C9.56707 34.7988 9.53327 34.7006 9.53327 34.6025C9.49948 34.4716 9.49948 34.3408 9.46568 34.1772C9.43188 34.0136 9.36429 33.7847 9.33049 33.6211C9.29669 33.4248 9.26289 33.2285 9.22909 33.0323C9.1953 32.8033 9.1277 32.5743 9.0939 32.3453C9.0601 32.1163 8.99251 31.8546 8.95871 31.6256C8.89112 31.3639 8.89112 31.1676 8.85732 30.9059C8.78972 30.6442 8.68833 30.3498 8.65453 30.0881C8.58694 29.8264 8.55314 29.6301 8.48554 29.3684C8.41795 29.1394 8.38415 28.845 8.31655 28.616C8.18136 28.0272 7.97857 27.5365 7.84338 26.9477C7.70819 26.3916 7.6068 25.8681 7.40401 25.3447C7.26882 24.9195 7.16743 24.4288 7.03223 24.0035C6.86325 23.5782 6.82945 23.0548 6.82945 22.5969C6.79565 22.1062 6.86325 21.6482 6.82945 21.1575C6.79565 20.8304 6.69426 20.4705 6.69426 20.1434C6.66046 19.7181 6.69426 19.3583 6.62666 18.933C6.62666 18.9003 6.62666 18.8676 6.59286 18.8349C6.52527 18.5732 6.25488 18.1152 5.64652 17.5918C5.51133 17.6899 5.47753 17.7881 5.30855 17.8535C5.13956 17.9189 4.86917 18.0171 4.66639 18.0825C4.4974 18.1152 4.29461 18.0825 4.09182 18.1152C3.85524 18.2133 3.55106 18.2788 3.34827 18.2461C3.11169 18.2461 2.9427 18.2461 2.73991 18.1806C2.53712 18.1479 2.33434 17.9844 2.16535 17.9189C1.99636 18.0825 1.86117 18.2461 1.75977 18.4423C1.62458 18.6713 1.48939 18.9003 1.42179 19.162C1.2528 19.5546 1.2528 19.8817 1.21901 20.2088C1.08382 20.6668 1.05002 21.2229 1.05002 21.2229C1.05002 21.2229 0.982422 21.4519 1.01622 22.4333C1.01622 22.695 0.982422 23.0221 0.982422 23.3165C0.982422 23.6764 1.05002 24.0362 1.08382 24.3961C1.11761 24.7559 1.08382 25.083 1.11761 25.4429C1.15141 25.8354 1.18521 26.2607 1.21901 26.6533C1.2528 27.1112 1.3542 27.5038 1.388 27.9618C1.42179 28.3216 1.388 28.7469 1.42179 29.1394C1.45559 29.5974 1.55699 30.1208 1.59078 30.5788C1.62458 31.0368 1.59078 31.462 1.62458 31.92C1.65838 32.3126 1.75977 32.7378 1.79357 33.1304C1.82737 33.4902 1.75977 33.8174 1.79357 34.1772C1.82737 34.7333 1.86117 34.9623 1.89496 35.5184C1.89496 35.6166 1.99636 36.2054 1.99636 36.3363C2.03015 36.7615 1.96256 37.0559 1.96256 37.4812C1.96256 37.8083 1.99636 38.1682 1.96256 38.528C1.92876 38.8879 1.92876 40.1964 1.92876 40.4581C1.92876 40.9161 1.96256 41.2759 1.99636 41.7666C2.03015 42.1264 1.99636 42.4863 2.03015 42.8461C2.06395 43.206 2.16535 43.5985 2.23294 43.9911C2.30054 44.3509 2.26674 44.7435 2.40193 45.1033C2.50332 45.5286 2.73991 46.2483 3.31447 46.1828C3.78764 46.1174 3.99043 45.9538 4.19322 45.5286C4.32841 45.2342 4.36221 44.9397 4.4298 44.6126C4.4974 44.3836 4.63259 44.1546 4.70018 43.9256C4.80158 43.5004 4.83538 42.977 4.93677 42.5517C5.07196 41.8974 5.24095 41.3413 5.37614 40.6871C5.44374 40.2291 5.44374 39.8365 5.54513 39.3786C5.61273 39.0514 5.78171 38.2663 5.81551 38.0373C5.84931 37.7102 5.9507 37.2195 5.9507 37.1868C5.9845 36.7942 6.0183 36.4671 5.9845 36.0746C5.9845 35.7147 5.9507 35.2894 5.88311 34.9296C5.88311 34.8315 5.68032 33.6865 5.88311 33.6538C6.0521 33.6211 6.22109 34.5698 6.25488 34.6352C6.32248 34.9623 6.35628 35.2894 6.49147 35.5839C6.69426 36.14 6.96464 36.6307 7.16743 37.1868C7.37021 37.6775 7.5054 38.2009 7.70819 38.6589C7.84338 38.9206 8.04617 39.215 8.18136 39.5094C8.41795 40.0001 8.55314 40.4581 8.89112 40.8833C9.02631 41.0469 9.39808 41.4395 9.63467 41.2105C9.66847 41.1451 9.70226 41.0469 9.70226 40.9815C9.73606 40.8506 9.73606 40.6871 9.73606 40.5562C9.73606 40.3599 9.76986 40.1637 9.76986 39.9674C9.76986 39.7384 9.76986 39.5094 9.76986 39.2804C9.76986 39.0187 9.73606 38.7897 9.70226 38.5607C9.70226 38.299 9.73606 38.0373 9.73606 37.7756C9.73606 37.5139 9.73606 37.4485 9.73606 37.1868C9.73606 36.9578 9.70226 36.5653 9.70226 36.3363C9.70226 36.14 9.66847 35.9437 9.66847 35.7474C9.66847 35.5839 9.66847 35.453 9.63467 35.2894C9.60087 35.0932 9.56707 34.995 9.56707 34.8969Z" fill="white"/>
<path d="M11.7323 31.3312C11.5295 31.1349 11.8337 29.1394 11.9351 28.4852C12.0365 27.7982 12.1716 26.5878 12.1716 26.3588C12.1716 26.1299 12.2054 24.7232 12.273 24.2325C12.3406 23.7418 12.4082 22.9567 12.5096 22.237C12.5772 21.779 12.7462 20.4705 12.7462 20.2088C12.7462 19.9471 12.8814 18.933 12.949 18.5732C12.9828 18.2133 13.2532 17.7554 13.4222 17.6572C13.7263 17.4609 14.5713 17.5264 14.7403 17.5918C15.0445 17.6572 15.5852 18.4423 15.6528 18.5732C15.8556 18.8676 16.464 19.5873 16.5316 19.8163C16.633 20.0453 17.2075 20.9612 17.3427 21.3211C17.5455 21.7136 17.7483 21.9426 17.9173 22.2697C18.1201 22.5969 18.627 23.6437 18.627 23.6437C18.627 23.6437 19.3706 22.6296 19.5734 22.1716C19.7762 21.7136 20.3169 20.9939 20.5197 20.6014C20.7225 20.2088 21.4323 18.9003 21.5336 18.7695C21.7364 18.5078 21.9392 18.0171 22.311 17.7554C22.6828 17.4609 23.0208 17.5591 23.4601 17.5918C23.6629 17.5918 23.7981 17.6572 24.0347 17.7881C24.2713 17.9189 24.4403 18.9984 24.4741 19.3256C24.5079 19.6527 24.6768 21.4192 24.7106 21.6482C24.7444 21.8772 24.9472 22.8586 24.981 23.2511C25.0148 23.611 25.0824 25.6064 25.1838 26.1953C25.2852 26.7841 25.319 27.8636 25.3866 28.1908C25.4542 28.5179 25.6232 29.99 25.6232 30.1535C25.6232 30.3171 25.826 31.3312 25.657 31.3639C25.5218 31.3966 24.0685 31.4621 23.7981 31.4948C23.5277 31.5275 22.8856 31.4948 22.649 31.4948C22.4124 31.4948 22.1758 31.4621 22.1758 31.1022C22.1758 30.7424 22.2096 29.303 22.0744 28.6487C21.9392 28.0272 21.7026 26.3261 21.7026 26.0644C21.7026 25.8027 21.804 25.2139 21.4998 25.2793C21.2295 25.3775 20.6549 26.8823 20.4183 27.2421C20.2155 27.5692 19.6748 28.3216 19.6748 28.3216L19.1002 29.4011C19.1002 29.4011 18.7622 29.7937 18.5932 29.761C18.4242 29.7283 18.2215 28.8123 17.8835 28.3543C17.5455 27.8964 17.1399 27.144 17.0047 26.8168C16.8695 26.4897 16.4978 25.77 16.295 25.541C16.0922 25.312 15.957 24.9849 15.8218 24.9522C15.6866 24.9195 15.4838 24.7559 15.45 24.9522C15.4162 25.1485 15.2135 27.3402 15.2135 27.3402C15.2135 27.3402 15.0783 29.0086 15.0783 29.2049C15.0783 29.4011 15.0445 30.5134 15.0445 30.5134C15.0445 30.5134 15.2473 31.2658 14.8755 31.3312C14.6727 31.4293 11.9351 31.5275 11.7323 31.3312Z" fill="white"/>
<path d="M38.9371 21.4846C38.8357 21.0266 38.5653 20.0453 38.3963 19.7508C38.1935 19.4564 37.7542 18.7367 37.5852 18.6059C37.4162 18.475 36.8416 18.1806 36.6388 18.0825C36.436 17.9843 35.5235 17.7226 35.0503 17.6572C34.5772 17.5918 34.2392 17.6245 33.7998 17.5918C33.3942 17.5918 32.9887 17.5591 32.3127 17.5264C31.6367 17.4937 31.5353 17.4609 31.1298 17.4609C30.7242 17.4609 30.3862 17.4609 30.082 17.4936C29.7779 17.5264 28.9329 17.5918 28.7639 17.6245C28.5949 17.6572 28.5273 17.9516 28.5273 18.1479C28.5273 18.3442 28.5611 18.7695 28.5611 19.0312C28.5611 19.2929 28.5611 20.1761 28.5611 20.3397C28.5611 20.5359 28.5611 21.3211 28.6287 21.5828C28.6625 21.8445 28.5611 22.5641 28.5611 22.7604C28.5611 22.9567 28.6287 23.611 28.5949 23.8072C28.5949 24.0035 28.5611 24.8868 28.5611 25.0176C28.5611 25.1485 28.6625 26.1626 28.6625 26.2934C28.6625 26.4243 28.6625 27.2748 28.6287 27.5365C28.5949 27.7655 28.6287 28.5833 28.6287 28.7142C28.6287 28.845 28.6625 29.1721 28.6625 29.303C28.6625 29.4338 28.6625 30.1208 28.6287 30.2844C28.6287 30.4152 28.6963 30.9059 28.8315 31.1349C28.9667 31.3639 29.3723 31.3312 29.3723 31.3312C29.3723 31.3312 30.251 31.3312 30.5214 31.3312C30.7918 31.3312 31.6029 31.3312 31.8733 31.2985C32.1099 31.2658 32.0423 31.0041 32.0761 30.9714C32.0761 30.9386 32.0423 30.4152 32.0423 30.2844C32.0423 30.1535 32.0423 29.7937 32.0423 29.5647C32.0423 29.2049 32.0085 28.845 32.0085 28.616C32.0085 28.387 32.0423 27.6019 32.0761 27.5038C32.0761 27.4056 32.0423 27.0785 32.1099 27.0785C32.1775 27.0785 32.5155 27.0785 32.8873 27.1112C33.259 27.1112 33.6646 27.0785 33.766 27.0458C34.0364 27.0131 34.3068 26.9804 34.7123 26.915C35.1179 26.8495 35.9967 26.686 36.4022 26.5224C36.8078 26.3588 37.9569 25.8027 38.3287 25.3774C38.7005 24.9849 39.0385 23.7091 39.0723 23.3165C39.1061 22.924 39.0385 21.9426 38.9371 21.4846ZM36.1657 22.8258C36.1319 22.9894 36.0981 23.4474 35.8953 23.7091C35.7939 23.8399 35.6587 23.9054 35.4897 24.0689C35.3545 24.1998 35.0165 24.2979 34.7799 24.3961C34.5434 24.4942 34.273 24.5269 34.104 24.5596C33.935 24.5923 33.8674 24.5923 33.5632 24.6251C33.2928 24.6578 33.0225 24.6578 32.7521 24.6905C32.4817 24.7232 32.2789 24.6905 32.0761 24.4942C32.0761 24.4942 32.1099 23.7418 32.0761 23.4147C32.0423 23.0875 31.9747 22.5641 31.9747 22.4006C31.9747 22.237 31.9409 21.7463 31.9409 21.55C31.9409 21.3538 31.9747 20.7322 31.9409 20.5687C31.9071 20.4051 31.9071 20.1434 32.0423 20.078C32.1775 20.0125 33.2252 19.9471 33.5632 20.0125C33.9012 20.078 34.2054 20.1107 34.5096 20.2088C34.7799 20.307 34.9489 20.307 35.1517 20.4378C35.3545 20.5687 35.6249 20.7649 35.7263 20.9285C35.8277 21.0594 36.0305 21.2883 36.0643 21.4519C36.1319 21.6155 36.1995 22.008 36.1995 22.237C36.1995 22.3352 36.1995 22.6296 36.1657 22.8258Z" fill="white"/>
<path d="M41.8116 31.1025C41.8116 31.1025 41.7102 29.4668 41.7102 29.0088C41.7102 29.0088 41.8116 26.032 41.7778 25.7376C41.744 25.4431 41.7102 23.4804 41.7102 23.2187C41.7102 22.957 41.6764 22.2046 41.7102 21.8774C41.744 21.5503 41.744 21.0923 41.6764 20.8306C41.6426 20.5689 41.575 18.7043 41.6088 18.4426C41.6426 18.1809 41.8116 17.5266 41.8116 17.5266C41.8116 17.5266 42.2172 17.4285 42.6228 17.4285C43.0283 17.4285 44.4478 17.3958 44.9548 17.4285C45.4618 17.4612 46.2391 17.4285 46.6109 17.4285C46.9827 17.4285 47.8614 17.3958 48.1994 17.3958C48.5374 17.3958 48.774 17.2976 49.4161 17.3631C50.0583 17.4285 50.0583 17.3958 50.4301 17.3958C50.8018 17.3958 51.106 17.3958 51.1398 17.5266C51.1736 17.6575 51.2074 18.3772 51.2412 18.508C51.275 18.6389 51.1736 19.3586 51.2074 19.5548C51.2412 19.7511 51.3088 19.8492 51.0722 19.9474C50.8356 20.0455 49.2471 19.9801 48.943 19.9801C48.6388 19.9801 47.2869 20.0782 46.8813 20.0455C46.4757 20.0128 45.428 20.0128 45.1576 20.0128C44.8872 20.0128 44.8196 19.9801 44.752 20.1109C44.6844 20.2418 44.752 21.125 44.7182 21.2886C44.6844 21.4522 44.8196 22.041 44.8196 22.041C44.8196 22.041 44.8534 22.2046 45.1238 22.2373C45.3942 22.27 45.6308 22.2373 45.8336 22.2373C46.0363 22.2373 46.2053 22.27 46.5771 22.2373C46.9489 22.2046 47.0503 22.2373 47.5234 22.2046C47.9966 22.2046 47.8952 22.2373 48.3008 22.27C48.7064 22.3027 48.5712 22.27 48.943 22.2373C49.3147 22.2046 49.1457 22.2373 49.5851 22.2046C50.0245 22.1719 50.1597 22.2373 50.3963 22.2373C50.6328 22.2373 50.6666 22.5971 50.7004 22.6953C50.7342 22.8588 50.768 23.5131 50.768 23.6112C50.768 23.7094 50.6666 24.6253 50.6666 24.6253C50.6666 24.6253 49.8893 24.6907 49.3147 24.658C48.7402 24.6253 48.267 24.6907 47.8952 24.6907C47.5234 24.6907 47.0165 24.7235 46.6785 24.7235C46.3405 24.7235 45.1238 24.658 44.9886 24.658C44.8534 24.658 44.752 24.9197 44.752 24.9852C44.752 25.0506 44.752 26.6862 44.752 26.8171C44.752 26.9479 44.6506 27.7985 44.6844 27.8966C44.7182 27.9947 44.7182 28.2237 44.7182 28.2237C44.7182 28.2237 44.6844 28.42 44.921 28.42C45.1576 28.42 46.8813 28.42 47.3545 28.42C47.8276 28.42 49.6865 28.5509 49.9907 28.5182C50.2949 28.4854 50.9708 28.42 51.106 28.4527C51.2412 28.4854 51.3426 28.6163 51.3764 28.7144C51.4102 28.8126 51.3088 29.8267 51.3426 29.8921C51.3764 29.9575 51.3764 30.7426 51.3764 30.8735C51.3764 31.0043 51.275 31.2006 51.275 31.2006C51.275 31.2006 51.0722 31.2987 50.8356 31.2987C50.5653 31.2987 50.2611 31.3315 49.7879 31.3315C49.3147 31.3315 46.1377 31.2987 45.8336 31.2987C45.5294 31.2987 44.7182 31.2987 44.3802 31.2987C44.0423 31.2987 44.1099 31.3315 43.4339 31.3315C42.7917 31.3315 42.251 31.5604 41.8116 31.1025Z" fill="white"/>
<path d="M80.3073 30.8404C80.3073 30.8404 80.2059 29.4011 80.2059 28.9431C80.2059 28.9431 80.3073 25.9662 80.2735 25.6718C80.2397 25.3774 80.2059 23.4146 80.2059 23.1529C80.2059 22.8912 80.1721 22.1388 80.2059 21.8117C80.2397 21.4845 80.2397 21.0266 80.1721 20.7649C80.1384 20.5032 80.1721 20.1433 80.1721 19.7508C80.1721 19.2928 80.0708 18.6058 80.1046 18.3441C80.1384 18.0824 80.1721 17.8207 80.4087 17.5917C80.6453 17.3627 80.7129 17.33 81.1185 17.3627C81.5241 17.3954 82.9436 17.33 83.4505 17.3627C83.9575 17.3954 84.7349 17.3627 85.1066 17.3627C85.4784 17.3627 86.3234 17.3627 86.6613 17.3627C86.9993 17.33 87.3035 17.2973 87.9456 17.3627C88.5878 17.3954 88.554 17.3954 88.9596 17.3627C89.3652 17.33 89.7031 17.3954 89.7707 17.5263C89.8383 17.6571 89.7707 18.2787 89.7707 18.4422C89.7707 18.6058 89.7031 19.2928 89.7369 19.4891C89.7707 19.6853 89.8383 19.7835 89.6017 19.8816C89.3652 19.9798 87.7767 19.9143 87.4725 19.9143C87.1683 19.9143 85.8164 20.0125 85.4108 19.9798C85.0052 19.947 83.9575 19.947 83.6871 19.947C83.4167 19.947 83.3491 19.9143 83.2815 20.0452C83.214 20.176 83.2815 21.0593 83.2477 21.2228C83.214 21.3864 83.3491 21.9752 83.3491 21.9752C83.3491 21.9752 83.3829 22.1388 83.6533 22.1715C83.9237 22.2042 84.1603 22.1715 84.3631 22.1715C84.5659 22.1715 84.7349 22.1388 85.1066 22.1388C85.4784 22.1388 85.6136 22.1715 86.0868 22.1388C86.5599 22.1388 86.3909 22.1061 86.7965 22.1388C87.2021 22.1715 87.1007 22.1388 87.5063 22.1388C87.9119 22.1061 87.9119 22.1715 88.3512 22.1388C88.7906 22.1061 88.8244 22.1715 89.0272 22.1388C89.3652 22.1388 89.2638 22.6295 89.2976 22.7276C89.3314 22.8912 89.2638 23.48 89.2638 23.5782C89.2638 23.6763 89.4328 24.396 89.1962 24.5596C88.892 24.7558 88.2836 24.6904 87.7091 24.6577C87.1345 24.625 86.7965 24.6577 86.4585 24.6577C86.1206 24.6577 85.5798 24.6904 85.2418 24.6904C84.9038 24.6904 83.9575 24.7558 83.8223 24.7558C83.4167 24.7231 83.4167 24.8867 83.4167 24.9848C83.3829 25.1157 83.3491 26.5878 83.3491 26.7186C83.3491 26.8495 83.2816 27.7327 83.3153 27.8308C83.3491 27.929 83.3153 28.1907 83.3153 28.1907C83.3153 28.1907 83.2815 28.387 83.5181 28.387C83.7547 28.387 85.4784 28.387 85.9516 28.387C86.4247 28.387 88.2836 28.5178 88.5878 28.4851C88.9258 28.4524 89.5342 28.4524 89.7031 28.4851C89.8721 28.5178 89.9397 28.7141 89.9735 28.8122C90.0073 28.9104 89.9735 29.8918 89.9397 29.859C89.9059 29.7936 89.9735 30.7096 89.9735 30.8404C89.9735 30.9713 89.8721 31.1676 89.8721 31.1676C89.8721 31.1676 89.6693 31.2657 89.4328 31.2657C89.1962 31.2657 88.892 31.3965 88.4188 31.3638C88.216 31.3638 87.4387 31.3638 86.6951 31.3638C85.6812 31.3638 84.5997 31.2657 84.4307 31.2657C84.1265 31.2657 83.3153 31.3311 82.9774 31.3311C82.6394 31.3311 82.707 31.2984 82.031 31.2984C81.3551 31.2984 80.7467 31.462 80.3073 30.8404Z" fill="white"/>
<path d="M66.0768 30.9712C66.043 30.9058 65.874 30.6441 65.6712 30.4805C65.4684 30.317 65.4684 30.1534 65.2656 29.9571C65.0628 29.7608 64.7587 29.172 64.6235 29.0085C64.4545 28.8449 64.4545 28.7795 64.1165 28.3869C63.7785 28.0271 63.5419 27.7654 63.4067 27.5364C63.2378 27.3074 62.697 26.8167 62.7646 26.8167C62.8322 26.8167 63.8461 25.4755 63.9475 25.3773C64.0489 25.2792 64.3869 24.7231 64.4545 24.5268C64.5221 24.3305 64.6573 23.938 64.7249 23.709C64.7587 23.48 64.7587 23.3164 64.7587 23.0547C64.7587 22.793 64.7587 22.564 64.7587 22.3023C64.7587 22.0406 64.7925 21.7462 64.7249 21.5172C64.6911 21.2882 64.6911 20.634 64.5559 20.3068C64.4545 19.9797 64.1841 19.4236 64.1165 19.2273C64.0489 19.031 63.1702 18.4422 63.1026 18.2459C63.0012 18.0496 62.528 17.8534 62.0548 17.7552C61.5817 17.6571 61.5817 17.7225 61.2437 17.6244C60.9057 17.5262 60.7367 17.559 60.2973 17.5262C59.858 17.4935 58.8102 17.4935 58.4385 17.4608C58.0667 17.4281 55.4305 17.4281 55.0925 17.4608C54.7545 17.4935 54.6193 17.4935 54.5855 17.7225C54.5517 17.9515 54.5517 19.2927 54.5855 19.6199C54.6193 19.947 54.5855 21.1574 54.5179 21.7135C54.4503 22.2696 54.6193 23.2837 54.6193 23.6108C54.6193 23.938 54.5855 25.5409 54.5855 25.7045C54.5855 25.9007 54.6193 27.5037 54.5517 27.7981C54.4841 28.0598 54.5517 29.5973 54.5855 29.9898C54.6193 30.3824 54.5179 31.2656 54.7207 31.3638C54.9235 31.4619 55.7346 31.4292 56.005 31.4292C56.2754 31.4292 56.6472 31.4619 57.1541 31.4619C57.6611 31.4619 57.8639 31.4292 58.0329 31.3638C58.2019 31.2984 58.0329 30.6768 58.0667 30.5132C58.1005 30.3497 57.9653 29.3356 58.0329 29.0085C58.0667 28.6813 58.1005 27.3728 58.1343 27.2747C58.1681 27.1765 58.3033 27.1765 58.4047 27.1438C58.5061 27.1111 59.0806 27.1765 59.2834 27.242C59.4862 27.2747 59.689 27.7327 59.7566 27.7654C59.8242 27.7981 60.1622 28.3215 60.5677 28.7467C60.9395 29.172 62.1224 30.6441 62.4266 30.9058C62.7308 31.1675 62.697 31.3311 63.0012 31.3965C63.3392 31.4619 63.4067 31.4292 63.5757 31.4292C63.7785 31.3965 64.4883 31.4292 64.7249 31.4292C64.9615 31.4292 65.9416 31.3965 66.0768 31.3965C66.1106 31.2656 66.1106 31.0367 66.0768 30.9712ZM61.7507 22.6949C61.7169 22.9566 61.7845 22.9566 61.6155 23.3164C61.4465 23.6435 61.2775 23.8398 61.1761 24.0688C61.0409 24.2978 60.4325 24.5595 60.196 24.5922C59.9594 24.6249 59.2834 24.7231 59.0468 24.7231C58.8102 24.7231 58.3033 24.6904 58.1005 24.6249C57.9991 24.5922 57.7625 23.0547 57.7963 22.7603C57.8301 22.4659 57.8639 21.7462 57.8301 21.3209C57.7963 20.8957 57.6611 20.2741 57.7963 20.176C57.9315 20.0778 58.3709 20.1106 58.7088 20.1433C59.0806 20.176 59.8918 20.2087 60.4325 20.4377C60.9733 20.6994 61.2775 20.7975 61.4465 21.1247C61.6155 21.4518 61.6831 21.4845 61.7169 21.8443C61.7507 22.2369 61.8183 22.4332 61.7507 22.6949Z" fill="white"/>
<path d="M68.4092 31.1677C68.3416 31.0695 68.2064 28.9105 68.2064 28.6161C68.2064 28.3216 68.1389 24.8868 68.1389 24.5924C68.1389 24.298 68.2402 22.4333 68.2064 22.1062C68.1726 21.7791 68.1727 21.7791 68.1727 21.4519C68.1727 21.1248 68.1727 20.9285 68.1727 20.6668C68.1727 20.4051 68.1051 19.391 68.1389 19.162C68.1726 18.933 68.1727 18.5078 68.1051 18.3115C68.0375 18.0825 68.2402 17.6245 68.443 17.5264C68.6458 17.4283 71.3158 17.4283 71.7552 17.461C72.1946 17.4937 72.7692 17.5591 73.3099 17.5591C73.8507 17.5591 75.3378 17.5264 75.7772 17.4937C76.2165 17.461 76.8925 17.461 77.1291 17.461C77.3657 17.461 77.5009 18.0498 77.5009 18.2134C77.5009 18.3769 77.4671 19.0312 77.4671 19.162C77.4671 19.2929 77.5009 19.7182 77.4671 19.7836C77.4333 19.849 77.4333 20.1107 77.3657 20.1107C77.2981 20.1107 76.6897 20.1434 76.4531 20.1434C76.2165 20.1434 75.7772 20.1107 75.5068 20.1107C75.2364 20.1107 74.0873 20.1434 73.8507 20.1434C73.6141 20.1434 72.9381 20.1434 72.7016 20.1434C72.465 20.1434 71.5862 20.1434 71.4848 20.1434C71.3834 20.1434 71.4172 20.4051 71.3496 20.6014C71.2821 20.7977 71.2821 21.5828 71.3159 21.6482C71.3496 21.7136 71.3158 22.1389 71.5186 22.2043C71.7214 22.2698 72.3974 22.3025 72.7692 22.3025C73.1409 22.3025 73.4789 22.2698 73.6817 22.2698C73.8845 22.2698 74.0535 22.2043 74.3577 22.2043C74.6618 22.2043 74.8646 22.237 75.304 22.2698C75.7434 22.3025 75.8786 22.237 76.0138 22.237C76.1489 22.237 76.3517 22.2043 76.5545 22.2043C76.7573 22.2043 76.9939 22.237 77.0953 22.3025C77.2643 22.4006 77.1967 23.4147 77.1291 23.611C77.0615 23.8073 77.1291 24.3307 77.1291 24.3961C77.1291 24.4615 77.2643 24.6251 76.7911 24.6578C76.3179 24.6905 75.5406 24.6905 75.2364 24.6905C74.9322 24.6905 74.1211 24.7232 73.7493 24.7232C73.3775 24.7232 72.1946 24.6905 71.8228 24.6905C71.451 24.6905 71.4848 24.8868 71.4848 25.0176C71.4848 25.1485 71.3834 26.457 71.3834 26.457C71.3834 26.457 71.4848 26.9477 71.4848 27.3075C71.4848 27.6674 71.451 28.2889 71.451 28.4198C71.451 28.5506 71.5524 29.2049 71.5186 29.2703C71.4848 29.3357 71.5524 30.5788 71.5524 30.6443C71.5524 30.7097 71.6538 31.1349 71.4848 31.2331C71.2821 31.3312 71.1131 31.4621 70.4709 31.4294C69.7612 31.3312 68.5444 31.3639 68.4092 31.1677Z" fill="white"/>
<path d="M102.308 28.3871C102.308 28.3871 102.342 28.6488 102.342 28.8124C102.342 28.9759 102.342 29.8592 102.342 29.99C102.342 30.1209 102.274 30.6443 102.241 30.7097C102.207 30.7751 101.565 31.0695 101.294 31.2004C101.024 31.3312 100.111 31.364 99.9424 31.3967C99.7734 31.4294 99.4354 31.3967 98.5905 31.364C97.7455 31.3312 97.4076 31.364 96.9344 31.2658C96.4612 31.1677 96.0895 30.9387 95.6501 30.8078C95.2107 30.677 94.6699 30.3171 94.2644 29.99C93.8588 29.6629 93.2842 29.0086 93.1152 28.8451C92.9463 28.6815 92.2365 27.602 92.1013 27.373C91.9661 27.1767 91.5267 25.7373 91.5267 25.5084C91.5267 25.2794 91.4929 23.611 91.5267 23.4802C91.5605 23.3493 91.8647 22.1062 91.9661 21.9099C92.0675 21.7137 92.5407 20.765 92.7435 20.536C92.9463 20.307 93.7912 19.3583 94.0954 19.1293C94.3996 18.9004 94.9065 18.4424 95.2107 18.3115C95.5149 18.1807 96.326 17.8208 96.9682 17.6573C97.5766 17.4937 97.9145 17.461 98.8271 17.4937C99.7396 17.5264 100.314 17.4937 100.618 17.5591C101.396 17.69 101.768 18.0171 102.072 18.148C102.376 18.2788 102.41 18.7695 102.477 18.9985C102.511 19.1948 102.477 20.0126 102.477 20.1434C102.477 20.2743 102.342 20.6341 102.308 20.6996C102.274 20.765 101.463 20.6014 101.328 20.5033C101.092 20.3724 99.3678 20.1434 98.7933 20.1762C98.3201 20.2089 97.3062 20.4379 96.9344 20.6668C96.5288 20.9286 95.9205 21.5501 95.5487 22.0081C95.2445 22.4006 94.9403 23.2185 94.9065 23.382C94.9065 23.5783 94.8051 23.9381 94.8389 24.1017C94.8727 24.2653 94.7375 25.2139 94.8389 25.4102C94.9065 25.6065 95.1093 26.228 95.2783 26.3916C95.4473 26.5552 95.5487 27.2094 96.0557 27.4711C96.5288 27.7328 96.8668 27.9618 97.3738 28.06C97.8807 28.1908 98.4553 28.4852 99.1313 28.5179C99.8072 28.5507 100.179 28.3871 100.551 28.3871C100.923 28.3871 101.43 28.3217 101.599 28.2562C101.768 28.1908 102.072 28.1581 102.072 28.1581C102.072 28.1581 102.308 28.06 102.308 28.3871Z" fill="white"/>
<path d="M104.608 20.1436C104.608 20.1436 104.405 19.9473 104.405 19.6202C104.371 19.2931 104.304 18.6388 104.337 18.3117C104.371 17.9846 104.371 17.6574 104.54 17.592C104.709 17.5266 106.602 17.4284 107.007 17.4939C107.413 17.5593 107.616 17.6247 108.325 17.592C109.035 17.5593 109.035 17.4612 109.846 17.5266C110.658 17.592 110.793 17.5593 111.367 17.592C111.942 17.6247 112.618 17.592 112.618 17.592H113.361C113.361 17.592 114.409 17.592 114.612 17.592C114.815 17.592 114.815 18.1154 114.882 18.3771C114.95 18.6388 114.984 18.9005 114.95 19.1949C114.916 19.4894 115.017 19.8492 114.848 19.98C114.612 20.1763 114.037 20.1436 113.699 20.1436C113.361 20.1436 112.888 20.1763 112.314 20.1763C111.739 20.1763 111.57 20.1109 111.435 20.1763C111.3 20.2417 111.198 20.2745 111.232 20.5035C111.266 20.7324 111.232 22.0082 111.198 22.2045C111.165 22.4008 111.333 24.0692 111.333 24.3309C111.333 24.5926 111.3 25.2795 111.266 25.4104C111.232 25.5412 111.3 26.1628 111.266 26.3918C111.266 26.6862 111.367 27.3732 111.333 27.7003C111.333 27.8966 111.3 29.0088 111.3 29.1069C111.3 29.2051 111.333 30.3827 111.333 30.5136C111.333 30.6444 111.3 31.0697 111.198 31.2006C111.097 31.3314 110.962 31.2987 110.59 31.3314C110.218 31.3641 109.407 31.3314 109.137 31.3314C108.866 31.3314 108.393 31.2987 108.157 31.2987C107.92 31.2987 107.92 31.0043 107.852 30.4482C107.785 29.892 107.988 28.6817 107.988 28.4527C107.988 28.2237 107.819 27.046 107.852 26.817C107.886 26.588 107.988 25.6721 107.954 25.4104C107.92 25.1487 107.819 24.4617 107.819 24.2654C107.819 24.0692 107.92 22.9242 107.886 22.7934C107.852 22.6625 107.819 22.2699 107.819 22.041C107.819 21.812 107.751 21.3213 107.751 21.0596C107.751 20.7979 107.785 20.2417 107.785 20.2417C107.785 20.2417 107.65 20.0455 107.244 20.0782C106.838 20.1109 106.737 20.0128 106.264 20.1109C105.791 20.209 104.878 20.1763 104.608 20.1436Z" fill="white"/>
<path d="M33.9018 44.8417C33.9018 44.8417 33.9018 44.9398 33.5976 44.9398C33.2934 44.9398 33.2258 44.9725 32.9554 44.9398C32.685 44.9071 32.516 44.9071 32.4823 44.8744C32.4485 44.8417 32.3809 44.8744 32.3809 44.6454C32.3809 44.4164 32.3809 43.5332 32.3809 43.3369C32.3809 43.1406 32.3809 42.2247 32.4147 41.963C32.4485 41.7013 32.4147 41.0797 32.4147 40.8507C32.3809 40.6217 32.3809 40.2292 32.3809 39.9675C32.3809 39.7058 32.4485 38.6917 32.4485 38.43C32.4485 38.1683 32.4823 37.3504 32.4485 37.2196C32.4147 37.0887 32.4485 36.6308 32.4485 36.4999C32.4485 36.3691 32.4147 36.1074 32.4485 35.8784C32.4823 35.6494 32.5498 35.355 32.5498 35.2568C32.5498 35.1587 32.8878 35.126 33.0906 35.0933C33.2934 35.0605 33.6314 35.0605 34.0707 35.0605C34.4763 35.0605 36.4366 35.0278 36.6056 35.0278C36.7746 35.0278 38.1603 35.1587 38.2617 35.126C38.3631 35.0933 38.4645 35.2568 38.5321 35.4531C38.5997 35.6494 38.5659 36.0092 38.5659 36.1074C38.5659 36.2055 38.4307 36.4018 38.4307 36.4018C38.4307 36.4018 37.7547 36.4672 37.4505 36.4672C37.1463 36.4672 35.5241 36.4018 35.3213 36.4018C35.1185 36.4018 34.1721 36.3691 34.1383 36.4018C34.1045 36.4345 34.0708 36.4672 34.037 36.5326C34.0032 36.5981 34.037 37.3177 34.0032 37.3832C33.9694 37.4486 34.037 38.43 34.037 38.4627C34.037 38.4954 34.0707 38.5608 34.2735 38.5281C34.4763 38.4954 35.5579 38.5935 35.9296 38.5608C36.3014 38.5281 37.1801 38.5281 37.4843 38.5608C37.7885 38.5935 38.1265 38.5935 38.1603 38.659C38.1941 38.7244 38.2279 39.2805 38.2279 39.3786C38.2279 39.4768 38.1603 39.8366 38.1603 39.8366C38.1603 39.8366 38.1603 39.9675 37.8899 39.9675C37.6195 39.9675 35.0171 40.0329 34.8143 40.0329C34.6115 40.0329 34.2397 40.0329 34.1721 40.0656C34.1045 40.0983 34.1045 40.6544 34.0707 40.818C34.037 40.9816 34.1383 41.6031 34.1045 41.8321C34.0707 42.0611 34.1045 43.206 34.1045 43.2715C34.1045 43.3369 34.0032 44.7108 33.9018 44.8417Z" fill="white"/>
<path d="M51.4431 39.5749C51.4093 39.0842 51.1051 38.3646 50.9024 38.0374C50.6996 37.7103 50.3954 36.9252 49.5504 36.2382C48.7055 35.5513 49.3476 36.0419 49.0435 35.9111C48.7055 35.7475 48.5365 35.6494 48.3675 35.584C48.1647 35.4858 47.624 35.3223 47.1508 35.2568C46.6776 35.1914 45.6975 35.1587 44.8187 35.5185C43.94 35.8457 42.8247 36.5981 42.0473 37.4813C41.2362 38.3973 41.1348 40.1638 41.1348 40.1638C41.1348 40.6217 41.5065 41.734 41.6079 41.9303C41.7093 42.1265 41.9121 42.7154 42.0473 42.8789C42.1825 43.0752 42.4191 43.3042 42.6219 43.5659C42.8247 43.8276 43.3654 44.1547 43.6358 44.351C43.9062 44.5473 44.3118 44.6781 44.3118 44.6781L44.8187 44.8417C44.8187 44.8417 45.1567 44.8744 45.3595 44.9071C45.5961 44.9071 46.0693 45.038 46.3058 45.038C46.5424 45.038 46.9818 45.0053 47.6916 44.9398C48.3675 44.8744 48.5703 44.6454 48.6041 44.6127C48.6379 44.58 49.0097 44.4164 49.0097 44.4164C49.0097 44.4164 49.3139 44.2856 49.4152 44.2529C49.5504 44.2202 50.5306 43.2061 50.6996 43.0098C50.8686 42.8135 51.3417 41.5704 51.3755 41.4723C51.3755 41.3087 51.4769 40.0329 51.4431 39.5749ZM49.449 41.7013C49.1787 42.2247 48.7055 42.6172 48.4689 42.8135C48.2323 43.0098 47.9281 43.1733 47.7929 43.2388C47.624 43.3042 46.9818 43.4023 46.7114 43.4023C46.441 43.4023 45.3933 43.4351 44.8525 43.1734C44.3118 42.9116 43.8724 42.6499 43.5682 42.2247C43.264 41.7994 42.8923 40.6872 42.8923 40.6217C42.7909 39.3787 43.1288 38.9534 43.2978 38.5608C43.5006 38.1683 43.602 37.9066 43.94 37.6449C44.278 37.3832 44.6497 37.0233 44.9201 36.8925C45.1905 36.7616 45.7313 36.5981 45.8665 36.5981C46.4748 36.5326 46.61 36.5981 46.779 36.6308C47.0156 36.6635 47.455 36.8271 47.7254 36.8925C47.9957 36.9579 48.1985 37.1869 48.4013 37.3505C48.8407 37.6122 49.0773 38.1029 49.2801 38.2991C49.5842 38.6263 49.787 39.7385 49.8208 40.1965C49.8884 40.6217 49.7194 41.1779 49.449 41.7013Z" fill="white"/>
<path d="M64.3866 37.906C64.2514 37.5461 63.4064 36.5975 63.1698 36.3685C62.967 36.1395 62.1559 35.6488 61.7841 35.5506C61.4123 35.4525 60.8716 35.2235 60.5674 35.2235C60.2632 35.2235 59.5873 35.1581 59.0465 35.1908C58.5057 35.2235 57.1876 35.8778 56.9848 36.0413C56.782 36.2049 56.0047 36.8264 55.5991 37.3499C55.1935 37.8405 54.7204 39.1818 54.7204 39.1818C54.281 40.1959 54.9232 41.9297 55.1597 42.4858C55.3963 43.0419 56.5792 44.1214 56.9848 44.3831C57.3904 44.6448 58.4381 44.8084 59.2493 44.9392C60.0604 45.0374 61.5475 44.8084 62.3249 44.4485C63.136 44.056 63.3388 43.6634 63.6092 43.4999C63.8458 43.3363 64.0148 42.9765 64.1162 42.7802C64.2176 42.5839 64.7245 41.3735 64.7921 41.1773C64.8597 40.981 64.8935 40.5884 64.9273 40.4249C64.9273 40.2613 64.9273 39.7052 64.9273 39.5743C64.9611 38.9201 64.5555 38.2331 64.3866 37.906ZM63.3388 40.6211C63.305 40.8828 62.7305 41.9624 62.6291 42.1586C62.4939 42.3549 61.4123 43.2709 60.7702 43.3363C60.1618 43.369 59.3169 43.2382 58.8437 43.2382C58.3705 43.2382 57.8298 42.8783 57.2552 42.4203C56.6468 41.9624 56.2751 40.7847 56.3089 40.6539C56.3089 40.523 56.2413 39.6398 56.3427 39.2472C56.3427 39.2472 56.7482 38.1022 57.458 37.5134C58.1677 36.9246 59.4183 36.5647 59.8576 36.5647C60.297 36.5647 60.7364 36.6956 61.142 36.8264C61.5475 36.9573 61.6489 36.9573 62.0207 37.3499C62.3925 37.7424 62.5615 37.7751 62.7643 38.135C62.967 38.5275 63.1698 39.0182 63.305 39.3126C63.4402 39.607 63.3726 40.3267 63.3388 40.6211Z" fill="white"/>
<path d="M75.7091 39.4113C75.7091 39.1496 75.3711 38.0046 74.7965 37.1868C74.222 36.369 73.1404 35.9764 72.7349 35.7474C72.3293 35.5511 71.2478 35.1913 70.4366 35.1259C69.6255 35.0605 69.1861 35.1259 68.8143 35.1259C68.4425 35.1259 68.4763 35.4203 68.4425 35.5839C68.4087 35.7474 68.5101 36.3035 68.4763 36.5652C68.4763 36.8269 68.4763 37.1541 68.4425 37.4812C68.4087 37.7756 68.5101 38.2336 68.5101 38.5934C68.5101 38.9533 68.5439 39.4767 68.5439 39.8038C68.5439 40.1309 68.5101 41.0142 68.5101 41.374C68.5101 41.7993 68.5439 42.061 68.5439 42.2246C68.5439 42.3881 68.5439 43.6312 68.5439 43.8929C68.5439 44.1546 68.5101 44.8089 68.6453 44.9397C68.7129 45.0052 69.2537 44.9397 69.2537 44.9397C69.2537 44.9397 69.6593 44.9397 69.9296 44.9397C70.2 44.9397 70.1662 44.9397 70.4366 44.907C70.6732 44.8743 71.6533 44.7107 72.4307 44.5145C73.2418 44.3182 73.7826 43.7621 74.4586 43.1405C75.1345 42.519 75.5739 41.2432 75.6753 41.0469C75.8443 40.8179 75.7091 39.673 75.7091 39.4113ZM74.1206 40.9815C73.9854 41.4395 73.3094 42.3554 73.1066 42.4863C72.9377 42.6171 72.0927 43.206 71.5519 43.2714C71.045 43.3695 70.6056 43.3368 70.369 43.3041C69.9972 43.2714 70.0648 41.7012 70.0986 41.4067C70.1324 41.1123 70.0986 40.3599 70.0986 40.0982C70.0986 39.8692 70.0986 39.0187 70.0986 39.0187C70.0986 39.0187 70.031 38.299 70.031 37.9719C70.031 37.6448 70.031 37.2522 69.9972 37.0559C69.9634 36.8597 70.031 36.4998 70.031 36.4998C70.031 36.4998 70.2338 36.4344 70.6394 36.4998C71.045 36.5652 71.4843 36.6961 71.8899 36.8597C72.2955 37.0232 72.3631 37.0887 72.7349 37.4158C73.1066 37.7429 73.3432 37.841 73.5122 38.1682C73.6812 38.4626 74.1206 39.0841 74.1206 39.4113C74.1544 39.7384 74.222 40.5235 74.1206 40.9815Z" fill="white"/>
<path d="M85.9175 37.6771C85.9175 37.6771 85.7485 36.6957 85.5457 36.3686C85.343 36.0415 84.7684 35.6489 84.7008 35.5835C84.6332 35.518 84.3966 35.3872 84.1938 35.2891C83.991 35.1909 82.9433 35.1582 82.5715 35.1582C82.1998 35.1582 81.5576 35.2236 81.1182 35.4199C80.6789 35.6162 80.4423 35.747 80.3071 35.8779C80.0705 36.0742 79.6987 36.7938 79.6987 36.9247C79.6987 37.0555 79.5297 37.9715 79.6987 38.3968C79.8677 38.822 80.4085 39.8034 81.3548 40.0978C82.3012 40.3923 83.7883 40.7521 83.9572 40.8502C84.1262 40.9484 84.9036 41.3082 84.6332 42.126C84.3628 42.9439 83.7545 43.4346 83.0109 43.3691C82.2674 43.3037 81.5576 43.1074 81.3886 42.9112C81.2196 42.7149 81.0168 42.3877 80.9492 42.126C80.9154 42.0279 80.9154 41.7989 80.7464 41.7989C80.5775 41.7989 79.5635 41.7335 79.4621 41.8971C79.2931 42.1915 79.4959 42.5513 79.5635 42.7149C79.5973 42.8784 79.9691 43.5327 80.1043 43.6636C80.2395 43.7944 80.983 44.4487 81.7266 44.7104C82.4701 44.9721 83.2137 44.8739 84.0586 44.7104C84.9036 44.5468 85.5457 43.9253 85.7823 43.5654C86.0189 43.2056 86.3907 42.0606 86.3231 41.5699C86.2555 41.0792 86.0189 40.5231 85.6133 40.0324C85.343 39.7053 84.836 39.5744 84.498 39.4763C84.16 39.3782 83.2137 39.1165 82.7405 38.9529C82.2673 38.7893 81.2534 38.2986 81.2534 37.7425C81.2534 37.2845 81.2534 36.9574 81.5238 36.6957C81.6252 36.5649 82.2674 36.3359 82.7067 36.3359C83.1461 36.3359 83.4503 36.434 83.6531 36.5321C83.8559 36.6303 84.1938 36.9247 84.2952 37.121C84.3966 37.3173 84.4304 37.5135 84.5318 37.7098C84.6332 37.9061 84.667 37.8079 84.9374 37.8079C85.2078 37.8079 85.9513 38.0042 85.9175 37.6771Z" fill="white"/>
<path d="M19.2332 14.1572C19.1656 13.7646 18.8615 13.5357 18.4897 13.4048C18.0841 13.2412 17.6447 13.3067 17.3068 13.274C16.7322 13.2085 16.1576 12.9795 15.5831 12.8814C15.2113 12.7833 14.8395 12.7178 14.5015 12.6197C14.1636 12.5216 13.7918 12.4561 13.4538 12.3907C12.8792 12.2599 12.3385 12.1944 11.7301 12.1617C11.257 12.129 10.7838 12.1944 10.3106 12.2926C9.73605 12.3907 9.22908 12.5216 8.72211 12.7178C8.31654 12.8814 7.91097 13.0777 7.53919 13.3067C7.23501 13.4702 6.93083 13.6338 6.62665 13.8301C5.64651 14.3535 4.93676 14.8442 4.15941 15.5966C4.32839 14.9096 4.42979 14.517 4.59878 13.8628C4.76777 13.3067 4.97055 12.8814 5.30853 12.5543C5.64651 12.2271 6.08588 11.9981 6.66045 11.8673C7.16741 11.7364 7.64058 11.6383 8.11375 11.4747C8.45173 11.3766 8.82351 11.1149 9.16149 10.9513C9.46567 10.7878 9.70225 10.6896 9.97263 10.4279C10.3444 10.0681 10.581 9.64282 10.75 9.18484C10.8852 8.85771 10.8852 8.5633 11.0204 8.26888C11.1556 8.00718 11.3583 7.74548 11.5273 7.48377C11.6963 7.22207 11.7977 6.92765 12.0343 6.69866C12.3047 6.40425 12.6427 6.14255 12.8792 5.81542C13.082 5.55371 13.251 5.2593 13.3524 4.93217C13.4538 4.60504 13.5214 4.31063 13.4538 3.95078C13.3862 3.55823 13.1496 3.13296 12.8454 2.90397C12.5075 2.64227 12.0343 2.57684 11.5949 2.67498C11.0542 2.77312 10.6148 3.13296 10.1754 3.42738C9.90504 3.62366 9.70225 3.75451 9.39807 3.91807C9.16149 4.04892 8.78971 4.17977 8.58692 4.34334C8.35034 4.53962 8.14755 4.80132 7.97856 5.06302C7.84337 5.2593 7.74198 5.65185 7.64058 5.88084C7.404 6.33882 7.13362 6.50239 6.86323 6.86223C6.69424 7.05851 6.49146 7.2875 6.28867 7.48377C5.8831 7.94175 5.71411 8.43245 5.57891 9.02128C5.44372 9.54468 5.27473 10.0027 5.07195 10.4606C4.97055 10.6896 4.83536 10.9186 4.70017 11.1149C4.46359 11.4747 4.227 11.8673 4.02421 12.2271C4.02421 12.0636 4.02421 11.9 4.02421 11.7364C4.02421 10.6896 3.85523 9.41383 4.09181 8.26888C4.1932 7.8109 4.3284 7.38563 4.56498 6.99308C5.00435 6.33882 5.7479 6.10983 6.28867 5.58643C6.69424 5.16116 6.82943 4.63775 7.13362 4.17977C7.3364 3.88536 7.53919 3.65637 7.74198 3.42738C7.94476 3.19839 8.11375 2.93668 8.24894 2.64227C8.35034 2.38057 8.41793 2.15158 8.48553 1.88987C8.51933 1.62817 8.55312 1.33375 8.55312 1.03934C8.55312 0.973913 8.51933 0.973913 8.45173 0.9412C7.77577 0.875775 7.09982 0.9412 6.49146 1.2029C6.08588 1.36647 5.71411 1.62817 5.44372 1.98801C5.20714 2.28243 5.03815 2.64227 4.86916 3.00211C4.70017 3.36195 4.66637 3.65637 4.46359 3.9835C4.36219 4.14706 4.09181 4.40876 3.99042 4.57233C3.72003 4.96488 3.58484 5.39015 3.48345 5.88084C3.34826 6.43696 3.21307 6.92765 3.17927 7.48377C3.14547 8.10532 3.11167 8.72686 3.11167 9.34841C3.11167 9.8391 3.11167 10.3298 3.11167 10.8205C3.07787 12.7833 3.14547 14.7133 3.31446 16.6434C3.24686 16.6761 3.21307 16.7088 3.14547 16.7415C3.01028 16.8069 2.87509 17.0032 2.87509 17.0032L2.53711 17.3958C2.53711 17.3958 2.97648 17.6248 3.11167 17.6248C3.24686 17.6575 3.48345 17.6248 3.72003 17.6248C3.95662 17.6248 4.15941 17.6248 4.2946 17.6248C4.42979 17.6248 4.76777 17.5593 4.97055 17.4939C5.17334 17.4285 5.37613 17.2649 5.37613 17.2649L5.00435 17.0032L4.70017 16.8397C4.70017 16.8397 4.49738 16.7742 4.42979 16.7088C4.36219 16.7088 4.36219 16.6761 4.36219 16.6761C4.59878 16.2508 4.93676 15.8583 5.34233 15.5311C5.7479 15.1713 6.25487 14.9096 6.86323 14.6806C7.13362 14.5825 7.4378 14.5498 7.70818 14.5498C8.14755 14.5498 8.55312 14.5498 8.9925 14.517C9.43187 14.4516 9.87124 14.3208 10.3106 14.2226C10.75 14.1245 11.2232 14.0591 11.6287 14.2553C12.0005 14.4516 12.3723 14.8442 12.7103 15.0404C13.0482 15.2367 13.2848 15.3021 13.6566 15.433C13.8932 15.5311 14.1974 15.5639 14.4677 15.5966C15.0423 15.662 15.6169 15.662 16.1914 15.5311C16.597 15.433 16.935 15.2367 17.3068 15.1386C17.5434 15.0732 17.8813 15.1386 18.1179 15.1059C18.6587 15.0404 19.3684 14.8442 19.2332 14.1572Z" fill="#C8C9C5"/>
</svg>
