<svg width="153" height="39" viewBox="0 0 153 39" fill="none" xmlns="http://www.w3.org/2000/svg">
<mask id="mask0_432_30492" style="mask-type:alpha" maskUnits="userSpaceOnUse" x="0" y="0" width="38" height="39">
<rect y="0.5" width="38" height="38" fill="#C4C4C4"/>
</mask>
<g mask="url(#mask0_432_30492)">
<path d="M30.2613 25.8718C30.1527 23.5642 29.9761 21.1684 29.9218 18.7725C29.8403 14.215 29.8267 9.65748 29.8029 5.09996C29.8242 4.6683 29.8878 4.23979 29.9931 3.8206C30.2783 2.41907 31.1101 1.62838 32.2374 1.6691C34.1421 1.73358 35.0249 2.39192 35.1404 4.06494C35.2558 5.73795 35.1777 7.33291 35.2083 8.9652C35.2603 11.7004 35.3214 14.4367 35.3916 17.1742C35.4527 19.7023 35.4935 22.2305 35.6259 24.7519C35.6751 25.3165 35.9145 25.8477 36.3049 26.2587C37.4899 27.4464 38.1044 28.8038 37.9856 30.487C37.8668 32.1702 37.843 33.9416 37.6223 35.652C37.3235 37.9697 36.5528 38.136 34.8857 38.0512C33.11 37.9562 31.3308 37.9053 29.5517 37.8713C29.1766 37.8961 28.8056 37.7811 28.5103 37.5486C28.215 37.3161 28.0163 36.9826 27.9525 36.6123C27.3397 34.2797 27.1818 31.851 27.4874 29.4588C27.6402 28.4407 28.2887 27.4837 28.8455 26.5777C29.0526 26.2587 29.6332 26.1704 30.2613 25.8718ZM29.7249 35.971H30.1017C30.1323 35.6859 30.1832 35.4042 30.1866 35.1192C30.207 33.9484 30.2206 32.7742 30.2172 31.6035C30.2172 30.8942 30.3224 30.2461 31.2154 30.2664C32.1084 30.2868 32.1083 31.03 32.0982 31.7019C32.0982 32.8727 32.0506 34.0434 32.0982 35.2142C32.0982 35.4314 32.3698 35.6418 32.5124 35.8556C32.6584 35.6384 32.9198 35.428 32.93 35.2074C32.9911 33.85 33.0013 32.4926 33.0149 31.1352C33.0149 30.4565 33.2186 29.9305 33.9758 29.9373C34.7329 29.944 34.9095 30.4938 34.8959 31.1555C34.8619 32.5401 34.8178 33.928 34.8416 35.3126C34.8416 35.6011 35.1064 35.8827 35.2524 36.1678C35.4391 35.9031 35.7651 35.6554 35.7922 35.3771C35.9484 33.7821 36.0129 32.1804 36.1318 30.582C36.1983 30.029 36.1246 29.4682 35.9175 28.9511C35.7105 28.4341 35.3767 27.9773 34.9468 27.6229C34.5428 27.2896 34.2222 26.8666 34.0106 26.3876C33.799 25.9086 33.7022 25.3869 33.7279 24.8639C33.7517 23.4149 33.7041 21.9658 33.66 20.5168C33.5548 16.9807 33.4155 13.4447 33.3205 9.90521C33.2831 8.20844 33.3476 6.51167 33.3205 4.81491C33.3205 4.28891 33.4155 3.63056 32.5667 3.58645C31.7179 3.54233 31.7994 4.26516 31.7349 4.75382C31.5801 5.72792 31.5063 6.71314 31.5142 7.69941C31.6704 13.8598 31.8537 20.0191 32.0642 26.1772C32.0846 26.7847 32.0405 27.2258 31.3852 27.5075C30.027 28.1081 29.1511 29.1024 29.2258 30.711C29.2699 31.634 29.2529 32.5605 29.3344 33.4801C29.4295 34.3183 29.5958 35.1429 29.7249 35.971Z" fill="white"/>
<path d="M3.17949 24.6468C3.17949 21.7216 3.24061 18.7896 3.14214 15.8677C3.07516 14.9254 2.8053 14.0086 2.35103 13.1801C1.50221 11.5478 0.772217 9.91547 0.816356 8.02528C0.867285 5.82966 2.97577 2.79923 5.02312 2.01193C6.46273 1.45878 8.5067 2.36825 9.42003 3.93607C10.4081 5.63284 10.313 7.45855 9.95309 9.24355C9.65091 10.7401 9.05334 12.179 8.59498 13.6552C8.49672 13.8785 8.43263 14.1153 8.40484 14.3576C8.37768 17.4627 8.32674 20.5712 8.37087 23.6797C8.4218 27.3141 8.67306 30.952 8.03135 34.539C7.8719 35.4158 7.58959 36.2658 7.19272 37.0638C7.02491 37.488 6.70264 37.833 6.2907 38.0294C5.87876 38.2258 5.40769 38.2591 4.97221 38.1226C4.08264 37.9156 3.61408 37.3522 3.58353 36.1984C3.45111 32.3467 3.35944 28.4985 3.244 24.6604L3.17949 24.6468ZM5.38982 35.9473L5.72935 35.9812C5.91949 35.1193 6.16733 34.2845 6.29296 33.3987C6.7683 30.1477 6.51367 26.8865 6.47632 23.6254C6.43897 20.4253 6.47631 17.2252 6.53403 14.0285C6.59154 13.5405 6.71725 13.063 6.90751 12.61C7.29796 11.412 7.80726 10.2345 8.07889 9.01959C8.38107 7.64181 8.53385 6.21313 7.73936 4.88625C7.28099 4.10235 6.17074 3.50509 5.60033 3.86819C3.93664 4.88625 2.63963 6.31493 2.75168 8.27979C2.82977 9.6372 3.63107 10.9946 4.07925 12.352C4.41877 13.3905 4.94843 14.4391 4.98238 15.4945C5.12838 19.9875 5.10461 24.4873 5.17252 28.9871C5.21666 31.2947 5.32531 33.6227 5.39322 35.9473H5.38982Z" fill="white"/>
<path d="M18.4983 22.5258C14.1115 22.5021 10.9098 19.0712 9.91496 14.6834C9.53996 13.1335 9.79514 11.4982 10.6246 10.136C11.4191 8.81594 12.2034 7.49246 13.0013 6.17577C14.0742 4.40435 15.687 3.34217 17.6189 2.694C18.1112 2.53111 18.5831 2.29017 19.0789 2.13067C19.3554 2.01065 19.6601 1.97067 19.9582 2.0153C21.5438 2.49718 23.1091 3.03335 24.6879 3.53899C25.9815 3.953 26.7794 4.91677 27.4041 6.02985C30.2052 11.0048 28.7045 15.3417 25.445 19.4648C23.8119 21.5247 21.7713 22.5699 18.4983 22.5258ZM19.1128 20.6628C20.6407 20.734 22.0633 20.3234 23.0955 19.2375C24.7727 17.4627 26.1784 15.5046 26.7284 13.0137C27.124 11.2717 26.9379 9.44808 26.1988 7.82164C25.3805 5.90769 23.9477 5.10681 22.1244 4.64868C22.0089 4.61096 21.8955 4.56677 21.7849 4.51633C19.7172 3.77314 16.7734 4.40774 15.4697 6.16559C14.1659 7.92344 13.0929 9.89848 11.9589 11.7989C11.8074 12.1364 11.7265 12.5013 11.7212 12.8712C11.5379 14.4594 12.1898 15.7625 12.9707 17.1097C14.3492 19.5158 16.4781 20.4897 19.1128 20.6526V20.6628Z" fill="white"/>
<path d="M27.0488 26.2587C26.6176 27.4193 26.3052 28.451 25.8638 29.4215C24.6721 32.0481 23.6807 34.8138 21.5077 36.8567C20.9979 37.3726 20.3471 37.7268 19.6369 37.8748C18.3195 38.0411 16.958 36.3104 17.3756 34.9462C17.8492 33.5172 18.4385 32.1292 19.1378 30.7959C19.8474 29.3638 20.7268 28.0166 21.4534 26.5913C21.7536 25.9674 22.1747 25.4092 22.6922 24.9491C23.2098 24.4889 23.8135 24.1359 24.4684 23.9104C24.8079 23.7916 25.4564 23.8391 25.6499 24.0699C26.1677 24.7654 26.6351 25.4968 27.0488 26.2587ZM19.3652 35.9405L19.8983 36.0898C20.6792 34.936 21.5552 33.8365 22.2105 32.6148C23.0933 30.9689 23.8267 29.2416 24.5668 27.5245C24.7502 27.0969 24.8622 26.201 24.7468 26.1671C24.0677 25.8854 23.7656 26.5065 23.4328 26.9816C23.3159 27.1608 23.2094 27.3467 23.1137 27.5381C22.3633 28.8955 21.5959 30.2088 20.8728 31.5662C20.3279 32.5586 19.8339 33.578 19.3924 34.6204C19.2362 35.0073 19.3652 35.5061 19.3652 35.9473V35.9405Z" fill="white"/>
<path d="M9.80664 27.9114C9.80664 25.3424 12.4278 23.0348 14.9641 23.4455C16.7602 23.7339 19.3406 26.8831 18.1455 29.3808C17.1269 31.4881 14.431 32.7743 12.2614 31.9157C10.7845 31.349 9.81004 29.7439 9.80664 27.9114ZM11.691 27.986C11.691 29.6251 13.0899 30.7008 14.5261 30.2156C15.6499 29.8219 16.5633 28.7665 16.5633 27.8129C16.5633 27.5075 15.0727 25.4375 14.7264 25.3255C14.5795 25.2791 14.4248 25.2629 14.2714 25.278C12.9812 25.3424 11.6842 26.7067 11.691 27.986Z" fill="white"/>
</g>
<path d="M50.37 30.5V10.7H54.12V27.56H62.73V30.5H50.37ZM63.5588 30.5L70.8188 10.7H74.5688L81.8588 30.5H77.8688L76.4588 26.3H68.8088L67.3688 30.5H63.5588ZM72.6488 14.78L69.6488 23.57H75.6488L72.6488 14.78ZM83.4551 30.5V27.95C89.8451 23.99 93.3551 20.27 93.3551 16.73C93.3551 14.69 92.0351 13.37 90.0851 13.37C88.0151 13.37 86.4251 14.75 85.8251 17.21L82.8251 15.77C83.7851 12.5 86.6351 10.4 90.2051 10.4C94.2251 10.4 97.1051 13.25 97.1051 16.85C97.1051 20.78 93.9251 24.32 87.9851 27.71H97.2551V30.5H83.4551ZM108.063 30.8C103.593 30.8 100.623 26.39 100.623 20.6C100.623 14.81 103.593 10.4 108.063 10.4C112.533 10.4 115.503 14.81 115.503 20.6C115.503 26.39 112.533 30.8 108.063 30.8ZM108.063 27.83C110.313 27.83 111.753 25.19 111.753 20.6C111.753 16.01 110.313 13.37 108.063 13.37C105.813 13.37 104.373 16.01 104.373 20.6C104.373 25.19 105.813 27.83 108.063 27.83ZM125.548 30.8C122.038 30.8 119.158 29.06 118.168 26.18L121.228 24.8C122.038 26.9 123.658 27.86 125.548 27.86C127.618 27.86 129.118 26.63 129.118 24.44C129.118 22.19 127.528 20.96 125.338 20.96C124.078 20.96 122.848 21.35 121.858 22.1L119.458 20.84L120.328 10.7H132.058V13.49H123.298L122.788 18.8C123.748 18.35 125.038 18.05 126.208 18.05C129.958 18.05 132.868 20.84 132.868 24.32C132.868 28.01 129.868 30.8 125.548 30.8ZM143.278 30.8C138.808 30.8 135.838 26.39 135.838 20.6C135.838 14.81 138.808 10.4 143.278 10.4C147.748 10.4 150.718 14.81 150.718 20.6C150.718 26.39 147.748 30.8 143.278 30.8ZM143.278 27.83C145.528 27.83 146.968 25.19 146.968 20.6C146.968 16.01 145.528 13.37 143.278 13.37C141.028 13.37 139.588 16.01 139.588 20.6C139.588 25.19 141.028 27.83 143.278 27.83Z" fill="#F5F5F5"/>
</svg>
