<svg width="150" height="27" viewBox="0 0 150 27" fill="none" xmlns="http://www.w3.org/2000/svg">
<g clip-path="url(#clip0_432_30604)">
<path d="M47.9067 18.725H39.5117V6.20797C39.5117 5.97897 39.3307 5.81597 39.1168 5.81597H35.9888C35.7588 5.81597 35.5938 5.99597 35.5938 6.20797V21.193C35.5938 21.422 35.7748 21.585 35.9888 21.585H47.9067C48.1207 21.585 48.3018 21.405 48.3018 21.193V19.118C48.2847 18.905 48.1037 18.725 47.9067 18.725ZM53.8158 9.86797H50.8197C50.5898 9.86797 50.4248 10.048 50.4248 10.261V21.177C50.4248 21.405 50.6058 21.569 50.8197 21.569H53.8158C54.0468 21.569 54.2108 21.389 54.2108 21.177V10.261C54.1947 10.048 54.0298 9.86797 53.8158 9.86797ZM53.8988 4.99897H50.7708C50.5408 4.99897 50.3757 5.17897 50.3757 5.39097V7.74397C50.3757 7.97297 50.5568 8.13597 50.7708 8.13597H53.8988C54.1287 8.13597 54.2938 7.95697 54.2938 7.74397V5.39097C54.2607 5.17897 54.1128 4.99897 53.8988 4.99897ZM148.845 18.153L146.409 17.516C146.228 17.467 146.047 17.565 145.964 17.712C145.454 18.709 144.516 19.183 143.166 19.183C140.861 19.183 140.252 17.663 140.104 16.487H148.779C148.993 16.487 149.174 16.307 149.174 16.111C149.174 14.15 148.582 9.62297 142.968 9.62297C139.117 9.62297 136.351 12.189 136.351 15.849C136.351 19.51 138.903 21.879 143.084 21.879C145.931 21.879 148.088 20.752 149.125 18.709C149.224 18.48 149.092 18.219 148.845 18.153ZM142.952 12.238C144.713 12.238 145.174 13.3 145.322 13.954C145.372 14.199 145.191 14.411 144.944 14.411H140.17C140.549 12.565 141.981 12.238 142.952 12.238ZM79.2648 16.045C79.2648 14.084 78.6717 9.55797 73.0588 9.55797C69.2067 9.55797 66.4417 12.124 66.4417 15.784C66.4417 19.444 68.9928 21.814 73.1738 21.814C76.0218 21.814 78.1777 20.686 79.2147 18.644C79.3307 18.415 79.1987 18.153 78.9678 18.088L76.5317 17.451C76.3507 17.402 76.1698 17.5 76.0877 17.647C75.5778 18.644 74.6387 19.118 73.2887 19.118C70.9847 19.118 70.3757 17.598 70.2277 16.421H78.9027C79.0837 16.454 79.2648 16.274 79.2648 16.045ZM75.0508 14.395H70.2767C70.6717 12.516 72.1037 12.189 73.0588 12.189C74.8198 12.189 75.2808 13.251 75.4287 13.905C75.4948 14.15 75.3138 14.395 75.0508 14.395ZM90.8198 12.516C88.2358 12.025 85.6188 12.091 85.6188 10.359C85.6188 9.08397 86.8698 8.41397 88.4658 8.41397C90.1948 8.41397 91.3138 9.00197 91.8408 10.44C91.9068 10.62 92.0878 10.735 92.2848 10.685L95.1987 10.114C95.4458 10.065 95.5778 9.81897 95.4948 9.59097C94.4907 7.05797 92.2518 5.55397 88.6147 5.55397C84.7458 5.55397 81.7497 7.31897 81.7497 10.702C81.7497 14.084 84.7957 14.722 87.3138 15.179C90.2278 15.702 91.8408 15.686 91.8408 17.075C91.8408 18.317 90.7707 19.019 88.7957 19.019C86.8197 19.019 85.3057 18.333 84.7127 16.797C84.6478 16.617 84.4498 16.503 84.2518 16.552L81.2567 17.32C81.0427 17.369 80.9267 17.614 80.9927 17.827C81.9307 20.621 84.6797 21.912 88.6797 21.912C93.1077 21.912 95.7747 19.967 95.7747 16.813C95.7417 13.643 93.0428 12.941 90.8198 12.516ZM109.8 17.467L106.919 17.026C106.738 17.01 106.557 17.108 106.491 17.287C106.063 18.529 105.207 19.052 104.006 19.052C102.211 19.052 101.257 17.712 101.257 15.751C101.257 13.627 102.376 12.483 103.989 12.483C105.174 12.483 106.014 13.104 106.392 14.477C106.442 14.656 106.606 14.787 106.82 14.771L109.783 14.379C110.03 14.362 110.178 14.117 110.113 13.888C109.372 11.372 107.495 9.65597 104.022 9.65597C100.17 9.65597 97.4378 12.124 97.4378 15.882C97.4378 19.624 99.7087 21.912 103.973 21.912C107.413 21.912 109.454 20.229 110.178 18.006C110.178 17.729 110.03 17.483 109.8 17.467ZM118.31 9.59097C114.508 9.59097 111.643 11.846 111.627 15.751C111.61 19.902 114.491 21.863 118.244 21.863C121.997 21.863 124.894 19.869 124.894 15.686C124.894 11.731 122.047 9.59097 118.31 9.59097ZM118.261 19.069C116.499 19.069 115.462 17.876 115.462 15.735C115.462 13.48 116.532 12.385 118.261 12.385C119.989 12.385 121.043 13.529 121.043 15.735C121.043 17.974 120.006 19.069 118.261 19.069ZM135.561 9.78697C133.586 9.08397 131.627 10.277 130.903 11.927V10.261C130.903 10.048 130.722 9.86797 130.508 9.86797H127.512C127.281 9.86797 127.117 10.048 127.117 10.261V21.177C127.117 21.389 127.298 21.569 127.512 21.569H130.557C130.787 21.569 130.952 21.389 130.952 21.177V16.748C130.952 12.728 133.092 12.32 134.804 13.022C135.034 13.104 135.265 12.973 135.314 12.728L135.824 10.195C135.841 10.032 135.759 9.83597 135.561 9.78697ZM65.5357 5.11297C64.8778 4.93297 64.0058 4.81897 63.2318 4.81897C60.3178 4.81897 58.7218 6.33897 58.7218 9.09997V9.90097H56.6798C56.4167 9.90097 56.1868 10.114 56.1868 10.391V11.895C56.1868 12.156 56.4167 12.385 56.6798 12.385H58.7048V21.209C58.7048 21.422 58.8857 21.601 59.0998 21.601H62.0798C62.3097 21.601 62.4748 21.422 62.4748 21.209V12.385H64.9597C65.2237 12.385 65.4538 12.156 65.4538 11.895V10.391C65.4538 10.13 65.2237 9.90097 64.9597 9.90097H62.3757V9.27997C62.3757 8.02197 62.8698 7.49897 64.0378 7.49897C64.3507 7.49897 64.6798 7.54797 64.9928 7.61297C65.2238 7.66197 65.4207 7.53197 65.4538 7.30297L65.8158 5.55397C65.8488 5.35797 65.7337 5.16197 65.5357 5.11297Z" fill="white"/>
<path opacity="0.5" d="M24.3837 5.24402C25.2067 5.24402 25.3877 5.70102 24.7787 6.25702C22.3587 8.51202 16.3997 13.758 12.9757 13.758C9.55167 13.758 3.62667 8.51202 1.18967 6.25702C0.597673 5.70102 0.761673 5.24402 1.58467 5.24402H24.3837Z" fill="white"/>
<path opacity="0.5" d="M2.73789 0.848022C2.16089 0.848022 1.93089 1.24002 2.22689 1.73102C4.00489 4.63902 9.79889 13.725 13.0089 13.725C16.2189 13.725 22.0129 4.63902 23.7909 1.73102C24.0869 1.24002 23.8569 0.848022 23.2809 0.848022H2.73789Z" fill="white"/>
<path d="M13.0088 13.741C8.95984 13.741 4.56484 11.797 2.11184 10.506C0.959842 9.88502 1.09184 9.39502 2.37484 9.39502H23.6268C24.9428 9.39502 25.0748 9.90102 23.8898 10.506C21.4538 11.797 17.0418 13.741 13.0088 13.741Z" fill="white"/>
<path opacity="0.5" d="M1.6174 22.206C0.794401 22.206 0.613401 21.749 1.2224 21.193C3.6424 18.938 9.6014 13.709 13.0254 13.709C16.4494 13.709 22.4074 18.938 24.8274 21.193C25.4204 21.749 25.2554 22.206 24.4324 22.206H1.6174Z" fill="white"/>
<path opacity="0.5" d="M23.2623 26.618C23.8393 26.618 24.0693 26.226 23.7733 25.736C21.9953 22.827 16.2013 13.741 12.9913 13.741C9.78134 13.741 3.98734 22.811 2.20934 25.719C1.91334 26.21 2.14334 26.602 2.71934 26.602H23.2463V26.618H23.2623Z" fill="white"/>
<path d="M13.008 13.709C17.058 13.709 21.453 15.653 23.889 16.944C25.041 17.565 24.909 18.055 23.626 18.055H2.37404C1.05804 18.055 0.926044 17.549 2.11104 16.944C4.56404 15.653 8.95904 13.709 13.008 13.709Z" fill="white"/>
</g>
<defs>
<clipPath id="clip0_432_30604">
<rect width="150" height="26" fill="white" transform="translate(0 0.724976)"/>
</clipPath>
</defs>
</svg>
