<svg width="158" height="59" viewBox="0 0 158 59" fill="none" xmlns="http://www.w3.org/2000/svg">
<g clip-path="url(#clip0_432_30521)">
<path fill-rule="evenodd" clip-rule="evenodd" d="M48.9751 34V44.43H47.7551V35.72L45.8051 44.36L45.7851 44.44H44.9051L44.8851 44.36L42.9251 35.72V44.44H41.7051V34H43.6451L43.6651 34.08L45.3551 41.45L47.0151 34.08L47.0351 34H48.9751ZM45.8251 39.82L45.3851 41.78H45.3951V41.82L45.8251 39.82ZM42.8251 35.06L42.8051 34.97L42.8251 37.71V35.06ZM47.2561 37.461L47.8051 35.04V34.95L47.2561 37.461ZM69.5549 42.14H69.4649L69.4449 42.22C69.3349 42.82 69.0449 43.53 68.3049 43.53C67.5149 43.53 67.0249 43.15 67.0249 41.23V40.92H70.4949V40.34C70.4949 38.01 69.6549 36.72 68.1449 36.72C66.5149 36.72 65.7949 37.93 65.7949 40.65C65.7949 43.37 66.5249 44.58 68.1449 44.58C68.7549 44.58 69.3349 44.35 69.7849 43.94C70.2349 43.53 70.5149 42.97 70.5749 42.36V42.26H70.4849L69.5449 42.13L69.5549 42.14ZM67.0349 39.87C67.0749 38.01 67.6549 37.77 68.1649 37.77C68.9549 37.77 69.2549 38.32 69.2949 39.87H67.0349ZM72.9954 36.87V37.61C73.5554 36.88 74.0354 36.75 74.8154 36.75H74.9154V37.89H74.8154C74.1054 37.89 73.5654 38.1 73.0254 39.12V44.44H71.8054V44.34L71.7754 36.97V36.87H72.9954ZM73.0494 37.723C73.0687 37.6954 73.0877 37.6683 73.1054 37.64C73.0874 37.6653 73.068 37.6906 73.0483 37.7163C73.0134 37.7618 72.9773 37.8089 72.9454 37.86V37.89C72.9777 37.8254 73.0142 37.7733 73.0494 37.723ZM72.9954 51.0399V51.7799C73.5554 51.0499 74.0354 50.9199 74.8154 50.9199H74.9154V52.0599H74.8154C74.1054 52.0599 73.5654 52.2699 73.0254 53.2899V58.6099H71.8054V58.5099L71.7754 51.1399V51.0399H72.9954ZM73.0461 51.8903C73.0666 51.8598 73.0867 51.8299 73.1054 51.7999C73.0873 51.8252 73.068 51.8505 73.0482 51.8763C73.0133 51.9218 72.9773 51.9688 72.9454 52.0199V52.0499C72.9767 51.9936 73.0119 51.9412 73.0461 51.8903ZM78.8447 56.0899H78.7547V56.1799C78.5747 57.4599 78.2147 57.7099 77.6547 57.7099C76.8847 57.7099 76.5247 57.2799 76.5247 54.8299C76.5247 52.3799 76.8947 51.9499 77.6547 51.9499C78.0547 51.9499 78.6047 52.0899 78.7147 53.3299V53.4199H79.9247L79.9047 53.3099C79.6847 51.6899 78.9447 50.8999 77.6547 50.8999C76.0247 50.8999 75.3047 52.1099 75.3047 54.8299C75.3047 57.5499 76.0347 58.7599 77.6547 58.7599C78.9347 58.7599 79.7447 57.8499 79.9347 56.2099V56.0999H78.8447V56.0899ZM69.9149 53.0999V57.2199L69.9249 57.2399C69.8949 57.6599 69.9549 58.0999 70.1049 58.4999L70.1549 58.6399H68.8649L68.8449 58.5599L68.7549 58.1099C68.3449 58.4799 67.8149 58.7199 67.2549 58.7899H67.1249C66.8949 58.7899 66.6749 58.7499 66.4649 58.6699C66.2149 58.5699 65.9849 58.4299 65.7949 58.2399C65.5949 58.0499 65.4549 57.8199 65.3549 57.5699C65.2649 57.3199 65.2149 57.0499 65.2349 56.7899C65.2349 55.0699 67.0149 54.0399 68.7049 53.6499V53.2099C68.7049 52.4599 68.3349 51.9899 67.7449 51.9899C67.0449 51.9899 66.6749 52.6899 66.5649 53.3499L66.5449 53.4499L66.4449 53.4299L65.5049 53.2599L65.4049 53.2399L65.4249 53.1399C65.6649 51.7399 66.5149 50.8999 67.7049 50.8999C69.0649 50.8999 69.9149 51.7399 69.9149 53.0999ZM67.3849 57.7099C67.6449 57.6799 67.8949 57.5999 68.1249 57.4799C68.3549 57.3599 68.5449 57.1999 68.6949 57.0099V54.6899C67.9249 54.9399 66.4449 55.5599 66.4449 56.6799C66.4449 57.3699 66.7449 57.7099 67.3849 57.7099ZM68.6302 58.0359L68.6097 58.0555L68.5936 58.0712L68.5849 58.0799C68.6449 58.0299 68.7049 57.9799 68.7549 57.9299V57.8999C68.7175 57.9522 68.6745 57.9934 68.6302 58.0359ZM52.2346 56.3199H52.1446L52.1246 56.3999C52.0146 56.9999 51.7246 57.7099 50.9846 57.7099C50.1946 57.7099 49.7046 57.3299 49.7046 55.4099V55.0999H53.1746V54.5199C53.1746 52.1899 52.3346 50.8999 50.8246 50.8999C49.1946 50.8999 48.4746 52.1099 48.4746 54.8299C48.4746 57.5499 49.2046 58.7599 50.8246 58.7599C51.4346 58.7599 52.0146 58.5299 52.4646 58.1199C52.9146 57.7099 53.1946 57.1499 53.2546 56.5399V56.4399H53.1646L52.2146 56.3099L52.2346 56.3199ZM49.7146 54.0499C49.7546 52.1899 50.3346 51.9499 50.8446 51.9499C51.6346 51.9499 51.9346 52.4999 51.9746 54.0499H49.7146ZM46.9255 52.5199C46.6355 52.9599 46.2055 53.3099 45.7155 53.4999H45.7055L47.4055 58.4799L47.4555 58.6099H46.0855L46.0655 58.5399L44.4455 53.7599L43.1655 53.8099V58.6099H41.8555V48.1799H44.4255C46.2255 48.1799 47.3355 49.2299 47.3355 50.9199C47.3755 51.4799 47.2355 52.0499 46.9255 52.5199ZM44.0155 49.3099H43.1655V52.6499H44.0155C45.4355 52.6499 46.0155 52.1699 46.0155 50.9799C46.0155 49.7899 45.4355 49.3099 44.0155 49.3099ZM79.0149 42.14H78.9249L78.9049 42.22C78.7949 42.82 78.5049 43.53 77.7649 43.53C76.9749 43.53 76.4849 43.15 76.4849 41.23V40.92H79.9549V40.34C79.9549 38.01 79.1149 36.72 77.6049 36.72C75.9749 36.72 75.2549 37.93 75.2549 40.65C75.2549 43.37 75.9849 44.58 77.6049 44.58C78.2149 44.58 78.7949 44.35 79.2449 43.94C79.6949 43.53 79.9749 42.97 80.0349 42.36V42.26H79.9449L78.9949 42.13L79.0149 42.14ZM76.4949 39.87C76.5349 38.01 77.1149 37.77 77.6249 37.77C78.4149 37.77 78.7149 38.32 78.7549 39.87H76.4949ZM63.7051 34.3999V36.8699H65.0651V37.9199H63.7051V42.9999C63.6951 43.0799 63.7051 43.1699 63.7351 43.2499C63.7551 43.3299 63.8051 43.3999 63.8651 43.4599C63.9251 43.5199 63.9951 43.5599 64.0751 43.5899C64.1351 43.6099 64.1951 43.6199 64.2651 43.6199H64.3251C64.5351 43.5999 64.7351 43.5499 64.9251 43.4799L65.0651 43.4299V44.4099L64.9951 44.4299C64.6951 44.5299 64.3751 44.5799 64.0551 44.5799H64.0251C63.0051 44.5799 62.5051 44.0299 62.5051 42.8899V37.9199H61.5151V37.8199L61.4951 36.9699V36.8699H62.4851V34.3999H63.7051ZM102.095 44.3001C101.955 45.0001 101.595 45.8101 100.665 45.8101H100.255V46.8401H100.875C102.085 46.8401 102.875 45.9801 103.295 44.2001L104.985 36.9801L105.015 36.8601H103.755L103.735 36.9401L102.675 42.2101L101.375 36.9401L101.355 36.8601H101.275L100.235 36.8801H100.105L100.135 37.0101L102.085 44.3001H102.095ZM102.725 42.5901V42.5501L103.005 41.1301L102.725 42.5901ZM104.595 38.2101L104.875 36.9601H104.885L104.595 38.2101ZM60.5453 38.76V44.44L60.5553 44.45H59.3553V38.9C59.3553 37.91 58.9953 37.78 58.6453 37.78C58.1353 37.78 57.7753 38.09 57.3253 38.62V44.44H56.1153V36.87H57.2553V37.53C57.6753 37.12 58.2253 36.84 58.8053 36.73H58.8253C59.9653 36.73 60.5453 37.41 60.5453 38.76ZM57.3522 37.5842C57.298 37.641 57.2468 37.7007 57.2053 37.77V37.73C57.2532 37.6752 57.3011 37.6299 57.3522 37.5842ZM63.2649 56.3199H63.1749L63.1549 56.3999C63.0449 56.9999 62.7549 57.7099 62.0149 57.7099C61.2249 57.7099 60.7349 57.3299 60.7349 55.4099V55.0999H64.2049V54.5199C64.2049 52.1899 63.3649 50.8999 61.8549 50.8999C60.2249 50.8999 59.5049 52.1099 59.5049 54.8299C59.5049 57.5499 60.2349 58.7599 61.8549 58.7599C62.4649 58.7599 63.0449 58.5299 63.4949 58.1199C63.9449 57.7099 64.2249 57.1499 64.2849 56.5399V56.4399H64.1949L63.2449 56.3099L63.2649 56.3199ZM60.7449 54.0499C60.7849 52.1899 61.3649 51.9499 61.8749 51.9499C62.6649 51.9499 62.9649 52.4999 63.0049 54.0499H60.7449ZM50.0752 40.66C50.0752 37.94 50.7952 36.73 52.4252 36.73C54.0452 36.73 54.7752 37.94 54.7752 40.66C54.7752 43.38 54.0452 44.59 52.4252 44.59C50.8052 44.59 50.0752 43.38 50.0752 40.66ZM52.4252 43.54C53.1852 43.54 53.5552 43.11 53.5552 40.66C53.5552 38.21 53.1852 37.78 52.4252 37.78C51.6652 37.78 51.2952 38.21 51.2952 40.66C51.2952 43.11 51.6652 43.54 52.4252 43.54ZM56.7649 54.1201C56.0849 53.7001 55.4949 53.3301 55.4949 52.7101C55.4949 52.6001 55.4949 52.5101 55.5349 52.4101C55.5749 52.3101 55.6249 52.2301 55.6849 52.1601C55.7549 52.0901 55.8349 52.0301 55.9249 51.9901C56.0149 51.9501 56.1149 51.9301 56.2149 51.9301C56.9349 51.9301 57.2049 52.3701 57.3949 53.0201L57.4249 53.1201L57.5249 53.0901L58.3549 52.8301L58.4449 52.8001L58.4249 52.7101C58.1649 51.5101 57.4149 50.8701 56.2749 50.8701H56.2149C55.9849 50.8701 55.7549 50.9101 55.5349 50.9901C55.2949 51.0801 55.0749 51.2201 54.8949 51.3901C54.7049 51.5701 54.5649 51.7701 54.4549 52.0101C54.3549 52.2401 54.2949 52.4901 54.2849 52.7501C54.2849 53.9601 55.2149 54.5401 56.0349 55.0501L56.0381 55.0521C56.737 55.4914 57.4049 55.9113 57.4049 56.6501C57.4049 56.9101 57.3049 57.1601 57.1249 57.3501C56.9449 57.5401 56.6949 57.6501 56.4349 57.6701C55.8649 57.6701 55.4549 57.2701 55.1849 56.4301L55.1549 56.3401L55.0649 56.3601L54.1149 56.5601L54.0049 56.5801L54.0349 56.6801C54.4449 58.0601 55.2249 58.7101 56.4949 58.7101H56.5349C56.8049 58.7101 57.0649 58.6601 57.3149 58.5601C57.5749 58.4501 57.8149 58.3001 58.0149 58.0901C58.2149 57.8901 58.3649 57.6501 58.4749 57.3901C58.5749 57.1301 58.6249 56.8501 58.6149 56.5701C58.6149 55.2595 57.6488 54.6488 56.7835 54.1019L56.7649 54.0901V54.1201ZM113.155 48.5701V51.0401V51.0501H114.515V52.1001H113.155V57.1701C113.145 57.2501 113.155 57.3401 113.185 57.4201C113.205 57.5001 113.255 57.5701 113.315 57.6301C113.375 57.6901 113.445 57.7301 113.525 57.7601C113.585 57.7801 113.645 57.7901 113.715 57.7901H113.775C113.985 57.7701 114.185 57.7201 114.375 57.6501L114.515 57.6001V58.5801L114.445 58.6001C114.145 58.7001 113.825 58.7501 113.505 58.7501H113.475C112.455 58.7501 111.955 58.2001 111.955 57.0601V52.0901H110.965V51.9901L110.945 51.1401V51.0401H111.935V48.5701H113.155ZM126.045 44.4401V44.3401L126.075 36.9701V36.8701H124.855V42.6901C124.405 43.2201 124.045 43.5301 123.535 43.5301C123.185 43.5301 122.825 43.4001 122.825 42.4101V36.8701H121.605V42.5701C121.605 43.9201 122.185 44.6001 123.325 44.6001C123.925 44.4901 124.475 44.2101 124.895 43.8001V44.4401H126.035H126.045ZM124.735 43.8101C124.815 43.7301 124.895 43.6501 124.955 43.5501V43.6001C124.885 43.6801 124.815 43.7501 124.735 43.8101ZM129.145 56.3199H129.225L130.175 56.4499H130.265V56.5499C130.205 57.1599 129.925 57.7199 129.465 58.1299C129.015 58.5399 128.425 58.7599 127.805 58.7599C126.185 58.7599 125.455 57.5499 125.455 54.8299C125.455 52.1099 126.175 50.8999 127.805 50.8999C129.315 50.8999 130.155 52.1899 130.155 54.5199V55.0999H126.715V55.4099C126.715 57.3299 127.205 57.7099 127.995 57.7099C128.725 57.7099 129.015 56.9999 129.125 56.3999L129.145 56.3199ZM127.845 51.9499C127.335 51.9499 126.755 52.1899 126.715 54.0499H128.975C128.935 52.4999 128.635 51.9499 127.845 51.9499ZM132.245 43.04V38.92C132.245 37.56 131.395 36.72 130.035 36.72C128.845 36.72 127.995 37.56 127.755 38.96L127.735 39.06L127.835 39.08L128.795 39.25L128.895 39.27L128.915 39.17C129.025 38.51 129.395 37.81 130.095 37.81C130.685 37.81 131.055 38.28 131.055 39.03V39.47C129.365 39.86 127.585 40.89 127.585 42.61C127.565 42.87 127.605 43.13 127.705 43.39C127.805 43.64 127.945 43.86 128.135 44.05C128.325 44.24 128.545 44.38 128.795 44.48C129.015 44.56 129.235 44.6 129.465 44.6H129.575C130.135 44.53 130.665 44.29 131.085 43.92L131.175 44.37L131.195 44.45H132.485L132.435 44.31C132.285 43.91 132.225 43.47 132.255 43.05L132.245 43.04ZM130.455 43.3C130.225 43.43 129.975 43.5 129.715 43.53C129.075 43.53 128.775 43.19 128.775 42.5C128.775 41.38 130.255 40.76 131.025 40.51V42.83C130.875 43.02 130.685 43.18 130.455 43.3ZM130.925 43.91C130.94 43.8948 130.955 43.8803 130.97 43.8659C131.015 43.8234 131.058 43.7823 131.095 43.73V43.76C131.058 43.8041 131.016 43.8374 130.972 43.8719L130.947 43.8919L130.925 43.91ZM123.405 48.5701V51.0401V51.0501H124.745V52.1001H123.385V57.1701C123.375 57.2501 123.385 57.3401 123.415 57.4201C123.435 57.5001 123.485 57.5701 123.545 57.6301C123.605 57.6901 123.675 57.7301 123.755 57.7601C123.815 57.7801 123.875 57.7901 123.945 57.7901H124.005C124.215 57.7701 124.415 57.7201 124.605 57.6501L124.745 57.6001V58.5801L124.675 58.6001C124.375 58.7001 124.055 58.7501 123.735 58.7501H123.705C122.685 58.7501 122.185 58.2001 122.185 57.0601V52.0901H121.195V51.9901L121.175 51.1401V51.0401H122.185V48.5701H123.405ZM119.145 51.04H119.135H119.045V56.86C118.595 57.39 118.235 57.7 117.725 57.7C117.375 57.7 117.015 57.57 117.015 56.58V51.04H115.795V56.74C115.795 58.09 116.375 58.77 117.515 58.77C118.115 58.66 118.665 58.38 119.085 57.97V58.61H120.225V58.51L120.255 51.14V51.04H119.145ZM118.915 57.98C118.995 57.9 119.075 57.82 119.135 57.72V57.77C119.065 57.85 118.995 57.92 118.915 57.98ZM118.445 44.04C118.105 44.36 117.665 44.54 117.185 44.58C116.345 44.58 114.955 44.07 114.955 40.65C114.955 37.4 116.175 36.72 117.185 36.72C117.505 36.72 117.815 36.8 118.095 36.96C118.295 37.08 118.475 37.22 118.615 37.4V36.87H119.665V46.84H118.445V44.04ZM116.185 40.65C116.185 43.18 116.815 43.53 117.435 43.53L117.445 43.52C117.845 43.46 118.205 43.25 118.455 42.93V38.4C118.345 38.24 118.205 38.1 118.035 37.99C117.855 37.88 117.665 37.8 117.475 37.77C116.875 37.77 116.185 38.12 116.185 40.65ZM118.388 43.9507C118.374 43.9668 118.359 43.9831 118.345 44C118.405 43.95 118.465 43.9 118.515 43.84V43.79C118.477 43.8506 118.433 43.9 118.388 43.9507ZM153.495 36.73C153.145 36.76 152.805 36.86 152.495 37.03C152.235 37.17 152.005 37.36 151.815 37.58C151.705 37.35 151.545 37.16 151.335 37.01C151.085 36.83 150.785 36.73 150.465 36.73C150.105 36.76 149.765 36.86 149.455 37.03C149.225 37.16 149.025 37.31 148.845 37.5V36.87H147.705V44.44H148.915V38.48C149.035 38.29 149.205 38.12 149.395 38C149.595 37.88 149.825 37.8 150.065 37.78C150.505 37.78 150.765 37.93 150.765 38.67V44.44H151.985V38.48C152.125 38.29 152.295 38.13 152.495 38.01C152.705 37.89 152.945 37.81 153.185 37.78C153.615 37.78 153.835 37.92 153.835 38.67V44.44H155.075V38.53C155.075 37.4037 154.489 36.7344 153.495 36.73ZM151.825 37.76C151.825 37.76 151.825 37.75 151.815 37.74C151.845 37.7 151.885 37.66 151.925 37.62C151.912 37.6412 151.896 37.6607 151.88 37.6799C151.858 37.7058 151.837 37.7312 151.825 37.76ZM148.925 37.58C148.911 37.6007 148.895 37.6215 148.878 37.6427C148.847 37.6827 148.815 37.7242 148.795 37.77V37.72C148.835 37.67 148.885 37.62 148.925 37.58ZM144.625 36.8701H144.635H145.745V36.9701L145.715 44.3401V44.4401H144.575V43.8001C144.155 44.2101 143.605 44.4901 143.005 44.6001C141.865 44.6001 141.285 43.9201 141.285 42.5701V36.8701H142.505V42.4101C142.505 43.4001 142.865 43.5301 143.215 43.5301C143.725 43.5301 144.085 43.2201 144.535 42.6901V36.8701H144.625ZM144.625 43.5501C144.565 43.6401 144.485 43.7301 144.405 43.8101V43.8201C144.485 43.7501 144.555 43.6801 144.625 43.6001V43.5501ZM83.4754 44.2001L85.1654 36.9801L85.1954 36.8601H83.9354L83.9154 36.9401L82.8554 42.2101L81.5554 36.9401L81.5354 36.8601H81.4554L80.4054 36.8801H80.2754L80.3054 37.0101L82.2554 44.3001C82.1154 45.0001 81.7554 45.8101 80.8254 45.8101H80.4154V46.8401H81.0354C82.2454 46.8401 83.0354 45.9801 83.4554 44.2001H83.4754ZM82.9054 42.5901V42.5501L83.1854 41.1101L82.9054 42.5901ZM84.7554 38.2801L85.0554 36.9601H85.0654L84.7554 38.2801ZM138.165 34H138.265H139.295H139.395V34.1V35.29V35.39H139.295H138.275H138.175V35.29L138.165 34.1V34ZM135.315 37.61V36.87H134.095V36.97L134.125 44.34V44.44H135.345V39.12C135.885 38.1 136.425 37.89 137.135 37.89H137.235V36.75H137.135C136.355 36.75 135.875 36.88 135.315 37.61ZM135.425 37.64C135.407 37.6683 135.388 37.6954 135.369 37.723C135.333 37.7733 135.297 37.8254 135.265 37.89V37.86C135.296 37.8091 135.332 37.7622 135.367 37.7169L135.368 37.7162C135.387 37.6905 135.407 37.6652 135.425 37.64ZM138.165 36.8601H138.265H139.295H139.395V36.9601V44.3301V44.4301H139.295H138.275H138.175V44.3301L138.165 36.9601V36.8601ZM113.045 44.36L113.065 44.44H114.375L114.345 44.32L112.095 34.08L112.075 34H110.385L110.365 34.08L108.105 44.32L108.075 44.44H109.385L109.405 44.36L109.995 41.41H112.435L113.025 44.36H113.045ZM112.235 40.27H110.205L111.215 35.3L112.235 40.27ZM112.345 40.32L112.155 39.39L112.355 40.32H112.345ZM108.585 42.62L108.215 44.34H108.205L108.585 42.62ZM95.6453 50.9099H95.6653C96.8053 50.9099 97.3853 51.5899 97.3853 52.9399V58.6299H96.1953V53.0799C96.1953 52.0899 95.8353 51.9599 95.4853 51.9599C94.9753 51.9599 94.6153 52.2699 94.1653 52.7999V58.6199H92.9453V51.0499H94.0953V51.7099C94.5153 51.2999 95.0653 51.0199 95.6453 50.9099ZM94.0453 51.9499C94.1053 51.8599 94.1853 51.7699 94.2653 51.6899V51.6799C94.1853 51.7499 94.1153 51.8199 94.0453 51.8999V51.9499ZM93.1051 38.09C92.8666 38.4476 92.5197 38.7263 92.123 38.8966C93.1516 39.2805 93.7151 40.1875 93.7151 41.49C93.7151 43.47 92.6151 44.43 90.3351 44.43H88.1651V34H90.9851C92.5351 34 93.4951 35 93.4951 36.61C93.5451 37.13 93.4051 37.66 93.1051 38.09ZM92.4151 41.51C92.4151 42.73 91.7951 43.3 90.4751 43.3H89.4651V39.54H90.4751C91.7951 39.54 92.4151 40.17 92.4151 41.51ZM89.4751 38.4V35.12H90.4851C91.7551 35.12 92.1951 35.51 92.1951 36.61C92.1951 37.91 91.5951 38.4 89.9951 38.4H89.4751ZM91.8551 38.94H91.8751C91.884 38.9422 91.893 38.9446 91.902 38.9471C91.8866 38.9442 91.871 38.9418 91.8551 38.94ZM82.5247 51.6799C82.9347 51.2699 83.4547 50.9999 84.0447 50.8999V50.8899C85.1847 50.8899 85.7647 51.5699 85.7647 52.9199V58.6099H84.5447V53.0699C84.5447 52.0799 84.1847 51.9499 83.8347 51.9499C83.3247 51.9499 82.9647 52.2599 82.5147 52.7899V58.6099H81.3047V48.1699H82.5247V51.6799ZM82.676 51.6899L82.6847 51.6799C82.6674 51.6972 82.6495 51.7145 82.6314 51.732C82.5764 51.7851 82.5198 51.8397 82.4747 51.8999V51.9499C82.5322 51.8541 82.6082 51.7674 82.676 51.6899ZM89.9047 48.1799H89.8047V48.2799V58.5099V58.6099H89.9047H91.0147H91.1147V58.5099V48.2799V48.1799H91.0147H89.9047ZM99.3751 44.3L99.4251 44.44L99.4351 44.45H98.1451L98.1251 44.37L98.0351 43.92C97.6151 44.29 97.0951 44.52 96.5351 44.59H96.4051C96.1751 44.59 95.9551 44.55 95.7451 44.47C95.4951 44.37 95.2651 44.23 95.0751 44.04C94.8751 43.85 94.7351 43.62 94.6351 43.37C94.5451 43.12 94.4951 42.85 94.5151 42.59C94.5151 40.87 96.2951 39.84 97.9851 39.45V39.01C97.9851 38.26 97.6151 37.79 97.0251 37.79C96.3251 37.79 95.9551 38.49 95.8451 39.15L95.8251 39.25L95.7251 39.23L94.7851 39.08L94.6851 39.06L94.7051 38.96C94.9451 37.56 95.7951 36.72 96.9851 36.72C98.3451 36.72 99.1951 37.56 99.1951 38.92V43.04C99.1651 43.46 99.2251 43.9 99.3751 44.3ZM96.6651 43.53C96.9251 43.5 97.1751 43.42 97.4051 43.3C97.6351 43.18 97.8251 43.02 97.9751 42.83V40.51C97.2051 40.76 95.7251 41.38 95.7251 42.5C95.7251 43.19 96.0251 43.53 96.6651 43.53ZM94.8151 38.9C94.8151 38.9 94.8051 38.95 94.7951 38.98C94.7951 38.98 94.8051 38.93 94.8151 38.9ZM97.9105 43.8559L97.8865 43.879L97.8652 43.8999C97.9252 43.8499 97.9852 43.7999 98.0351 43.75V43.72C97.9978 43.7723 97.9548 43.8134 97.9105 43.8559ZM101.475 54.1201C100.795 53.7001 100.205 53.3301 100.205 52.7101C100.205 52.6001 100.205 52.5101 100.245 52.4101C100.275 52.3201 100.335 52.2301 100.395 52.1601C100.465 52.0901 100.545 52.0301 100.635 51.9901C100.725 51.9501 100.825 51.9301 100.925 51.9301C101.645 51.9301 101.915 52.3701 102.105 53.0201L102.135 53.1201L102.235 53.0901L103.065 52.8301L103.155 52.8001L103.135 52.7101C102.875 51.5101 102.125 50.8701 100.985 50.8701H100.915C100.685 50.8701 100.455 50.9101 100.235 50.9901C99.9949 51.0801 99.7749 51.2201 99.5949 51.3901C99.4049 51.5701 99.2649 51.7701 99.1549 52.0101C99.0549 52.2401 98.9949 52.4901 98.9949 52.7501C98.9949 53.9546 99.9164 54.5348 100.724 55.0432L100.735 55.0501C101.445 55.4901 102.105 55.9101 102.105 56.6501C102.105 56.9101 102.005 57.1601 101.825 57.3501C101.645 57.5401 101.395 57.6501 101.135 57.6701C100.575 57.6701 100.165 57.2701 99.8949 56.4301L99.8649 56.3401L99.7749 56.3601L98.8249 56.5601L98.7149 56.5801L98.7449 56.6801C99.1649 58.0801 99.9249 58.7101 101.205 58.7101H101.245C101.515 58.7101 101.775 58.6601 102.025 58.5601C102.285 58.4501 102.525 58.3001 102.725 58.0901C102.925 57.8901 103.075 57.6501 103.175 57.3901C103.275 57.1301 103.325 56.8501 103.315 56.5601C103.315 55.2401 102.335 54.6301 101.465 54.0901L101.475 54.1201ZM108.735 51.04H108.835H109.865H109.965V51.14V58.51V58.61H109.865H108.835H108.735V58.51V51.14V51.04ZM108.835 48.1799H108.735V48.2799V49.4699V49.5699H108.835H109.865H109.965V49.4699V48.2799V48.1799H109.865H108.835ZM106.065 48.5701V51.0401V51.0501H107.425V52.1001H106.065V57.1701C106.055 57.2501 106.065 57.3401 106.095 57.4201C106.115 57.5001 106.165 57.5701 106.225 57.6301C106.285 57.6801 106.355 57.7301 106.435 57.7601C106.495 57.7801 106.555 57.7901 106.625 57.7901H106.685C106.895 57.7701 107.095 57.7201 107.285 57.6501L107.425 57.6001V58.5801L107.355 58.6001C107.055 58.7001 106.735 58.7501 106.415 58.7501H106.385C105.365 58.7501 104.865 58.2001 104.865 57.0601V52.0901H103.875V51.9901L103.855 51.1401V51.0401H104.845V48.5701H106.065Z" fill="#F1F1F1" fill-opacity="0.5"/>
<path fill-rule="evenodd" clip-rule="evenodd" d="M102.312 18.7664C102.378 18.5632 102.444 18.4971 102.614 18.4971L110.161 18.464C110.236 18.4579 110.311 18.4781 110.373 18.5212C110.435 18.5642 110.48 18.6275 110.501 18.7002L113.208 25.873C113.246 25.9432 113.268 26.0209 113.273 26.1005C113.278 26.1802 113.265 26.2599 113.236 26.3342C113.207 26.4084 113.161 26.4754 113.104 26.5304C113.046 26.5854 112.977 26.6271 112.901 26.6526C112.566 26.6857 112.429 26.7141 112.429 26.955C112.429 27.1768 112.773 27.1945 113.303 27.2217L113.444 27.2291C116.152 27.2952 118.59 27.2952 119.842 27.2952C120.436 27.2952 120.816 27.2719 121.051 27.2222C121.164 27.2656 121.319 27.2853 121.515 27.2853C122.319 27.2853 123.394 27.2505 124.27 27.2221C124.874 27.2026 125.383 27.1861 125.645 27.1861C125.815 27.1861 126.213 27.1973 126.74 27.2123C127.779 27.2417 129.32 27.2853 130.621 27.2853C131.06 27.2853 131.296 27.1861 131.296 26.9451C131.296 26.7797 131.159 26.6758 130.89 26.6758C130.335 26.6605 129.782 26.6164 129.232 26.5435C128.22 26.4064 128.012 25.6599 127.913 24.6818C127.743 23.2596 127.743 20.5853 127.743 17.4386V16.9657C127.738 16.929 127.741 16.8915 127.752 16.8563C127.764 16.821 127.783 16.789 127.81 16.7628C127.836 16.7366 127.868 16.7169 127.903 16.7053C127.938 16.6938 127.976 16.6907 128.012 16.6963L130.961 16.7672C131.074 16.7547 131.188 16.7697 131.295 16.8109C131.401 16.852 131.495 16.918 131.57 17.0034C131.821 17.2922 132.436 18.1664 133.17 19.21C133.721 19.9937 134.339 20.8736 134.921 21.6719C136.815 24.2849 138.101 25.8678 139.556 26.6474C140.435 27.1199 141.285 27.29 143.175 27.29H146.393C146.627 27.29 146.804 27.2681 146.913 27.1973C147.022 27.2819 147.215 27.3193 147.485 27.3193C148.246 27.3193 149.262 27.2873 150.141 27.2596C150.81 27.2386 151.4 27.22 151.737 27.22C152.093 27.22 152.635 27.2351 153.296 27.2535C154.33 27.2823 155.655 27.3193 157.015 27.3193C157.389 27.3193 157.658 27.22 157.658 26.979C157.658 26.8137 157.493 26.7097 157.119 26.7097C156.541 26.6996 155.963 26.6554 155.39 26.5774C154.379 26.4404 154.143 25.8308 154.039 24.9189C153.906 23.4635 153.906 20.7891 153.906 17.5052V11.5468C153.906 6.40584 153.906 5.45609 153.972 4.37404C154.039 3.18803 154.308 2.61157 155.225 2.44619C155.559 2.3798 155.899 2.345 156.24 2.34223C156.576 2.34223 156.779 2.2052 156.779 2.00202C156.779 1.79884 156.51 1.7327 156.07 1.7327C155.354 1.7327 154.426 1.76449 153.596 1.79291C152.925 1.81588 152.319 1.83665 151.941 1.83665C151.482 1.83665 150.774 1.81402 150.018 1.78988C149.154 1.76228 148.227 1.7327 147.542 1.7327L147.514 1.73269C146.989 1.73261 146.729 1.73258 146.729 2.00202C146.729 2.27608 146.932 2.34223 147.272 2.34223C147.683 2.33474 148.093 2.38081 148.491 2.47927C149.233 2.63992 149.573 3.21639 149.639 4.36932C149.706 5.45137 149.706 6.40112 149.706 11.5421L149.72 17.5052C149.72 20.789 149.72 23.4636 149.55 24.8811C149.45 25.8639 149.247 26.4404 148.572 26.5774C148.171 26.6654 147.762 26.7098 147.353 26.7097C147.169 26.7097 147.041 26.7309 146.955 26.7693C146.888 26.7125 146.779 26.6805 146.629 26.6805C146.312 26.6748 145.996 26.6416 145.684 26.5813L145.621 26.5676C145.094 26.4549 143.716 26.1602 141.904 24.2801C140.218 22.5061 138.285 20.0699 135.909 17.0743C135.475 16.5273 135.026 15.9617 134.561 15.378C137.978 12.6233 139.027 10.3221 139.027 7.8178C139.023 6.92061 138.814 6.03617 138.415 5.23255C138.016 4.42892 137.438 3.72756 136.726 3.18246C134.897 1.9303 132.634 1.72712 130.498 1.72712C129.986 1.72712 129.111 1.75189 128.216 1.77725C127.277 1.80384 126.316 1.83107 125.725 1.83107C125.452 1.83107 124.967 1.81559 124.371 1.79658C123.422 1.76632 122.193 1.72712 121.09 1.72712C120.585 1.72712 120.344 1.798 120.344 2.03425C120.344 2.27051 120.551 2.33666 120.92 2.33666C121.363 2.32775 121.807 2.36257 122.243 2.44061C123.358 2.67687 123.628 3.21554 123.698 4.36847C123.765 5.45052 123.765 6.40027 123.765 11.5412L123.75 17.4712C123.75 20.5851 123.75 23.2642 123.58 24.6818C123.443 25.6599 123.278 26.4064 122.597 26.5435C122.197 26.632 121.788 26.6763 121.378 26.6758C121.281 26.6758 121.199 26.6819 121.131 26.6935C121.079 26.6876 121.021 26.6857 120.957 26.6857C120.482 26.686 120.007 26.6417 119.54 26.5534C118.831 26.3833 117.848 25.9061 116.563 22.8631C115.321 19.9297 113.016 14.148 111.12 9.39278L111.119 9.39103V9.38961C109.705 5.84291 108.518 2.86782 108.171 2.07254C107.831 1.29289 107.661 0.990479 107.325 0.990479C106.99 0.990479 106.787 1.35904 106.38 2.34186L97.8754 23.6049C97.1997 25.2965 96.5571 26.4495 94.9978 26.6526C94.6495 26.6924 94.2994 26.7144 93.9487 26.7188C93.6795 26.7188 93.5424 26.7897 93.5424 26.9881C93.5424 27.2622 93.7456 27.3283 94.1851 27.3283C95.3921 27.3283 96.6455 27.2818 97.4356 27.2525C97.7994 27.239 98.0649 27.2291 98.1825 27.2291C98.7029 27.2291 99.3234 27.2535 99.9486 27.2781C100.584 27.3031 101.223 27.3283 101.769 27.3283C102.142 27.3283 102.345 27.2622 102.345 26.9881C102.345 26.7897 102.241 26.7188 101.835 26.7188H101.329C100.28 26.7188 99.9732 26.2793 99.9732 25.6698C100.029 24.9583 100.202 24.2607 100.484 23.6049L102.312 18.7664ZM109.688 16.6023C109.721 16.7015 109.688 16.8055 109.518 16.8055L103.29 16.8008C103.153 16.8008 103.12 16.6968 103.153 16.5598L106.272 8.2341C106.305 8.10179 106.376 7.93169 106.475 7.93169C106.566 7.93169 106.602 8.07592 106.632 8.20206L106.64 8.2341L109.688 16.6023ZM46.186 1.87864C46.2899 1.30218 46.4931 0.999768 46.7625 0.999768C47.0318 0.999768 47.235 1.16515 47.6744 2.04875L56.9167 21.1335L66.1166 1.80776C66.3528 1.2691 66.5559 0.999768 66.863 0.999768C67.1702 0.999768 67.3687 1.33525 67.4727 2.04875L70.5486 22.9622C70.8558 25.0932 71.1913 26.076 72.2072 26.3831C72.8846 26.604 73.5925 26.7172 74.3051 26.7186C74.6122 26.7186 74.8486 26.7517 74.8486 26.9549C74.8486 27.1581 74.4422 27.3282 73.9697 27.3282C73.1239 27.3282 68.4508 27.2289 67.0994 27.125C66.3197 27.0588 66.1166 26.9549 66.1166 26.7517C66.1166 26.5485 66.2535 26.4824 66.4898 26.3831C66.726 26.2839 66.7923 25.8728 66.6599 24.9278L64.6282 10.0342H64.4911L57.1388 25.4003C56.3592 26.988 56.1938 27.2904 55.8867 27.2904C55.6023 27.2904 55.2936 26.7112 54.8181 25.8191L54.7006 25.5988C53.8878 24.0395 51.2135 18.8607 50.8072 17.9157C50.6168 17.4696 49.7414 15.6141 48.823 13.6673C48.2823 12.5212 47.7263 11.343 47.2868 10.4028H47.1546L45.3922 23.8694C45.3285 24.3978 45.2953 24.9295 45.2929 25.4617C45.2929 26.1044 45.7324 26.4068 46.3088 26.5438C46.7736 26.6528 47.249 26.7099 47.7264 26.7139C47.9957 26.7139 48.232 26.7848 48.232 26.9501C48.232 27.2573 47.9295 27.3234 47.4192 27.3234C46.5632 27.3234 45.6675 27.2873 44.958 27.2586C44.4927 27.2398 44.1073 27.2242 43.8659 27.2242C43.6046 27.2242 43.1505 27.2425 42.6317 27.2633C41.9404 27.2911 41.134 27.3234 40.5158 27.3234C40.1756 27.3234 39.9062 27.2573 39.9062 26.9501C39.9062 26.7848 40.1094 26.7139 40.4496 26.7139C40.7893 26.7199 41.1286 26.6866 41.4608 26.6147C42.4058 26.4115 42.6799 25.0885 42.85 23.9402L46.186 1.87864ZM78.6476 11.5412V11.5394C78.6476 6.40005 78.6477 5.4504 78.5816 4.36847C78.5154 3.21554 78.2413 2.67687 77.1261 2.44061C76.6912 2.36233 76.2496 2.32751 75.8078 2.33666C75.4346 2.33666 75.2314 2.27051 75.2314 2.03425C75.2314 1.798 75.4676 1.72712 75.9732 1.72712C77.0846 1.72712 78.3246 1.76694 79.2695 1.79729C79.8512 1.81598 80.3209 1.83107 80.5802 1.83107C81.4846 1.83107 82.288 1.80016 83.0184 1.77204C83.6275 1.74861 84.1858 1.72712 84.71 1.72712C90.8526 1.72712 91.9159 5.03471 91.9159 6.8019C91.9159 9.58028 90.3234 11.2388 88.4664 12.7272C91.2402 13.6722 94.6091 16.0773 94.6091 20.037C94.6091 23.6612 91.8024 27.4176 85.5746 27.4176C85.1909 27.4176 84.3018 27.3723 83.3629 27.3245C82.3134 27.2711 81.2015 27.2144 80.6653 27.2144C80.328 27.2144 79.738 27.233 79.0683 27.2541C78.1897 27.2817 77.1742 27.3137 76.4127 27.3137C75.9686 27.3137 75.7323 27.2144 75.7323 26.9735C75.7323 26.8081 75.8693 26.7041 76.2757 26.7041C76.6857 26.7042 77.0944 26.6599 77.4948 26.5718C78.1705 26.4348 78.3405 25.6882 78.4776 24.7101C78.643 23.2926 78.6429 20.6134 78.6429 17.4996L78.6476 11.5412ZM82.7113 12.1177C82.7113 12.387 82.8105 12.4579 82.9476 12.491C83.4741 12.5739 84.0072 12.6071 84.5399 12.5902C85.6551 12.5902 86.4017 12.4579 86.9734 11.9476C87.857 11.2388 88.3626 10.0197 88.3626 8.3612C88.3626 6.09314 87.0443 3.1163 84.1335 3.1163C83.7589 3.101 83.3839 3.12316 83.0137 3.18246C82.7775 3.24861 82.7113 3.38564 82.7113 3.75892V12.1177ZM87.1765 14.8252C86.4677 14.3196 85.6882 14.0833 84.3698 14.0124C83.7603 13.9794 83.4247 13.9794 82.9144 13.9794C82.7774 13.9794 82.7113 14.0455 82.7113 14.2156V22.2483C82.7113 24.4833 82.8106 25.0551 83.8973 25.4945C84.6823 25.7998 85.5224 25.9382 86.3638 25.9009C87.89 25.9009 90.4605 25.0881 90.4605 21.5679C90.4605 19.4747 89.7422 16.6349 87.1765 14.8488V14.8252ZM127.757 14.2156C127.757 14.5889 127.823 14.7259 128.06 14.8252C128.897 15.0628 129.765 15.1774 130.635 15.1654C131.986 15.1654 132.426 15.0284 133.04 14.5889C134.051 13.8423 135.034 12.2878 135.034 9.5094C135.034 4.70867 131.854 3.31949 129.836 3.31949C129.235 3.29254 128.632 3.33695 128.041 3.45179C127.805 3.52267 127.738 3.65497 127.738 3.9243L127.757 14.2156Z" fill="white"/>
<path fill-rule="evenodd" clip-rule="evenodd" d="M37.1538 1.00024H2.30664L10.6867 14.5818H11.6379L19.721 27.6344L27.7901 14.5818H28.7738L37.1538 1.00024ZM25.9427 4.7762C24.7688 5.7367 20.1287 8.22843 20.1287 8.22843L19.196 8.96156C18.913 9.77822 17.7622 10.0149 17.7622 10.0149C17.2235 10.367 16.8234 10.895 16.6301 11.509C16.4542 11.9928 16.1645 12.4273 15.7856 12.7757C15.4932 13.017 15.1313 13.3604 15.1313 13.3604C14.0223 14.6735 15.7531 15.8753 15.7531 15.8753C14.245 15.7175 13.9666 14.2606 13.9945 13.5274C14.1058 10.0798 17.0616 7.40713 17.0616 7.40713C20.1287 4.36323 25.7942 3.18465 25.7942 3.18465C26.1369 3.17458 26.4798 3.19165 26.8197 3.23569C26.9047 3.23087 26.9899 3.23087 27.0749 3.23569C27.1215 3.23602 27.1673 3.24712 27.2089 3.26813C27.2504 3.28914 27.2865 3.31948 27.3144 3.35679C27.3423 3.39409 27.3611 3.43734 27.3695 3.48314C27.3778 3.52895 27.3755 3.57607 27.3626 3.62081L27.2187 3.82498C27.2048 3.70433 27.0378 3.67649 26.9264 3.75073C26.8501 3.81321 26.7788 3.88147 26.713 3.9549C26.0773 4.72515 25.9427 4.7762 25.9427 4.7762ZM19.4605 7.86186L19.8874 7.68089L26.133 3.94562C26.2814 3.94562 26.4067 3.85746 26.4067 3.76001C26.4105 3.73283 26.4069 3.70514 26.3963 3.67984C26.3856 3.65453 26.3684 3.63254 26.3464 3.61617C26.2788 3.58871 26.2057 3.57759 26.133 3.5837C25.9891 3.5837 25.8685 3.67649 25.8685 3.77393C25.8685 3.87138 25.9891 3.94562 26.133 3.94562L19.4605 7.86186ZM23.5383 7.20271L24.1554 7.38368C24.1554 7.38368 25.8351 6.26077 26.3641 5.12859C26.3641 5.12859 26.7214 4.4697 26.8513 4.23769C26.919 4.12878 26.9765 4.01384 27.023 3.89433C26.8203 4.07853 26.6397 4.28563 26.4848 4.51146C26.1533 5.0287 25.7776 5.51619 25.3618 5.96845C24.7906 6.43152 24.1805 6.84447 23.5383 7.20271ZM24.0093 7.6108C23.728 7.55836 23.4505 7.48705 23.1788 7.39735C23.164 7.3888 23.1472 7.3843 23.1301 7.3843C23.1129 7.3843 23.0961 7.3888 23.0813 7.39735C23.0813 7.39735 22.5802 7.62008 22.1997 7.75L21.3877 8.01448C22.368 8.52894 23.459 8.79653 24.5662 8.79403C24.5662 8.79403 22.2461 8.98891 20.6963 8.17225L20.3019 8.37641C20.3019 8.37641 21.4434 9.27195 24.7657 8.97963C24.7657 8.97963 27.276 8.76154 28.4174 8.16761C28.5306 8.11577 28.638 8.05199 28.7376 7.97736C28.748 7.96804 28.7563 7.95659 28.7619 7.94378C28.7675 7.93097 28.7703 7.91711 28.7701 7.90313L28.7144 7.78248C28.6866 7.71752 28.6262 7.59688 28.6262 7.59688L28.5567 7.82888L28.4592 7.87529L28.2736 7.66648L28.1762 7.82888L28.1158 7.91705L24.0093 7.6108ZM13.6581 13.5471C13.6581 13.5471 11.8021 11.2734 14.9806 7.18088C15.6812 6.25286 17.3006 4.78195 19.3608 5.28772C18.031 5.96156 16.8407 6.88101 15.8529 7.99753C15.274 8.68239 14.7729 9.42937 14.3588 10.2248C13.8348 11.2505 13.593 12.3971 13.6581 13.5471ZM16.1455 15.6378C14.9019 14.798 15.2174 14.0648 15.2174 14.0648C15.4274 14.0383 15.6332 13.9853 15.8299 13.9071C16.1114 13.7778 16.5582 13.4584 16.9678 13.1655C17.22 12.9851 17.4581 12.8149 17.6349 12.7053C17.8115 12.5921 18.0518 12.4318 18.3149 12.2564C18.8609 11.8923 19.505 11.4627 19.8807 11.2529C22.1497 9.98618 23.5928 10.3574 23.5928 10.3574C25.3143 10.8121 25.073 11.3875 25.073 11.3875C24.7157 10.7982 23.6485 11.0256 23.6485 11.0256C22.34 11.2808 20.6185 12.7702 20.6185 12.7702C16.8739 15.9719 16.1455 15.6378 16.1455 15.6378ZM23.84 11.3236C23.84 11.3236 24.7681 11.1009 25.1068 11.8433C25.1068 11.8433 25.0465 12.9013 23.4456 14.0706C22.8638 14.497 21.9663 15.0892 21.1366 15.6366C20.2329 16.2329 19.4096 16.7761 19.1628 16.9938L19.1387 17.015C18.8802 17.2422 17.7951 18.1954 18.4854 18.8498C18.3279 18.7771 18.1883 18.671 18.0761 18.5387C17.9639 18.4065 17.8819 18.2514 17.8358 18.0842C17.6919 17.5692 17.613 17.0309 18.5643 15.9591C19.5293 15.0381 20.5938 14.2273 21.7381 13.5416C22.3592 13.1839 22.9289 12.7438 23.4317 12.2331C23.5628 12.1211 23.6675 11.9815 23.7381 11.8242C23.8087 11.667 23.8435 11.496 23.84 11.3236ZM19.1273 18.9194C18.7051 18.8498 18.6633 18.3579 18.6633 18.3579C18.7886 18.4322 19.0113 18.2837 19.0716 18.2419C19.3076 18.0864 19.6998 17.7814 20.0683 17.4949C20.3155 17.3026 20.5521 17.1186 20.7235 16.9937C21.0795 16.7174 21.4565 16.4691 21.851 16.2513C22.2509 16.0528 22.7088 16.005 23.141 16.1168C23.2937 16.1654 23.4327 16.2497 23.5464 16.3627C23.6602 16.4756 23.7455 16.614 23.7952 16.7664C23.4751 16.4045 22.6259 16.6457 22.3336 16.8267C21.6751 17.2821 21.0669 17.8063 20.5193 18.3904C20.3501 18.588 20.134 18.74 19.8908 18.8324C19.6476 18.9248 19.3851 18.9547 19.1273 18.9194ZM19.9792 20.372C20.1907 20.1807 20.5974 19.8324 20.9557 19.5255C21.2578 19.2667 21.5255 19.0375 21.6125 18.9568C21.7158 18.8582 21.8245 18.759 21.935 18.6581C22.49 18.1516 23.0926 17.6016 23.3015 16.8548C23.3752 16.8528 23.4481 16.8712 23.512 16.9081C23.5759 16.945 23.6283 16.9988 23.6634 17.0636C23.7689 17.2718 23.7921 17.512 23.7284 17.7365C23.6542 18.0845 23.5428 18.349 22.6426 19.2027C21.4524 20.3252 20.1011 21.2636 18.6336 21.9868L19.9792 20.372Z" fill="white"/>
</g>
<defs>
<clipPath id="clip0_432_30521">
<rect width="157" height="59" fill="white" transform="translate(0.705078)"/>
</clipPath>
</defs>
</svg>
