<svg width="174" height="26" viewBox="0 0 174 26" fill="none" xmlns="http://www.w3.org/2000/svg">
<path d="M25.0446 13.9106C25.0214 13.8606 24.9881 13.8155 24.9466 13.778C24.9052 13.7404 24.8564 13.7113 24.8032 13.6921C24.7499 13.6729 24.6932 13.6642 24.6364 13.6663C24.5796 13.6685 24.5239 13.6815 24.4723 13.7046H24.4621C24.1941 13.8191 23.9198 13.9192 23.6403 14.0045C23.3824 13.1361 23.5191 11.8326 24.6654 11.2987C24.7726 11.2513 24.856 11.165 24.8976 11.0585C24.9392 10.9521 24.9356 10.8341 24.8875 10.7302C24.8643 10.6788 24.8308 10.6324 24.7889 10.5935C24.747 10.5547 24.6975 10.5243 24.6433 10.5041C24.5891 10.4839 24.5313 10.4742 24.4732 10.4757C24.4151 10.4772 24.3579 10.4897 24.3049 10.5127C24.2878 10.5127 24.2878 10.5292 24.2707 10.5292C22.8306 11.2147 22.4018 12.8362 22.7622 14.1545C22.436 14.1765 22.1087 14.1309 21.8021 14.021C21.4327 13.8825 21.132 13.6131 20.9616 13.2679C21.2008 13.1345 21.4246 13.001 21.645 12.851C21.7451 12.7934 21.8177 12.7001 21.8471 12.5912C21.8765 12.4824 21.8603 12.3668 21.8021 12.2693C21.7735 12.2214 21.7353 12.1795 21.6898 12.1459C21.6442 12.1123 21.5922 12.0877 21.5368 12.0736C21.4813 12.0595 21.4236 12.0562 21.3668 12.0637C21.31 12.0713 21.2553 12.0897 21.2059 12.1177L21.182 12.1326C21.1649 12.1326 21.1649 12.149 21.1478 12.149C20.7531 12.4228 20.33 12.6564 19.8853 12.8461C19.9878 12.2611 19.9537 11.6431 19.354 11.1405C19.3131 11.1022 19.2646 11.0721 19.2115 11.0519C19.1583 11.0318 19.1016 11.0221 19.0445 11.0233C18.9874 11.0245 18.9312 11.0367 18.879 11.0591C18.8269 11.0815 18.7799 11.1136 18.7407 11.1537C18.6646 11.2377 18.6241 11.3462 18.6273 11.4577C18.6304 11.5692 18.677 11.6754 18.7578 11.7552L18.7749 11.7733C19.1354 12.0732 19.1012 12.4753 18.8791 13.1592C18.5375 13.2582 18.1868 13.3255 17.8319 13.3602C17.8865 13.1243 17.9157 12.8835 17.919 12.6417C17.919 12.5299 17.8729 12.4226 17.7909 12.3435C17.7089 12.2643 17.5976 12.2199 17.4816 12.2199C17.3657 12.2199 17.2544 12.2643 17.1724 12.3435C17.0904 12.4226 17.0443 12.5299 17.0443 12.6417C17.0477 12.9024 17.0068 13.1618 16.923 13.4096C16.6413 13.4078 16.3605 13.3802 16.0842 13.3273C15.5187 13.2103 14.7465 12.9417 14.3177 12.2578C14.2837 12.212 14.2405 12.1732 14.1908 12.1437C14.141 12.1142 14.0857 12.0944 14.028 12.0857C13.9703 12.077 13.9114 12.0794 13.8547 12.0928C13.7979 12.1062 13.7445 12.1304 13.6976 12.1639C13.6124 12.2248 13.5522 12.3126 13.5275 12.4121C13.5028 12.5115 13.5153 12.6162 13.5626 12.7077C14.0427 13.4443 14.849 13.9452 15.8946 14.1627C16.0842 14.1957 16.2721 14.2286 16.46 14.2451C15.9988 14.8466 15.2437 15.3146 14.3177 15.5634C14.3006 15.2406 14.3006 14.9172 14.3177 14.5945C14.3245 14.4826 14.285 14.3727 14.2077 14.2889C14.1305 14.2052 14.022 14.1544 13.906 14.1479C13.8486 14.1446 13.791 14.1523 13.7367 14.1705C13.6823 14.1887 13.6322 14.2171 13.5892 14.254C13.5024 14.3284 13.4498 14.4331 13.443 14.545C13.3974 15.0802 13.4203 15.6187 13.5114 16.1484V16.1995C13.6542 16.8826 14.0214 17.5032 14.5586 17.9693C14.3882 18.1873 14.2335 18.4163 14.0956 18.6548C13.221 20.0728 12.9619 21.7665 13.3747 23.3677C12.9223 23.3803 12.4723 23.3006 12.0541 23.1337C12.225 22.6311 12.3958 22.145 12.5171 21.6803C12.5171 21.6621 12.5171 21.6621 12.5342 21.6457V21.6292C13.5592 17.9198 13.0467 15.3673 10.9573 13.7194C10.8036 13.586 10.6481 13.4525 10.4944 13.3009C10.7663 13.0946 11.0189 12.8658 11.2495 12.617C11.5399 12.9334 11.7979 13.2679 11.9174 13.4179C11.9459 13.4659 11.984 13.5081 12.0295 13.5418C12.075 13.5756 12.127 13.6003 12.1824 13.6145C12.2379 13.6288 12.2957 13.6323 12.3525 13.6249C12.4094 13.6174 12.4642 13.5991 12.5137 13.5711C12.6134 13.5135 12.6856 13.4204 12.7147 13.3119C12.7437 13.2033 12.7274 13.0881 12.6691 12.9911C12.6691 12.9911 12.6606 12.9746 12.6555 12.968L12.6367 12.9515C12.3804 12.622 12.1054 12.2825 11.8149 11.9628C12.342 11.312 12.7584 10.5845 13.0484 9.80742C13.5756 9.89383 14.1093 9.93847 14.644 9.9409C14.849 9.9409 15.0557 9.9409 15.2778 9.92442C15.312 10.7484 15.3803 11.5624 15.9116 12.1144C15.9489 12.1566 15.9944 12.1914 16.0455 12.2166C16.0967 12.2419 16.1525 12.2571 16.2097 12.2616C16.267 12.266 16.3246 12.2595 16.3793 12.2425C16.434 12.2254 16.4846 12.1982 16.5284 12.1622C16.6172 12.0885 16.6722 11.984 16.6815 11.8713C16.6908 11.7587 16.6536 11.647 16.5779 11.5607L16.5472 11.5294C16.2209 11.1999 16.1867 10.5259 16.1525 9.8239C16.9229 9.71441 17.676 9.51177 18.3939 9.22079C19.0773 9.83873 20.1245 10.1403 21.2042 10.1403C22.2598 10.1529 23.2925 9.84318 24.1546 9.25539C24.2478 9.18561 24.3089 9.08339 24.3249 8.97064C24.3408 8.8579 24.3104 8.74361 24.24 8.65227C24.2053 8.6075 24.1618 8.5698 24.112 8.54138C24.0621 8.51296 24.0069 8.49437 23.9495 8.48671C23.8921 8.47904 23.8337 8.48245 23.7777 8.49673C23.7217 8.511 23.6692 8.53587 23.6233 8.56988C22.3881 9.47126 20.3773 9.52234 19.2669 8.80388C19.6842 8.56869 20.0752 8.29258 20.4337 7.97995C20.5184 7.90213 20.5681 7.79546 20.5722 7.68275C20.5764 7.57004 20.5346 7.46024 20.4559 7.37683C20.3792 7.2966 20.2731 7.24842 20.1601 7.24257C20.0472 7.23673 19.9363 7.27366 19.8512 7.34552C19.2653 7.84639 18.5913 8.24207 17.8609 8.51385C17.47 7.69105 17.3973 6.76048 17.6559 5.89046C18.3062 6.19969 19.0436 6.29524 19.7555 6.16255C20.4674 6.02985 21.1148 5.67619 21.5988 5.15551C21.6832 5.07753 21.7322 4.97052 21.7351 4.85783C21.738 4.74514 21.6945 4.63593 21.6142 4.55404C21.575 4.5133 21.5277 4.48053 21.4752 4.45768C21.4226 4.43482 21.3659 4.42234 21.3082 4.42095C21.2506 4.41957 21.1933 4.42932 21.1396 4.44963C21.086 4.46994 21.0371 4.5004 20.9958 4.53921L20.965 4.57052C20.6003 4.967 20.1087 5.23455 19.5682 5.33069C19.0278 5.42682 18.4696 5.34603 17.9822 5.10113C18.3475 4.47933 18.9046 3.98281 19.5761 3.68067C19.6806 3.63366 19.7619 3.54902 19.8024 3.44489C19.843 3.34077 19.8396 3.22546 19.7931 3.1237C19.7698 3.07284 19.7363 3.02695 19.6945 2.98869C19.6527 2.95042 19.6034 2.92053 19.5495 2.90076C19.4957 2.88099 19.4383 2.87172 19.3807 2.8735C19.323 2.87528 19.2664 2.88807 19.2139 2.91112L19.1986 2.91936C18.6382 3.17937 18.1391 3.54752 17.7321 4.00102C17.3251 4.45452 17.0189 4.98374 16.8325 5.55594C16.4939 6.61676 16.5544 7.75879 17.0033 8.78081C16.71 8.8628 16.4123 8.92936 16.1115 8.9802C16.0432 8.19582 15.8194 7.42626 15.066 7.00276C15.0147 6.97696 14.9586 6.96127 14.901 6.95659C14.8434 6.95192 14.7854 6.95836 14.7303 6.97554C14.6753 6.99272 14.6244 7.02029 14.5805 7.05665C14.5367 7.09301 14.5008 7.13743 14.4749 7.18732C14.4256 7.28042 14.4132 7.38763 14.4399 7.48892C14.4667 7.59022 14.5307 7.67865 14.6201 7.73771C14.6246 7.73771 14.629 7.73945 14.6322 7.74254C14.6354 7.74563 14.6372 7.74982 14.6372 7.75419C15.0489 7.98818 15.1856 8.48913 15.2539 9.07248C14.6006 9.11403 13.9445 9.08029 13.2995 8.97196C13.3166 8.92252 13.3166 8.88957 13.3337 8.83848C13.4478 8.2113 13.4245 7.56801 13.2654 6.95003C15.1343 5.68118 16.3849 3.37417 16.009 1.52033C15.9783 1.41398 15.9051 1.32373 15.8055 1.26936C15.7059 1.21499 15.588 1.20095 15.4777 1.2303H15.4589C15.36 1.25687 15.2744 1.31704 15.2179 1.39972C15.1614 1.4824 15.1378 1.58201 15.1514 1.68017C15.2197 2.03915 15.2197 2.40713 15.1514 2.76611C13.8479 2.78424 12.7341 2.14816 12.2711 1.0787C12.2511 1.02637 12.2206 0.978352 12.1814 0.937416C12.1421 0.896479 12.0948 0.863426 12.0423 0.840153C11.9897 0.816881 11.933 0.803846 11.8752 0.801799C11.8174 0.799752 11.7598 0.808732 11.7056 0.828224C11.6494 0.848243 11.598 0.878979 11.5544 0.918596C11.5108 0.958213 11.4759 1.0059 11.4518 1.05881C11.4277 1.11172 11.415 1.16876 11.4142 1.22654C11.4135 1.28432 11.4249 1.34164 11.4476 1.39509C11.4476 1.41157 11.4476 1.41157 11.4647 1.42805C12.0473 2.76446 13.3679 3.58345 14.9276 3.63453C14.5169 4.62625 13.8357 5.49231 12.9561 6.14093C12.7318 5.74664 12.4486 5.3863 12.1156 5.07147C12.0722 5.03516 12.0218 5.00756 11.9672 4.99029C11.9126 4.97301 11.855 4.9664 11.7977 4.97085C11.7405 4.9753 11.6847 4.99072 11.6337 5.0162C11.5827 5.04168 11.5374 5.07672 11.5006 5.11926C11.4305 5.1997 11.3934 5.30211 11.3962 5.40715C11.3991 5.51219 11.4417 5.6126 11.516 5.68942C11.8024 5.94668 12.041 6.24931 12.2215 6.58421C12.0319 6.67841 11.8368 6.76204 11.6373 6.83468C11.1158 7.01697 10.5573 7.07869 10.0066 7.01486C9.45587 6.95104 8.92838 6.76346 8.46652 6.46721C9.01471 5.90085 9.4091 5.21246 9.61455 4.46341C9.76831 4.48153 9.92206 4.49307 10.0775 4.49636C10.3768 4.50408 10.6742 4.44915 10.9494 4.33536C11.2246 4.22157 11.4709 4.05163 11.6714 3.83722C11.7585 3.76193 11.8113 3.65654 11.8184 3.54393C11.8254 3.43133 11.7861 3.32059 11.709 3.23575C11.671 3.19404 11.6247 3.16003 11.5729 3.13569C11.5211 3.11135 11.4648 3.09716 11.4073 3.09394C11.3498 3.09072 11.2922 3.09854 11.2378 3.11694C11.1834 3.13534 11.1334 3.16396 11.0906 3.20115L11.0547 3.23575L11.0205 3.27036C10.7472 3.57027 10.3184 3.68726 9.76831 3.59993C9.85193 2.92642 9.82309 2.24435 9.68289 1.57965C9.67609 1.46777 9.6235 1.36307 9.53667 1.28859C9.44985 1.21412 9.33591 1.17596 9.21992 1.18251C9.10393 1.18907 8.99539 1.2398 8.91817 1.32355C8.84096 1.4073 8.8014 1.5172 8.8082 1.62908C8.80606 1.6634 8.8119 1.69774 8.82528 1.7296C9.1345 3.46645 8.75695 4.91987 7.71142 5.93989C7.06053 5.37138 6.40793 4.51943 5.7912 3.30331C5.73802 3.20557 5.6471 3.13193 5.53809 3.09832C5.42908 3.06471 5.31074 3.07382 5.20864 3.1237C5.10655 3.17619 5.02864 3.26377 4.99035 3.36907C4.95206 3.47437 4.95619 3.58971 5.00193 3.69221C5.50011 4.73389 6.18549 5.6823 7.02636 6.49357C6.23567 6.99035 5.32657 7.28416 4.3852 7.34717C4.43646 6.56114 4.2827 5.72567 3.30551 5.15716C3.2577 5.12584 3.20393 5.10396 3.14731 5.09281C3.09069 5.08165 3.03234 5.08143 2.97563 5.09215C2.91891 5.10288 2.86497 5.12434 2.81691 5.1553C2.76885 5.18625 2.72762 5.22609 2.69562 5.27251C2.63085 5.36688 2.60692 5.48194 2.62895 5.5931C2.65098 5.70427 2.71721 5.80271 2.8135 5.86739L2.85962 5.8921C3.39093 6.19366 3.58056 6.61057 3.51051 7.36364C2.9569 7.34531 2.40621 7.27802 1.86535 7.16261C1.74961 7.14697 1.63207 7.17461 1.53678 7.23987C1.44149 7.30512 1.37568 7.40306 1.35283 7.5136C1.33436 7.61911 1.35765 7.72746 1.41808 7.81719C1.47851 7.90691 1.57168 7.97147 1.67913 7.99807C2.34388 8.13713 3.02167 8.21001 3.70185 8.21559C5.2616 8.21559 6.68468 7.81516 7.74729 7.02913C8.50294 7.56634 9.41559 7.85882 10.3543 7.86459H10.3714C10.6618 8.61602 10.4568 9.45149 10.1817 9.786C10.1096 9.87505 10.0763 9.98778 10.0891 10.1001C10.1018 10.2125 10.1596 10.3156 10.2501 10.3875C10.2951 10.4225 10.347 10.4486 10.4026 10.4642C10.4581 10.4798 10.5164 10.4846 10.5739 10.4783C10.6315 10.4721 10.6871 10.4548 10.7377 10.4276C10.7883 10.4004 10.8327 10.3638 10.8685 10.3199C11.3144 9.786 11.5365 8.73302 11.2631 7.76408C11.4655 7.72379 11.6656 7.67374 11.8628 7.61412C12.0611 7.54607 12.2556 7.46796 12.4453 7.38012C12.5309 7.81069 12.5309 8.25302 12.4453 8.68358C12.2062 10.104 11.1931 11.6234 9.90839 12.6269C9.34801 11.879 9.11374 10.9491 9.25579 10.0365C9.28133 9.9268 9.2608 9.81183 9.19869 9.71672C9.13658 9.6216 9.03795 9.55409 8.92437 9.52894C8.8111 9.50711 8.69348 9.52956 8.59737 9.59136C8.50126 9.65317 8.43453 9.74926 8.41186 9.85851C8.4109 9.86396 8.4109 9.86953 8.41186 9.87499V9.90794C8.39108 10.035 8.37966 10.1633 8.37769 10.2919C8.17726 10.2538 7.99232 10.1611 7.84467 10.0249C7.70847 9.89338 7.60061 9.73712 7.52731 9.56517C7.45401 9.39321 7.41671 9.20896 7.41758 9.02304C7.41758 8.90897 7.3706 8.79958 7.28698 8.71892C7.20336 8.63826 7.08995 8.59295 6.97169 8.59295C6.85344 8.59295 6.74002 8.63826 6.6564 8.71892C6.57278 8.79958 6.5258 8.90897 6.5258 9.02304C6.5271 9.63643 6.77944 10.2245 7.22795 10.6594C7.54315 10.9571 7.95539 11.1405 8.39477 11.1784C8.49724 11.8826 8.77316 12.5527 9.19942 13.1328C9.00466 13.2482 8.80478 13.3536 8.59978 13.4508C8.49396 13.4946 8.40988 13.5762 8.36526 13.6786C8.32064 13.781 8.31897 13.8961 8.3606 13.9996C8.39361 14.0738 8.4484 14.137 8.51822 14.1815C8.58804 14.226 8.66984 14.2498 8.75353 14.2501C8.81194 14.248 8.86963 14.2369 8.92437 14.2171C9.20477 14.0984 9.47696 13.9625 9.73927 13.8101C9.93814 14.0121 10.1504 14.2015 10.3748 14.3769C12.0712 15.715 12.5513 17.8375 11.7808 20.9272C11.1453 20.5268 10.6481 19.5743 10.151 18.5213C10.3826 18.3907 10.5852 18.2172 10.7471 18.0107C10.9089 17.8043 11.0268 17.569 11.094 17.3184C11.1794 16.9674 11.1623 16.4154 10.5969 15.7974C10.5619 15.7559 10.5186 15.7216 10.4697 15.6965C10.4208 15.6713 10.3672 15.6559 10.3119 15.6509C10.2567 15.646 10.2011 15.6518 10.1482 15.6679C10.0954 15.684 10.0463 15.7101 10.0041 15.7447L9.98015 15.7644C9.8938 15.8399 9.84165 15.9451 9.83494 16.0573C9.82823 16.1695 9.86749 16.2797 9.94427 16.3643C10.2005 16.6477 10.2859 16.8998 10.2347 17.1322C10.1612 17.3757 10.0047 17.5882 9.79052 17.7353C9.56672 17.2673 9.34463 16.7993 9.08667 16.3478L9.03541 16.2473C8.53827 15.3953 7.95572 14.6439 7.16645 14.2418C7.32522 13.4022 7.24855 12.5369 6.94436 11.7354V11.7189C6.7526 11.2339 6.46217 10.7907 6.09017 10.4155C6.04724 10.3784 5.99711 10.3499 5.94269 10.3316C5.88826 10.3134 5.83062 10.3057 5.77311 10.3091C5.71559 10.3124 5.65933 10.3268 5.6076 10.3513C5.55587 10.3758 5.50969 10.4099 5.47173 10.4517C5.40062 10.5299 5.3614 10.6303 5.3614 10.7343C5.3614 10.8383 5.40062 10.9388 5.47173 11.017C5.68342 11.2312 5.86284 11.473 6.00475 11.7354C5.09589 12.2298 3.87782 12.4209 2.72979 12.2875C2.72656 11.7752 2.66294 11.2649 2.54016 10.7665C3.00558 10.5458 3.51343 10.4207 4.03157 10.399H4.06745C4.18204 10.3922 4.28963 10.3435 4.36828 10.2628C4.44693 10.1821 4.49071 10.0755 4.49071 9.9648C4.49071 9.85405 4.44693 9.74747 4.36828 9.66679C4.28963 9.58611 4.18204 9.5374 4.06745 9.53058C3.4258 9.53588 2.79334 9.67826 2.21556 9.94749C1.99105 9.54491 1.70286 9.17853 1.36137 8.86155C1.31671 8.8266 1.26532 8.80053 1.21016 8.78483C1.155 8.76914 1.09716 8.76413 1.03999 8.77011C0.98281 8.77608 0.927426 8.79292 0.87703 8.81964C0.826634 8.84637 0.782222 8.88245 0.746357 8.92582C0.677659 9.00664 0.641553 9.10869 0.644692 9.21316C0.647832 9.31763 0.690004 9.41748 0.763441 9.49433C1.46558 10.1288 1.78847 10.8967 1.82605 12.0996C1.42412 11.9986 1.03759 11.8474 0.676314 11.6497C0.628079 11.6184 0.573808 11.5967 0.516723 11.586C0.459639 11.5753 0.400907 11.5758 0.344016 11.5874C0.287126 11.5991 0.233238 11.6216 0.185554 11.6537C0.13787 11.6858 0.0973624 11.7268 0.0664387 11.7743C0.0355151 11.8218 0.0148059 11.8748 0.00554174 11.9302C-0.00372247 11.9856 -0.00135257 12.0422 0.0125103 12.0967C0.0263732 12.1512 0.0514467 12.2024 0.0862405 12.2473C0.121034 12.2923 0.164839 12.33 0.215051 12.3583L0.230427 12.3682C0.826413 12.7154 1.48379 12.9534 2.16944 13.0702C2.18652 13.0702 2.22069 13.0867 2.23777 13.0867C2.63282 13.152 3.03282 13.1857 3.43364 13.1872C4.42336 13.1957 5.40127 12.9795 6.28834 12.5561C6.39443 13.023 6.40603 13.5053 6.32251 13.9765C5.69567 13.9122 5.06237 14.01 4.48771 14.2599C3.66615 13.945 2.76957 13.8582 1.89951 14.0095H1.86535C1.30147 14.1213 0.769374 14.3495 0.305595 14.6785C0.212422 14.7473 0.149832 14.8477 0.130486 14.9594C0.11114 15.0711 0.136481 15.1856 0.201384 15.28C0.271072 15.3705 0.374362 15.4315 0.489633 15.4503C0.604904 15.469 0.723221 15.444 0.819818 15.3805C1.0261 15.2322 1.25043 15.1088 1.48779 15.013C1.50108 15.5342 1.62981 16.0466 1.86535 16.5159C1.88829 16.5664 1.92141 16.612 1.96278 16.6501C2.00414 16.6882 2.05294 16.718 2.10633 16.7378C2.15972 16.7576 2.21665 16.7669 2.27382 16.7653C2.33098 16.7637 2.38725 16.7512 2.43936 16.7284C2.54461 16.6818 2.62648 16.5969 2.66711 16.4922C2.70775 16.3876 2.70388 16.2717 2.65633 16.1698C2.65076 16.1569 2.64449 16.1442 2.63753 16.1319V16.1154C2.4446 15.7014 2.3506 15.2509 2.36248 14.7971C2.94168 14.7438 3.52587 14.8182 4.07086 15.0147C4.17337 16.534 2.90404 17.5705 1.56638 17.938C1.45671 17.9752 1.36576 18.0512 1.31187 18.1506C1.25798 18.25 1.24514 18.3654 1.27595 18.4735C1.30267 18.5609 1.35775 18.6377 1.43311 18.6925C1.50846 18.7474 1.60009 18.7775 1.69451 18.7784C1.73513 18.781 1.77587 18.7754 1.81409 18.7619C1.99468 18.7108 2.17208 18.6497 2.3454 18.579C2.53065 19.0649 2.57205 19.591 2.46499 20.0983C2.43426 20.2067 2.44734 20.3222 2.50157 20.4217C2.5558 20.5211 2.64714 20.5969 2.75712 20.6339H2.7742C2.80664 20.6468 2.84169 20.6524 2.87671 20.6504C2.97444 20.65 3.06934 20.6187 3.14681 20.5612C3.22429 20.5038 3.28005 20.4233 3.30551 20.3323C3.47286 19.6305 3.41324 18.8961 3.13467 18.228C4.47062 17.4255 5.01389 16.1715 4.95068 15.0196C6.47797 14.4676 7.36804 15.1531 8.20856 16.5571C7.98517 17.1261 7.64064 17.6437 7.1972 18.0764C7.14894 17.5116 6.88684 16.9837 6.46089 16.5933C6.42293 16.5515 6.37675 16.5174 6.32502 16.4929C6.27329 16.4684 6.21703 16.454 6.15952 16.4507C6.102 16.4473 6.04436 16.455 5.98993 16.4732C5.93551 16.4915 5.88538 16.52 5.84245 16.5571C5.756 16.6328 5.7038 16.7383 5.6971 16.8507C5.69039 16.9632 5.7297 17.0737 5.80658 17.1585L5.84245 17.1948C6.20292 17.5244 6.37376 17.8638 6.33959 18.7158C5.85445 19.0015 5.33151 19.2226 4.78497 19.3733C4.67498 19.4102 4.58364 19.4861 4.52941 19.5855C4.47518 19.6849 4.46211 19.8005 4.49283 19.9088C4.51713 19.9958 4.5708 20.0726 4.64536 20.1269C4.71993 20.1812 4.81113 20.21 4.90455 20.2087C4.94578 20.2131 4.98748 20.2075 5.02585 20.1923L5.1796 20.1428C5.29919 20.9437 5.12835 21.4611 4.61413 21.9802C4.53683 22.0648 4.49724 22.1754 4.50396 22.288C4.51067 22.4006 4.56315 22.5061 4.65 22.5816C4.7297 22.6509 4.83316 22.6892 4.94043 22.6892C5.04769 22.6892 5.15116 22.6509 5.23085 22.5816C5.98596 21.8302 6.22513 20.9948 6.02012 19.8413C6.35641 19.6985 6.67788 19.5252 6.98023 19.3238C7.1911 19.1874 7.3915 19.0365 7.57987 18.8723C7.99159 19.6073 8.31619 20.3092 8.36915 20.9948C8.06709 20.9795 7.76497 21.0235 7.48103 21.1241C7.19709 21.2246 6.93723 21.3796 6.71714 21.5798C6.6332 21.6574 6.58421 21.7638 6.58069 21.876C6.57718 21.9881 6.61942 22.0971 6.69835 22.1796C6.78488 22.2635 6.90199 22.3114 7.02465 22.313C7.13813 22.3097 7.24686 22.2683 7.33216 22.1961C7.46271 22.0779 7.61636 21.986 7.78414 21.9257C7.95192 21.8654 8.13047 21.838 8.30935 21.8451C8.17268 22.3971 7.81221 22.931 7.16132 23.4649C7.07239 23.5384 7.01698 23.6426 7.00707 23.7552C6.99717 23.8677 7.03355 23.9795 7.10836 24.0664C7.14987 24.1147 7.20214 24.1535 7.26129 24.1797C7.32043 24.206 7.38494 24.219 7.45004 24.218C7.55594 24.2176 7.65849 24.1821 7.74046 24.1175C10.262 22.0115 9.09521 19.7061 8.22052 18.2198C8.40449 17.9996 8.56961 17.7654 8.71424 17.5194C8.85262 17.7864 8.98929 18.0863 9.12596 18.3878L9.17721 18.5213C9.82981 19.9418 10.4807 21.2782 11.5689 21.7956C11.2795 22.7489 10.9303 23.6845 10.5234 24.597C10.4822 24.7036 10.4842 24.8213 10.5288 24.9266C10.5734 25.0319 10.6575 25.1172 10.7643 25.1655C10.8194 25.1839 10.8769 25.195 10.9351 25.1985C11.0234 25.1981 11.1096 25.1725 11.1828 25.125C11.2561 25.0775 11.3132 25.0102 11.3469 24.9315C11.5006 24.6019 11.6373 24.2625 11.7586 23.9428C12.2285 24.1215 12.7278 24.2174 13.2329 24.2262C13.4808 24.2247 13.7278 24.1965 13.9692 24.1422C14.0034 24.1422 14.0375 24.1257 14.0717 24.1257C14.1059 24.1257 14.1076 24.1092 14.1247 24.1092C14.8201 23.8811 15.4198 23.441 15.8331 22.8552C16.322 23.2561 16.9198 23.5133 17.5558 23.5963C18.1917 23.6792 18.8389 23.5844 19.4207 23.3232C19.5254 23.2735 19.6066 23.1873 19.6478 23.0821C19.689 22.9768 19.6872 22.8604 19.6427 22.7563C19.5967 22.66 19.5145 22.584 19.4128 22.5437C19.3111 22.5033 19.1973 22.5016 19.0943 22.5388C18.083 22.9392 17.1741 22.8058 16.2994 22.1367C16.3678 22.0033 16.4361 21.8863 16.5062 21.7528C16.5538 21.65 16.5576 21.5332 16.5167 21.4277C16.4757 21.3223 16.3934 21.2366 16.2875 21.1892C16.1846 21.1437 16.0674 21.1387 15.9608 21.1753C15.8543 21.212 15.7667 21.2873 15.7169 21.3853V21.4018C15.6144 21.6193 15.5102 21.8203 15.3906 22.0197V22.0379C15.1236 22.5212 14.7195 22.9213 14.2255 23.1914C13.9124 21.9686 14.0583 20.6785 14.6372 19.5496C15.4231 20.0205 16.331 20.2673 17.2561 20.2615H17.2903C17.2907 20.2657 17.2926 20.2697 17.2957 20.2727C17.2989 20.2757 17.303 20.2776 17.3074 20.2779C17.8387 21.1628 18.8159 21.4809 19.846 21.4809C19.9659 21.4836 20.0858 21.4781 20.2048 21.4644H20.3312L20.4166 21.4479C20.9557 21.3861 21.485 21.2622 21.9935 21.0788C22.1031 21.0385 22.1918 20.958 22.2401 20.8549C22.2884 20.7518 22.2925 20.6344 22.2514 20.5284C22.2317 20.4757 22.2012 20.4274 22.1619 20.3862C22.1225 20.345 22.0751 20.3118 22.0223 20.2885C21.9695 20.2652 21.9124 20.2522 21.8544 20.2504C21.7963 20.2486 21.7385 20.258 21.6843 20.2779C21.3506 20.3977 21.0079 20.4924 20.6592 20.5614C20.608 19.5727 20.883 18.757 21.4485 18.1884C22.0481 17.5705 22.9399 17.2871 23.9513 17.3876C24.0686 17.3985 24.1857 17.364 24.2767 17.2917C24.3676 17.2194 24.4251 17.1152 24.4365 17.002C24.4478 16.8888 24.412 16.7759 24.3371 16.6881C24.2621 16.6004 24.154 16.5449 24.0367 16.534C23.4508 16.4665 22.8567 16.5276 22.2987 16.7128C21.7407 16.898 21.2334 17.2025 20.8147 17.6035C20.2834 18.139 19.6991 19.0865 19.7897 20.6619C19.1063 20.6454 18.6075 20.4444 18.2982 20.1675C18.3854 20.1511 18.4691 20.1164 18.5391 20.1C18.6483 20.0585 18.7372 19.9787 18.7879 19.8766C18.8386 19.7745 18.8474 19.6577 18.8125 19.5496C18.7955 19.4948 18.7671 19.4438 18.7291 19.3999C18.6911 19.356 18.6442 19.32 18.5913 19.2941C18.5384 19.2682 18.4806 19.2529 18.4214 19.2493C18.3622 19.2456 18.3029 19.2536 18.247 19.2727H18.2385C18.1151 19.3145 17.989 19.3481 17.8609 19.3733C17.7755 18.7388 18.1189 18.0204 18.8381 17.3958C18.9267 17.3219 18.9814 17.2172 18.9903 17.1046C18.9993 16.9919 18.9618 16.8804 18.8859 16.7944C18.8486 16.7522 18.803 16.7176 18.7517 16.6925C18.7004 16.6674 18.6445 16.6524 18.5872 16.6482C18.5298 16.6441 18.4722 16.651 18.4177 16.6684C18.3631 16.6858 18.3126 16.7135 18.2692 16.7499L18.2555 16.7598C17.3296 17.5623 16.8666 18.5312 16.9708 19.4342C16.2757 19.401 15.6016 19.1937 15.0147 18.8328C15.1531 18.6317 15.3069 18.4307 15.4606 18.2478V18.2313C15.7521 17.8927 16.0797 17.5845 16.4378 17.3118C16.5382 17.2547 16.611 17.1617 16.6404 17.053C16.6699 16.9443 16.6536 16.8288 16.595 16.7317C16.5665 16.6837 16.5284 16.6416 16.4829 16.6078C16.4375 16.5741 16.3855 16.5493 16.33 16.5351C16.2746 16.5208 16.2168 16.5173 16.1599 16.5248C16.103 16.5322 16.0483 16.5505 15.9988 16.5785L15.9748 16.5933C15.9496 16.6064 15.9266 16.6231 15.9065 16.6428C15.6125 16.8665 15.3377 17.1129 15.0848 17.3794C14.8093 17.1313 14.5926 16.8289 14.4493 16.4928C15.8553 16.1418 16.9179 15.3739 17.468 14.3506C17.8252 14.3325 18.1805 14.2879 18.5306 14.2171C18.3068 15.0855 18.3239 16.122 19.8512 16.7235C19.9058 16.7434 19.9636 16.7546 20.022 16.7565C20.1383 16.7578 20.2505 16.7147 20.334 16.6366C20.4175 16.5585 20.4656 16.4517 20.4679 16.3395C20.4705 16.2536 20.4454 16.169 20.3962 16.0973C20.3469 16.0256 20.2759 15.9704 20.1928 15.9391C19.1131 15.5041 19.1986 14.9867 19.5419 13.9617C19.747 13.8958 19.9366 13.8282 20.1416 13.7442C20.4113 14.2761 20.8756 14.6929 21.4451 14.9141C21.8059 15.0481 22.1894 15.1163 22.576 15.1152C23.3508 15.0962 24.1119 14.9134 24.8055 14.5796C25.0634 14.3621 25.1471 14.1116 25.0446 13.8958V13.9106Z" fill="white"/>
<path d="M173.027 17.8424H172.685V18.271H173.027C173.085 18.272 173.142 18.2514 173.185 18.2134C173.228 18.1753 173.255 18.1228 173.259 18.0666C173.256 18.0083 173.23 17.9533 173.187 17.9119C173.144 17.8706 173.087 17.8459 173.027 17.8424ZM173.217 18.8842L172.899 18.4144H172.687V18.8842H172.516V17.6989H173.029C173.08 17.6967 173.132 17.7046 173.18 17.722C173.229 17.7395 173.273 17.7661 173.31 17.8004C173.348 17.8348 173.378 17.876 173.398 17.9217C173.419 17.9675 173.43 18.0167 173.43 18.0666C173.431 18.1521 173.399 18.2349 173.34 18.299C173.281 18.3632 173.2 18.4043 173.112 18.4144L173.454 18.8842H173.217ZM172.921 17.4006C172.683 17.4104 172.459 17.5085 172.294 17.6742C172.13 17.8399 172.038 18.0605 172.038 18.2899C172.038 18.5194 172.13 18.74 172.294 18.9057C172.459 19.0714 172.683 19.1694 172.921 19.1793C173.164 19.1781 173.397 19.0858 173.571 18.9218C173.745 18.7578 173.845 18.5351 173.852 18.3007C173.855 18.1819 173.832 18.0639 173.786 17.9537C173.741 17.8435 173.672 17.7434 173.585 17.6593C173.498 17.5752 173.395 17.509 173.28 17.4645C173.166 17.4201 173.044 17.3983 172.921 17.4006ZM172.921 19.3425C172.707 19.3429 172.498 19.2819 172.32 19.1674C172.141 19.0528 172.003 18.8899 171.921 18.6991C171.838 18.5084 171.817 18.2984 171.859 18.0958C171.9 17.8933 172.003 17.7072 172.155 17.5611C172.306 17.4151 172.499 17.3157 172.709 17.2755C172.919 17.2353 173.136 17.2561 173.334 17.3352C173.532 17.4144 173.7 17.5484 173.819 17.7203C173.938 17.8921 174.001 18.0941 174.001 18.3007C174.002 18.4378 173.975 18.5738 173.921 18.7007C173.867 18.8276 173.787 18.9429 173.687 19.0398C173.587 19.1368 173.467 19.2135 173.336 19.2655C173.204 19.3174 173.063 19.3436 172.921 19.3425Z" fill="white"/>
<path d="M168.385 19.1705L162.963 13.225L161.523 14.7575V19.1705H160.4V6.52319H161.523V13.4491L167.856 6.52319H169.275L163.704 12.5511L169.805 19.1705H168.385Z" fill="white"/>
<path d="M147.521 19.1705V6.52319H155.846V7.50367H148.644V12.2034H155.718V13.1838H148.644V18.19H155.846V19.1705H147.521Z" fill="white"/>
<path d="M138.351 19.1705V7.50367H134.051V6.52319H143.775V7.50367H139.495V19.1705H138.351Z" fill="white"/>
<path d="M55.2806 7.68823L52.1662 15.0838H58.3727L55.2806 7.68823ZM60.047 19.1705L58.7537 16.0643H51.8057L50.5142 19.1705H49.2227L54.6023 6.52319H55.9998L61.3812 19.1705H60.047Z" fill="white"/>
<path d="M107.509 19.1705L99.2474 8.30123V19.1705H98.125V6.52319H99.2696L107.487 17.2491V6.52319H108.611V19.1705H107.509Z" fill="white"/>
<path d="M88.7025 7.68823L85.5915 15.0838H91.798L88.7025 7.68823ZM93.4688 19.1705L92.1756 16.0643H85.2276L83.9361 19.1705H82.6445L88.0242 6.52319H89.4217L94.8031 19.1705H93.4688Z" fill="white"/>
<path d="M78.9369 6.52319H77.8145V19.1705H78.9369V6.52319Z" fill="white"/>
<path d="M72.414 10.221C72.414 8.62751 71.2489 7.50367 69.5098 7.50367H65.8265V12.9597H69.5132C71.2489 12.9597 72.4174 11.8062 72.4174 10.221H72.414ZM72.3969 19.1705L68.7102 13.9402H65.806V19.1705H64.6836V6.52319H69.5969C71.8639 6.52319 73.6013 7.91234 73.6013 10.221C73.6013 12.5296 71.9271 13.7968 69.9574 13.8578L73.7483 19.1705H72.3969Z" fill="white"/>
<path d="M118.378 7.68823L115.284 15.0838H121.491L118.378 7.68823ZM123.144 19.1705L121.851 16.0643H114.903L113.61 19.1705H112.318L117.698 6.52319H119.096L124.477 19.1705H123.144Z" fill="white"/>
<path d="M44.7124 19.1705V7.89256L39.9255 19.1705H39.5018L34.6927 7.89256V19.1705H33.5703V6.52319H35.2428L39.7136 17.0448L44.1623 6.52319H45.8348V19.1705H44.7124Z" fill="white"/>
</svg>
