<svg width="158" height="38" viewBox="0 0 158 38" fill="none" xmlns="http://www.w3.org/2000/svg">
<g clip-path="url(#clip0_551_12204)">
<path d="M120.301 38H157.901V0H120.301V38Z" fill="#2B3283"/>
<path d="M80.1992 38H117.899V0H80.1992V38Z" fill="#0CA19D"/>
<path d="M40.1992 38H77.7992V0H40.1992V38Z" fill="#C41D63"/>
<path d="M0 38H37.7V0H0V38Z" fill="#1565A0"/>
<path d="M93.3996 7.69997V30.5H92.7996V31.3H96.2996V30.5H95.6996V7.69997H96.2996V6.89997H92.7996V7.69997H93.3996ZM97.8996 7.69997V30.5H97.2996V31.3H100.8V30.5H100.2V7.69997H100.8V6.89997H97.2996V7.69997H97.8996ZM101.8 31.3H105.3V30.5H104.7V7.69997H105.3V6.89997H101.8V7.69997H102.4V30.5H101.8V31.3ZM58.6996 17.1L63.6996 26.7H54.0996L58.6996 17.1ZM71.1996 31.3L58.4996 6.89997L46.7996 31.3H71.1996ZM28.9996 7.69997V6.99997H22.7996V7.59997C23.5996 7.69997 23.7996 7.99997 23.7996 8.79997V23.2H23.6996C23.1996 21.1 15.3996 8.79997 15.3996 7.99997C15.3996 7.69997 15.5996 7.59997 16.1996 7.59997V6.99997H8.69961V7.59997C9.29961 7.69997 9.59961 7.99997 9.59961 8.79997V29.3C9.59961 30.1 9.39961 30.4 8.59961 30.5V31.1H14.7996V30.5C14.0996 30.4 13.7996 30.1 13.7996 29.3V13.5H13.8996C15.3996 17.7 23.0996 29.2 23.0996 29.9C23.0996 30.4 22.6996 30.5 22.1996 30.5V31.1H28.7996V30.5C28.1996 30.4 27.9996 30.2 27.9996 29.3V8.89997C27.9996 8.09997 28.1996 7.79997 28.9996 7.69997ZM138.6 14.1C138.7 14.3 137.9 14.6 137.3 14.7C137.8 14.1 138.4 13.6 138.6 14.1ZM135 16.2C135.1 16.4 134 16.3 133.4 16.4C133.9 15.9 134.8 15.7 135 16.2ZM142.4 15.2C142.8 15 144 14.8 144.1 15C143.9 15.1 143.7 15.3 143.7 15.3C143.6 15.1 142.4 15.2 142.4 15.2ZM143.7 20.4C143.6 21.1 143 21.7 142.5 22.1C142.7 21.5 143.3 20.9 143.7 20.4ZM142.3 24.8C142.5 24.5 142.7 24.3 142.8 24.2C143 24.3 143.1 24.6 143.2 24.7C142.4 25.7 142.2 25.8 141.6 26.3C141.7 25.8 142.2 25.2 142.3 24.8ZM140.1 26C139.1 27 138.5 27.5 137.2 28.5C137.9 27.7 139.1 26.8 140.1 26ZM136.7 27.1C135.7 28.1 135.1 28.6 133.8 29.6C134.5 28.8 135.7 27.8 136.7 27.1ZM134.7 27.6C134.3 28.1 133.5 28.9 133.4 28.6C133.3 28.4 134.2 27.9 134.7 27.6ZM144.4 19.7C144.7 19.1 144.8 18.6 144.8 17.9C144.8 17.4 144.4 16.8 144.6 16.6C145 16.5 145.2 17.2 145.2 17.8C145.3 18.5 145.1 19.3 144.4 19.7ZM144.3 5.19997C143 4.79997 142.8 4.99997 142 5.19997C141.8 5.19997 142 4.79997 141.8 4.79997C141.6 4.69997 141.2 4.89997 141.2 4.89997L140.6 5.29997C139.5 5.99997 138.1 7.09997 138 7.29997C138.1 7.49997 138.4 7.59997 138.4 7.59997C138.4 7.59997 134.4 10.7 134.1 11.3C134.2 11.4 134.2 11.4 134.2 11.5C134.4 11.8 133.5 11.8 133.5 12.2C133.5 12.4 133.6 12.5 133.6 12.6L132.4 13.6L132.1 13.7C131.9 13.9 130.3 15.9 130.3 16.5C130.4 16.6 130.6 16.9 130.6 16.9C130.3 17.2 130.1 16.8 129.8 17C129.3 17.2 129.2 17.6 129.2 18C129.2 18.3 129.5 18.5 129.5 18.8C129.5 19.2 129.2 19.4 129.3 19.8C129.3 20.4 129.5 20.8 130 21.1C130.3 21.3 130.6 21.2 130.9 21.4C131.2 21.6 131.2 21.9 131.5 22C132 22.2 132.6 21.9 133.2 21.8L133.6 22.2C134.6 21.6 139.7 19.9 139.7 19.9V19.6C139.7 19.6 141.8 19 142.1 19.3C142 20.4 141.3 21 141.5 21.3C141.7 21.5 142.1 20.9 142.2 20.6H142.6C142.9 20.4 143.5 19.4 143.7 19.3C143.6 20 142 22.4 141.5 22.8V23.1C140.3 24.1 137.9 26.4 137.4 26.9C137.1 27.1 136.6 27.2 136.5 27C136.3 26.8 137.9 25.8 138.1 25.4C138.2 25.2 138 25.2 138 25C138 25 139.8 23.5 139.6 23C139.1 23.8 134.7 27.7 133.2 28.4C133.1 28.2 133 27.7 132.7 27.7C132.5 27.7 132.5 28.3 132.4 28.6L131.1 29.4L131.3 29.9C131.2 29.9 131.1 29.9 131 30.1C131 30.4 131 30.7 131.1 30.9C131.2 31.2 131.5 30.9 131.8 30.9C131.6 31.2 131.6 31.4 131.5 31.7C131.5 31.9 131.3 32.2 131.5 32.3C131.7 32.5 131.9 32.3 132.1 32.2C132.1 32.2 132.4 32.8 132.7 33C132.6 33.1 133.5 33.3 133.3 33.8C133.2 34.1 134.4 34.7 136.6 33.4L137.1 32.9L136.7 32.2C136.7 32.2 138.5 30.7 138.6 30.2C138.2 30.3 136.8 31.4 136.8 31.4L139.2 28.9L139.6 29.2L140.4 28.5L140.8 28.6L141.3 28.3H141.6C142.4 27.3 143.1 26.5 143.2 26.3C143.4 25.9 143.4 25.7 143.4 25.3C143.8 24.9 144.9 23.7 144.9 23.7L144.6 23.4C144.9 23.2 145.7 22.1 145.7 22.1C145.7 22.2 145.9 22.6 146 22.6C145.9 23.1 144.4 25.5 143.9 25.9C144.4 25.9 145.7 24.5 146.4 23.3C147 22.3 147.1 21.6 147.4 20.4C147.6 19.4 147.7 18.9 147.8 17.9H148.3C147.8 16.1 146 15.8 146.1 15.4C146.2 15.1 146.8 15.4 147.4 15.6C146.9 14.5 146.4 14.9 146.1 14.7C145.7 14.4 145.7 14.1 145.3 13.8C144.4 13.2 143.4 13.6 142.6 13.7C142.9 13.9 144.6 13.7 144.8 14C144.6 14.2 144.5 14.1 144.4 14.3C144.3 14.4 144.4 14.6 144.4 14.8C144 14.6 139.2 15.6 138.6 15.8C138.9 15.4 142.6 14.4 142.6 14.4L142.3 13.8C142.1 13.7 139.5 14.4 139.5 14.4C139.5 14.4 139.9 13.7 140.3 13.7C140.4 13.7 140.7 13.8 140.7 13.8C141.3 13.1 145.2 10.5 145.8 9.99997C145.1 10.1 145.2 9.79997 145.5 9.39997C145.1 9.49997 145.1 9.39997 145.3 8.99997C145.2 8.99997 145.1 8.99997 145 8.89997C144.8 8.69997 145.3 8.49997 145.2 8.29997C145.1 7.99997 144.8 7.99997 144.7 7.79997C144.5 7.39997 144.7 6.89997 144.7 6.69997C144.6 6.39997 144.3 6.49997 144.2 6.09997C144.1 5.49997 144.3 5.39997 144.3 5.19997ZM146.8 22.6C147.2 21.9 147.8 20.2 147.7 19.6C147.4 20.2 146.8 22.3 146.8 22.6ZM148.2 9.69997C148.3 9.49997 147.8 9.29997 147.5 9.29997C147.2 9.29997 146.6 9.39997 146.7 9.59997C146.7 9.79997 147.2 9.69997 147.4 9.69997C147.7 9.79997 148.1 9.99997 148.2 9.69997ZM133.1 12.2C132.9 12.4 133.1 11.7 133.1 11.7C132.7 12 130.3 14.2 130.2 14.9C130.3 15.1 130.6 15.1 130.6 15.1C130.8 14.6 133.1 12.2 133.1 12.2ZM131.3 28C131.8 27.8 132.4 27.4 132.2 27.2C132 27 131.5 27.7 131.3 28ZM131.4 28.6C131.6 28.5 132.1 28.3 131.9 28.1C131.7 27.9 131.4 28.4 131.4 28.6ZM140.1 22.9C139.7 23.1 139 23.9 138.8 24.3C139.5 24 140.2 23.5 140.1 22.9ZM141 22.8C141.6 22.1 142.1 21.8 142 21.3C141.5 21.4 141 22.5 141 22.8ZM153.8 32.8C153.8 33 153.7 33.1 153.4 33.1H152.9V32.5H153.4C153.6 32.5 153.8 32.6 153.8 32.8ZM154.3 34.2L153.8 33.4C154.1 33.3 154.3 33.1 154.3 32.7C154.3 32.2 154 32 153.5 32H152.5V34.2H153V33.5H153.4L153.9 34.2H154.3ZM154.9 33.2C154.9 34.2 154.3 34.9 153.2 34.9C152.2 34.9 151.6 34.2 151.6 33.2C151.6 32.2 152.2 31.5 153.3 31.5C154.3 31.5 154.9 32.2 154.9 33.2ZM155.3 33.2C155.3 32.1 154.4 31.2 153.3 31.2C152.2 31.2 151.3 32.1 151.3 33.3C151.3 34.4 152.2 35.3 153.3 35.3C154.4 35.3 155.3 34.3 155.3 33.2Z" fill="white"/>
</g>
<defs>
<clipPath id="clip0_551_12204">
<rect width="158" height="38" fill="white"/>
</clipPath>
</defs>
</svg>
