<svg width="380" height="38" viewBox="0 0 380 38" fill="none" xmlns="http://www.w3.org/2000/svg">
<g clip-path="url(#clip0_549_11353)">
<path d="M120.301 38H157.901V0H120.301V38Z" fill="#2B3283"/>
<path d="M80.1992 38H117.899V0H80.1992V38Z" fill="#0CA19D"/>
<path d="M40.1992 38H77.7992V0H40.1992V38Z" fill="#C41D63"/>
<path d="M0 38H37.7V0H0V38Z" fill="#1565A0"/>
<path d="M93.3996 7.69997V30.5H92.7996V31.3H96.2996V30.5H95.6996V7.69997H96.2996V6.89997H92.7996V7.69997H93.3996ZM97.8996 7.69997V30.5H97.2996V31.3H100.8V30.5H100.2V7.69997H100.8V6.89997H97.2996V7.69997H97.8996ZM101.8 31.3H105.3V30.5H104.7V7.69997H105.3V6.89997H101.8V7.69997H102.4V30.5H101.8V31.3ZM58.6996 17.1L63.6996 26.7H54.0996L58.6996 17.1ZM71.1996 31.3L58.4996 6.89997L46.7996 31.3H71.1996ZM28.9996 7.69997V6.99997H22.7996V7.59997C23.5996 7.69997 23.7996 7.99997 23.7996 8.79997V23.2H23.6996C23.1996 21.1 15.3996 8.79997 15.3996 7.99997C15.3996 7.69997 15.5996 7.59997 16.1996 7.59997V6.99997H8.69961V7.59997C9.29961 7.69997 9.59961 7.99997 9.59961 8.79997V29.3C9.59961 30.1 9.39961 30.4 8.59961 30.5V31.1H14.7996V30.5C14.0996 30.4 13.7996 30.1 13.7996 29.3V13.5H13.8996C15.3996 17.7 23.0996 29.2 23.0996 29.9C23.0996 30.4 22.6996 30.5 22.1996 30.5V31.1H28.7996V30.5C28.1996 30.4 27.9996 30.2 27.9996 29.3V8.89997C27.9996 8.09997 28.1996 7.79997 28.9996 7.69997ZM138.6 14.1C138.7 14.3 137.9 14.6 137.3 14.7C137.8 14.1 138.4 13.6 138.6 14.1ZM135 16.2C135.1 16.4 134 16.3 133.4 16.4C133.9 15.9 134.8 15.7 135 16.2ZM142.4 15.2C142.8 15 144 14.8 144.1 15C143.9 15.1 143.7 15.3 143.7 15.3C143.6 15.1 142.4 15.2 142.4 15.2ZM143.7 20.4C143.6 21.1 143 21.7 142.5 22.1C142.7 21.5 143.3 20.9 143.7 20.4ZM142.3 24.8C142.5 24.5 142.7 24.3 142.8 24.2C143 24.3 143.1 24.6 143.2 24.7C142.4 25.7 142.2 25.8 141.6 26.3C141.7 25.8 142.2 25.2 142.3 24.8ZM140.1 26C139.1 27 138.5 27.5 137.2 28.5C137.9 27.7 139.1 26.8 140.1 26ZM136.7 27.1C135.7 28.1 135.1 28.6 133.8 29.6C134.5 28.8 135.7 27.8 136.7 27.1ZM134.7 27.6C134.3 28.1 133.5 28.9 133.4 28.6C133.3 28.4 134.2 27.9 134.7 27.6ZM144.4 19.7C144.7 19.1 144.8 18.6 144.8 17.9C144.8 17.4 144.4 16.8 144.6 16.6C145 16.5 145.2 17.2 145.2 17.8C145.3 18.5 145.1 19.3 144.4 19.7ZM144.3 5.19997C143 4.79997 142.8 4.99997 142 5.19997C141.8 5.19997 142 4.79997 141.8 4.79997C141.6 4.69997 141.2 4.89997 141.2 4.89997L140.6 5.29997C139.5 5.99997 138.1 7.09997 138 7.29997C138.1 7.49997 138.4 7.59997 138.4 7.59997C138.4 7.59997 134.4 10.7 134.1 11.3C134.2 11.4 134.2 11.4 134.2 11.5C134.4 11.8 133.5 11.8 133.5 12.2C133.5 12.4 133.6 12.5 133.6 12.6L132.4 13.6L132.1 13.7C131.9 13.9 130.3 15.9 130.3 16.5C130.4 16.6 130.6 16.9 130.6 16.9C130.3 17.2 130.1 16.8 129.8 17C129.3 17.2 129.2 17.6 129.2 18C129.2 18.3 129.5 18.5 129.5 18.8C129.5 19.2 129.2 19.4 129.3 19.8C129.3 20.4 129.5 20.8 130 21.1C130.3 21.3 130.6 21.2 130.9 21.4C131.2 21.6 131.2 21.9 131.5 22C132 22.2 132.6 21.9 133.2 21.8L133.6 22.2C134.6 21.6 139.7 19.9 139.7 19.9V19.6C139.7 19.6 141.8 19 142.1 19.3C142 20.4 141.3 21 141.5 21.3C141.7 21.5 142.1 20.9 142.2 20.6H142.6C142.9 20.4 143.5 19.4 143.7 19.3C143.6 20 142 22.4 141.5 22.8V23.1C140.3 24.1 137.9 26.4 137.4 26.9C137.1 27.1 136.6 27.2 136.5 27C136.3 26.8 137.9 25.8 138.1 25.4C138.2 25.2 138 25.2 138 25C138 25 139.8 23.5 139.6 23C139.1 23.8 134.7 27.7 133.2 28.4C133.1 28.2 133 27.7 132.7 27.7C132.5 27.7 132.5 28.3 132.4 28.6L131.1 29.4L131.3 29.9C131.2 29.9 131.1 29.9 131 30.1C131 30.4 131 30.7 131.1 30.9C131.2 31.2 131.5 30.9 131.8 30.9C131.6 31.2 131.6 31.4 131.5 31.7C131.5 31.9 131.3 32.2 131.5 32.3C131.7 32.5 131.9 32.3 132.1 32.2C132.1 32.2 132.4 32.8 132.7 33C132.6 33.1 133.5 33.3 133.3 33.8C133.2 34.1 134.4 34.7 136.6 33.4L137.1 32.9L136.7 32.2C136.7 32.2 138.5 30.7 138.6 30.2C138.2 30.3 136.8 31.4 136.8 31.4L139.2 28.9L139.6 29.2L140.4 28.5L140.8 28.6L141.3 28.3H141.6C142.4 27.3 143.1 26.5 143.2 26.3C143.4 25.9 143.4 25.7 143.4 25.3C143.8 24.9 144.9 23.7 144.9 23.7L144.6 23.4C144.9 23.2 145.7 22.1 145.7 22.1C145.7 22.2 145.9 22.6 146 22.6C145.9 23.1 144.4 25.5 143.9 25.9C144.4 25.9 145.7 24.5 146.4 23.3C147 22.3 147.1 21.6 147.4 20.4C147.6 19.4 147.7 18.9 147.8 17.9H148.3C147.8 16.1 146 15.8 146.1 15.4C146.2 15.1 146.8 15.4 147.4 15.6C146.9 14.5 146.4 14.9 146.1 14.7C145.7 14.4 145.7 14.1 145.3 13.8C144.4 13.2 143.4 13.6 142.6 13.7C142.9 13.9 144.6 13.7 144.8 14C144.6 14.2 144.5 14.1 144.4 14.3C144.3 14.4 144.4 14.6 144.4 14.8C144 14.6 139.2 15.6 138.6 15.8C138.9 15.4 142.6 14.4 142.6 14.4L142.3 13.8C142.1 13.7 139.5 14.4 139.5 14.4C139.5 14.4 139.9 13.7 140.3 13.7C140.4 13.7 140.7 13.8 140.7 13.8C141.3 13.1 145.2 10.5 145.8 9.99997C145.1 10.1 145.2 9.79997 145.5 9.39997C145.1 9.49997 145.1 9.39997 145.3 8.99997C145.2 8.99997 145.1 8.99997 145 8.89997C144.8 8.69997 145.3 8.49997 145.2 8.29997C145.1 7.99997 144.8 7.99997 144.7 7.79997C144.5 7.39997 144.7 6.89997 144.7 6.69997C144.6 6.39997 144.3 6.49997 144.2 6.09997C144.1 5.49997 144.3 5.39997 144.3 5.19997ZM146.8 22.6C147.2 21.9 147.8 20.2 147.7 19.6C147.4 20.2 146.8 22.3 146.8 22.6ZM148.2 9.69997C148.3 9.49997 147.8 9.29997 147.5 9.29997C147.2 9.29997 146.6 9.39997 146.7 9.59997C146.7 9.79997 147.2 9.69997 147.4 9.69997C147.7 9.79997 148.1 9.99997 148.2 9.69997ZM133.1 12.2C132.9 12.4 133.1 11.7 133.1 11.7C132.7 12 130.3 14.2 130.2 14.9C130.3 15.1 130.6 15.1 130.6 15.1C130.8 14.6 133.1 12.2 133.1 12.2ZM131.3 28C131.8 27.8 132.4 27.4 132.2 27.2C132 27 131.5 27.7 131.3 28ZM131.4 28.6C131.6 28.5 132.1 28.3 131.9 28.1C131.7 27.9 131.4 28.4 131.4 28.6ZM140.1 22.9C139.7 23.1 139 23.9 138.8 24.3C139.5 24 140.2 23.5 140.1 22.9ZM141 22.8C141.6 22.1 142.1 21.8 142 21.3C141.5 21.4 141 22.5 141 22.8ZM153.8 32.8C153.8 33 153.7 33.1 153.4 33.1H152.9V32.5H153.4C153.6 32.5 153.8 32.6 153.8 32.8ZM154.3 34.2L153.8 33.4C154.1 33.3 154.3 33.1 154.3 32.7C154.3 32.2 154 32 153.5 32H152.5V34.2H153V33.5H153.4L153.9 34.2H154.3ZM154.9 33.2C154.9 34.2 154.3 34.9 153.2 34.9C152.2 34.9 151.6 34.2 151.6 33.2C151.6 32.2 152.2 31.5 153.3 31.5C154.3 31.5 154.9 32.2 154.9 33.2ZM155.3 33.2C155.3 32.1 154.4 31.2 153.3 31.2C152.2 31.2 151.3 32.1 151.3 33.3C151.3 34.4 152.2 35.3 153.3 35.3C154.4 35.3 155.3 34.3 155.3 33.2Z" fill="white"/>
<path d="M375.7 27.3C375.7 26.7 376.3 26.2 377.1 26.2C377.8 26.2 378.6 26.5 379.3 26.9L379.8 26.1C379 25.6 378 25.3 377.1 25.3C375.6 25.3 374.6 26.1 374.6 27.4C374.6 28.8 375.9 29.2 377.1 29.5C378.1 29.8 379 30.1 379 30.8C379 31.5 378.4 32 377.5 32C376.6 32 375.7 31.7 374.9 31.1L374.3 31.9C375.1 32.6 376.3 33 377.4 33C378.9 33 380 32.2 380 30.8C380 29.5 378.8 29 377.6 28.7C376.6 28.3 375.7 28 375.7 27.3ZM371.5 32.8H372.6V22.3H371.5V32.8ZM369.6 29.1C369.6 27 368 25.2 365.7 25.2C363.5 25.2 361.8 27 361.8 29.1C361.8 31.2 363.4 33 365.6 33C367.9 33 369.6 31.2 369.6 29.1ZM368.4 29.1C368.4 30.7 367.3 32 365.7 32C364.1 32 363 30.7 363 29.1C363 27.5 364.1 26.2 365.7 26.2C367.2 26.2 368.4 27.5 368.4 29.1ZM360.4 29.1C360.4 27 358.8 25.2 356.5 25.2C354.3 25.2 352.6 27 352.6 29.1C352.6 31.2 354.2 33 356.4 33C358.8 33 360.4 31.2 360.4 29.1ZM359.3 29.1C359.3 30.7 358.2 32 356.6 32C355 32 353.9 30.7 353.9 29.1C353.9 27.5 355 26.2 356.6 26.2C358.1 26.2 359.3 27.5 359.3 29.1ZM349.8 32.8H350.9V28.2C350.9 26.4 349.9 25.2 348.1 25.2C346.8 25.2 346 25.8 345.6 26.6V22.3H344.5V32.8H345.6V28.6C345.6 27.2 346.5 26.3 347.8 26.3C349.1 26.3 349.9 27.2 349.9 28.5V32.8H349.8ZM337.2 29.1C337.2 27.5 338.3 26.2 339.9 26.2C340.9 26.2 341.6 26.7 342.2 27.3L342.9 26.5C342.2 25.8 341.3 25.2 339.9 25.2C337.7 25.2 336.1 27 336.1 29.1C336.1 31.2 337.7 33 339.9 33C341.3 33 342.2 32.4 342.9 31.6L342.2 30.9C341.6 31.5 340.9 32 339.9 32C338.4 32 337.2 30.7 337.2 29.1ZM328.5 25.3C328.5 24.4 329.3 23.7 330.6 23.7C331.6 23.7 332.6 24 333.5 24.8L334.2 23.9C333.2 23.1 332.1 22.7 330.7 22.7C328.8 22.7 327.4 23.8 327.4 25.5C327.4 27.2 328.5 27.9 330.8 28.4C332.9 28.8 333.4 29.4 333.4 30.3C333.4 31.3 332.5 32 331.2 32C329.8 32 328.8 31.5 327.8 30.6L327.1 31.4C328.3 32.5 329.6 33 331.2 33C333.2 33 334.6 31.9 334.6 30.1C334.6 28.5 333.6 27.7 331.3 27.2C329 26.7 328.5 26.2 328.5 25.3ZM319.2 26.3H321.6V25.3H319.2V23.1H318.1V25.3H317.1V26.3H318.1V30.8C318.1 32.3 319 32.9 320.2 32.9C320.7 32.9 321.1 32.8 321.5 32.6V31.7C321.1 31.9 320.8 32 320.4 32C319.7 32 319.2 31.7 319.2 30.8V26.3ZM314.6 32.8H315.7V28.2C315.7 26.4 314.7 25.2 312.9 25.2C311.6 25.2 310.8 25.8 310.4 26.6V25.3H309.3V32.7H310.4V28.5C310.4 27.1 311.3 26.2 312.6 26.2C313.9 26.2 314.7 27.1 314.7 28.4V32.8H314.6ZM311.6 15.6H312.7V11C312.7 9.19998 311.7 7.99998 309.9 7.99998C308.6 7.99998 307.8 8.59998 307.4 9.39998V8.09998H306.3V15.5H307.4V11.3C307.4 9.89998 308.3 8.99998 309.6 8.99998C310.9 8.99998 311.7 9.89998 311.7 11.2V15.6H311.6ZM304.4 11.8C304.4 9.69998 302.8 7.89998 300.5 7.89998C298.3 7.89998 296.6 9.69998 296.6 11.8C296.6 13.9 298.2 15.7 300.4 15.7C302.7 15.7 304.4 14 304.4 11.8ZM303.2 11.9C303.2 13.5 302.1 14.8 300.5 14.8C298.9 14.8 297.8 13.5 297.8 11.9C297.8 10.3 298.9 8.99998 300.5 8.99998C302 8.99998 303.2 10.2 303.2 11.9ZM293.6 6.49998H294.9V5.29998H293.6V6.49998ZM293.6 15.6H294.7V8.09998H293.6V15.6ZM294.5 25.2C292.7 25.2 291 26.6 291 29.1C291 31.6 292.8 33 294.5 33C295.9 33 296.7 32.2 297.3 31.3V32.8H298.4V22.3H297.3V26.8C296.8 26 295.9 25.2 294.5 25.2ZM294.7 26.2C296.1 26.2 297.4 27.3 297.4 29.1C297.4 30.8 296.1 32 294.7 32C293.3 32 292.1 30.9 292.1 29.1C292.1 27.3 293.3 26.2 294.7 26.2ZM289.6 9.09998H292V8.09998H289.6V5.89998H288.5V8.09998H287.5V9.09998H288.5V13.6C288.5 15.1 289.4 15.7 290.6 15.7C291.1 15.7 291.5 15.6 291.9 15.4V14.5C291.5 14.7 291.2 14.8 290.8 14.8C290.1 14.8 289.6 14.5 289.6 13.6V9.09998ZM286.4 25.2C285.1 25.2 284.3 25.8 283.9 26.6V25.3H282.8V32.7H283.9V28.5C283.9 27.1 284.8 26.2 286.1 26.2C287.4 26.2 288.2 27.1 288.2 28.4V32.7H289.3V28.1C289.2 26.4 288.2 25.2 286.4 25.2ZM285 15.6H286.1V11C286.1 8.99998 285 7.99998 282.9 7.99998C281.8 7.99998 281 8.19998 280.2 8.59998L280.5 9.49998C281.2 9.19998 281.9 8.99998 282.8 8.99998C284.2 8.99998 285 9.69998 285 11V11.3C284.3 11.1 283.7 11 282.7 11C280.8 11 279.5 11.8 279.5 13.4C279.5 14.9 280.9 15.7 282.3 15.7C283.6 15.7 284.5 15.1 285 14.4V15.6ZM285 12.8C285 14 283.9 14.8 282.5 14.8C281.5 14.8 280.6 14.3 280.6 13.3C280.6 12.4 281.4 11.8 282.8 11.8C283.7 11.8 284.4 12 285 12.1V12.8ZM276.6 6.49998H277.9V5.29998H276.6V6.49998ZM269.4 11.8C269.4 10.2 270.5 8.89998 272.1 8.89998C273.1 8.89998 273.8 9.39998 274.4 9.99998L275.1 9.19998C274.4 8.49998 273.5 7.89998 272.1 7.89998C269.9 7.89998 268.3 9.69998 268.3 11.8C268.3 13.9 269.9 15.7 272.1 15.7C273.5 15.7 274.4 15.1 275.1 14.3L274.4 13.6C273.8 14.2 273.1 14.7 272.1 14.7C270.5 14.7 269.4 13.5 269.4 11.8ZM266.9 11.8C266.9 9.69998 265.3 7.89998 263 7.89998C260.8 7.89998 259.1 9.69998 259.1 11.8C259.1 13.9 260.7 15.7 262.9 15.7C265.2 15.7 266.9 14 266.9 11.8ZM265.7 11.9C265.7 13.5 264.6 14.8 263 14.8C261.4 14.8 260.3 13.5 260.3 11.9C260.3 10.3 261.4 8.99998 263 8.99998C264.5 8.99998 265.7 10.2 265.7 11.9ZM257.8 13.5C257.8 12.1 256.6 11.7 255.4 11.3C254.4 11 253.5 10.7 253.5 9.99998C253.5 9.39998 254.1 8.89998 254.9 8.89998C255.6 8.89998 256.4 9.19998 257.1 9.59998L257.6 8.79998C256.8 8.29998 255.8 7.99998 254.9 7.99998C253.4 7.99998 252.4 8.79998 252.4 10.1C252.4 11.5 253.7 11.9 254.9 12.2C255.9 12.5 256.8 12.8 256.8 13.5C256.8 14.2 256.2 14.7 255.3 14.7C254.4 14.7 253.5 14.4 252.7 13.8L252.1 14.6C252.9 15.3 254.1 15.7 255.2 15.7C256.6 15.7 257.8 14.9 257.8 13.5ZM250.8 13.5C250.8 12.1 249.6 11.7 248.4 11.3C247.4 11 246.5 10.7 246.5 9.99998C246.5 9.39998 247.1 8.89998 247.9 8.89998C248.6 8.89998 249.4 9.19998 250.1 9.59998L250.6 8.79998C249.9 8.29998 248.9 7.99998 248 7.99998C246.5 7.99998 245.5 8.79998 245.5 10.1C245.5 11.5 246.8 11.9 248 12.2C249 12.5 249.9 12.8 249.9 13.5C249.9 14.2 249.3 14.7 248.4 14.7C247.5 14.7 246.6 14.4 245.8 13.8L245.2 14.6C246 15.3 247.2 15.7 248.3 15.7C249.6 15.7 250.8 14.9 250.8 13.5ZM243.9 32.8H245V28.2C245 26.4 244 25.2 242.2 25.2C240.9 25.2 240.1 25.8 239.7 26.6V25.3H238.6V32.7H239.7V28.5C239.7 27.1 240.6 26.2 241.9 26.2C243.2 26.2 244 27.1 244 28.4V32.8H243.9ZM242.7 15.6H243.9L239.3 5.49998H238.2L233.6 15.6H234.8L236 12.9H241.5L242.7 15.6ZM241.1 11.9H236.5L238.8 6.79998L241.1 11.9ZM230.1 23.1C230.1 22.6 229.7 22.1 228.7 22.1C228 22.1 227.5 22.3 227 22.7C226.1 23.4 225.6 24.3 225.3 25.8L225.2 26.3L223.6 26.7L223.5 27H225L224 33C223.8 34 223.6 34.8 223.2 35.2C222.9 34.8 222.6 34.5 222.1 34.5C221.6 34.5 221.3 34.8 221.3 35.1C221.3 35.5 221.6 35.9 222.3 35.9C222.8 35.9 223.3 35.7 223.8 35.2C224.7 34.3 225 33.6 225.4 31.5L226.2 27.1H227.8L227.9 26.4H226.3L226.4 25.7C226.7 23.8 227.3 22.7 228.3 22.7C228.4 23.5 228.8 23.9 229.3 23.9C229.8 23.8 230.1 23.5 230.1 23.1ZM227.1 15.6H228.2V5.09998H227.1V15.6ZM223.8 15.6H224.9V11C224.9 8.99998 223.8 7.99998 221.7 7.99998C220.6 7.99998 219.8 8.19998 219 8.59998L219.3 9.49998C220 9.19998 220.7 8.99998 221.6 8.99998C223 8.99998 223.8 9.69998 223.8 11V11.3C223.1 11.1 222.5 11 221.5 11C219.6 11 218.3 11.8 218.3 13.4C218.3 14.9 219.7 15.7 221.1 15.7C222.4 15.7 223.3 15.1 223.8 14.4V15.6ZM223.8 12.8C223.8 14 222.7 14.8 221.3 14.8C220.3 14.8 219.4 14.3 219.4 13.3C219.4 12.4 220.2 11.8 221.6 11.8C222.5 11.8 223.2 12 223.8 12.1V12.8ZM220.5 26.1C218.2 26.1 216.6 28.5 216.6 30.5C216.6 32.1 217.6 32.9 218.8 32.9C221.1 32.9 222.7 30.5 222.7 28.5C222.7 27 221.7 26.1 220.5 26.1ZM220 26.7C220.9 26.7 221.5 27.6 221.5 28.9C221.5 30.4 220.7 32.4 219.3 32.4C218.4 32.4 217.8 31.5 217.8 30.2C217.9 28.7 218.7 26.7 220 26.7ZM215.6 15.6H216.7V11C216.7 9.19998 215.7 7.99998 213.9 7.99998C212.6 7.99998 211.8 8.59998 211.4 9.39998V8.09998H210.3V15.5H211.4V11.3C211.4 9.89998 212.3 8.99998 213.6 8.99998C214.9 8.99998 215.7 9.89998 215.7 11.2V15.6H215.6ZM208.3 11.8C208.3 9.69998 206.7 7.89998 204.4 7.89998C202.2 7.89998 200.5 9.69998 200.5 11.8C200.5 13.9 202.1 15.7 204.3 15.7C206.7 15.7 208.3 14 208.3 11.8ZM207.2 11.9C207.2 13.5 206.1 14.8 204.5 14.8C202.9 14.8 201.8 13.5 201.8 11.9C201.8 10.3 202.9 8.99998 204.5 8.99998C206 8.99998 207.2 10.2 207.2 11.9ZM197.6 6.49998H198.9V5.29998H197.6V6.49998ZM193.6 9.09998H196V8.09998H193.6V5.89998H192.5V8.09998H191.5V9.09998H192.5V13.6C192.5 15.1 193.4 15.7 194.6 15.7C195.1 15.7 195.5 15.6 195.9 15.4V14.5C195.5 14.7 195.2 14.8 194.8 14.8C194.1 14.8 193.6 14.5 193.6 13.6V9.09998ZM189 15.6H190.1V11C190.1 8.99998 189 7.99998 186.9 7.99998C185.8 7.99998 185 8.19998 184.2 8.59998L184.5 9.49998C185.2 9.19998 185.9 8.99998 186.8 8.99998C188.2 8.99998 189 9.69998 189 11V11.3C188.3 11.1 187.7 11 186.7 11C184.8 11 183.5 11.8 183.5 13.4C183.5 14.9 184.9 15.7 186.3 15.7C187.6 15.7 188.5 15.1 189 14.4V15.6ZM189 12.8C189 14 187.9 14.8 186.5 14.8C185.5 14.8 184.6 14.3 184.6 13.3C184.6 12.4 185.4 11.8 186.8 11.8C187.7 11.8 188.4 12 189 12.1V12.8ZM180.6 15.6H181.5V5.59998H180.4V13.6L174.1 5.59998H173V15.6H174.1V7.29998L180.6 15.6ZM198.7 8.09998H197.6V15.5H198.7V8.09998ZM235.9 22.7H234.8V32.7H235.9V22.7ZM246.8 29.1C246.8 31.6 248.6 33 250.3 33C251.7 33 252.5 32.2 253.1 31.3V32.8H254.2V22.3H253.1V26.8C252.5 26 251.6 25.2 250.3 25.2C248.5 25.2 246.8 26.6 246.8 29.1ZM247.9 29.1C247.9 27.3 249.1 26.2 250.5 26.2C251.9 26.2 253.2 27.3 253.2 29.1C253.2 30.8 251.9 32 250.5 32C249.1 32 247.9 30.8 247.9 29.1ZM256.1 29.1C256.1 31.4 257.8 33 259.8 33C261.2 33 262.1 32.4 262.9 31.6L262.2 31C261.6 31.6 260.9 32 259.9 32C258.6 32 257.4 31.1 257.3 29.5H263.2V29.2C263.2 27 261.9 25.3 259.7 25.3C257.6 25.2 256.1 26.9 256.1 29.1ZM257.2 28.7C257.3 27.3 258.3 26.2 259.6 26.2C261.1 26.2 261.9 27.4 262 28.7H257.2ZM266.1 25.4H265V35.1H266.1V31.4C266.7 32.2 267.6 33 268.9 33C270.7 33 272.4 31.6 272.4 29.1C272.4 26.6 270.6 25.2 268.9 25.2C267.5 25.2 266.7 26 266.1 26.9V25.4ZM266 29.1C266 27.4 267.3 26.2 268.7 26.2C270.1 26.2 271.3 27.3 271.3 29.1C271.3 30.9 270.1 32 268.7 32C267.3 32 266 30.8 266 29.1ZM276.7 15.6H277.8V8.09998H276.7V15.6ZM273.9 29.1C273.9 31.4 275.6 33 277.6 33C279 33 279.9 32.4 280.7 31.6L280 31C279.4 31.6 278.7 32 277.7 32C276.4 32 275.2 31.1 275.1 29.5H281V29.2C281 27 279.7 25.3 277.5 25.3C275.4 25.2 273.9 26.9 273.9 29.1ZM275 28.7C275.1 27.3 276.1 26.2 277.4 26.2C278.9 26.2 279.7 27.4 279.8 28.7H275ZM300.4 29.1C300.4 31.4 302.1 33 304.1 33C305.5 33 306.4 32.4 307.2 31.6L306.5 31C305.9 31.6 305.2 32 304.2 32C302.9 32 301.7 31.1 301.6 29.5H307.5V29.2C307.5 27 306.2 25.3 304 25.3C301.9 25.2 300.4 26.9 300.4 29.1ZM301.5 28.7C301.6 27.3 302.6 26.2 303.9 26.2C305.4 26.2 306.2 27.4 306.3 28.7H301.5Z" fill="white"/>
</g>
<defs>
<clipPath id="clip0_549_11353">
<rect width="380" height="38" fill="white"/>
</clipPath>
</defs>
</svg>
