<svg width="193" height="41" viewBox="0 0 193 41" fill="none" xmlns="http://www.w3.org/2000/svg">
<path fill-rule="evenodd" clip-rule="evenodd" d="M44.3402 10.1501C43.7002 9.63006 42.8002 9.37006 41.6502 9.37006H37.1002V16.2601H41.6502C42.8002 16.2601 43.7002 15.9801 44.3402 15.4201C44.9802 14.8601 45.3002 13.9701 45.3002 12.7501C45.3002 11.5301 44.9802 10.6701 44.3402 10.1501ZM48.0402 18.5701C46.6402 19.7101 44.6502 20.2801 42.0602 20.2801H37.0902V28.6901H32.2402V5.31006H42.4202C44.7702 5.31006 46.6402 5.91006 48.0402 7.12006C49.4402 8.32006 50.1302 10.1901 50.1302 12.7201C50.1302 15.4801 49.4302 17.4301 48.0402 18.5701ZM63.0402 10.9901C63.1002 10.9901 63.2302 11.0001 63.4302 11.0101V15.6401C63.1502 15.6101 62.8902 15.5901 62.6702 15.5801C62.4502 15.5701 62.2702 15.5601 62.1302 15.5601C60.3102 15.5601 59.0902 16.1501 58.4702 17.3401C58.1202 18.0101 57.9502 19.0301 57.9502 20.4201V28.6801H53.4002V11.4001H57.7102V14.4101C58.4102 13.2601 59.0202 12.4701 59.5302 12.0501C60.3802 11.3401 61.4802 10.9901 62.8302 10.9901C62.9102 10.9901 62.9902 10.9901 63.0402 10.9901ZM76.8802 24.0901C77.5902 23.1501 77.9402 21.8101 77.9402 20.0801C77.9402 18.3501 77.5902 17.0101 76.8802 16.0701C76.1702 15.1301 75.1602 14.6701 73.8302 14.6701C72.5002 14.6701 71.4902 15.1401 70.7802 16.0701C70.0702 17.0101 69.7102 18.3401 69.7102 20.0801C69.7102 21.8201 70.0702 23.1501 70.7802 24.0901C71.4902 25.0301 72.5102 25.5001 73.8302 25.5001C75.1502 25.5001 76.1702 25.0301 76.8802 24.0901ZM80.5002 26.5901C79.0402 28.3901 76.8202 29.2901 73.8502 29.2901C70.8802 29.2901 68.6602 28.3901 67.2002 26.5901C65.7402 24.7901 65.0102 22.6201 65.0102 20.0801C65.0102 17.5401 65.7402 15.4201 67.2002 13.5901C68.6602 11.7601 70.8702 10.8501 73.8502 10.8501C76.8302 10.8501 79.0402 11.7601 80.5002 13.5901C81.9602 15.4201 82.6902 17.5801 82.6902 20.0801C82.6902 22.5801 81.9602 24.7901 80.5002 26.5901ZM84.1502 14.7801V11.5601H86.5602V6.74006H91.0302V11.5601H93.8402V14.7801H91.0302V23.9201C91.0302 24.6301 91.1202 25.0701 91.3002 25.2401C91.4802 25.4201 92.0302 25.5001 92.9502 25.5001C93.0902 25.5001 93.2302 25.5001 93.3902 25.5001C93.5402 25.5001 93.6902 25.4901 93.8402 25.4801V28.8601L91.7002 28.9401C89.5602 29.0101 88.1002 28.6401 87.3202 27.8301C86.8102 27.3101 86.5602 26.5101 86.5602 25.4301V14.7801H84.1502ZM107.55 24.0901C108.26 23.1501 108.61 21.8101 108.61 20.0801C108.61 18.3501 108.26 17.0101 107.55 16.0701C106.84 15.1301 105.83 14.6701 104.51 14.6701C103.19 14.6701 102.17 15.1401 101.46 16.0701C100.75 17.0101 100.39 18.3401 100.39 20.0801C100.39 21.8201 100.75 23.1501 101.46 24.0901C102.17 25.0301 103.19 25.5001 104.51 25.5001C105.83 25.5001 106.85 25.0301 107.55 24.0901ZM111.17 26.5901C109.71 28.3901 107.49 29.2901 104.52 29.2901C101.55 29.2901 99.3302 28.3901 97.8702 26.5901C96.4102 24.7901 95.6802 22.6201 95.6802 20.0801C95.6802 17.5401 96.4102 15.4201 97.8702 13.5901C99.3302 11.7601 101.55 10.8501 104.52 10.8501C107.49 10.8501 109.71 11.7601 111.17 13.5901C112.63 15.4201 113.36 17.5801 113.36 20.0801C113.36 22.5801 112.63 24.7901 111.17 26.5901ZM114.82 14.7801V11.5601H117.23V6.74006H121.7V11.5601H124.51V14.7801H121.7V23.9201C121.7 24.6301 121.79 25.0701 121.97 25.2401C122.15 25.4201 122.7 25.5001 123.62 25.5001C123.76 25.5001 123.9 25.5001 124.06 25.5001C124.21 25.5001 124.36 25.4901 124.51 25.4801V28.8601L122.37 28.9401C120.23 29.0101 118.77 28.6401 117.99 27.8301C117.48 27.3101 117.23 26.5101 117.23 25.4301V14.7801H114.82ZM128.11 32.0101L128.68 32.0401C129.12 32.0601 129.55 32.0401 129.95 31.9901C130.35 31.9401 130.69 31.8201 130.97 31.6301C131.23 31.4501 131.48 31.0801 131.71 30.5001C131.94 29.9301 132.03 29.5801 131.99 29.4501L125.65 11.4001H130.68L134.46 24.1501L138.03 11.4001H142.84L136.91 28.4101C135.77 31.6901 134.86 33.7201 134.2 34.5101C133.53 35.3001 132.2 35.6901 130.2 35.6901C129.8 35.6901 129.48 35.6901 129.23 35.6901C128.99 35.6901 128.62 35.6701 128.13 35.6301V32.0101H128.11ZM156.48 16.5101C155.87 15.4801 154.89 14.9701 153.52 14.9701C151.88 14.9701 150.75 15.7501 150.14 17.3001C149.82 18.1301 149.67 19.1701 149.67 20.4401C149.67 22.4501 150.2 23.8601 151.27 24.6701C151.9 25.1501 152.66 25.3801 153.52 25.3801C154.78 25.3801 155.74 24.8901 156.4 23.9201C157.06 22.9501 157.39 21.6501 157.39 20.0301C157.39 18.7001 157.09 17.5201 156.48 16.4901V16.5101ZM159.96 13.2601C161.36 14.7501 162.06 16.9401 162.06 19.8301C162.06 22.8801 161.38 25.2001 160.01 26.7901C158.64 28.3901 156.88 29.1801 154.72 29.1801C153.34 29.1801 152.2 28.8401 151.29 28.1501C150.79 27.7701 150.31 27.2101 149.83 26.4801V35.4901H145.36V11.4001H149.69V13.9501C150.18 13.2001 150.69 12.6101 151.24 12.1701C152.25 11.4001 153.44 11.0101 154.83 11.0101C156.85 11.0101 158.56 11.7601 159.96 13.2501V13.2601ZM174.86 20.2901C174.57 20.4701 174.29 20.6201 174 20.7301C173.71 20.8401 173.31 20.9401 172.8 21.0401L171.78 21.2301C170.83 21.4001 170.15 21.6101 169.73 21.8501C169.03 22.2601 168.68 22.9001 168.68 23.7701C168.68 24.5401 168.89 25.1001 169.32 25.4401C169.75 25.7801 170.27 25.9601 170.88 25.9601C171.85 25.9601 172.75 25.6701 173.57 25.1001C174.39 24.5301 174.81 23.4901 174.85 21.9801V20.3001L174.86 20.2901ZM172.12 18.1801C172.96 18.0701 173.55 17.9401 173.91 17.7801C174.56 17.5001 174.88 17.0801 174.88 16.4901C174.88 15.7801 174.63 15.2901 174.14 15.0201C173.65 14.7501 172.93 14.6101 171.97 14.6101C170.9 14.6101 170.15 14.8701 169.7 15.4001C169.38 15.7901 169.17 16.3201 169.07 16.9901H164.71C164.81 15.4801 165.23 14.2401 165.98 13.2601C167.18 11.7401 169.23 10.9801 172.14 10.9801C174.03 10.9801 175.71 11.3601 177.18 12.1101C178.65 12.8601 179.39 14.2801 179.39 16.3601V24.2901C179.39 24.8401 179.4 25.5101 179.42 26.2901C179.45 26.8801 179.54 27.2801 179.69 27.4901C179.84 27.7001 180.06 27.8801 180.36 28.0101V28.6801H175.44C175.3 28.3301 175.21 28.0001 175.15 27.7001C175.1 27.3901 175.05 27.0401 175.02 26.6501C174.4 27.3301 173.68 27.9001 172.86 28.3801C171.89 28.9401 170.79 29.2201 169.56 29.2201C167.99 29.2201 166.7 28.7701 165.68 27.8801C164.66 26.9901 164.15 25.7201 164.15 24.0801C164.15 21.9601 164.97 20.4201 166.61 19.4601C167.51 18.9401 168.83 18.5701 170.58 18.3501L172.12 18.1601V18.1801ZM183.49 28.7001H188.01V5.31006H183.49V28.6901V28.7001Z" fill="white"/>
<path d="M16.5 13.3C18.433 13.3 20 11.733 20 9.80005C20 7.86705 18.433 6.30005 16.5 6.30005C14.567 6.30005 13 7.86705 13 9.80005C13 11.733 14.567 13.3 16.5 13.3Z" fill="white"/>
<path d="M8.5 20.3C10.433 20.3 12 18.733 12 16.8C12 14.8671 10.433 13.3 8.5 13.3C6.567 13.3 5 14.8671 5 16.8C5 18.733 6.567 20.3 8.5 20.3Z" fill="white"/>
<path d="M16.5 27.3C18.433 27.3 20 25.733 20 23.8C20 21.8671 18.433 20.3 16.5 20.3C14.567 20.3 13 21.8671 13 23.8C13 25.733 14.567 27.3 16.5 27.3Z" fill="white"/>
</svg>
