<svg width="74" height="51" viewBox="0 0 74 51" fill="none" xmlns="http://www.w3.org/2000/svg">
<path d="M8.20181 21.5652H7.41984V43.533H8.20181V21.5652ZM7.41984 50.2869C3.65211 50.2869 0.666016 47.2295 0.666016 43.5327V21.5652C0.666016 17.7971 3.72301 14.7401 7.41984 14.7401H8.20181V0.521042H14.9556V43.5262C14.9556 47.2278 11.9675 50.2869 8.20181 50.2869H7.41984Z" fill="white"/>
<path d="M23.2881 21.5154H22.5061V43.483H23.2881V21.5154ZM15.7441 21.5154C15.7441 17.7474 18.659 14.6191 22.498 14.6191H23.2799C27.1192 14.6191 30.0338 17.7474 30.0338 21.5154V43.483C30.0338 47.3223 27.1192 50.4502 23.2799 50.4502H22.498C18.8011 50.4502 15.7441 47.3223 15.7441 43.6255V21.5154Z" fill="white"/>
<path d="M38.3581 21.4939H37.5761V43.5327H38.3581V21.4939ZM30.8223 43.5259V0.450146H37.5761V14.7401H38.3584C42.1261 14.7401 45.1122 17.7971 45.1122 21.4939V43.6749C45.1122 47.3008 42.1241 50.2869 38.4293 50.2869H37.5761C33.8104 50.2869 30.8223 47.2278 30.8223 43.5259Z" fill="white"/>
<path d="M53.4283 21.494H52.6464V43.4615H53.4283V21.494ZM45.9004 21.494C45.9004 17.7259 48.8152 14.598 52.6542 14.598H53.4365C57.2755 14.598 60.1903 17.7259 60.1903 21.494V43.4615C60.1903 47.3008 57.2755 50.4291 53.4365 50.4291H52.6542C48.9574 50.4291 45.9004 47.3008 45.9004 43.604V21.494Z" fill="white"/>
<path d="M60.9785 7.20396H67.7327V14.7398H73.1356V21.4939H67.7327V43.5327H73.1356V50.2869H67.7327C63.9643 50.2869 60.9785 47.3008 60.9785 43.6039V7.20396Z" fill="white"/>
</svg>
