<svg width="156" height="41" viewBox="0 0 156 41" fill="none" xmlns="http://www.w3.org/2000/svg">
<g clip-path="url(#clip0_432_30642)">
<mask id="mask0_432_30642" style="mask-type:luminance" maskUnits="userSpaceOnUse" x="0" y="0" width="156" height="41">
<path d="M155.334 0.450195H0.333984V40.4502H155.334V0.450195Z" fill="white"/>
</mask>
<g mask="url(#mask0_432_30642)">
<path d="M18.6786 0.51088C14.6079 0.820664 10.6514 2.44023 7.47746 5.10328C4.05355 7.97284 1.6242 12.0489 0.749204 16.3858C-0.587753 23.038 1.40681 29.7771 6.12964 34.5543C10.2166 38.6848 15.8362 40.8043 21.6405 40.3967C23.6405 40.2554 25.4666 39.8369 27.5916 39.038C28.0699 38.8532 29.396 38.2174 29.9721 37.8913C31.5101 37.0108 32.7547 36.0706 34.0536 34.8043C35.7057 33.1902 36.8362 31.663 37.896 29.6087C39.0101 27.4456 39.7003 25.1576 39.9884 22.6521C40.1188 21.5326 40.1188 19.3695 39.9884 18.25C39.5644 14.5706 38.2166 11.2011 36.021 8.30436C34.8905 6.81523 33.3688 5.33154 31.7981 4.19023C30.2438 3.0598 28.1677 2.00545 26.3144 1.40218C23.9612 0.646748 21.2003 0.320664 18.6786 0.51088ZM31.6949 8.48915C31.6949 8.54349 31.4612 8.82609 30.9068 9.45109C29.6568 10.8532 29.0862 11.4945 28.3797 12.2717C27.5971 13.1358 27.309 13.4511 26.5318 14.2826C26.309 14.5217 26.0481 14.8043 25.9503 14.9076L25.7764 15.0978L25.9123 15.5271C25.9829 15.7663 26.1025 16.288 26.1623 16.6956C26.271 17.3587 26.2818 17.6413 26.2818 19.3913C26.2818 20.9891 26.2601 21.5815 26.1568 22.625C25.8688 25.6684 25.4775 26.9619 24.559 27.9402C23.3253 29.2445 21.6188 29.7771 18.0155 29.9728C16.3253 30.0598 14.2547 29.9348 12.9177 29.663C11.059 29.2826 10.0481 28.3424 9.2492 26.2771C9.14051 26 9.06442 25.8967 8.86333 25.75C8.3579 25.3858 8.1242 24.8913 8.06985 24.0761L8.03725 23.6032H8.19485C8.46116 23.6032 8.91225 23.8587 9.27638 24.2065L9.6242 24.538L9.97746 24.2174C10.3797 23.8478 10.8525 23.5652 10.9068 23.663C10.9829 23.7826 11.0047 24.6304 10.9394 24.8913C10.9014 25.0326 10.7818 25.2934 10.6786 25.4728L10.4829 25.7934L10.6079 26.0326C10.7764 26.3478 11.2275 26.7554 11.6242 26.9456C11.8634 27.0598 12.0481 27.1032 12.4014 27.125C12.972 27.1576 13.3307 27.0815 13.847 26.8369C14.8307 26.3641 15.4394 25.3424 15.7221 23.6848C15.8362 23.0108 15.9666 21.3695 16.0155 19.9891C16.0971 17.8098 16.4286 16.3043 17.0916 15.1521C17.4177 14.5924 18.1297 13.9021 18.6786 13.6195C20.021 12.9293 21.9503 12.8043 23.5644 13.3152C23.8036 13.3913 24.0699 13.4891 24.1568 13.5326C24.3253 13.6141 24.1351 13.7337 25.8525 12.4728C26.9503 11.6684 29.6079 9.76089 30.5699 9.08154C31.396 8.50545 31.6949 8.34784 31.6949 8.48915Z" fill="white"/>
<path d="M20.8782 15.896C20.5901 16.0916 20.4434 16.347 20.4434 16.646C20.4434 17.2818 21.1173 17.7003 21.6879 17.4123C22.1173 17.1894 22.2803 16.7112 22.0629 16.2818C21.8999 15.9449 21.7097 15.8199 21.3564 15.7873C21.1173 15.771 21.0358 15.7873 20.8782 15.896Z" fill="white"/>
<path d="M20.4155 21.9114C19.1112 22.2972 18.5623 22.9277 17.8177 24.9168C17.6547 25.3462 17.4699 25.7973 17.4047 25.9277C17.296 26.1396 16.8775 26.6668 16.5134 27.0527C16.4319 27.1396 16.3014 27.319 16.2253 27.4386C16.1112 27.6342 16.1003 27.6831 16.1547 27.8081C16.2362 27.982 16.5623 28.1451 17.0188 28.2266C17.3177 28.281 17.4482 28.2755 17.8232 28.1994C18.3395 28.0962 18.5514 28.0092 18.9753 27.7266C19.5895 27.319 19.9101 26.8244 20.3395 25.607C20.709 24.569 20.8014 24.3733 21.1982 23.7429C22.0025 22.4657 22.084 22.0853 21.6112 21.8842C21.3612 21.7809 20.8177 21.7918 20.4155 21.9114Z" fill="white"/>
<path d="M69.5772 13.6421C67.0881 13.979 64.9522 15.6801 64.1207 18.0007C63.8109 18.8594 63.7457 19.3051 63.7402 20.4518C63.7402 21.6257 63.8163 22.1257 64.137 22.9953C64.8435 24.9355 66.425 26.479 68.3816 27.1366C70.1153 27.7236 72.2837 27.5116 73.8435 26.6149C76.2946 25.2018 77.5718 22.6529 77.3 19.7344C77.2131 18.8431 77.0229 18.1529 76.6479 17.3812C75.7294 15.5008 74.0718 14.2018 71.9957 13.7399C71.6153 13.6529 69.9739 13.5877 69.5772 13.6421ZM71.7783 15.4953C73.6044 15.9899 74.9305 17.2942 75.4576 19.1257C75.5663 19.5007 75.5826 19.6747 75.5826 20.5334C75.5826 21.4573 75.5718 21.5388 75.425 22.0007C74.8707 23.7453 73.6696 24.941 71.9576 25.4518C71.4087 25.6203 70.1044 25.6638 69.512 25.5388C68.1805 25.267 66.9576 24.4138 66.2457 23.2725C65.9359 22.767 65.7511 22.3323 65.5989 21.7127C65.4359 21.0497 65.4359 19.9681 65.5989 19.2942C66.0881 17.2997 67.6479 15.7997 69.6207 15.4247C70.175 15.3214 71.262 15.354 71.7783 15.4953Z" fill="white"/>
<path d="M85.8796 13.6412C83.0045 14.027 80.76 16.1194 80.1404 18.9836C80.0643 19.3368 80.0371 19.6792 80.0371 20.451C80.0371 21.2227 80.0643 21.5651 80.1404 21.9183C80.6947 24.4836 82.5426 26.4347 85.0372 27.0923C85.6567 27.2553 85.7437 27.2607 86.7491 27.2662C87.8578 27.2716 88.2002 27.2281 89.0318 26.9618C89.472 26.8205 90.2818 26.4347 90.3144 26.3531C90.3252 26.3151 90.3307 25.8803 90.3252 25.3803L90.3089 24.4727L90.01 24.6847C89.5426 25.0162 88.8796 25.326 88.2926 25.4836C87.8035 25.6194 87.6676 25.6357 86.8578 25.6303C86.1133 25.6303 85.8904 25.6086 85.5263 25.5107C83.6513 25.0053 82.2708 23.5216 81.8469 21.5651C81.7491 21.1086 81.7654 19.7662 81.8741 19.277C82.0969 18.2825 82.5317 17.4944 83.2491 16.7716C84.3035 15.7173 85.5752 15.2336 87.1024 15.3042C88.135 15.3531 88.9991 15.6303 89.8415 16.1792L90.2818 16.4727V15.4781V14.489L89.8633 14.2933C88.8578 13.8205 88.1296 13.6575 86.9393 13.6303C86.4611 13.6194 85.9828 13.6249 85.8796 13.6412Z" fill="white"/>
<path d="M105.57 13.8318C105.592 13.8916 106.738 15.8481 108.179 18.2775C108.418 18.6796 108.901 19.5003 109.255 20.1036L109.901 21.1959V24.1688V27.1416L110.733 27.1253L111.559 27.109L111.586 24.147L111.613 21.1851L111.782 20.9133C111.874 20.7612 112.472 19.7612 113.108 18.6851C114.82 15.7883 115.836 14.0818 115.923 13.9405L115.999 13.8209H115.021H114.043L113.586 14.6199C113.211 15.2775 111.923 17.4949 110.934 19.1959C110.82 19.3862 110.717 19.5166 110.706 19.4949C110.689 19.4677 109.999 18.2612 109.168 16.8101C108.336 15.359 107.597 14.0818 107.526 13.9677L107.401 13.7666H106.472C105.749 13.7666 105.548 13.7829 105.57 13.8318Z" fill="white"/>
<path d="M121.386 13.833C121.359 13.8711 121.256 14.1102 121.163 14.3656C120.93 15.0124 120.06 17.3493 119.348 19.2569C117.44 24.3874 116.479 26.9852 116.479 27.0341C116.479 27.0613 116.875 27.083 117.397 27.083H118.315L118.636 26.1971C118.815 25.7134 119.12 24.8819 119.31 24.3493L119.652 23.3874H122.326H125L125.364 24.3765C125.565 24.9254 125.853 25.7026 126 26.1048C126.147 26.5069 126.288 26.8928 126.315 26.958C126.364 27.083 126.386 27.083 127.299 27.083C128.158 27.083 128.228 27.0776 128.201 26.9852C128.19 26.9363 127.424 24.8874 126.506 22.4363C125.076 18.6048 123.37 14.0558 123.288 13.833C123.266 13.7841 123.027 13.7678 122.348 13.7678C121.685 13.7678 121.424 13.7841 121.386 13.833ZM122.946 17.6808C123.245 18.5015 123.538 19.295 123.598 19.4471C123.886 20.208 124.413 21.6645 124.413 21.708C124.413 21.7352 123.565 21.7569 122.321 21.7569H120.228L120.31 21.5504C120.353 21.4417 120.533 20.958 120.707 20.4798C120.881 20.0015 121.315 18.8221 121.674 17.8602C122.027 16.8928 122.337 16.1265 122.359 16.1482C122.381 16.17 122.641 16.8602 122.946 17.6808Z" fill="white"/>
<path d="M49.9004 20.451V27.0869L52.7972 27.0652C55.9167 27.0434 55.8787 27.0434 56.8787 26.7228C59.0146 26.038 60.4439 24.3043 60.9113 21.8369C61.0417 21.1576 61.0417 19.7391 60.9059 19.038C60.4602 16.6739 59.0907 14.9782 57.02 14.2282C55.9983 13.8641 55.9711 13.8587 52.7972 13.8369L49.9004 13.8152V20.451ZM55.5852 15.5C57.0363 15.7989 58.0906 16.625 58.732 17.9619C59.145 18.826 59.2211 19.2173 59.2211 20.451C59.2157 21.6087 59.1776 21.8695 58.8678 22.6739C58.5635 23.4565 57.9548 24.2554 57.3243 24.6847C56.9548 24.9402 56.3461 25.2174 55.8515 25.3532C55.4493 25.4619 55.2754 25.4728 53.5037 25.4945L51.5852 25.5108V20.4565V15.3967H53.3406C54.8352 15.3967 55.1613 15.413 55.5852 15.5Z" fill="white"/>
<path d="M94.3683 20.4615L94.3846 27.1083H95.1998H96.015L96.0313 24.9398L96.0422 22.7713L96.8629 21.7496C97.3139 21.1843 97.7052 20.7224 97.7324 20.7224C97.7596 20.7224 97.8465 20.8528 97.9226 21.005C98.0041 21.1626 98.3139 21.755 98.6237 22.3257C98.9281 22.8909 99.5911 24.13 100.097 25.0702C100.597 26.0104 101.048 26.8528 101.097 26.9452L101.189 27.1083L102.173 27.1246C102.716 27.13 103.162 27.1191 103.162 27.1028C103.162 27.0594 102.683 26.1572 101.776 24.4996C101.531 24.0485 101.249 23.5376 101.151 23.3583C101.053 23.1789 100.515 22.1843 99.9498 21.1463L98.9226 19.2604L100.933 16.5648C102.037 15.0865 102.944 13.8583 102.944 13.8474C102.944 13.8311 102.499 13.8202 101.955 13.8256H100.961L99.0585 16.3311C98.015 17.7115 96.9063 19.168 96.602 19.5702L96.0422 20.3039V17.0593V13.8202H95.1998H94.3574L94.3683 20.4615Z" fill="white"/>
<path d="M131.42 20.4527V27.0831H132.262H133.105V24.3059V21.5288L134.045 21.5505C134.855 21.5722 135.018 21.5886 135.268 21.6918C136.376 22.1483 137.328 23.3712 137.963 25.1429C138.116 25.5722 138.355 26.4418 138.458 26.9309L138.485 27.0831H139.36C140.165 27.0831 140.23 27.0777 140.203 26.9853C140.192 26.9364 140.137 26.6864 140.088 26.4309C139.784 24.9146 139.197 23.4636 138.491 22.4907C138.11 21.9744 137.545 21.4038 137.17 21.1755C136.855 20.9799 136.811 20.8875 137.034 20.8875C137.094 20.8875 137.376 20.7788 137.654 20.6429C138.578 20.1918 139.23 19.3549 139.442 18.3331C139.545 17.8494 139.518 16.9636 139.376 16.4581C139.132 15.5342 138.447 14.7244 137.561 14.2951C136.665 13.8549 136.398 13.8223 133.719 13.8223H131.42V20.4527ZM136.349 15.5614C137.001 15.8223 137.431 16.2407 137.648 16.8331C137.795 17.2244 137.795 18.1429 137.648 18.5233C137.431 19.0886 137.007 19.5125 136.431 19.7407C136.018 19.9038 135.284 19.969 134.137 19.9527L133.132 19.9364L133.116 17.6646L133.105 15.3929L134.556 15.4092C135.953 15.4255 136.023 15.4364 136.349 15.5614Z" fill="white"/>
<path d="M143.975 20.4527V27.0831H146.659C149.045 27.0831 149.409 27.0722 149.931 26.9799C151.964 26.6266 153.475 25.5288 154.35 23.7733C155.333 21.8059 155.344 19.1375 154.371 17.1701C153.502 15.3929 151.98 14.2788 149.931 13.9255C149.409 13.8331 149.045 13.8223 146.659 13.8223H143.975V20.4527ZM149.659 15.5016C150.616 15.6973 151.23 16.0233 151.915 16.7027C152.388 17.1701 152.638 17.5396 152.909 18.1701C153.176 18.7951 153.274 19.3168 153.306 20.2625C153.328 21.0125 153.317 21.2081 153.219 21.6972C152.822 23.6103 151.692 24.8657 149.926 25.3549C149.524 25.4635 149.35 25.4744 147.551 25.4962L145.605 25.5125V20.4581V15.3983H147.388C148.909 15.3983 149.236 15.4146 149.659 15.5016Z" fill="white"/>
</g>
</g>
<defs>
<clipPath id="clip0_432_30642">
<rect width="155" height="40" fill="white" transform="translate(0.333984 0.450195)"/>
</clipPath>
</defs>
</svg>
