<?xml version="1.0" encoding="utf-8"?>
<!-- Generator: Adobe Illustrator 21.0.2, SVG Export Plug-In . SVG Version: 6.00 Build 0)  -->
<svg version="1.1" id="Layer_1" xmlns="http://www.w3.org/2000/svg" xmlns:xlink="http://www.w3.org/1999/xlink" x="0px" y="0px"
	 viewBox="0 0 702 300" style="enable-background:new 0 0 702 300;" xml:space="preserve">
<style type="text/css">
	.st0{fill:#5F6775;}
	.st1{fill:#00C0A5;}
	.st2{fill:#E0F2F1;}
	.st3{fill:#FF8A80;}
</style>
<title>Logo</title>
<desc>Created with Sketch.</desc>
<g id="Style-Guide">
	<g id="Logo" transform="translate(-66.000000, -50.000000)">
		<g transform="translate(66.000000, 50.000000)">
			<g>
				<path id="Fill-1" class="st0" d="M88.5,113.6c-10.8-10.6-21.6-15-33.3-15c-18.4,0.1-34.6,14.7-34.6,46.4
					c0,37.4,22.2,55.5,44.7,55.5c13.8,0,24.6-4.3,37.1-12.5l6,6.8c-16.9,16.9-31.9,25.7-49.8,25.7C26.2,220.7,0,195.4,0,157.8
					c0-50.4,38.7-76.4,69.3-76.4c12.8-0.3,25.2,4.2,34.9,12.5L88.5,113.6z"/>
				<path id="Fill-3" class="st0" d="M138.3,52.8c0-11.1-0.8-15-3.5-18.4c-1.9-2.2-5.1-4.3-12.7-9.2v-4.3L158.6,0l3.1,1.9
					c-1.1,19.5-1.6,49.8-1.6,62v120.8c0,11.7,0.8,15.4,2.7,18.1c1.9,2.7,4.3,4.3,18.1,5.2v8.9c-7.8-0.3-20.3-0.8-31.1-0.8
					c-11.4,0-23.3,0.5-31.4,0.8v-9c13.3-0.5,16-2.7,17.6-5.6c1.6-2.9,2.4-8.4,2.4-17.1L138.3,52.8z"/>
				<path id="Fill-5" class="st0" d="M300.7,155.9c0-38.5-17.6-63.4-42.5-63.4c-26.2,0-41.4,21.9-41.4,54.2
					c0,33.3,13.5,63.1,43.3,63.1C286.3,209.8,300.7,188.6,300.7,155.9 M262,81.4c36.5,0,63.1,28.4,63.1,67.2c0,42.5-29,72-67.7,72
					s-65-29.8-65-66.6C192.3,106.9,226.2,81.4,262,81.4"/>
				<path id="Fill-7" class="st0" d="M397.3,218.4c-6.8-0.3-20-0.8-32.7-0.8c-11.4,0-22.7,0.5-31.7,0.8v-9c9.2-0.5,12.7-1.1,16-3.7
					c3.3-2.7,4.1-8.7,4.1-19.8v-48.5c0-11.4-0.5-15.7-2.4-20.3c-1.9-3.7-6.5-7.3-14.1-11.9v-3.7l35.2-20l3,1.9v27.1
					c13.8-19.8,24.6-26.5,34.6-26.5c6.5,0,14.3,3.7,20.3,8.9l-14.3,21.2c-6.5-4.9-12.7-8.1-18.1-8.1c-5.4,0-11.6,3.2-16.5,8.9
					c-5.4,6.2-6.2,12.7-6.2,27.9v42.8c0,11.9,0.5,15.7,2.7,18.7c2.2,3,6,4.6,20.3,5.4L397.3,218.4z"/>
				<path id="Fill-9" class="st0" d="M510.1,154.9c-42.8,10-49.8,16-49.8,29.2c0,10.8,8.9,19.5,21.6,19.5c9.2,0,18.1-3,22.7-6.8
					c4.6-3.8,5.4-7.5,5.4-15.2L510.1,154.9z M558.3,204.2c-11.6,10.6-20,15-27.3,15c-7.8,0-14.6-4.3-20.3-16.5
					c-11.4,9.2-23.6,17.1-36.8,17.1c-22.7,0-37.4-16.9-37.4-33c-0.4-8.4,3.6-16.4,10.6-21.1c9.7-6.8,22.2-10.3,51.7-17.6
					c9.2-2.2,11.4-3.7,11.4-13.8c0-15.4-1.1-24.1-4.1-29c-3.5-5.6-10.3-9.2-18.7-9.2c-14.6,0-24.9,6.8-24.9,14.6
					c0,4.1,2.2,9.2,5.4,14.4l-19.8,10.3c-4.3-6.8-6.8-11.7-6.8-17.3c0-6.5,4.1-11.9,11.1-17.3c15-11.7,33.8-19.2,45.2-19.2
					c16,0,25.4,6.5,30,13.3c3.5,5.2,4.3,13.5,4.3,24.9s-0.8,32.8-0.8,49.3c0,25.7,3,33.6,11.9,33.6c3.7,0,7.5-1.9,11.1-3.7
					L558.3,204.2z"/>
				<path id="Fill-11" class="st1" d="M634.7,201.3c-4.8-0.5-9.6-0.3-14.3,0.7c-21.4,4.2-37.4,21.9-39.6,43.6
					c-2.7,27.1,17.2,51.3,44.3,53.9l0,0c1.6,0.1,3.2,0.2,4.7,0.2c20-0.1,38-12.1,45.7-30.6c1.9-4.4,3.1-9.2,3.5-14
					C681.6,228.1,661.8,204,634.7,201.3"/>
				<path id="Fill-13" class="st2" d="M634.8,201.3c-4.8-0.5-9.7-0.3-14.4,0.7l-1.2,0.3l-0.5,1.2c-1.8,4.4-3,9.1-3.4,13.9
					c-2.7,27.1,17.1,51.3,44.2,53.9c0,0,0,0,0.1,0c1.6,0.2,3.3,0.2,4.9,0.2c3.1,0,6.3-0.3,9.4-0.9l1.2-0.2l0.5-1.1
					c1.9-4.4,3.1-9.2,3.5-14C681.6,228.1,661.9,204,634.8,201.3"/>
				<path id="Fill-15" class="st3" d="M669.6,184.7c-13.9-1.4-27.3,5.4-34.3,17.4c10.4,1.2,20.2,5.6,27.9,12.7
					c2.3,1.9,4.3,4.2,6,6.6c7,9.3,10.5,20.8,9.9,32.4c18.5-7.1,27.7-27.8,20.6-46.3C694.7,194.8,683.1,186,669.6,184.7L669.6,184.7z
					"/>
			</g>
		</g>
	</g>
</g>
</svg>
