<svg width="163" height="36" viewBox="0 0 163 36" fill="none" xmlns="http://www.w3.org/2000/svg">
<g id="Black-Logo-Transparent-Background-01" clip-path="url(#clip0_72_803)">
<g id="Group">
<g id="Group_2">
<path id="Vector" d="M72.2518 20.8003L79.5394 20.8003L79.5394 13.5545L72.2518 13.5545L72.2518 20.8003Z" fill="#999BA7"/>
<path id="Vector_2" d="M79.5385 13.5535V20.7993H86.826V13.5535H79.5385Z" fill="#DCFE07"/>
<path id="Vector_3" d="M94.1155 20.7991V13.5532L86.8279 13.5532V20.7991H94.1155Z" fill="#999BA7"/>
<path id="Vector_4" d="M86.8267 6.30713H79.5391V13.553H86.8267V6.30713Z" fill="#999BA7"/>
<path id="Vector_5" d="M86.8265 28.0461L86.8265 20.8003L79.539 20.8003L79.539 28.0461L86.8265 28.0461Z" fill="#999BA7"/>
</g>
<path id="Vector_6" d="M14.6904 28.7352C6.35864 28.7352 0.13562 22.6017 0.13562 14.4606C0.13562 6.27362 6.35864 0.140137 14.6904 0.140137C21.864 0.140137 27.4212 4.84845 28.5345 11.7505H20.893C19.9533 8.95811 17.5883 7.14598 14.7066 7.14598C10.831 7.14598 7.98728 10.2458 7.98728 14.4592C7.98728 18.6579 10.831 21.7118 14.7066 21.7118C17.7442 21.7118 20.1323 19.7433 20.8985 16.719H28.6132C27.5717 23.8772 21.982 28.7352 14.6904 28.7352Z" fill="#090216"/>
<path id="Vector_7" d="M30.6744 19.0326V7.04883H37.9484V18.7171C37.9484 20.9338 39.1471 22.2362 41.0904 22.2362C43.0336 22.2362 44.2093 20.9109 44.2093 18.7171V7.04883H51.4833V19.0313C51.4833 24.9073 47.3283 28.7338 41.0904 28.7338C34.8524 28.7351 30.6744 24.9073 30.6744 19.0326Z" fill="#090216"/>
<path id="Vector_8" d="M69.4255 21.712V28.0463H64.4216C59.7513 28.0463 56.913 25.2081 56.913 20.5416V12.6189H53.0482V10.9281L62.5095 0.910156H64.0039V7.04903H69.3089V12.6189H64.187V19.3012C64.187 20.8045 65.0996 21.712 66.6347 21.712H69.4255Z" fill="#090216"/>
<path id="Vector_9" d="M121.915 14.4146C121.915 22.3575 116.049 28.0461 107.783 28.0461H96.7043V0.827637H107.783C116.072 0.827637 121.915 6.4609 121.915 14.4146ZM114.184 14.4146C114.184 10.3764 111.483 7.6946 107.428 7.6946H104.279V21.1791H107.428C111.483 21.1791 114.184 18.4299 114.184 14.4146Z" fill="#090216"/>
<path id="Vector_10" d="M137.448 6.94922V13.3065H134.624C132.049 13.3065 130.971 14.6912 130.971 17.369V28.0463H123.697V7.04899H128.571L129.706 9.37888C131.195 7.66652 133.009 6.94922 135.522 6.94922H137.448Z" fill="#090216"/>
<path id="Vector_11" d="M162.864 7.04883L154.013 27.1118C151.167 33.5378 148.55 35.8596 143.097 35.8596H140.606V29.6452H142.606C145.389 29.6452 146.228 28.9252 147.214 26.3122L138.488 7.05018H146.392L150.874 18.6174L155.051 7.05018H162.864V7.04883Z" fill="#090216"/>
</g>
</g>
<defs>
<clipPath id="clip0_72_803">
<rect width="163" height="36" fill="white"/>
</clipPath>
</defs>
</svg>
