<?xml version="1.0" encoding="utf-8"?>
<!-- Generator: Adobe Illustrator 28.1.0, SVG Export Plug-In . SVG Version: 6.00 Build 0)  -->
<svg version="1.1" id="Layer_1" xmlns="http://www.w3.org/2000/svg" xmlns:xlink="http://www.w3.org/1999/xlink" x="0px" y="0px"
	 viewBox="0 0 477.5 110.8" style="enable-background:new 0 0 477.5 110.8;" xml:space="preserve">
<style type="text/css">
	.st0{opacity:0.3;fill:#FFFFFF;enable-background:new    ;}
</style>
<path d="M108.8,38.6c-0.2-0.4-0.7-0.7-1.2-0.7H22.2c-0.5,0-1,0.2-1.2,0.7c-0.2,0.4-0.2,0.9,0,1.3L36.5,66L62,109.1
	c0.6,1,1.7,1.7,2.9,1.7c1.2,0,2.3-0.6,2.9-1.7l12.8-21.7c0.3-0.5,0.3-1.2,0-1.8l-11.2-19h22.8c0.5,0,0.9-0.3,1.2-0.7L108.8,40
	C109,39.5,109,39,108.8,38.6L108.8,38.6z"/>
<path id="Path" d="M116.6,27.4L130,4.8c0.6-1,0.6-2.2,0-3.2c-0.6-1-1.7-1.6-2.9-1.6H3.3C2.1,0,1.1,0.6,0.5,1.6s-0.6,2.2,0,3.2
	l13.4,22.6c0.5,0.9,1.5,1.4,2.5,1.4h98C115.2,28.8,116.1,28.2,116.6,27.4L116.6,27.4z"/>
<polygon id="Path-2" class="st0" points="75.8,77.8 43.4,77.8 36.9,66.7 69.3,66.7 "/>
<path id="Filtered" d="M171.9,87V59.8h25.2v-9.1h-25.2V32.1h30.5v-9.4h-41.1V87H171.9z M216.2,33.1c1.7,0,3.1-0.6,4.3-1.7
	c1.2-1.1,1.7-2.6,1.7-4.3s-0.6-3.1-1.7-4.3c-1.2-1.1-2.6-1.7-4.3-1.7s-3.1,0.6-4.3,1.7c-1.2,1.1-1.7,2.6-1.7,4.3s0.6,3.1,1.7,4.3
	S214.5,33.1,216.2,33.1z M221.2,87V40h-9.9v47H221.2z M245,87V22.8h-9.9V87H245z M280,87v-8.7h-7.5c-1.8,0-3-0.4-3.8-1.2
	c-0.7-0.8-1.1-2.1-1.1-3.9l0,0V48.7H279V40h-11.4V26.9h-9.9v47.4c0,4.3,1,7.6,3,9.6s5.3,3.1,9.7,3.1L280,87L280,87z M310.1,87.6
	c5.6,0,10.3-1.5,14.1-4.6c3.8-3.1,6.1-7,6.9-11.8h-9.9c-0.7,2.6-2,4.7-4.1,6.1c-2.1,1.4-4.6,2.2-7.7,2.2c-3.9,0-7-1.2-9.3-3.6
	c-2.3-2.4-3.6-5.6-3.9-9.7l0,0v-0.6h35.5c0.2-1.3,0.3-2.5,0.3-3.8c-0.1-4.5-1.1-8.5-3.1-11.9s-4.7-6-8.2-7.8s-7.5-2.8-12-2.8
	s-8.4,1-11.9,3s-6.1,4.8-8.1,8.5s-2.9,7.9-2.9,12.7s1,9,3,12.6c2,3.6,4.8,6.4,8.5,8.4S305.2,87.6,310.1,87.6L310.1,87.6z
	 M321.8,58.4h-25.2c0.4-3.3,1.7-6,4.1-7.9c2.4-2,5.2-3,8.4-3c3.5,0,6.4,1,8.7,2.9S321.4,55,321.8,58.4L321.8,58.4L321.8,58.4z
	 M353.7,87V63.4c0-4.1,0.9-7.5,2.8-10.2s4.8-4,8.9-4h4.4V40h-2.2c-3.6,0-6.5,0.6-8.6,1.9s-3.9,3-5.2,5.2l0,0l-1.1-7.1h-8.8v47
	L353.7,87L353.7,87z M398.7,87.6c5.6,0,10.3-1.5,14.1-4.6c3.8-3.1,6.1-7,6.9-11.8h-9.9c-0.7,2.6-2,4.7-4.1,6.1
	c-2.1,1.4-4.6,2.2-7.7,2.2c-3.9,0-7-1.2-9.3-3.6c-2.3-2.4-3.6-5.6-3.9-9.7l0,0v-0.6h35.5c0.2-1.3,0.3-2.5,0.3-3.8
	c-0.1-4.5-1.1-8.5-3.1-11.9s-4.7-6-8.2-7.8c-3.5-1.8-7.5-2.8-12-2.8s-8.4,1-11.9,3c-3.5,2-6.1,4.8-8.1,8.5s-2.9,7.9-2.9,12.7
	s1,9,3,12.6c2,3.6,4.8,6.4,8.5,8.4S393.9,87.6,398.7,87.6L398.7,87.6z M410.5,58.4h-25.2c0.4-3.3,1.7-6,4.1-7.9s5.2-3,8.4-3
	c3.5,0,6.4,1,8.7,2.9S410.1,55,410.5,58.4L410.5,58.4L410.5,58.4z M452.3,87.6c6.5,0,11.6-2.5,15.3-7.6l0,0l1.2,7.1h8.6V22.8h-9.9
	v23.8c-1.6-2.2-3.7-3.9-6.2-5.2c-2.6-1.2-5.6-1.9-9-1.9c-4.2,0-8,1-11.4,3s-6,4.8-7.9,8.5s-2.9,7.8-2.9,12.6s1,9.2,2.9,12.8
	s4.5,6.4,7.9,8.4S448,87.6,452.3,87.6L452.3,87.6z M453.9,79.2c-4.1,0-7.4-1.4-9.9-4.4s-3.8-6.7-3.8-11.3s1.2-8.3,3.8-11.2
	s5.8-4.4,9.9-4.4s7.4,1.5,9.9,4.4s3.8,6.7,3.8,11.4s-1.2,8.3-3.8,11.2C461.4,77.8,458,79.2,453.9,79.2z"/>
</svg>
