<svg width="104" height="23" viewBox="0 0 104 23" fill="none" xmlns="http://www.w3.org/2000/svg">
<path d="M95.3128 22.3601C90.3328 22.3601 87.1528 18.1301 87.1528 11.7101V11.3201C87.1528 4.90014 90.3928 0.640137 95.3728 0.640137C100.293 0.640137 103.533 4.87014 103.533 11.2901V11.6801C103.533 18.1001 100.293 22.3601 95.3128 22.3601ZM95.3728 18.4001C97.5928 18.4001 99.0928 16.0601 99.0928 11.6501V11.3801C99.0928 6.97014 97.5328 4.60014 95.3128 4.60014C93.0928 4.60014 91.5928 6.91014 91.5928 11.3501V11.6201C91.5928 16.0301 93.1228 18.4001 95.3728 18.4001Z" fill="#004044"/>
<path d="M77.0471 22.36C74.3471 22.36 72.1271 21.37 70.3271 19.69L72.7571 16.45C74.1071 17.62 75.3672 18.34 76.9572 18.34C78.9072 18.34 80.1672 17.17 80.1672 15.25V15.22C80.1672 13.36 78.7272 12.25 76.7772 12.25C75.6972 12.25 74.7071 12.55 73.8971 12.91L71.4671 11.32L72.0671 1H83.5572V4.9H75.6672L75.4271 8.71C76.1171 8.53 76.7772 8.41 77.7672 8.41C81.3372 8.41 84.4271 10.33 84.4271 15.04V15.13C84.4271 19.6 81.3972 22.36 77.0471 22.36Z" fill="#004044"/>
<path d="M59.805 22.3601C54.825 22.3601 51.645 18.1301 51.645 11.7101V11.3201C51.645 4.90014 54.885 0.640137 59.865 0.640137C64.785 0.640137 68.025 4.87014 68.025 11.2901V11.6801C68.025 18.1001 64.785 22.3601 59.805 22.3601ZM59.865 18.4001C62.085 18.4001 63.585 16.0601 63.585 11.6501V11.3801C63.585 6.97014 62.025 4.60014 59.805 4.60014C57.585 4.60014 56.085 6.91014 56.085 11.3501V11.6201C56.085 16.0301 57.615 18.4001 59.865 18.4001Z" fill="#004044"/>
<path d="M35.2673 22.0002V18.4902L41.4473 12.1302C43.6673 9.8502 44.4773 8.7102 44.4773 7.1802C44.4773 5.59019 43.3973 4.6902 41.9573 4.6902C40.4873 4.6902 39.4673 5.5302 38.1173 7.1802L35.2973 4.5102C37.1273 2.0202 39.2573 0.700195 42.2873 0.700195C46.1573 0.700195 48.8873 3.0102 48.8873 6.8202V6.8802C48.8873 9.8202 47.5373 11.5002 44.4173 14.5302L40.9073 18.1002H48.9173V22.0002H35.2673Z" fill="#004044"/>
<path d="M14.2424 21.9999L21.7724 0.879883H25.9124L33.4424 21.9999H28.9424L27.3824 17.4399H20.1524L18.6224 21.9999H14.2424ZM21.4724 13.5999H26.0624L23.7824 6.75988L21.4724 13.5999Z" fill="#004044"/>
<path d="M0.100098 22V1H4.4501V18.01H12.9401V22H0.100098Z" fill="#004044"/>
</svg>
