<svg id="Layer_1" xmlns="http://www.w3.org/2000/svg" width="380" height="38" viewBox="0 0 380 38">  <path fill="#2B3283" d="M120.3 38h37.6V0h-37.6v38z"/>  <path fill="#0CA19D" d="M80.2 38h37.7V0H80.2v38z"/>  <path fill="#C41D63" d="M40.2 38h37.6V0H40.2v38z"/>  <path fill="#1565A0" d="M0 38h37.7V0H0v38z"/>  <path fill="#ffffff" d="M93.4 7.7v22.8h-.6v.8h3.5v-.8h-.6V7.7h.6v-.8h-3.5v.8h.6zm4.5 0v22.8h-.6v.8h3.5v-.8h-.6V7.7h.6v-.8h-3.5v.8h.6zm3.9 23.6h3.5v-.8h-.6V7.7h.6v-.8h-3.5v.8h.6v22.8h-.6v.8zM58.7 17.1l5 9.6h-9.6l4.6-9.6zm12.5 14.2L58.5 6.9 46.8 31.3h24.4zM29 7.7V7h-6.2v.6c.8.1 1 .4 1 1.2v14.4h-.1c-.5-2.1-8.3-14.4-8.3-15.2 0-.3.2-.4.8-.4V7H8.7v.6c.6.1.9.4.9 1.2v20.5c0 .8-.2 1.1-1 1.2v.6h6.2v-.6c-.7-.1-1-.4-1-1.2V13.5h.1c1.5 4.2 9.2 15.7 9.2 16.4 0 .5-.4.6-.9.6v.6h6.6v-.6c-.6-.1-.8-.3-.8-1.2V8.9c0-.8.2-1.1 1-1.2M138.6 14.1c.1.2-.7.5-1.3.6.5-.6 1.1-1.1 1.3-.6m-3.6 2.1c.1.2-1 .1-1.6.2.5-.5 1.4-.7 1.6-.2m7.4-1c.4-.2 1.6-.4 1.7-.2-.2.1-.4.3-.4.3-.1-.2-1.3-.1-1.3-.1m1.3 5.2c-.1.7-.7 1.3-1.2 1.7.2-.6.8-1.2 1.2-1.7m-1.4 4.4c.2-.3.4-.5.5-.6.2.1.3.4.4.5-.8 1-1 1.1-1.6 1.6.1-.5.6-1.1.7-1.5m-2.2 1.2c-1 1-1.6 1.5-2.9 2.5.7-.8 1.9-1.7 2.9-2.5m-3.4 1.1c-1 1-1.6 1.5-2.9 2.5.7-.8 1.9-1.8 2.9-2.5m-2 .5c-.4.5-1.2 1.3-1.3 1-.1-.2.8-.7 1.3-1m9.7-7.9c.3-.6.4-1.1.4-1.8 0-.5-.4-1.1-.2-1.3.4-.1.6.6.6 1.2.1.7-.1 1.5-.8 1.9m-.1-14.5c-1.3-.4-1.5-.2-2.3 0-.2 0 0-.4-.2-.4-.2-.1-.6.1-.6.1l-.6.4c-1.1.7-2.5 1.8-2.6 2 .1.2.4.3.4.3s-4 3.1-4.3 3.7c.1.1.1.1.1.2.2.3-.7.3-.7.7 0 .2.1.3.1.4l-1.2 1-.3.1c-.2.2-1.8 2.2-1.8 2.8.1.1.3.4.3.4-.3.3-.5-.1-.8.1-.5.2-.6.6-.6 1 0 .3.3.5.3.8 0 .4-.3.6-.2 1 0 .6.2 1 .7 1.3.3.2.6.1.9.3.3.2.3.5.6.6.5.2 1.1-.1 1.7-.2l.4.4c1-.6 6.1-2.3 6.1-2.3v-.3s2.1-.6 2.4-.3c-.1 1.1-.8 1.7-.6 2 .2.2.6-.4.7-.7h.4c.3-.2.9-1.2 1.1-1.3-.1.7-1.7 3.1-2.2 3.5v.3c-1.2 1-3.6 3.3-4.1 3.8-.3.2-.8.3-.9.1-.2-.2 1.4-1.2 1.6-1.6.1-.2-.1-.2-.1-.4 0 0 1.8-1.5 1.6-2-.5.8-4.9 4.7-6.4 5.4-.1-.2-.2-.7-.5-.7-.2 0-.2.6-.3.9l-1.3.8.2.5c-.1 0-.2 0-.3.2 0 .3 0 .6.1.8.1.3.4 0 .7 0-.2.3-.2.5-.3.8 0 .2-.2.5 0 .6.2.2.4 0 .6-.1 0 0 .3.6.6.8-.1.1.8.3.6.8-.1.3 1.1.9 3.3-.4l.5-.5-.4-.7s1.8-1.5 1.9-2c-.4.1-1.8 1.2-1.8 1.2l2.4-2.5.4.3.8-.7.4.1.5-.3h.3c.8-1 1.5-1.8 1.6-2 .2-.4.2-.6.2-1 .4-.4 1.5-1.6 1.5-1.6l-.3-.3c.3-.2 1.1-1.3 1.1-1.3 0 .1.2.5.3.5-.1.5-1.6 2.9-2.1 3.3.5 0 1.8-1.4 2.5-2.6.6-1 .7-1.7 1-2.9.2-1 .3-1.5.4-2.5h.5c-.5-1.8-2.3-2.1-2.2-2.5.1-.3.7 0 1.3.2-.5-1.1-1-.7-1.3-.9-.4-.3-.4-.6-.8-.9-.9-.6-1.9-.2-2.7-.1.3.2 2 0 2.2.3-.2.2-.3.1-.4.3-.1.1 0 .3 0 .5-.4-.2-5.2.8-5.8 1 .3-.4 4-1.4 4-1.4l-.3-.6c-.2-.1-2.8.6-2.8.6s.4-.7.8-.7c.1 0 .4.1.4.1.6-.7 4.5-3.3 5.1-3.8-.7.1-.6-.2-.3-.6-.4.1-.4 0-.2-.4-.1 0-.2 0-.3-.1-.2-.2.3-.4.2-.6-.1-.3-.4-.3-.5-.5-.2-.4 0-.9 0-1.1-.1-.3-.4-.2-.5-.6-.1-.6.1-.7.1-.9m2.5 17.4c.4-.7 1-2.4.9-3-.3.6-.9 2.7-.9 3m1.4-12.9c.1-.2-.4-.4-.7-.4-.3 0-.9.1-.8.3 0 .2.5.1.7.1.3.1.7.3.8 0m-3.9-4.5zm-11.2 7c-.2.2 0-.5 0-.5-.4.3-2.8 2.5-2.9 3.2.1.2.4.2.4.2.2-.5 2.5-2.9 2.5-2.9M131.3 28c.5-.2 1.1-.6.9-.8-.2-.2-.7.5-.9.8m.1.6c.2-.1.7-.3.5-.5-.2-.2-.5.3-.5.5m8.7-5.7c-.4.2-1.1 1-1.3 1.4.7-.3 1.4-.8 1.3-1.4m.9-.1c.6-.7 1.1-1 1-1.5-.5.1-1 1.2-1 1.5M153.8 32.8c0 .2-.1.3-.4.3h-.5v-.6h.5c.2 0 .4.1.4.3m.5 1.4l-.5-.8c.3-.1.5-.3.5-.7 0-.5-.3-.7-.8-.7h-1v2.2h.5v-.7h.4l.5.7h.4zm.6-1c0 1-.6 1.7-1.7 1.7-1 0-1.6-.7-1.6-1.7s.6-1.7 1.7-1.7c1 0 1.6.7 1.6 1.7m.4 0c0-1.1-.9-2-2-2s-2 .9-2 2.1c0 1.1.9 2 2 2s2-1 2-2.1"/>  <path fill="#231F20" d="M375.7 27.3c0-.6.6-1.1 1.4-1.1.7 0 1.5.3 2.2.7l.5-.8c-.8-.5-1.8-.8-2.7-.8-1.5 0-2.5.8-2.5 2.1 0 1.4 1.3 1.8 2.5 2.1 1 .3 1.9.6 1.9 1.3 0 .7-.6 1.2-1.5 1.2s-1.8-.3-2.6-.9l-.6.8c.8.7 2 1.1 3.1 1.1 1.5 0 2.6-.8 2.6-2.2 0-1.3-1.2-1.8-2.4-2.1-1-.4-1.9-.7-1.9-1.4zm-4.2 5.5h1.1V22.3h-1.1v10.5zm-1.9-3.7c0-2.1-1.6-3.9-3.9-3.9-2.2 0-3.9 1.8-3.9 3.9 0 2.1 1.6 3.9 3.8 3.9 2.3 0 4-1.8 4-3.9zm-1.2 0c0 1.6-1.1 2.9-2.7 2.9s-2.7-1.3-2.7-2.9c0-1.6 1.1-2.9 2.7-2.9 1.5 0 2.7 1.3 2.7 2.9zm-8 0c0-2.1-1.6-3.9-3.9-3.9-2.2 0-3.9 1.8-3.9 3.9 0 2.1 1.6 3.9 3.8 3.9 2.4 0 4-1.8 4-3.9zm-1.1 0c0 1.6-1.1 2.9-2.7 2.9s-2.7-1.3-2.7-2.9c0-1.6 1.1-2.9 2.7-2.9 1.5 0 2.7 1.3 2.7 2.9zm-9.5 3.7h1.1v-4.6c0-1.8-1-3-2.8-3-1.3 0-2.1.6-2.5 1.4v-4.3h-1.1v10.5h1.1v-4.2c0-1.4.9-2.3 2.2-2.3 1.3 0 2.1.9 2.1 2.2v4.3h-.1zm-12.6-3.7c0-1.6 1.1-2.9 2.7-2.9 1 0 1.7.5 2.3 1.1l.7-.8c-.7-.7-1.6-1.3-3-1.3-2.2 0-3.8 1.8-3.8 3.9 0 2.1 1.6 3.9 3.8 3.9 1.4 0 2.3-.6 3-1.4l-.7-.7c-.6.6-1.3 1.1-2.3 1.1-1.5 0-2.7-1.3-2.7-2.9zm-8.7-3.8c0-.9.8-1.6 2.1-1.6 1 0 2 .3 2.9 1.1l.7-.9c-1-.8-2.1-1.2-3.5-1.2-1.9 0-3.3 1.1-3.3 2.8 0 1.7 1.1 2.4 3.4 2.9 2.1.4 2.6 1 2.6 1.9 0 1-.9 1.7-2.2 1.7-1.4 0-2.4-.5-3.4-1.4l-.7.8c1.2 1.1 2.5 1.6 4.1 1.6 2 0 3.4-1.1 3.4-2.9 0-1.6-1-2.4-3.3-2.9s-2.8-1-2.8-1.9zm-9.3 1h2.4v-1h-2.4v-2.2h-1.1v2.2h-1v1h1v4.5c0 1.5.9 2.1 2.1 2.1.5 0 .9-.1 1.3-.3v-.9c-.4.2-.7.3-1.1.3-.7 0-1.2-.3-1.2-1.2v-4.5zm-4.6 6.5h1.1v-4.6c0-1.8-1-3-2.8-3-1.3 0-2.1.6-2.5 1.4v-1.3h-1.1v7.4h1.1v-4.2c0-1.4.9-2.3 2.2-2.3 1.3 0 2.1.9 2.1 2.2v4.4h-.1zm-3-17.2h1.1V11c0-1.8-1-3-2.8-3-1.3 0-2.1.6-2.5 1.4V8.1h-1.1v7.4h1.1v-4.2c0-1.4.9-2.3 2.2-2.3 1.3 0 2.1.9 2.1 2.2v4.4h-.1zm-7.2-3.8c0-2.1-1.6-3.9-3.9-3.9-2.2 0-3.9 1.8-3.9 3.9 0 2.1 1.6 3.9 3.8 3.9 2.3 0 4-1.7 4-3.9zm-1.2.1c0 1.6-1.1 2.9-2.7 2.9s-2.7-1.3-2.7-2.9c0-1.6 1.1-2.9 2.7-2.9 1.5 0 2.7 1.2 2.7 2.9zm-9.6-5.4h1.3V5.3h-1.3v1.2zm0 9.1h1.1V8.1h-1.1v7.5zm.9 9.6c-1.8 0-3.5 1.4-3.5 3.9s1.8 3.9 3.5 3.9c1.4 0 2.2-.8 2.8-1.7v1.5h1.1V22.3h-1.1v4.5c-.5-.8-1.4-1.6-2.8-1.6zm.2 1c1.4 0 2.7 1.1 2.7 2.9 0 1.7-1.3 2.9-2.7 2.9-1.4 0-2.6-1.1-2.6-2.9 0-1.8 1.2-2.9 2.6-2.9zm-5.1-17.1h2.4v-1h-2.4V5.9h-1.1v2.2h-1v1h1v4.5c0 1.5.9 2.1 2.1 2.1.5 0 .9-.1 1.3-.3v-.9c-.4.2-.7.3-1.1.3-.7 0-1.2-.3-1.2-1.2V9.1zm-3.2 16.1c-1.3 0-2.1.6-2.5 1.4v-1.3h-1.1v7.4h1.1v-4.2c0-1.4.9-2.3 2.2-2.3 1.3 0 2.1.9 2.1 2.2v4.3h1.1v-4.6c-.1-1.7-1.1-2.9-2.9-2.9zm-1.4-9.6h1.1V11c0-2-1.1-3-3.2-3-1.1 0-1.9.2-2.7.6l.3.9c.7-.3 1.4-.5 2.3-.5 1.4 0 2.2.7 2.2 2v.3c-.7-.2-1.3-.3-2.3-.3-1.9 0-3.2.8-3.2 2.4 0 1.5 1.4 2.3 2.8 2.3 1.3 0 2.2-.6 2.7-1.3v1.2zm0-2.8c0 1.2-1.1 2-2.5 2-1 0-1.9-.5-1.9-1.5 0-.9.8-1.5 2.2-1.5.9 0 1.6.2 2.2.3v.7zm-8.4-6.3h1.3V5.3h-1.3v1.2zm-7.2 5.3c0-1.6 1.1-2.9 2.7-2.9 1 0 1.7.5 2.3 1.1l.7-.8c-.7-.7-1.6-1.3-3-1.3-2.2 0-3.8 1.8-3.8 3.9 0 2.1 1.6 3.9 3.8 3.9 1.4 0 2.3-.6 3-1.4l-.7-.7c-.6.6-1.3 1.1-2.3 1.1-1.6 0-2.7-1.2-2.7-2.9zm-2.5 0c0-2.1-1.6-3.9-3.9-3.9-2.2 0-3.9 1.8-3.9 3.9 0 2.1 1.6 3.9 3.8 3.9 2.3 0 4-1.7 4-3.9zm-1.2.1c0 1.6-1.1 2.9-2.7 2.9s-2.7-1.3-2.7-2.9c0-1.6 1.1-2.9 2.7-2.9 1.5 0 2.7 1.2 2.7 2.9zm-7.9 1.6c0-1.4-1.2-1.8-2.4-2.2-1-.3-1.9-.6-1.9-1.3 0-.6.6-1.1 1.4-1.1.7 0 1.5.3 2.2.7l.5-.8c-.8-.5-1.8-.8-2.7-.8-1.5 0-2.5.8-2.5 2.1 0 1.4 1.3 1.8 2.5 2.1 1 .3 1.9.6 1.9 1.3 0 .7-.6 1.2-1.5 1.2s-1.8-.3-2.6-.9l-.6.8c.8.7 2 1.1 3.1 1.1 1.4 0 2.6-.8 2.6-2.2zm-7 0c0-1.4-1.2-1.8-2.4-2.2-1-.3-1.9-.6-1.9-1.3 0-.6.6-1.1 1.4-1.1.7 0 1.5.3 2.2.7l.5-.8c-.7-.5-1.7-.8-2.6-.8-1.5 0-2.5.8-2.5 2.1 0 1.4 1.3 1.8 2.5 2.1 1 .3 1.9.6 1.9 1.3 0 .7-.6 1.2-1.5 1.2s-1.8-.3-2.6-.9l-.6.8c.8.7 2 1.1 3.1 1.1 1.3 0 2.5-.8 2.5-2.2zm-6.9 19.3h1.1v-4.6c0-1.8-1-3-2.8-3-1.3 0-2.1.6-2.5 1.4v-1.3h-1.1v7.4h1.1v-4.2c0-1.4.9-2.3 2.2-2.3 1.3 0 2.1.9 2.1 2.2v4.4h-.1zm-1.2-17.2h1.2l-4.6-10.1h-1.1l-4.6 10.1h1.2l1.2-2.7h5.5l1.2 2.7zm-1.6-3.7h-4.6l2.3-5.1 2.3 5.1zm-11 11.2c0-.5-.4-1-1.4-1-.7 0-1.2.2-1.7.6-.9.7-1.4 1.6-1.7 3.1l-.1.5-1.6.4-.1.3h1.5l-1 6c-.2 1-.4 1.8-.8 2.2-.3-.4-.6-.7-1.1-.7-.5 0-.8.3-.8.6 0 .4.3.8 1 .8.5 0 1-.2 1.5-.7.9-.9 1.2-1.6 1.6-3.7l.8-4.4h1.6l.1-.7h-1.6l.1-.7c.3-1.9.9-3 1.9-3 .1.8.5 1.2 1 1.2.5-.1.8-.4.8-.8zm-3-7.5h1.1V5.1h-1.1v10.5zm-3.3 0h1.1V11c0-2-1.1-3-3.2-3-1.1 0-1.9.2-2.7.6l.3.9c.7-.3 1.4-.5 2.3-.5 1.4 0 2.2.7 2.2 2v.3c-.7-.2-1.3-.3-2.3-.3-1.9 0-3.2.8-3.2 2.4 0 1.5 1.4 2.3 2.8 2.3 1.3 0 2.2-.6 2.7-1.3v1.2zm0-2.8c0 1.2-1.1 2-2.5 2-1 0-1.9-.5-1.9-1.5 0-.9.8-1.5 2.2-1.5.9 0 1.6.2 2.2.3v.7zm-3.3 13.3c-2.3 0-3.9 2.4-3.9 4.4 0 1.6 1 2.4 2.2 2.4 2.3 0 3.9-2.4 3.9-4.4 0-1.5-1-2.4-2.2-2.4zm-.5.6c.9 0 1.5.9 1.5 2.2 0 1.5-.8 3.5-2.2 3.5-.9 0-1.5-.9-1.5-2.2.1-1.5.9-3.5 2.2-3.5zm-4.4-11.1h1.1V11c0-1.8-1-3-2.8-3-1.3 0-2.1.6-2.5 1.4V8.1h-1.1v7.4h1.1v-4.2c0-1.4.9-2.3 2.2-2.3 1.3 0 2.1.9 2.1 2.2v4.4h-.1zm-7.3-3.8c0-2.1-1.6-3.9-3.9-3.9-2.2 0-3.9 1.8-3.9 3.9 0 2.1 1.6 3.9 3.8 3.9 2.4 0 4-1.7 4-3.9zm-1.1.1c0 1.6-1.1 2.9-2.7 2.9s-2.7-1.3-2.7-2.9c0-1.6 1.1-2.9 2.7-2.9 1.5 0 2.7 1.2 2.7 2.9zm-9.6-5.4h1.3V5.3h-1.3v1.2zm-4 2.6h2.4v-1h-2.4V5.9h-1.1v2.2h-1v1h1v4.5c0 1.5.9 2.1 2.1 2.1.5 0 .9-.1 1.3-.3v-.9c-.4.2-.7.3-1.1.3-.7 0-1.2-.3-1.2-1.2V9.1zm-4.6 6.5h1.1V11c0-2-1.1-3-3.2-3-1.1 0-1.9.2-2.7.6l.3.9c.7-.3 1.4-.5 2.3-.5 1.4 0 2.2.7 2.2 2v.3c-.7-.2-1.3-.3-2.3-.3-1.9 0-3.2.8-3.2 2.4 0 1.5 1.4 2.3 2.8 2.3 1.3 0 2.2-.6 2.7-1.3v1.2zm0-2.8c0 1.2-1.1 2-2.5 2-1 0-1.9-.5-1.9-1.5 0-.9.8-1.5 2.2-1.5.9 0 1.6.2 2.2.3v.7zm-8.4 2.8h.9v-10h-1.1v8l-6.3-8H173v10h1.1V7.3l6.5 8.3zm18.1-7.5h-1.1v7.4h1.1V8.1zm37.2 14.6h-1.1v10h1.1v-10zm10.9 6.4c0 2.5 1.8 3.9 3.5 3.9 1.4 0 2.2-.8 2.8-1.7v1.5h1.1V22.3h-1.1v4.5c-.6-.8-1.5-1.6-2.8-1.6-1.8 0-3.5 1.4-3.5 3.9zm1.1 0c0-1.8 1.2-2.9 2.6-2.9 1.4 0 2.7 1.1 2.7 2.9 0 1.7-1.3 2.9-2.7 2.9-1.4 0-2.6-1.2-2.6-2.9zm8.2 0c0 2.3 1.7 3.9 3.7 3.9 1.4 0 2.3-.6 3.1-1.4l-.7-.6c-.6.6-1.3 1-2.3 1-1.3 0-2.5-.9-2.6-2.5h5.9v-.3c0-2.2-1.3-3.9-3.5-3.9-2.1-.1-3.6 1.6-3.6 3.8zm1.1-.4c.1-1.4 1.1-2.5 2.4-2.5 1.5 0 2.3 1.2 2.4 2.5h-4.8zm8.9-3.3H265v9.7h1.1v-3.7c.6.8 1.5 1.6 2.8 1.6 1.8 0 3.5-1.4 3.5-3.9s-1.8-3.9-3.5-3.9c-1.4 0-2.2.8-2.8 1.7v-1.5zm-.1 3.7c0-1.7 1.3-2.9 2.7-2.9 1.4 0 2.6 1.1 2.6 2.9 0 1.8-1.2 2.9-2.6 2.9-1.4 0-2.7-1.2-2.7-2.9zm10.7-13.5h1.1V8.1h-1.1v7.5zm-2.8 13.5c0 2.3 1.7 3.9 3.7 3.9 1.4 0 2.3-.6 3.1-1.4l-.7-.6c-.6.6-1.3 1-2.3 1-1.3 0-2.5-.9-2.6-2.5h5.9v-.3c0-2.2-1.3-3.9-3.5-3.9-2.1-.1-3.6 1.6-3.6 3.8zm1.1-.4c.1-1.4 1.1-2.5 2.4-2.5 1.5 0 2.3 1.2 2.4 2.5H275zm25.4.4c0 2.3 1.7 3.9 3.7 3.9 1.4 0 2.3-.6 3.1-1.4l-.7-.6c-.6.6-1.3 1-2.3 1-1.3 0-2.5-.9-2.6-2.5h5.9v-.3c0-2.2-1.3-3.9-3.5-3.9-2.1-.1-3.6 1.6-3.6 3.8zm1.1-.4c.1-1.4 1.1-2.5 2.4-2.5 1.5 0 2.3 1.2 2.4 2.5h-4.8z"/></svg>
