<?xml version="1.0" encoding="UTF-8"?>
<svg width="139px" height="63px" viewBox="0 0 139 63" version="1.1" xmlns="http://www.w3.org/2000/svg" xmlns:xlink="http://www.w3.org/1999/xlink">
    <!-- Generator: Sketch 46.2 (44496) - http://www.bohemiancoding.com/sketch -->
    <title>nugget-markets-black</title>
    <desc>Created with Sketch.</desc>
    <defs></defs>
    <g id="Site" stroke="none" stroke-width="1" fill="none" fill-rule="evenodd">
        <g id="Index-v2" transform="translate(-754.000000, -1207.000000)">
            <g id="Client-Block" transform="translate(188.000000, 1207.000000)">
                <g id="nugget-markets-black" transform="translate(566.000000, 0.000000)">
                    <path d="M0.00473696462,0.0434392588 L11.7270019,0.0434392588 C11.7270019,0.0434392588 24.7902584,14.7684878 29.4867435,24.3651233 C29.5315293,24.452862 29.5035382,7.02941827 29.0457751,4.5288653 C28.9053887,3.75125955 28.7908403,2.75817789 27.3094623,2.51259554 C26.9989758,2.46012436 24.1189013,2.20292954 24.1189013,2.20292954 L24.1189013,0 L37,0 L37,2.22228366 C37,2.22228366 34.5966364,2.42872767 34.2835661,2.57452874 C33.9730796,2.71731918 33.0243948,3.24934257 32.9399907,5.84408563 C32.858601,8.43925877 32.7927142,10.331232 32.7621392,12.2223451 C32.7522346,12.8403868 32.7621392,34.9784954 32.7621392,34.9784954 L27.5213338,34.9784954 C27.5213338,34.9784954 16.3838687,16.6952985 7.72082169,6.55029615 L7.72082169,22.9488314 C7.72082169,22.9488314 7.72771182,29.4346138 8.01365223,30.5089828 C8.30045391,31.584642 8.36117318,32.3613876 10.487209,32.5256826 C12.6110917,32.6908378 12.9409567,32.775996 12.9409567,32.775996 L12.9409567,35 L0.0813896648,35 L0.0813896648,32.775996 C0.0813896648,32.775996 2.90462058,32.6525597 3.39554236,31.9338765 C3.88947858,31.2147632 4.26714385,30.5605938 4.28910615,22.0938091 L4.28910615,4.84412249 C4.28910615,4.84412249 4.42604749,3.26009487 3.84856844,2.8605397 C3.27281192,2.46012436 1.78454376,2.26744329 0,2.22228366 L0.00473696462,0.0434392588" id="Fill-1" fill="#7A7080"></path>
                    <path d="M36,9.20673334 L43.5349897,8.00895772 L43.8950772,8.40651003 L43.9300206,22.2150543 C43.9300206,22.2150543 43.7876901,25.9461595 47.5138495,25.7840674 C49.2303374,25.7102728 50.9544958,24.4506462 50.8432735,21.3832657 C50.8432735,21.3764408 50.8432735,12.4792884 50.8432735,12.4792884 C50.8432735,12.4792884 50.9314843,11.2051588 50.1525022,11.1019317 C49.3752246,11.0004109 48.4773498,10.8259485 48.4773498,10.8259485 L48.4773498,9.19308348 L55.9258333,8 L56.3238471,8.39797887 L56.3238471,24.9919487 C56.3238471,24.9919487 56.2313749,26.4332891 57.4488541,26.5714939 C58.71193,26.7135378 59,26.7007411 59,26.7007411 L59,28.548165 L51.2625943,28.548165 L50.9174217,26.4158002 C50.9174217,26.4158002 47.5138495,29.1734994 43.9300206,28.991359 C40.3466178,28.8113514 38.4903563,26.9933601 38.4566913,22.5375324 C38.4524299,22.1822093 38.4566913,13.237709 38.4566913,13.237709 C38.4566913,13.237709 38.4728846,11.8522477 38.2824005,11.5528038 C38.0919163,11.2508006 38.1379393,11.1556781 37.2085302,11.0144873 C36.2782688,10.8715903 36,10.8617794 36,10.8617794 L36,9.20673334" id="Fill-3" fill="#7A7080"></path>
                    <path d="M81,7.65420023 L80.0287851,11.0857307 L77.4394463,11.556962 C77.4394463,11.556962 79.6793691,15.2124568 77.2943173,18.781214 C74.4198277,23.0852992 67.366816,22.1009781 67.366816,22.1009781 C67.366816,22.1009781 65.1009317,22.7914269 65.7478408,24.1403913 C66.3968779,25.4936709 69.683772,25.5743671 70.2455615,25.601985 C79.7432088,26.075374 80.8195464,27.6798044 80.8195464,27.6798044 L77.149614,30.1611047 C71.2137972,28.1199655 67.2948899,31 67.2948899,31 C65.7120905,30.7087169 61.2518224,29.4326812 60.7113128,25.9649022 C60.1712288,22.5014384 64.4169955,21.3708285 64.4169955,21.3708285 C59.5243197,19.9118239 59.7554195,14.4887802 60.2431549,13.0548044 C61.7927576,8.53193326 66.1070456,7.47338895 69.5978012,7.47338895 C73.0868545,7.47338895 75.1739876,8.89441887 75.1739876,8.89441887 L80.3905435,7 L81,7.65420023 Z M66.1070456,14.8806099 C66.1070456,17.677359 67.5808918,19.9467779 69.3981957,19.9467779 C71.2137972,19.9467779 72.6893458,17.677359 72.6893458,14.8806099 C72.6893458,12.0769563 71.2137972,9.80667434 69.3981957,9.80667434 C67.5808918,9.80667434 66.1070456,12.0769563 66.1070456,14.8806099 L66.1070456,14.8806099 Z" id="Fill-4" fill="#7A7080"></path>
                    <path d="M94.6001473,26.2008604 C98.5870061,26.9752622 102.075455,28.9633235 104,31 L97.3053804,31 C92.5736451,28.3343372 87.3346523,30.0909384 87.3346523,30.0909384 C87.3346523,30.0909384 83.2374103,29.3647217 82.7057168,25.9074482 C82.1702315,22.454477 86.3732224,21.3272923 86.3732224,21.3272923 C81.5289973,19.8727077 81.7560835,14.466093 82.2426968,13.0364614 C83.7737382,8.52729228 88.0479306,7.47195483 91.5022532,7.47195483 C94.9553119,7.47195483 97.0222599,8.88867975 97.0222599,8.88867975 L102.184153,7 L102.789576,7.65221834 L101.827724,11.0733531 L99.2623664,11.5431568 C99.2623664,11.5431568 101.483935,15.1875773 99.1212275,18.745523 C96.2731703,23.036569 89.2920597,22.0552299 89.2920597,22.0552299 C89.2920597,22.0552299 87.0119287,22.7797257 87.6906595,24.0884646 C88.3664411,25.4002151 91.165205,25.5318634 94.6001473,26.2008604 Z M87.8317984,14.8567357 C87.8317984,17.6450121 89.2920597,19.9075558 91.0931609,19.9075558 C92.8896278,19.9075558 94.3494677,17.6450121 94.3494677,14.8567357 C94.3494677,12.0615757 92.8896278,9.79817155 91.0931609,9.79817155 C89.2920597,9.79817155 87.8317984,12.0615757 87.8317984,14.8567357 L87.8317984,14.8567357 Z" id="Fill-5" fill="#7A7080"></path>
                    <path d="M107.85744,18.2780255 C107.536322,18.7422328 108.072081,25.9302191 112.570686,25.8592277 C117.071826,25.7856857 118.073629,21.9062391 118.073629,21.9062391 L119.716399,22.9120216 C117.374775,29.3798915 112.570686,29.0211085 110.964675,28.9854003 C109.145713,28.9428905 102,28.0867426 102,18.3830248 C102,8.6818576 109.820905,8 111.32044,8 C112.825468,8 115.395254,8.21637501 117.463928,9.93972332 C119.536404,11.6664724 119.96611,14.5397115 119.99949,16.445427 C120.034559,18.3477416 118.251088,18.2780255 118.251088,18.2780255 L107.85744,18.2780255 Z M107.85744,16.0849436 L113.322355,16.0849436 C113.322355,16.0849436 113.911352,16.1750645 114.071911,15.8328604 C114.23416,15.4919316 114.392606,14.3407655 114.055433,12.9417672 C113.716569,11.5389429 113.056165,10.2279399 111.481844,10.1016858 C111.18143,10.0778803 108.143065,9.95927784 107.85744,16.0849436 L107.85744,16.0849436 Z" id="Fill-6" fill="#7A7080"></path>
                    <path d="M130.200215,3 L130.200215,8.15554071 L134.373232,8.15554071 L134.373232,10.5074971 L130.200215,10.5074971 L130.200215,22.4008037 C130.200215,22.4008037 130.058236,24.6894885 131.287059,25.5731085 C132.516297,26.4584739 134.830719,25.4439472 134.830719,25.4439472 L135.324324,26.9197017 C133.00409,28.688687 130.548105,29.1333333 129.442579,29.1333333 C124.583746,29.1333333 124.829095,23.801505 124.829095,23.801505 L124.829095,10.5074971 L122.459459,10.5074971 L122.459459,8.18259476 C127.109891,8.18259476 128.005354,3 128.005354,3 L130.200215,3 Z M42.217034,32.8666667 L133.788537,32.8666667 C136.665319,32.8666667 139,35.2890656 139,38.2760537 L139,39.5888347 C139,42.5802684 136.665319,45 133.788537,45 L42.217034,45 C39.334252,45 37,42.5802684 37,39.5888347 L37,38.2760537 C37,35.2890656 39.334252,32.8666667 42.217034,32.8666667 Z" id="Fill-7" fill="#7A7080"></path>
                    <path d="M42,41 L43.8329914,41 L43.8329914,40.8535819 C43.5768202,40.7960925 43.5380215,40.7403997 43.5380215,40.5221199 L43.5380215,36.6842578 L45.8997699,40.9564339 L48.3779146,36.6842578 L48.3779146,40.5221199 C48.3779146,40.7403997 48.3142449,40.8086683 48.0744886,40.8535819 L48.0744886,41 L50,41 L50,40.8535819 C49.7602437,40.8086683 49.6970714,40.7403997 49.6970714,40.5221199 L49.6970714,35.4814732 C49.6970714,35.2631934 49.7602437,35.2030092 50,35.1495621 L50,35 L47.6457129,35 L47.6457129,35.1495621 C47.8163278,35.1962722 47.8884536,35.2506176 47.8884536,35.3772737 C47.8884536,35.4464406 47.8526394,35.51426 47.8024,35.5946553 L45.9838339,38.7516281 L44.2732077,35.5946553 C44.2363987,35.51426 44.1861593,35.4594655 44.1861593,35.3885021 C44.1861593,35.2506176 44.2612697,35.1751628 44.4204439,35.1495621 L44.4204439,35 L42,35 L42,35.1495621 C42.2447305,35.1962722 42.3059131,35.2631934 42.3059131,35.4814732 L42.3059131,40.5221199 C42.3059131,40.7403997 42.2447305,40.7960925 42,40.8535819 L42,41" id="Fill-9" fill="#FFFFFE"></path>
                    <path d="M57,41 L58.82,41 L58.82,40.8535819 C58.6195455,40.7853133 58.5409091,40.714799 58.5409091,40.5894902 C58.5409091,40.5315518 58.5631818,40.4641815 58.5968182,40.3837862 L58.9981818,39.4594655 L61.6872727,39.4594655 L62.1145455,40.3837862 C62.1472727,40.4641815 62.1704545,40.5315518 62.1704545,40.5894902 C62.1704545,40.714799 62.0886364,40.7853133 61.8881818,40.8535819 L61.8881818,41 L64,41 L64,40.8535819 C63.7313636,40.7853133 63.6068182,40.5894902 63.4513636,40.2728498 L61.21,35.6072311 C61.1763636,35.5268358 61.1531818,35.4594655 61.1531818,35.3992814 C61.1531818,35.2748709 61.2295455,35.2187289 61.4309091,35.1495621 L61.4309091,35 L59.4459091,35 L59.4459091,35.1495621 C59.6459091,35.2030092 59.7604545,35.2955311 59.7604545,35.4347631 C59.7604545,35.4895576 59.735,35.5394116 59.7022727,35.6072311 L57.5259091,40.2728498 C57.4027273,40.5450258 57.3363636,40.76106 57,40.8535819 L57,41 Z M60.3854545,36.5306535 L61.3318182,38.6460813 L59.3890909,38.6460813 L60.3854545,36.5306535 L60.3854545,36.5306535 Z" id="Fill-10" fill="#FFFFFE"></path>
                    <path d="M71,41 L73.0026156,41 L73.0026156,40.8535819 C72.7487629,40.7960925 72.7007635,40.7403997 72.7007635,40.5221199 L72.7007635,38.5441276 L74.4282483,38.5441276 L75.7752015,40.3837862 C75.8583345,40.4960701 75.9221688,40.6474287 75.9221688,40.6600045 C75.9221688,40.76106 75.8251803,40.8311251 75.6514916,40.8535819 L75.6514916,41 L78,41 L78,40.8535819 C77.6828079,40.6927914 77.4522126,40.5674826 77.2448749,40.2804851 L75.9221688,38.5081967 C77.0761346,38.214013 77.6353033,37.6418145 77.6353033,36.7372558 C77.6353033,35.6728049 76.7238089,35 75.008695,35 L71,35 L71,35.1495621 C71.243461,35.2030092 71.3038315,35.2631934 71.3038315,35.4814732 L71.3038315,40.5221199 C71.3038315,40.7403997 71.243461,40.8086683 71,40.8535819 L71,41 Z M74.6182666,36.0298675 C75.7509543,36.0298675 76.2843913,36.1897597 76.2843913,36.8297777 C76.2843913,37.4679991 75.7648098,37.6750505 74.6682454,37.6750505 L72.7007635,37.6750505 L72.7007635,36.0298675 L74.6182666,36.0298675 L74.6182666,36.0298675 Z" id="Fill-11" fill="#FFFFFE"></path>
                    <path d="M87.697658,40.5221199 L87.697658,38.907029 L88.6684537,38.2018864 L90.5720231,40.3159668 C90.6663375,40.4286998 90.7552201,40.4960701 90.7552201,40.5800584 C90.7552201,40.6824613 90.6574492,40.76106 90.4841281,40.7853133 L90.4841281,40.9339771 L93,40.9339771 L93,40.7853133 C92.6459509,40.6097013 92.4030051,40.4286998 92.2094385,40.2135639 L89.6994921,37.4226364 L91.7956405,35.835841 C91.9171134,35.7437682 92.2321529,35.4895576 92.8617381,35.1495621 L92.8617381,35 L90.1829148,35 L90.1829148,35.1495621 C90.3661117,35.1827981 90.4643764,35.2631934 90.4643764,35.3440377 C90.4643764,35.4594655 90.3754938,35.51426 90.2550085,35.6072311 L87.697658,37.5385134 L87.697658,35.4814732 C87.697658,35.2631934 87.7588883,35.1962722 88.0013403,35.1495621 L88.0013403,35 L86,35 L86,35.1495621 C86.2429458,35.1962722 86.3031885,35.2631934 86.3031885,35.4814732 L86.3031885,40.5221199 C86.3031885,40.7403997 86.2429458,40.7960925 86,40.8535819 L86,41 L88.0013403,41 L88.0013403,40.8535819 C87.7470372,40.7960925 87.697658,40.7403997 87.697658,40.5221199" id="Fill-12" fill="#FFFFFE"></path>
                    <path d="M105.511847,40.5510316 L101.617449,40.5510316 L101.617449,38.8854352 L104.057273,38.8854352 C104.275694,38.8854352 104.346305,38.9303867 104.391025,39.1766635 L104.544955,39.1766635 L104.544955,37.5560186 L104.391025,37.5560186 C104.335007,37.8252494 104.275694,37.8472469 104.057273,37.8472469 L101.617449,37.8472469 L101.617449,36.4360568 L105.442649,36.4360568 C105.662482,36.4360568 105.733563,36.4977456 105.780166,36.743066 L105.928919,36.743066 L105.928919,35 L105.780166,35 C105.722737,35.2701872 105.662482,35.3050963 105.442649,35.3050963 L100,35.3050963 L100,35.4643394 C100.229248,35.514073 100.28762,35.5853259 100.28762,35.8177347 L100.28762,41.1846564 C100.28762,41.4170652 100.229248,41.4763629 100,41.5375734 L100,41.6934691 L105.511847,41.6934691 C105.733563,41.6934691 105.801349,41.7561142 105.850306,42 L106,42 L106,40.2602815 L105.850306,40.2602815 C105.791935,40.5295122 105.733563,40.5510316 105.511847,40.5510316" id="Fill-13" fill="#FFFFFE"></path>
                    <path d="M113.480224,36.5018218 L115.334913,36.5018218 L115.334913,41.467886 C115.334913,41.7109381 115.276634,41.7729513 115.049577,41.8369651 L115.049577,42 L116.927112,42 L116.927112,41.8369651 C116.685135,41.7729513 116.649701,41.7109381 116.649701,41.467886 L116.649701,36.5018218 L118.516513,36.5018218 C118.73611,36.5018218 118.804181,36.5663356 118.850804,36.8228906 L119,36.8228906 L119,35 L118.850804,35 C118.79439,35.2825605 118.73611,35.3190684 118.516513,35.3190684 L113.480224,35.3190684 C113.262025,35.3190684 113.193488,35.2550547 113.149196,35 L113,35 L113,36.8063871 L113.149196,36.8063871 C113.207009,36.5413303 113.262025,36.5018218 113.480224,36.5018218" id="Fill-14" fill="#FFFFFE"></path>
                    <path d="M127,40.4436942 L127.185577,40.4998911 C127.216817,40.409279 127.254119,40.3783489 127.33152,40.3783489 C127.529686,40.3783489 128.317687,41 129.999067,41 C131.829189,41 133,40.1352646 133,39.0705729 C133,38.1400566 132.233447,37.5192768 130.770283,37.3415378 C129.301523,37.1651056 128.410009,37.3528643 128.410009,36.7120453 C128.410009,36.3082117 128.934566,35.9871488 129.873174,35.9871488 C130.984302,35.9871488 131.994249,36.5338706 131.994249,36.8296667 C131.994249,36.853191 131.994249,36.8636463 131.979795,36.8876062 L132.175629,36.9873666 L132.909077,35.6116315 L132.770127,35.5454149 C132.682002,35.6116315 132.610196,35.6551949 132.552844,35.6551949 C132.327168,35.6551949 131.353124,35 129.907678,35 C128.189929,35 127.114237,35.7998257 127.114237,36.9185363 C127.114237,37.8839033 127.826702,38.4049227 129.258626,38.5264648 C130.626671,38.6484426 131.640348,38.4811588 131.640348,39.1925506 C131.640348,39.622958 131.020671,39.9788717 130.045228,39.9788717 C128.887939,39.9788717 127.799658,39.4918318 127.799658,39.2487475 C127.799658,39.2143324 127.811315,39.182531 127.826702,39.1363537 L127.642058,39.0583751 L127,40.4436942" id="Fill-15" fill="#FFFFFE"></path>
                    <path d="M90.499785,63 C80.6795964,63 72.6451313,55.56905 72,46 L77.4113613,46 C77.4113613,53.2192016 83.272164,59.5119505 90.499785,59.5119505 C97.7265457,59.5119505 103.652722,53.2192016 103.652722,46 L109,46 C108.356589,55.5716271 100.319113,63 90.499785,63" id="Fill-16" fill="#7A7080"></path>
                    <path d="M73.4819847,59.8022991 C74.9254264,59.8022991 76.3164419,59.5695048 77.6180748,59.1374179 L81,61.4232693 C78.7031271,62.4356241 76.1587333,63 73.4819847,63 C63.6709639,63 55.6424369,55.56905 55,46 L60.2727092,46 C60.2727092,53.2192016 66.2609084,59.8022991 73.4819847,59.8022991" id="Fill-17" fill="#7A7080"></path>
                </g>
            </g>
        </g>
    </g>
</svg>