<?xml version="1.0" encoding="UTF-8"?><svg id="Isolation_Mode" xmlns="http://www.w3.org/2000/svg" viewBox="0 0 800 800"><defs><style>.cls-1{fill:#3077b8;stroke-width:0px;}</style></defs><path class="cls-1" d="M226.23,481.07h58.29v-14.47h-42.24v-17h36.75v-14.47h-36.75v-16.47h41.71v-14.47h-57.77v76.88ZM300.68,481.07h16.16v-30.1h37.17v-14.78h-37.17v-17.21h42.03v-14.78h-58.19v76.88ZM405.49,482.23c20.59,0,33.58-11.4,33.58-34.64v-43.4h-16.16v44.14c0,12.57-6.55,19.01-17.21,19.01s-17.11-6.76-17.11-19.64v-43.51h-16.26v44.04c0,22.49,12.67,34,33.16,34M457.44,481.07h15.95v-50.06l38.23,50.06h13.83v-76.88h-16.05v48.47l-37.07-48.47h-14.89v76.88ZM545.1,481.07h29.67c24.18,0,40.87-16.79,40.87-38.44v-.21c0-21.65-16.68-38.23-40.87-38.23h-29.67v76.88ZM574.77,418.87c14.26,0,23.87,9.82,23.87,23.76v.21c0,13.94-9.61,23.55-23.87,23.55h-13.52v-47.52h13.52ZM631.83,481.07h58.29v-14.47h-42.24v-17h36.75v-14.47h-36.75v-16.47h41.72v-14.47h-57.77v76.88ZM722.44,441.68v-22.81h17.42c8.55,0,13.83,3.91,13.83,11.3v.21c0,6.76-5.07,11.3-13.52,11.3h-17.74ZM706.29,481.07h16.16v-25.03h14.04l17,25.03h19.01l-19.22-27.77c9.93-3.49,16.79-11.3,16.79-23.76v-.21c0-7.08-2.22-13.1-6.44-17.32-5.07-5.07-12.67-7.82-22.39-7.82h-34.95v76.88Z"/><path class="cls-1" d="M92.59,494.38c-5.77,0-10.9-3.42-13.12-8.77l-24.01-58.04-7.67,16.61-20.29-9.36,15.46-33.51c2.37-5.12,7.46-8.32,13.18-8.25,5.64.11,10.68,3.55,12.84,8.76l23.2,56.07,27.41-73.79c1.98-5.35,6.95-8.97,12.65-9.24,5.69-.32,10.98,2.88,13.46,8.02l28.17,58.32,37.35-135.57,21.54,5.94-43.1,156.46c-1.59,5.77-6.46,9.84-12.41,10.38-5.93.52-11.47-2.59-14.07-7.97l-29.29-60.63-27.98,75.32c-2.04,5.51-7.17,9.15-13.05,9.26h-.27ZM84.96,477.34s0,0,0,0h0Z"/></svg>
