<?xml version="1.0" encoding="UTF-8"?>
<svg width="196px" height="36px" viewBox="0 0 196 36" version="1.1" xmlns="http://www.w3.org/2000/svg" xmlns:xlink="http://www.w3.org/1999/xlink">
    <!-- Generator: Sketch 46.2 (44496) - http://www.bohemiancoding.com/sketch -->
    <title>Zagster</title>
    <desc>Created with Sketch.</desc>
    <defs></defs>
    <g id="Site" stroke="none" stroke-width="1" fill="none" fill-rule="evenodd">
        <g id="Index-v2" transform="translate(-195.000000, -1216.000000)" fill-rule="nonzero" fill="#7A7080">
            <g id="Client-Block" transform="translate(188.000000, 1207.000000)">
                <g id="Zagster" transform="translate(7.000000, 9.000000)">
                    <path d="M41.0374532,10.9433962 C41.0374532,7.69811321 43.2097378,5.05660377 45.8689139,5.05660377 L58.5280899,5.05660377 C58.7153558,5.05660377 58.9026217,5.05660377 59.0524345,5.09433962 L41,28 L70.9625468,28 L70.9625468,17.0566038 C70.9625468,20.3018868 68.7902622,22.9433962 66.1310861,22.9433962 L53.4719101,22.9433962 C53.2846442,22.9433962 53.0973783,22.9433962 52.9475655,22.9056604 L71,0 L41.0374532,0 L41.0374532,10.9433962 L41.0374532,10.9433962 Z" id="Shape"></path>
                    <path d="M17.4386694,5 L4.82744283,5 C2.17047817,5 0,7.64367816 0,10.8916256 L0,25.998358 L0,28 L18,5.03776683 C17.8128898,5 17.6257796,5 17.4386694,5" id="Shape"></path>
                    <path d="M12,22.9621711 C12.1871102,23 12.3742204,23 12.5239085,23 L25.1725572,23 C27.8295218,23 30,20.4276316 30,17.2121711 L30,3.25328947 L30,0 L12,22.9621711 Z" id="Shape"></path>
                    <polygon id="Shape" points="192.836364 2.72857143 192.290909 2.72857143 192.290909 2.38571429 193.745455 2.38571429 193.745455 2.72857143 193.2 2.72857143 193.2 4.57142857 192.872727 4.57142857 192.872727 2.72857143"></polygon>
                    <polygon id="Shape" points="193.963636 2.38571429 194.327273 2.38571429 194.872727 3.84285714 194.945455 4.1 194.945455 4.1 195.018182 3.84285714 195.527273 2.38571429 195.890909 2.38571429 195.890909 4.57142857 195.636364 4.57142857 195.636364 3.15714286 195.6 3.15714286 195.563636 3.37142857 195.127273 4.61428571 194.872727 4.61428571 194.4 3.37142857 194.363636 3.15714286 194.327273 3.15714286 194.327273 4.61428571 194 4.61428571 194 2.38571429"></polygon>
                    <path d="M73,16.4817814 C73,10.6912638 77.6683168,5.9635628 83.8547855,6.00021165 C86.1320132,6.00021165 88.2194719,6.73318855 89.8894389,8.3090889 L90.1551155,8.3090889 L90.1551155,6.65989086 L95.3547855,6.65989086 L95.3547855,17.6178956 C95.3547855,20.6231009 95.5825083,23.5550085 96,26.3769696 L91.3316832,26.7068092 L90.9521452,24.3246343 L90.7244224,24.3246343 C88.9405941,26.0837789 86.4356436,27 83.7788779,27 C77.630363,26.9633512 73,22.272299 73,16.4817814 Z M84.1963696,22.6754363 C87.4983498,22.6754363 90.1551155,19.9267729 90.1551155,16.4817814 C90.1551155,13.0367899 87.4983498,10.2514777 84.2343234,10.2514777 C80.9323432,10.2514777 78.2755776,13.0367899 78.2755776,16.4817814 C78.2755776,19.9267729 80.9323432,22.6754363 84.1963696,22.6754363 Z" id="Shape"></path>
                    <path d="M99,16.6034483 C99,10.729064 103.501645,6 109.667763,6 C112.694079,6 114.925987,6.88669951 116.666118,8.73399015 L116.893092,8.73399015 L117.347039,6.33251232 L122,6.66502463 L122,6.70197044 C121.508224,9.58374384 121.28125,12.5394089 121.28125,15.6059113 L121.28125,24.5098522 C121.28125,32.1206897 116.363487,36 108.759868,36 C105.355263,36 101.799342,34.4852217 99.4539474,31.7142857 L103.463816,29.3128079 C104.598684,30.7167488 106.754934,31.6403941 108.722039,31.6403941 C113.375,31.6403941 116.098684,29.682266 116.098684,24.9162562 L115.796053,24.9162562 C114.09375,26.4310345 112.164474,27.2068966 109.629934,27.2068966 C103.463816,27.2438424 99,22.4778325 99,16.6034483 Z M110.197368,22.9211823 C113.488487,22.9211823 116.136513,20.1133005 116.136513,16.6403941 C116.136513,13.1674877 113.488487,10.3596059 110.235197,10.3596059 C106.944079,10.3596059 104.296053,13.1305419 104.296053,16.6034483 C104.258224,20.0763547 106.90625,22.9211823 110.197368,22.9211823 Z" id="Shape"></path>
                    <path d="M128.167742,21.4305556 C128.752688,23.0729167 130.617204,23.6840278 132.116129,23.6840278 C133.578495,23.6840278 136.174194,23.1493056 136.174194,21.2013889 C136.174194,19.9027778 134.309677,19.4826389 133.395699,19.2534722 L131.055914,18.6041667 C128.058065,17.7638889 125.71828,15.8541667 125.71828,12.1111111 C125.71828,7.68055556 129.630108,6 133.468817,6 C136.210753,6 138.843011,7.10763889 140.378495,9.39930556 L136.283871,11.8819444 C135.91828,10.9270833 134.382796,10.3541667 133.468817,10.3541667 C132.48172,10.3541667 130.617204,10.6979167 130.617204,12.1111111 C130.617204,13.1041667 131.64086,13.4097222 132.48172,13.6770833 L134.748387,14.2118056 C137.929032,14.9756944 141,16.8090278 141,21.0868056 C141,25.8993056 136.503226,28 132.07957,28 C129.045161,28 125.572043,26.8541667 124,23.9513889 L128.167742,21.4305556 Z" id="Shape"></path>
                    <path d="M149.845878,20.3122476 C149.845878,22.2341857 151.243728,23.5154778 152.928315,23.5531629 L152.928315,28 C148.698925,28 144.899642,24.7590848 144.935484,19.6339166 L144.935484,11.3432032 L143,11.3432032 L143,6.89636608 L144.935484,6.89636608 L144.935484,0 L149.845878,0 L149.845878,6.89636608 L153,6.89636608 L153,11.3432032 L149.845878,11.3432032 L149.845878,20.3122476 Z" id="Shape"></path>
                    <path d="M156.00021,16.5181544 C156.00021,10.7112567 160.951093,6 167.018717,6 C173.086341,6 178,10.7112567 178,16.5546758 C178,17.1024963 177.962775,17.6137955 177.888326,18.161616 L161.360565,18.1250947 C161.807261,20.7911546 164.264091,22.7633086 167.465414,22.7633086 C169.773344,22.7267872 171.48568,21.8867957 172.751319,20.3528982 L176.80881,23.0189582 C174.649778,25.6850182 171.374006,26.9997875 167.316515,26.9997875 C160.876644,27.0363088 155.962985,22.3615735 156.00021,16.5181544 Z M172.341848,14.0712227 C171.597354,11.8799405 169.363873,10.3095216 166.981493,10.3095216 C164.599113,10.3095216 162.365632,11.8799405 161.658362,14.0712227 L172.341848,14.0712227 Z" id="Shape"></path>
                    <path d="M186.388514,8.92173913 C187.800676,7.35130435 189.881757,6.03652174 192,6 L192,11.0765217 C188.72973,11.0765217 186.722973,13.9982609 186.722973,17.4678261 L186.722973,27 L181.631757,27 L181.631757,15.7147826 C181.631757,12.6469565 181.371622,10.1634783 181,7.13217391 L185.682432,6.25565217 L186.128378,8.92173913 L186.388514,8.92173913 Z" id="Shape"></path>
                </g>
            </g>
        </g>
    </g>
</svg>